<svg width="32" height="32" viewBox="0 0 32 32" fill="none" xmlns="http://www.w3.org/2000/svg">
<path d="M11.0962 18.6197H25.2676C25.5025 18.6197 25.7278 18.5264 25.8939 18.3603C26.06 18.1942 26.1533 17.9689 26.1533 17.734V6.2197C26.1533 5.98479 26.06 5.75951 25.8939 5.5934C25.7278 5.4273 25.5025 5.33398 25.2676 5.33398H12.8676" stroke="#445B74" stroke-width="2" stroke-linecap="round" stroke-linejoin="round"/>
<path d="M11.0962 18.6211L13.7533 21.2782" stroke="#445B74" stroke-width="2" stroke-linecap="round" stroke-linejoin="round"/>
<path d="M21.7236 12.7148H7.55222C7.31731 12.7148 7.09203 12.8082 6.92592 12.9743C6.75982 13.1404 6.6665 13.3657 6.6665 13.6006V25.1148C6.6665 25.3497 6.75982 25.575 6.92592 25.7411C7.09203 25.9072 7.31731 26.0006 7.55222 26.0006H19.9522" stroke="#1AC486" stroke-width="2" stroke-linecap="round" stroke-linejoin="round"/>
<path d="M21.7245 12.7157L19.0674 10.0586" stroke="#1AC486" stroke-width="2" stroke-linecap="round" stroke-linejoin="round"/>
</svg>
