<svg width="23" height="23" viewBox="0 0 23 23" fill="none" xmlns="http://www.w3.org/2000/svg">
<path d="M22.3562 8.51056C22.2165 7.95019 22.0419 7.42485 21.7974 6.89951C21.7624 6.79444 21.6925 6.65435 21.6576 6.54928C21.5528 6.33914 21.448 6.129 21.3432 5.91887C19.946 3.3622 17.5706 1.36589 14.7412 0.49032C14.5316 0.420275 14.322 0.385252 14.1124 0.315206C14.1124 0.315206 14.1124 0.315206 14.0774 0.315206C13.3439 0.210137 12.6452 0.105069 11.9117 0C11.772 0 11.5973 0 11.4576 0H11.3528C10.724 0 10.0952 0.0700458 9.46647 0.140092C9.01235 0.210137 8.55825 0.315206 8.13907 0.455297C7.99934 0.49032 7.89455 0.525343 7.75483 0.560366C7.37058 0.700458 7.02125 0.840549 6.67193 0.980641C5.93837 1.29585 5.23974 1.71612 4.57604 2.20644C3.59795 2.94192 2.75961 3.81749 2.06098 4.83316C1.95618 4.97325 1.8863 5.07832 1.78151 5.21841C0.663693 7.00458 0 9.10595 0 11.3824C0 12.258 0.104791 13.0986 0.279449 13.9041C0.349312 14.2543 0.454103 14.5695 0.558898 14.8847C0.803419 15.6552 1.11782 16.3907 1.537 17.0561C1.57193 17.0912 1.57192 17.1262 1.60685 17.1612C2.09589 18.0018 2.68973 18.7372 3.35343 19.4027C4.89042 20.9437 6.88152 22.0644 9.11715 22.5197C9.53633 22.5898 9.95552 22.6248 10.3747 22.6948C10.724 22.7298 11.0384 22.7298 11.3877 22.7298C11.8069 22.7298 12.2261 22.6948 12.6103 22.6598C12.75 22.6598 12.8898 22.6248 12.9946 22.6248C13.5185 22.5547 14.0076 22.4497 14.4617 22.3096C15.0905 22.1345 15.6843 21.8893 16.2781 21.6091C17.0816 21.2239 17.8501 20.7335 18.5487 20.1732C18.898 19.893 19.2124 19.5778 19.5268 19.2626C19.8062 18.9474 20.0857 18.6322 20.3302 18.317C21.0289 17.4414 21.5878 16.4257 21.972 15.375C22.4611 14.1142 22.7056 12.7833 22.7056 11.3474C22.7405 10.4018 22.6008 9.42115 22.3562 8.51056Z" fill="#FAFF14"/>
</svg>
