<svg width="2127" height="697" viewBox="0 0 2127 697" fill="none" xmlns="http://www.w3.org/2000/svg">
<path d="M2126.46 77.8922C2097.62 32.4437 2026.59 18.6525 1968.55 31.8168C1910.87 44.9812 1862.2 78.2056 1814.25 109.236C1765.94 139.953 1713.3 169.729 1653.46 173.491C1584.6 177.879 1518.99 146.848 1450.13 145.595C1362.16 144.027 1278.52 190.73 1191.28 181.013C1064.01 166.908 989.025 42.4737 866.449 8.93593C751.805 -22.4078 631.753 34.3244 531.529 91.9968C431.305 149.669 320.266 213.924 201.656 198.566C111.526 186.968 23.0731 125.221 0 48.429V668.619H2126.46V77.8922Z" fill="#10BE98"/>
<path d="M1 221.787C32.8773 142.419 100.617 89.0893 196.611 101.951C266.524 111.362 326.656 150.262 394.395 167.829C522.991 201.082 658.832 154.026 785.255 114.499C911.677 74.6588 1058.75 43.2882 1174.67 102.265C1242.04 136.459 1295.65 200.141 1373.9 202.337C1425.7 203.906 1473.52 176.613 1525.68 173.79C1590.52 170.339 1648.48 205.16 1708.25 227.12C1844.81 276.685 2011.81 256.295 2127 175.986V678.119H1V221.787Z" fill="#1CCD91"/>
<path d="M2126 290.119C2026.85 242.222 1875.89 229.326 1764.44 251.24C1680.57 267.518 1600.43 303.52 1514.7 299.137C1433.82 294.754 1363 254.996 1292.92 221.186C1222.85 187.063 1141.96 156.697 1063.31 173.289C979.074 190.82 920.926 257.501 839.669 283.171C754.311 310.094 658.516 287.241 575.395 256.248C492.273 225.256 411.016 185.185 320.44 176.106C195.198 163.897 63.9933 218.995 1 310.72V641.619H2126V290.119Z" fill="#28DD8A"/>
<path d="M0 341.966C74.7903 378.596 181.313 372.021 264.076 348.853C346.839 325.685 422.009 287.803 504.012 263.695C586.016 239.588 680.927 230.196 757.996 264.008C829.369 295.316 878.344 360.437 957.31 374.839C1019.95 386.423 1084.11 362.316 1138.4 333.826C1192.69 305.335 1245.08 271.209 1308.1 259.938C1381.75 246.476 1458.06 266.2 1527.16 291.246C1596.25 315.98 1663.83 346.349 1738.62 355.741C1808.1 364.508 1878.71 354.176 1948.57 357.62C2018.42 361.064 2094.35 382.666 2127 434.012V697H0V341.966Z" fill="white"/>
</svg>
