<svg width="186" height="30" viewBox="0 0 186 30" fill="none" xmlns="http://www.w3.org/2000/svg">
<path d="M19.9967 10.0032H29.9999V0.794062C29.9999 0.358296 29.6417 0 29.2059 0H19.9967V10.0032Z" fill="#0AC18E"/>
<path d="M20.0065 0H10.0033V10.0032H20.0065V0Z" fill="#0F6E5A"/>
<path d="M0.116204 10.0032H9.87735C9.94514 10.0032 9.99356 9.95483 9.99356 9.88704V0.116204C9.99356 0.0484184 9.94514 0 9.87735 0H0.861848C0.387347 0 0 0.387347 0 0.861848V9.87736C0 9.94514 0.0484184 10.0032 0.116204 10.0032Z" fill="#144442"/>
<path d="M29.9999 10.0039H19.9967V20.0071H29.9999V10.0039Z" fill="#0D6B58"/>
<path d="M20.0065 10.0039H10.0033V20.0071H20.0065V10.0039Z" fill="#0AC18E"/>
<path d="M10.0032 10.0039H0V20.0071H10.0032V10.0039Z" fill="#0F6E5A"/>
<path d="M19.9967 29.9993H29.1575C29.6223 29.9993 29.9999 29.6217 29.9999 29.1569V19.9961H19.9967V29.9993Z" fill="#0F3F3E"/>
<path d="M20.0065 19.9961H10.0033V29.9993H20.0065V19.9961Z" fill="#0F6E5A"/>
<path d="M0.803746 29.9993H10.0032V19.9961H0V29.1956C0 29.641 0.358296 29.9993 0.803746 29.9993Z" fill="#0AC18E"/>
<path d="M53.8155 6.29517C54.954 7.15797 55.5292 8.33234 55.5292 9.81827C55.5292 10.8848 55.2655 11.7835 54.7263 12.5025C54.187 13.2215 53.3722 13.7847 52.2697 14.1802V14.2281C53.5519 14.5037 54.4866 15.007 55.0858 15.7141C55.6849 16.4211 55.9845 17.3797 55.9845 18.59C55.9845 20.1718 55.3973 21.4181 54.211 22.3408C53.0246 23.2635 51.3949 23.7189 49.3098 23.7189H42V5.00098H48.7226C50.9755 5.00098 52.6771 5.43238 53.8155 6.29517ZM45.8586 12.7062H48.5908C49.7173 12.7062 50.5321 12.5265 51.0474 12.155C51.5627 11.7835 51.8263 11.1963 51.8263 10.3935C51.8263 9.62653 51.5866 9.05133 51.1073 8.70382C50.628 8.34432 49.8491 8.16457 48.7826 8.16457H45.8706V12.7062H45.8586ZM45.8586 20.5313H48.7226C49.897 20.5313 50.7478 20.3396 51.2751 19.9681C51.8023 19.5966 52.066 18.9975 52.066 18.1946C52.066 17.3318 51.8023 16.7087 51.2631 16.3252C50.7239 15.9417 49.8491 15.75 48.6268 15.75H45.8706V20.5313H45.8586Z" fill="white"/>
<path d="M58.7047 8.15161V5H62.3836V8.15161H58.7047ZM58.7047 23.7179V10.3685H62.3836V23.7179H58.7047Z" fill="white"/>
<path d="M72.905 20.8299V23.646C72.3418 23.8257 71.6947 23.9096 70.9637 23.9096C69.4179 23.9096 68.3034 23.5741 67.5964 22.903C66.8894 22.2319 66.5419 21.1175 66.5419 19.5836V13.1126H64.3849V10.3804H66.5419V6.90527H70.2208V10.3804H72.7732V13.1126H70.2208V18.9245C70.2208 19.6555 70.3526 20.1828 70.6162 20.5063C70.8798 20.8179 71.3232 20.9737 71.9583 20.9737C72.3298 20.9617 72.6414 20.9138 72.905 20.8299Z" fill="white"/>
<path d="M83.9775 10.6202C84.9002 11.0756 85.6312 11.7107 86.1824 12.5376C86.7337 13.3644 87.0572 14.2871 87.1411 15.3297H83.3064C83.2345 14.5388 82.9829 13.9157 82.5275 13.4603C82.0841 13.0049 81.5089 12.7772 80.8019 12.7772C79.9032 12.7772 79.2081 13.1607 78.7048 13.9157C78.2015 14.6826 77.9379 15.7132 77.9379 17.0313C77.9379 18.3495 78.1896 19.38 78.7048 20.147C79.2081 20.9139 79.9152 21.2854 80.8019 21.2854C81.497 21.2854 82.0721 21.0337 82.5275 20.5304C82.9709 20.0271 83.2226 19.3441 83.2825 18.4693H87.1411C86.9973 20.1709 86.3622 21.537 85.2238 22.5676C84.0853 23.5982 82.6234 24.1135 80.8379 24.1135C79.4838 24.1135 78.3094 23.8139 77.2908 23.2387C76.2722 22.6515 75.4933 21.8246 74.9421 20.7581C74.3908 19.6916 74.1152 18.4453 74.1152 17.0313C74.1152 15.6173 74.3908 14.371 74.9421 13.3045C75.4933 12.238 76.2842 11.4111 77.2908 10.824C78.3094 10.2368 79.4957 9.94918 80.8379 9.94918C82.0122 9.9372 83.0668 10.1649 83.9775 10.6202Z" fill="white"/>
<path d="M99.4959 10.8119C100.526 11.3871 101.317 12.2139 101.881 13.2804C102.444 14.347 102.719 15.6052 102.719 17.0432C102.719 18.4812 102.444 19.7275 101.881 20.806C101.317 21.8725 100.526 22.6993 99.4959 23.2745C98.4653 23.8497 97.267 24.1373 95.8769 24.1373C94.4868 24.1373 93.2885 23.8497 92.2579 23.2745C91.2274 22.6993 90.4365 21.8725 89.8733 20.806C89.31 19.7394 89.0344 18.4812 89.0344 17.0432C89.0344 15.6052 89.31 14.3589 89.8733 13.2804C90.4365 12.2139 91.2274 11.3871 92.2579 10.8119C93.2885 10.2367 94.4868 9.94908 95.8769 9.94908C97.267 9.93709 98.4653 10.2367 99.4959 10.8119ZM93.7079 13.9395C93.1687 14.7064 92.905 15.749 92.905 17.0432C92.905 18.3374 93.1687 19.3799 93.7079 20.1469C94.2472 20.9138 94.9662 21.3093 95.8769 21.3093C96.7876 21.3093 97.5066 20.9258 98.0459 20.1469C98.5851 19.3799 98.8487 18.3374 98.8487 17.0432C98.8487 15.749 98.5851 14.7184 98.0459 13.9395C97.5066 13.1726 96.7876 12.7771 95.8769 12.7771C94.9662 12.7771 94.2472 13.1726 93.7079 13.9395Z" fill="white"/>
<path d="M105.416 8.15161V5H109.095V8.15161H105.416ZM105.416 23.7179V10.3685H109.095V23.7179H105.416Z" fill="white"/>
<path d="M123.69 11.4585C124.565 12.3932 125.008 13.7473 125.008 15.5208V23.7174H121.33V15.8803C121.33 14.8977 121.126 14.1667 120.706 13.6754C120.299 13.1841 119.724 12.9444 118.981 12.9444C118.19 12.9444 117.555 13.256 117.075 13.8791C116.596 14.5022 116.356 15.401 116.356 16.5753V23.7174H112.678V10.368H116.117V12.0456H116.165C116.62 11.4345 117.183 10.9432 117.842 10.5837C118.513 10.2242 119.256 10.0444 120.071 10.0444C121.617 10.0444 122.815 10.5118 123.69 11.4585Z" fill="white"/>
<path d="M128.028 23.7179V19.332H132.079V23.7179H128.028Z" fill="white"/>
<path d="M144.23 10.6202C145.152 11.0756 145.883 11.7107 146.435 12.5376C146.986 13.3644 147.309 14.2871 147.393 15.3297H143.559C143.487 14.5388 143.235 13.9157 142.78 13.4603C142.336 13.0049 141.761 12.7772 141.054 12.7772C140.155 12.7772 139.46 13.1607 138.957 13.9157C138.454 14.6826 138.19 15.7132 138.19 17.0313C138.19 18.3495 138.442 19.38 138.957 20.147C139.46 20.9139 140.167 21.2854 141.054 21.2854C141.749 21.2854 142.324 21.0337 142.78 20.5304C143.223 20.0271 143.475 19.3441 143.535 18.4693H147.393C147.249 20.1709 146.614 21.537 145.476 22.5676C144.337 23.5982 142.875 24.1135 141.09 24.1135C139.736 24.1135 138.561 23.8139 137.543 23.2387C136.524 22.6515 135.745 21.8246 135.194 20.7581C134.643 19.6916 134.367 18.4453 134.367 17.0313C134.367 15.6173 134.643 14.371 135.194 13.3045C135.745 12.238 136.536 11.4111 137.543 10.824C138.561 10.2368 139.748 9.94918 141.09 9.94918C142.264 9.9372 143.307 10.1649 144.23 10.6202Z" fill="white"/>
<path d="M159.736 10.8119C160.767 11.3871 161.558 12.2139 162.121 13.2804C162.684 14.347 162.96 15.6052 162.96 17.0432C162.96 18.4812 162.684 19.7275 162.121 20.806C161.558 21.8725 160.767 22.6993 159.736 23.2745C158.706 23.8497 157.507 24.1373 156.117 24.1373C154.727 24.1373 153.529 23.8497 152.498 23.2745C151.468 22.6993 150.677 21.8725 150.114 20.806C149.55 19.7394 149.275 18.4812 149.275 17.0432C149.275 15.6052 149.55 14.3589 150.114 13.2804C150.677 12.2139 151.468 11.3871 152.498 10.8119C153.529 10.2367 154.727 9.94908 156.117 9.94908C157.507 9.93709 158.718 10.2367 159.736 10.8119ZM153.96 13.9395C153.421 14.7064 153.157 15.749 153.157 17.0432C153.157 18.3374 153.421 19.3799 153.96 20.1469C154.5 20.9138 155.219 21.3093 156.129 21.3093C157.04 21.3093 157.759 20.9258 158.298 20.1469C158.837 19.3799 159.101 18.3374 159.101 17.0432C159.101 15.749 158.837 14.7184 158.298 13.9395C157.759 13.1726 157.04 12.7771 156.129 12.7771C155.219 12.7771 154.488 13.1726 153.96 13.9395Z" fill="white"/>
<path d="M184.553 11.4354C185.38 12.3701 185.8 13.7242 185.8 15.5098V23.7183H182.121V15.8812C182.121 14.8986 181.941 14.1676 181.57 13.6763C181.198 13.185 180.683 12.9453 180.024 12.9453C179.233 12.9453 178.634 13.2809 178.214 13.9519C177.795 14.623 177.579 15.5936 177.579 16.8519V23.7183H173.9V15.6536C173.9 14.7908 173.721 14.1317 173.361 13.6523C173.002 13.185 172.486 12.9453 171.791 12.9453C171 12.9453 170.401 13.2809 169.982 13.9519C169.562 14.623 169.347 15.5936 169.347 16.8519V23.7183H165.668V10.3689H169.143V11.8908H169.191C169.682 11.2557 170.221 10.8003 170.821 10.5007C171.42 10.2012 172.103 10.0574 172.894 10.0574C173.816 10.0574 174.619 10.2491 175.302 10.6326C175.973 11.016 176.501 11.5912 176.872 12.3462C177.399 11.5912 177.999 11.028 178.658 10.6326C179.329 10.2491 180.144 10.0574 181.126 10.0574C182.576 10.0454 183.727 10.5127 184.553 11.4354Z" fill="white"/>
</svg>
