<svg width="157" height="129" viewBox="0 0 157 129" fill="none" xmlns="http://www.w3.org/2000/svg">
<g filter="url(#filter0_f)">
<path d="M116.151 74.3224C116.012 73.7621 115.837 73.2367 115.592 72.7114C115.558 72.6063 115.488 72.4662 115.453 72.3611C115.348 72.151 115.243 71.9409 115.138 71.7307C114.475 70.54 113.636 69.4893 112.623 68.6137C111.925 68.1234 111.261 67.6331 110.562 67.1778C93.795 55.6202 75.1414 46.5843 55.1953 40.6304C54.8111 40.5253 54.4268 40.4203 54.0426 40.2802C53.4488 40.1401 52.82 40.035 52.1912 40C52.1213 40 52.0515 40 51.9467 40C51.807 40 51.6672 40 51.4926 40H51.3878C50.759 40 50.1302 40.07 49.5015 40.1401C49.0473 40.2101 48.5932 40.3152 48.1741 40.4553C48.0343 40.4903 47.9295 40.5253 47.7898 40.5604C47.4055 40.7005 47.0562 40.8405 46.672 40.9806C45.9384 41.3309 45.2398 41.7161 44.5761 42.2064C43.598 42.9419 42.7596 43.8175 42.061 44.8332C41.9562 44.9732 41.8863 45.0783 41.7815 45.2184C40.6637 47.0046 40 49.1059 40 51.3824C40 52.258 40.1048 53.0986 40.2795 53.9041C40.3493 54.2543 40.4541 54.5695 40.5589 54.8847C40.8034 55.6552 41.1178 56.3907 41.537 57.0561C41.5719 57.0912 41.5719 57.1262 41.6069 57.1612C42.0959 57.9667 42.6897 58.7372 43.3534 59.4027C44.4363 60.4884 45.7288 61.364 47.1959 61.9243C47.8596 62.0994 48.5234 62.3096 49.1521 62.5197C67.0372 67.9132 83.6997 76.1086 98.6505 86.5454C98.6855 86.5804 98.7553 86.6155 98.7902 86.6505C100.607 87.8763 102.772 88.5767 105.113 88.5767C105.532 88.5767 105.951 88.5417 106.336 88.5067C106.475 88.5067 106.615 88.4717 106.72 88.4717C107.244 88.4016 107.733 88.2966 108.187 88.1565C108.816 87.9813 109.41 87.7362 110.003 87.456C110.807 87.0708 111.575 86.5804 112.274 86.0201C112.623 85.7399 112.938 85.4247 113.252 85.1095C113.531 84.7943 113.811 84.4791 114.055 84.1639C114.754 83.2883 115.313 82.2726 115.697 81.2219C116.186 79.9611 116.431 78.6302 116.431 77.1943C116.536 76.2137 116.396 75.233 116.151 74.3224Z" fill="#FFA53C"/>
</g>
<defs>
<filter id="filter0_f" x="0" y="0" width="156.466" height="128.577" filterUnits="userSpaceOnUse" color-interpolation-filters="sRGB">
<feFlood flood-opacity="0" result="BackgroundImageFix"/>
<feBlend mode="normal" in="SourceGraphic" in2="BackgroundImageFix" result="shape"/>
<feGaussianBlur stdDeviation="20" result="effect1_foregroundBlur"/>
</filter>
</defs>
</svg>
