<svg width="83" height="83" viewBox="0 0 83 83" fill="none" xmlns="http://www.w3.org/2000/svg">
<g filter="url(#filter0_f)">
<path d="M52.3562 38.5106C52.2165 37.9502 52.0419 37.4249 51.7974 36.8995C51.7624 36.7944 51.6925 36.6543 51.6576 36.5493C51.5528 36.3391 51.448 36.129 51.3432 35.9189C49.946 33.3622 47.5706 31.3659 44.7412 30.4903C44.5316 30.4203 44.322 30.3853 44.1124 30.3152C44.1124 30.3152 44.1124 30.3152 44.0774 30.3152C43.3439 30.2101 42.6452 30.1051 41.9117 30C41.772 30 41.5973 30 41.4576 30H41.3528C40.724 30 40.0952 30.07 39.4665 30.1401C39.0124 30.2101 38.5582 30.3152 38.1391 30.4553C37.9993 30.4903 37.8946 30.5253 37.7548 30.5604C37.3706 30.7005 37.0213 30.8405 36.6719 30.9806C35.9384 31.2958 35.2397 31.7161 34.576 32.2064C33.598 32.9419 32.7596 33.8175 32.061 34.8332C31.9562 34.9732 31.8863 35.0783 31.7815 35.2184C30.6637 37.0046 30 39.1059 30 41.3824C30 42.258 30.1048 43.0986 30.2794 43.9041C30.3493 44.2543 30.4541 44.5695 30.5589 44.8847C30.8034 45.6552 31.1178 46.3907 31.537 47.0561C31.5719 47.0912 31.5719 47.1262 31.6068 47.1612C32.0959 48.0018 32.6897 48.7372 33.3534 49.4027C34.8904 50.9437 36.8815 52.0644 39.1171 52.5197C39.5363 52.5898 39.9555 52.6248 40.3747 52.6948C40.724 52.7298 41.0384 52.7298 41.3877 52.7298C41.8069 52.7298 42.2261 52.6948 42.6103 52.6598C42.75 52.6598 42.8898 52.6248 42.9946 52.6248C43.5185 52.5547 44.0076 52.4497 44.4617 52.3096C45.0905 52.1345 45.6843 51.8893 46.2781 51.6091C47.0816 51.2239 47.8501 50.7335 48.5487 50.1732C48.898 49.893 49.2124 49.5778 49.5268 49.2626C49.8062 48.9474 50.0857 48.6322 50.3302 48.317C51.0289 47.4414 51.5878 46.4257 51.972 45.375C52.4611 44.1142 52.7056 42.7833 52.7056 41.3474C52.7405 40.4018 52.6008 39.4212 52.3562 38.5106Z" fill="#FAFF14"/>
</g>
<defs>
<filter id="filter0_f" x="0" y="0" width="82.7109" height="82.7298" filterUnits="userSpaceOnUse" color-interpolation-filters="sRGB">
<feFlood flood-opacity="0" result="BackgroundImageFix"/>
<feBlend mode="normal" in="SourceGraphic" in2="BackgroundImageFix" result="shape"/>
<feGaussianBlur stdDeviation="15" result="effect1_foregroundBlur"/>
</filter>
</defs>
</svg>
