<svg width="116" height="117" viewBox="0 0 116 117" fill="none" xmlns="http://www.w3.org/2000/svg">
<g filter="url(#filter0_f)">
<path d="M75.1763 61.9593C75.0366 61.399 74.862 60.8736 74.6174 60.3483C74.5825 60.2432 74.5126 60.1031 74.4777 59.9981C74.3729 59.7879 74.2681 59.5778 74.1633 59.3676C73.814 58.7372 73.4298 58.1769 72.9756 57.6165C72.801 57.4064 72.6263 57.2313 72.4517 57.0211C68.6441 52.6433 64.6269 48.4055 60.4351 44.3779C59.6666 43.6074 58.8632 42.8719 58.0947 42.1364C57.1166 41.4359 56.0337 40.9106 54.881 40.5253C54.0426 40.2802 53.1693 40.1051 52.2611 40.035C52.1912 40.035 52.1213 40.035 52.0166 40.035C51.8768 40.035 51.7022 40.035 51.5624 40H51.4577C50.7939 40 50.1652 40.07 49.5713 40.1751C49.1172 40.2452 48.6631 40.3502 48.2439 40.4903C48.1042 40.5253 47.9994 40.5604 47.8597 40.5954C47.4754 40.7355 47.1261 40.8756 46.7419 41.0157C46.0083 41.3659 45.3097 41.7862 44.6459 42.2415C43.6679 42.9769 42.7945 43.8525 42.0959 44.8682C41.9911 45.0083 41.9213 45.1484 41.8165 45.2534C40.6637 47.0396 40 49.176 40 51.4525C40 52.328 40.1048 53.1686 40.2795 54.0091C40.3493 54.3594 40.4541 54.6746 40.5589 55.0248C40.8034 55.7953 41.1178 56.5308 41.537 57.2312C41.5719 57.2663 41.5719 57.3013 41.6069 57.3363C41.8863 57.7916 42.2007 58.2469 42.5151 58.6672C43.2487 59.3676 44.0172 60.0681 44.7507 60.7686C48.209 64.1308 51.5624 67.633 54.7762 71.2404C55.3351 71.8708 55.894 72.5012 56.4529 73.1667C58.4789 75.0229 61.1687 76.1786 64.1728 76.1786C64.592 76.1786 64.9763 76.1436 65.3954 76.1086C65.5352 76.1086 65.6749 76.0736 65.7797 76.0736C66.2687 76.0035 66.7927 75.8984 67.2818 75.7584C67.9105 75.5832 68.5044 75.3381 69.0982 75.0579C69.9017 74.6726 70.6702 74.1823 71.3688 73.622C71.7181 73.3418 72.0325 73.0266 72.3469 72.7114C72.6263 72.3962 72.9058 72.0809 73.1852 71.7657C73.8839 70.8902 74.4428 69.8745 74.827 68.8238C75.3161 67.563 75.5606 66.1971 75.5606 64.7962C75.5606 63.8506 75.4209 62.8699 75.1763 61.9593Z" fill="#805AD5"/>
</g>
<defs>
<filter id="filter0_f" x="0" y="0" width="115.561" height="116.179" filterUnits="userSpaceOnUse" color-interpolation-filters="sRGB">
<feFlood flood-opacity="0" result="BackgroundImageFix"/>
<feBlend mode="normal" in="SourceGraphic" in2="BackgroundImageFix" result="shape"/>
<feGaussianBlur stdDeviation="20" result="effect1_foregroundBlur"/>
</filter>
</defs>
</svg>
