<svg width="477" height="478" viewBox="0 0 477 478" fill="none" xmlns="http://www.w3.org/2000/svg">
<g filter="url(#filter0_f)">
<path d="M427.359 177.5C427.184 176.974 427.01 176.449 426.835 175.924C426.8 175.889 426.8 175.819 426.765 175.784C426.73 175.679 426.66 175.539 426.625 175.433C426.52 175.223 426.416 175.013 426.311 174.803C424.494 171.476 421.071 169.164 417.124 168.884C416.914 168.884 416.67 168.849 416.46 168.849H416.355C415.727 168.849 415.098 168.919 414.469 168.989C414.015 169.059 413.561 169.164 413.142 169.304C413.002 169.339 412.897 169.375 412.757 169.41C412.373 169.55 412.024 169.69 411.674 169.83C410.941 170.145 410.242 170.565 409.579 171.056C408.6 171.791 407.762 172.667 407.063 173.682C406.959 173.822 406.889 173.927 406.784 174.068C405.666 175.854 405.002 177.955 405.002 180.232C405.002 181.107 405.107 181.948 405.282 182.753C405.282 182.823 405.317 182.893 405.317 182.963C405.492 183.524 405.666 184.084 405.876 184.645C411.395 201.736 414.364 219.983 414.364 238.93C414.364 336.294 335.628 415.235 238.552 415.235C141.477 415.235 62.6707 336.294 62.6707 238.93C62.6707 141.671 141.232 62.7999 238.203 62.6598H238.797C239.111 62.6598 239.426 62.6248 239.705 62.5898C239.845 62.5898 239.985 62.5547 240.124 62.5547C240.613 62.4847 241.137 62.3796 241.591 62.2395C242.22 62.0644 242.814 61.8193 243.408 61.5391C244.211 61.1538 244.98 60.6635 245.678 60.1031C246.028 59.823 246.342 59.5077 246.657 59.1925C246.936 58.8773 247.215 58.5621 247.46 58.2469C248.159 57.3713 248.718 56.3557 249.102 55.305C249.591 54.0442 249.835 52.7133 249.835 51.2774C249.835 50.2967 249.696 49.3161 249.451 48.4055C249.207 47.4949 248.857 46.6543 248.438 45.8488C246.692 42.6617 243.513 40.4203 239.74 40H239.705C239.286 40 238.867 40 238.448 40C238.028 40 237.609 40 237.155 40C128.168 40.6304 40 129.448 40 238.93C40 348.832 128.867 437.93 238.483 437.93C348.099 437.93 436.965 348.832 436.965 238.93C437 217.496 433.612 196.832 427.359 177.5Z" fill="#E764F6"/>
</g>
<defs>
<filter id="filter0_f" x="0" y="0" width="476.965" height="477.93" filterUnits="userSpaceOnUse" color-interpolation-filters="sRGB">
<feFlood flood-opacity="0" result="BackgroundImageFix"/>
<feBlend mode="normal" in="SourceGraphic" in2="BackgroundImageFix" result="shape"/>
<feGaussianBlur stdDeviation="20" result="effect1_foregroundBlur"/>
</filter>
</defs>
</svg>
