<svg width="112" height="119" viewBox="0 0 112 119" fill="none" xmlns="http://www.w3.org/2000/svg">
<g filter="url(#filter0_f)">
<path d="M71.1942 63.8856C71.0894 63.5354 70.9846 63.1852 70.8449 62.8349C70.4607 62.0644 70.0764 61.2939 69.6921 60.5584C67.0722 55.4451 64.2428 50.4368 61.1687 45.5686C61.029 45.3585 60.8893 45.1484 60.7496 44.9382C59.3174 42.8369 57.2215 41.2608 54.7413 40.4903C53.9029 40.2452 53.0296 40.07 52.1563 40C52.0865 40 52.0166 40 51.9118 40C51.7721 40 51.5974 40 51.4577 40H51.3529C50.7241 40 50.0953 40.07 49.4666 40.1401C49.0125 40.2101 48.5583 40.3152 48.1392 40.4553C47.9994 40.4903 47.8946 40.5253 47.7549 40.5604C47.3706 40.7005 47.0213 40.8406 46.672 40.9806C45.9384 41.3309 45.2398 41.7161 44.5761 42.2064C43.598 42.9419 42.7596 43.8175 42.061 44.8332C41.9562 44.9732 41.8863 45.0783 41.7815 45.2184C40.6637 47.0046 40 49.106 40 51.3824C40 52.258 40.1048 53.0986 40.2795 53.9041C40.3493 54.2543 40.4541 54.5695 40.5589 54.8847C40.7336 55.4101 40.9432 55.9354 41.1877 56.4257C41.6069 57.0912 42.0261 57.7566 42.4452 58.422C45.0302 62.5898 47.4405 66.8976 49.6761 71.3105C49.8857 71.7307 50.0953 72.151 50.3049 72.5713C50.3049 72.6063 50.3399 72.6413 50.3399 72.6413C50.8289 73.4819 51.4228 74.2174 52.0865 74.8828C54.1474 76.9491 56.9769 78.21 60.1208 78.21C60.54 78.21 60.9592 78.1749 61.3434 78.1399C61.4831 78.1399 61.6229 78.1049 61.7626 78.1049C62.2517 78.0348 62.7756 77.9298 63.2297 77.7897C63.8585 77.6146 64.4524 77.3694 65.0462 77.0892C65.8497 76.704 66.6182 76.2137 67.3168 75.6533C67.6661 75.3731 67.9805 75.0579 68.2949 74.7427C68.5743 74.4275 68.8538 74.1123 69.1332 73.7971C69.8319 72.9215 70.3908 71.9058 70.775 70.8552C71.2291 69.5943 71.5086 68.2284 71.5086 66.8275C71.5436 65.7768 71.4038 64.7962 71.1942 63.8856Z" fill="#27DC8A"/>
</g>
<defs>
<filter id="filter0_f" x="0" y="0" width="111.514" height="118.21" filterUnits="userSpaceOnUse" color-interpolation-filters="sRGB">
<feFlood flood-opacity="0" result="BackgroundImageFix"/>
<feBlend mode="normal" in="SourceGraphic" in2="BackgroundImageFix" result="shape"/>
<feGaussianBlur stdDeviation="20" result="effect1_foregroundBlur"/>
</filter>
</defs>
</svg>
