<svg xmlns="http://www.w3.org/2000/svg" width="23.774" height="26.875" viewBox="0 0 23.774 26.875">
  <g id="cast_nfts" transform="translate(-4.113 -2.562)">
    <path id="Path_2237" data-name="Path 2237" d="M15.5,3.716a1,1,0,0,1,1,0l9.887,5.708a1,1,0,0,1,.5.866V21.708a1,1,0,0,1-.5.866L16.5,28.282a1,1,0,0,1-1,0L5.613,22.574a1,1,0,0,1-.5-.866V10.291a1,1,0,0,1,.5-.866Z" fill="none" stroke="#445b74" stroke-width="2"/>
    <path id="Path_2238" data-name="Path 2238" d="M8,21.142V11.428l3.429,10.857V9.714" fill="rgba(255,0,0,0)" stroke="#cd58c1" stroke-linecap="round" stroke-linejoin="round" stroke-width="1.379"/>
    <path id="Path_2239" data-name="Path 2239" d="M22.555,10.382c0,4.017,0,6.743,0,10.76Zm0,0,2.016,1.275-4-2.514" fill="rgba(255,0,0,0)" stroke="#cd58c1" stroke-linecap="round" stroke-linejoin="round" stroke-width="1.379"/>
    <path id="Path_2240" data-name="Path 2240" d="M14.628,24V15.88m4.06-7.669L16,6.857l-1.372.9v8.12m0,0h4.229" fill="rgba(255,0,0,0)" stroke="#cd58c1" stroke-linecap="round" stroke-linejoin="round" stroke-width="1.579"/>
  </g>
</svg>
