<?xml version="1.0" encoding="utf-8"?>
<!-- Generator: Adobe Illustrator 22.1.0, SVG Export Plug-In . SVG Version: 6.00 Build 0)  -->
<svg version="1.1" id="Layer_1" xmlns="http://www.w3.org/2000/svg" xmlns:xlink="http://www.w3.org/1999/xlink" x="0px" y="0px"
	 viewBox="0 0 1000 1000" style="enable-background:new 0 0 1000 1000;" xml:space="preserve">
<style type="text/css">
	.st0{fill:#AF2C91;}
</style>
<g>
	<g>
		<path class="st0" d="M891,103.8c-252.9,0-504.7,0-757.2,0c-0.5,3.5-1.2,6.5-1.2,9.6c-0.1,120,0,240-0.2,360.1
			c0,6.6,1.8,11.2,6.8,15.5c15,13.2,19.3,30.6,14.3,49.1c-4.9,18.5-19.2,28.8-37.2,33.7c-18,4.9-41-7.5-50.5-25.9
			c-10.4-20.3-4-41.6,7.5-52.5c8.2-7.8,10.3-16.1,10.3-26.9c-0.3-127.9-0.2-255.7-0.1-383.6c0-8.7,0-17.4,0-25.5
			c0.8-0.9,1.1-1.3,1.4-1.6c0.3-0.3,0.7-0.7,1.1-0.8c1.3-0.4,2.6-1,4-1c281.6-0.1,563.2-0.1,844.8-0.1c1.3,0,2.6,0.6,5.6,1.4
			c0.3,5.4,1,11.2,1,17c0.1,116.8,0.1,233.6,0.1,350.4c0,16.6,0.2,33.2-0.2,49.9c-1.7,68.5-18.6,133.2-50.4,193.8
			c-43.7,83.3-107.4,147.2-190,192c-36.6,19.9-75.7,33.6-116.6,42.6c-33.2,7.3-66.5,10-100.3,10c-107.6-0.1-215.1,0.1-322.7-0.2
			c-8.5,0-13.3,3.4-18.7,9.1c-24.7,26.3-66.1,17.8-78.9-15.8c-7.3-19.2-1.2-40.4,15.4-53.2c16.4-12.7,40.6-15.1,55.1-1.2
			c12.8,12.3,26.5,12.4,41.8,12.3c87.7-0.1,175.4,0,263.1,0c14.8,0,29.5-0.1,44.3-0.1C589.1,862,681.4,826.7,759.8,756
			c60.6-54.6,100.5-122.1,120.3-201.3c7.6-30.6,11.8-61.5,11.8-93.1c-0.1-114.5,0-229-0.1-343.5C891.8,113.6,891.3,109.2,891,103.8z
			"/>
		<path class="st0" d="M828.9,165.5c0.3,6.2,0.8,10.7,0.8,15.2c0.1,72.9,0,145.9,0.1,218.8c0,17.1,0.2,34.2,0.1,51.2
			c-0.7,65.7-18.1,126.7-52.8,182.4c-36.9,59.1-86.9,103.6-150,133.2c-45.8,21.5-94,32.6-144.6,32.7c-69.7,0.1-139.4,0.2-209.1-0.1
			c-8,0-13.9,1.9-19.2,8.2c-13.1,15.8-31,18.5-49.2,13.2c-18.2-5.3-28.8-19.4-32.6-38c-3.5-16.9,7.5-38.6,23.8-47.9
			c16.2-9.3,39.9-8.4,53,4.9c9.6,9.8,19.8,11.5,32.2,11.4c65.1-0.3,130.2,0.5,195.3-0.3c84.6-1,157.4-31,217.3-91.5
			c39.6-40.1,66-87.6,78.5-142.4c4.5-19.7,7.3-40.1,7.5-60.3c0.9-76.2,0.4-152.3,0.3-228.5c0-4-0.8-7.9-1.3-12.2
			c-178.4,0-355.4,0-533.9,0c-0.3,5.3-0.8,9.7-0.8,14.2c-0.1,43.9,0,87.7-0.3,131.6c-0.1,6.7,2.1,11.3,6.8,15.7
			c10.3,9.5,15.7,21.3,15.5,35.6c-0.2,20.6-12.4,37.7-31.2,44.4c-19.1,6.8-41.3-0.3-53.2-16.1c-12.3-16.3-13.3-37.2-2.1-54.3
			c0.8-1.2,1.4-2.6,2.5-3.3c14.5-9.7,13.6-24.4,13.5-39.4c-0.4-55.4-0.2-110.8-0.4-166.2c0-11.6,0.5-12.2,12.6-12.2
			c107.1,0,214.2,0.1,321.3,0.1c96.5,0,193,0,289.5,0C821.4,165.5,824.1,165.5,828.9,165.5z"/>
		<path class="st0" d="M716.8,277.9c0.5,4.4,1.1,7.5,1.1,10.6c0.1,51.2,0.8,102.5,0.1,153.7c-1.4,107.9-72.7,202.9-175.2,234.5
			c-23.5,7.3-47.7,10.7-72.3,11c-26.3,0.3-52.6,0.5-78.9-0.1c-10.9-0.3-19.3,1.7-26.4,10.9c-14.5,18.7-50.8,18-68-1.1
			c-14.2-15.8-15.7-46.8-0.4-63.6c15.8-17.3,44.9-21.8,62.7-6.3c11.4,10,22.8,11.7,36.5,11.4c24.9-0.5,49.9,0.8,74.8-0.2
			c57.9-2.4,107.5-23.5,146.7-67.3c21.4-23.8,36.7-51,44.4-82c4.1-16.4,6-33.7,6.6-50.6c1-32.3,0.3-64.6,0.2-96.9
			c0-15.5-0.1-15.4-15.2-15.4c-88.2,0.1-176.3,0.2-264.5-0.1c-9.9,0-17,2.3-24.3,9.6C352,349,336.1,354.4,318,347.3
			c-18.6-7.3-30.9-19.9-32.2-40.9c-1.3-19.7,5.9-35.1,23.3-45.2c17.1-9.9,41.1-7.2,56.2,7.8c6.9,6.9,14,9,23.3,8.9
			c102.5-0.2,205-0.1,307.4,0C702.4,277.9,708.8,277.9,716.8,277.9z"/>
	</g>
</g>
</svg>
