<svg width="32" height="32" viewBox="0 0 32 32" fill="none" xmlns="http://www.w3.org/2000/svg">
<path d="M9.33415 28H22.6675C23.3747 28 24.053 27.719 24.5531 27.219C25.0532 26.7189 25.3341 26.0406 25.3341 25.3333V12.552C25.3341 12.1984 25.1935 11.8593 24.9435 11.6093L17.7248 4.39067C17.4748 4.1406 17.1357 4.00008 16.7821 4H9.33415C8.6269 4 7.94863 4.28095 7.44853 4.78105C6.94843 5.28115 6.66748 5.95942 6.66748 6.66667V25.3333C6.66748 26.0406 6.94843 26.7189 7.44853 27.219C7.94863 27.719 8.6269 28 9.33415 28Z" stroke="#445B74" stroke-width="2" stroke-linecap="round" stroke-linejoin="round"/>
<path d="M12 16H20" stroke="#1AC486" stroke-width="2" stroke-linecap="round" stroke-linejoin="round"/>
<path d="M12 21.334H20" stroke="#1AC486" stroke-width="2" stroke-linecap="round" stroke-linejoin="round"/>
</svg>
