<svg width="162" height="681" viewBox="0 0 162 681" fill="none" xmlns="http://www.w3.org/2000/svg">
<path d="M679 340.5C679 528.002 527.223 680 340 680C152.777 680 1 528.002 1 340.5C1 152.998 152.777 1 340 1C527.223 1 679 152.998 679 340.5Z" stroke="#2D3748" stroke-width="2"/>
<circle cx="340" cy="340" r="276" stroke="#2D3748" stroke-width="2"/>
<path d="M73 544C69.6863 544 67 546.686 67 550C67 553.314 69.6863 556 73 556C76.3137 556 79 553.314 79 550C79 546.686 76.3137 544 73 544Z" fill="#28DE89"/>
<circle cx="74.3124" cy="256.765" r="6" transform="rotate(7.86795 74.3124 256.765)" fill="#01E5F5"/>
</svg>
