<svg xmlns="http://www.w3.org/2000/svg" width="29.831" height="22.618" viewBox="0 0 29.831 22.618">
  <g id="farm" transform="translate(-1.144 -6.613)">
    <path id="Path_2249" data-name="Path 2249" d="M12.953,22.95a5.53,5.53,0,1,1-5.53-5.53A5.53,5.53,0,0,1,12.953,22.95Z" fill="rgba(255,0,0,0)" stroke="#cf5ac3" stroke-width="1.5"/>
    <circle id="Ellipse_92" data-name="Ellipse 92" cx="2.355" cy="2.355" r="2.355" transform="translate(5.068 20.596)" fill="rgba(255,0,0,0)" stroke="#cd58c1" stroke-width="1"/>
    <path id="Path_2250" data-name="Path 2250" d="M23.123,24.127H16.058" fill="none" stroke="#445b74" stroke-width="2"/>
    <path id="Path_2251" data-name="Path 2251" d="M2.971,7.642A1.029,1.029,0,0,1,4,6.613H16.448a1.029,1.029,0,0,1,0,2.057h-.878l1.266,3.437.693,1.881.075.2,8.921,1.6a3.314,3.314,0,0,1,2.729,3.262v2.718H27.2V19.055a1.257,1.257,0,0,0-1.035-1.237l-9.411-1.689H14.764a9.421,9.421,0,0,1,2.2,9.377q-.028.088-.058.176a.79.79,0,0,1-1.081.447.912.912,0,0,1-.511-.984A.978.978,0,0,1,15.354,25a7.728,7.728,0,0,0-12-8.513.99.99,0,0,1-.129.082.912.912,0,0,1-1.1-.157.79.79,0,0,1,.065-1.168l.147-.112A9.428,9.428,0,0,1,3.3,14.5q.2-.114.4-.217l.718-4.308.217-1.3H4A1.029,1.029,0,0,1,2.971,7.642Zm2.952,5.836a9.421,9.421,0,0,1,5.91.593h3.535l-.462-1.253L13.378,8.67H6.724l-.273,1.638Z" fill="#445b74" fill-rule="evenodd"/>
    <path id="Path_2252" data-name="Path 2252" d="M30.075,24.913A3.418,3.418,0,1,1,26.657,21.5,3.418,3.418,0,0,1,30.075,24.913Z" fill="none" stroke="#445b74" stroke-width="1.8"/>
  </g>
</svg>
