<svg width="397" height="398" viewBox="0 0 397 398" fill="none" xmlns="http://www.w3.org/2000/svg">
<path d="M387.359 137.57C387.184 137.044 387.01 136.519 386.835 135.994C386.8 135.959 386.8 135.889 386.765 135.854C386.73 135.748 386.66 135.608 386.625 135.503C386.52 135.293 386.416 135.083 386.311 134.873C384.494 131.546 381.071 129.234 377.124 128.954C376.914 128.954 376.67 128.919 376.46 128.919H376.355C375.727 128.919 375.098 128.989 374.469 129.059C374.015 129.129 373.561 129.234 373.142 129.374C373.002 129.409 372.897 129.444 372.757 129.479C372.373 129.619 372.024 129.76 371.674 129.9C370.941 130.215 370.242 130.635 369.579 131.125C368.6 131.861 367.762 132.736 367.063 133.752C366.959 133.892 366.889 133.997 366.784 134.137C365.666 135.924 365.002 138.025 365.002 140.301C365.002 141.177 365.107 142.018 365.282 142.823C365.282 142.893 365.317 142.963 365.317 143.033C365.492 143.594 365.666 144.154 365.876 144.714C371.395 161.805 374.364 180.052 374.364 199C374.364 296.363 295.628 375.305 198.552 375.305C101.477 375.305 22.6707 296.363 22.6707 199C22.6707 101.741 101.232 22.8697 198.203 22.7296H198.797C199.111 22.7296 199.426 22.6946 199.705 22.6596C199.845 22.6596 199.985 22.6246 200.124 22.6246C200.613 22.5545 201.137 22.4494 201.591 22.3094C202.22 22.1342 202.814 21.8891 203.408 21.6089C204.211 21.2236 204.98 20.7333 205.678 20.173C206.028 19.8928 206.342 19.5776 206.657 19.2624C206.936 18.9472 207.215 18.632 207.46 18.3167C208.159 17.4412 208.718 16.4255 209.102 15.3748C209.591 14.114 209.835 12.7831 209.835 11.3472C209.835 10.3666 209.696 9.38591 209.451 8.47532C209.207 7.56472 208.857 6.72417 208.438 5.91865C206.692 2.73156 203.513 0.490099 199.74 0.0698242H199.705C199.286 0.0698242 198.867 0.0698242 198.448 0.0698242C198.028 0.0698242 197.609 0.0698242 197.155 0.0698242C88.1679 0.700236 0 89.5183 0 199C0 308.902 88.8665 398 198.483 398C308.099 398 396.965 308.902 396.965 199C397 177.566 393.612 156.902 387.359 137.57Z" fill="#E764F6"/>
</svg>
