<svg width="110" height="36" viewBox="0 0 110 36" fill="none" xmlns="http://www.w3.org/2000/svg">
<path d="M89.6525 16.0737C89.2438 16.0737 88.8903 16.2176 88.6031 16.5165C88.3159 16.8154 88.1613 17.1586 88.1613 17.5682C88.1613 18.1881 88.4706 18.6641 89.0892 19.0073C89.763 19.1955 90.3153 19.0737 90.724 18.6531C91.0223 18.3542 91.1659 17.9999 91.1659 17.5903C91.1659 17.1697 91.0223 16.8154 90.724 16.5276C90.4258 16.2287 90.0723 16.0737 89.6525 16.0737Z" fill="#DE5959"/>
<path d="M65.5934 4.67147H64.4777C64.0027 4.67147 63.6161 5.06999 63.6161 5.546V6.16593C62.4231 4.92608 61.0754 4.30615 59.5842 4.30615C57.8389 4.30615 56.3918 4.94822 55.243 6.24342C54.0831 7.52755 53.5087 9.14379 53.5087 11.0811C53.5087 13.0515 54.0831 14.6899 55.243 16.0073C56.4028 17.2914 57.872 17.9445 59.6505 17.9445C61.0644 17.9445 62.3789 17.3578 63.6161 16.2065V17.4464C63.6161 18.0442 64.0911 18.5423 64.6987 18.5423H66.5986V5.66778C66.5876 5.11427 66.1457 4.67147 65.5934 4.67147ZM62.7655 14.1475C62.0807 14.9002 61.197 15.2766 60.0923 15.2766C59.054 15.2766 58.2034 14.8892 57.5296 14.1032C56.8668 13.3283 56.5354 12.3209 56.5354 11.0811C56.5354 9.9187 56.8778 8.94453 57.5516 8.15855C58.2476 7.38364 59.0981 6.99619 60.1144 6.99619C61.208 6.99619 62.0807 7.37257 62.7655 8.14748C63.4504 8.93346 63.7818 9.92977 63.7818 11.1364C63.7929 12.3652 63.4504 13.3615 62.7655 14.1475Z" fill="#DE5959"/>
<path d="M53.4976 5.57938C53.4976 5.08122 53.0889 4.6827 52.5918 4.6827H51.4209C50.9238 4.6827 50.5151 5.08122 50.5151 5.57938V6.13288C49.4436 4.92624 48.0959 4.31738 46.4721 4.31738C44.6163 4.31738 43.1361 5.02587 41.9983 6.40963C40.9489 7.72698 40.4187 9.33214 40.4187 11.203C40.4187 13.1403 40.9931 14.7565 42.1198 16.0406C43.2355 17.3137 44.6716 17.9447 46.4279 17.9447C47.9634 17.9447 49.3331 17.3469 50.5151 16.1403V17.9336C50.5151 20.6126 49.4326 21.9521 47.2564 21.9521C46.0745 21.9521 45.1687 21.5536 44.5611 20.7454C44.3954 20.5462 44.2739 20.2916 44.1634 19.9816C44.0198 19.5499 43.6111 19.262 43.1693 19.262H42.0536C41.4792 19.262 41.0594 19.8155 41.203 20.369C41.5233 21.5425 42.1088 22.4945 42.9925 23.2362C44.1082 24.1661 45.5221 24.62 47.2454 24.62C49.2779 24.62 50.8796 23.9447 52.0506 22.6052C52.6581 21.8967 53.0779 21.0775 53.2878 20.0923C53.354 19.7491 53.4093 19.3395 53.4534 18.8635C53.4976 18.4096 53.5197 17.8672 53.5197 17.2473V15.3764C52.6802 14.1698 52.2715 12.7307 52.2715 11.0591C52.2715 9.42071 52.6912 8.00373 53.5197 6.81923V5.57938H53.4976ZM49.7198 14.048C49.068 14.8783 48.1622 15.2879 47.0244 15.2879C45.8977 15.2879 45.003 14.8783 44.3512 14.048C43.7658 13.3063 43.4675 12.3432 43.4675 11.1698C43.4675 9.97421 43.7658 9.00004 44.3512 8.24727C45.003 7.40594 45.8977 6.99635 47.0244 6.99635C48.0849 6.99635 48.9576 7.37273 49.6314 8.13657C50.3052 8.88934 50.6366 9.89672 50.6366 11.1476C50.6366 12.3211 50.3384 13.2952 49.7198 14.048Z" fill="#DE5959"/>
<path d="M78.2416 4.68266L72.0667 4.67159V0.885609C72.0667 0.398524 71.669 0 71.1829 0H69.9789C69.4818 0 69.0841 0.398524 69.0841 0.896679V4.67159H67.8248V7.45018H69.0952V18.5424H70.7963C71.5033 18.5424 72.0777 17.9779 72.0777 17.2694V7.45018H75.1155C75.3585 6.98524 75.6457 6.56458 75.9992 6.17712C76.6288 5.49077 77.38 4.98155 78.2416 4.68266Z" fill="#DE5959"/>
<path d="M93.4303 0C92.9001 0 92.4472 0.188192 92.0716 0.575646C91.696 0.95203 91.4972 1.4059 91.4972 1.9262C91.4972 2.4797 91.685 2.93358 92.0716 3.32103C92.4472 3.69742 92.9111 3.88561 93.4524 3.88561C93.9937 3.88561 94.4466 3.69742 94.8111 3.32103C95.1867 2.93358 95.3855 2.4797 95.3855 1.93727C95.3855 1.39483 95.1977 0.940959 94.8111 0.575646C94.4245 0.188192 93.9605 0 93.4303 0Z" fill="#DE5959"/>
<path d="M94.0269 6.13281H92.9443C92.392 6.13281 91.9391 6.58669 91.9391 7.14019V16.6051C92.1711 16.8708 92.2705 17.1919 92.2705 17.5572C92.2705 17.9225 92.16 18.2435 91.9391 18.5092V19.0406H93.8501C94.4356 19.0406 94.9106 18.5645 94.9106 17.9778V7.01842C94.9216 6.53134 94.5239 6.13281 94.0269 6.13281Z" fill="#DE5959"/>
<path d="M108.012 7.95958C106.675 6.64223 105.051 5.97803 103.129 5.97803C101.218 5.97803 99.5833 6.63116 98.2577 7.93744C96.9211 9.25478 96.2583 10.8378 96.2583 12.7087C96.2583 14.6902 96.91 16.3286 98.2135 17.6348C99.517 18.9633 101.141 19.6275 103.074 19.6275C105.018 19.6275 106.664 18.9743 108.001 17.6791C109.337 16.3618 110 14.7455 110 12.8083C110 10.8932 109.337 9.28799 108.012 7.95958ZM105.913 15.8304C105.206 16.5832 104.278 16.9485 103.118 16.9485C101.958 16.9485 101.03 16.5721 100.323 15.8193C99.6274 15.0666 99.285 14.0481 99.285 12.7529C99.285 11.5463 99.6385 10.5721 100.345 9.80828C101.063 9.04445 101.98 8.66806 103.118 8.66806C104.267 8.66806 105.195 9.04445 105.913 9.80828C106.609 10.55 106.951 11.5574 106.951 12.8083C106.951 14.0813 106.609 15.0777 105.913 15.8304Z" fill="#DE5959"/>
<path d="M87.5759 16.3281C85.8968 16.2838 81.8538 16.2506 81.6882 16.2506C80.7382 16.2506 79.9539 15.9406 79.3574 15.3207C78.7388 14.7008 78.3963 13.8484 78.319 12.7856H86.8468C87.2445 12.7856 87.5648 12.4757 87.5648 12.0772C87.5648 9.94063 87.0125 8.28011 85.93 7.08454C84.8143 5.86683 83.323 5.26904 81.423 5.26904C79.5451 5.26904 78.0428 5.88897 76.9051 7.13989C75.7783 8.40188 75.215 10.0624 75.215 12.0993C75.215 14.1473 75.8004 15.8078 76.9603 17.0476C77.7777 17.9111 78.7719 18.4757 79.9539 18.7414C80.4399 18.8521 80.9591 18.9185 81.4783 18.9074C83.1131 18.9517 84.5713 18.9738 86.1288 19.0071H86.1398C86.6038 19.0181 87.0677 19.0292 87.5538 19.0403V18.7303C87.355 18.5089 87.2334 18.2543 87.1893 17.9554C87.1782 17.8779 87.1672 17.7893 87.1672 17.7118C87.1672 17.3244 87.2997 16.9923 87.5648 16.7045L87.5759 16.3281ZM78.9376 9.35391C79.1254 9.05502 79.3463 8.81148 79.6114 8.61222C79.8655 8.40189 80.1527 8.2469 80.473 8.1362C80.7934 8.0255 81.1248 7.97015 81.4893 7.97015C83.069 7.97015 84.0742 8.75613 84.4939 10.3502H78.5068C78.6062 9.97384 78.7498 9.64174 78.9376 9.35391Z" fill="#DE5959"/>
<path d="M14.0068 17.8007L13.6975 17.4907C13.4655 17.2583 13.0568 17.4243 13.0568 17.7564V22.2177C13.0568 22.428 13.2225 22.5941 13.4323 22.5941H17.8951C18.2265 22.5941 18.3922 22.1955 18.1602 21.952C18.0166 21.8081 18.0166 21.5645 18.1602 21.4206L22.8991 16.6605C23.0427 16.5166 23.0427 16.2841 22.8991 16.1291L22.4683 15.6974C22.2363 15.4649 22.402 15.0553 22.7334 15.0553H27.1741C27.3839 15.0553 27.5496 15.2214 27.5496 15.4317V19.893C27.5496 20.2251 27.1409 20.3911 26.9089 20.1586L26.6107 19.8597C26.4671 19.7048 26.2241 19.7048 26.0805 19.8597L18.0939 27.8634C17.9503 28.0073 17.7183 28.0073 17.5637 27.8634L7.79868 18.0775C7.65508 17.9335 7.65508 17.7011 7.79868 17.5461L21.3195 3.98521C21.4631 3.84129 21.4631 3.59775 21.3195 3.45384L18.1492 0.265648C18.0056 0.121737 17.7625 0.121737 17.6189 0.265648L0.110388 17.8118C-0.0332152 17.9557 -0.0332152 18.1992 0.110388 18.3431L17.6189 35.8893C17.7625 36.0332 18.0056 36.0332 18.1492 35.8893L35.6577 18.3431C35.8013 18.1992 35.8013 17.9557 35.6577 17.8118L25.3625 7.49443C25.2188 7.35052 24.9869 7.35052 24.8322 7.49443L14.548 17.8007C14.3934 17.9446 14.1614 17.9446 14.0068 17.8007C14.0178 17.8007 14.0068 17.8007 14.0068 17.8007Z" fill="#DE5959"/>
<path d="M110 27.4648H88.8241" stroke="#DE5959" stroke-width="1.9766" stroke-miterlimit="10"/>
<path d="M61.3074 27.5757H40.1315" stroke="#DE5959" stroke-width="1.9766" stroke-miterlimit="10"/>
<path d="M73.3591 28.8819V31.417C73.3591 31.7823 73.094 32.048 72.7295 32.048C72.4754 32.048 72.133 31.7823 72.133 31.417C71.5365 31.9151 70.8626 32.0812 70.0341 32.0369C68.6865 31.9705 67.372 30.8524 67.151 29.524C66.7865 27.3211 68.5981 25.4834 70.7963 25.8266C72.2876 26.048 73.3591 27.3764 73.3591 28.8819ZM72.0335 29.6015C72.5085 28.0849 71.2161 26.6015 69.6475 27.1107C69.0842 27.2989 68.6312 27.7528 68.4435 28.3174C67.9243 29.8893 69.4045 31.1845 70.9289 30.7085C71.4481 30.5535 71.8678 30.1329 72.0335 29.6015Z" fill="#DE5959"/>
<path d="M80.2631 28.0406C80.8155 30.1328 79.2469 32.0369 77.2254 32.0369C75.5021 32.0369 74.0771 30.6199 74.0771 28.8819V28.8708V23.2472C74.0771 22.8376 74.4859 22.5166 74.9498 22.6715C75.1597 22.749 75.3254 23.0036 75.3254 23.214V26.369C76.0766 25.8044 77.0928 25.5608 78.1422 25.8597C79.1806 26.1586 79.987 26.9889 80.2631 28.0406ZM78.9928 28.1513C78.7829 27.6088 78.319 27.1992 77.7556 27.0442C76.4742 26.7011 75.3254 27.6531 75.3254 28.8708V28.9262C75.3254 29.6457 75.7341 30.321 76.3969 30.6088C78.0428 31.3284 79.6224 29.7675 78.9928 28.1513Z" fill="#DE5959"/>
<path d="M74.0992 32.059H74.1545C74.7952 32.059 75.3254 31.5387 75.3254 30.8856V26.3579H74.0992V32.059Z" fill="#DE5959"/>
<path d="M66.3226 30.7194V22.6714H65.0964V30.7969C65.0964 31.4943 65.6598 32.0478 66.3447 32.0478H67.0958C67.1069 32.0478 67.1069 32.0367 67.1069 32.0367V30.7636H66.3557C66.3447 30.7636 66.3226 30.7526 66.3226 30.7194Z" fill="#DE5959"/>
<path d="M82.9695 32.081C82.6271 32.081 82.4724 32.0367 82.1852 31.9481C81.898 31.8596 81.666 31.7489 81.4672 31.6271C81.423 31.5939 81.3788 31.5717 81.3346 31.5385C81.2794 31.5053 81.2352 31.461 81.191 31.4278C81.0474 31.3171 80.8596 31.14 80.7271 30.9407L80.705 30.9186C80.6608 30.8633 80.6277 30.8079 80.6166 30.7415C80.5172 30.3983 80.7823 30.0773 81.1137 30.0773C81.1689 30.0773 81.2242 30.0883 81.2684 30.0994H81.2794H81.2905C81.3457 30.1105 81.4009 30.1437 81.4672 30.2101C81.5777 30.3208 81.6771 30.4094 81.7986 30.4979C82.1852 30.7858 82.5829 30.9186 83.0026 30.9186C83.3009 30.9186 83.5439 30.8411 83.7317 30.6972C83.8532 30.5976 83.9416 30.4426 83.9526 30.2876C83.9637 30.1548 83.9526 30.033 83.8974 29.9223C83.8532 29.8337 83.7869 29.7562 83.6765 29.6898C83.5771 29.6234 83.4445 29.557 83.2678 29.4906C83.1021 29.4241 82.8811 29.3467 82.6271 29.2802C82.3067 29.1917 82.0306 29.092 81.8096 28.9924C81.5887 28.8928 81.4009 28.7821 81.2573 28.6492C81.1137 28.5164 81.0032 28.3614 80.937 28.1732C80.8707 27.985 80.8265 27.7636 80.8265 27.4979C80.8265 27.2212 80.8817 26.9776 80.9922 26.7562C81.1027 26.5348 81.2573 26.3466 81.4562 26.2027C81.655 26.0478 81.887 25.9371 82.141 25.8596C82.4061 25.7821 82.6823 25.7378 82.9806 25.7378C83.2567 25.7378 83.5108 25.7599 83.7538 25.8153C84.03 25.8817 84.5712 26.0478 85.0794 26.5127C85.0904 26.5238 85.1236 26.5459 85.1788 26.6234C85.2782 26.7341 85.3334 26.878 85.3334 27.0219C85.3334 27.033 85.3334 27.033 85.3334 27.0441C85.3224 27.3651 85.0683 27.6197 84.759 27.6419C84.748 27.6419 84.7259 27.6419 84.7148 27.6419C84.6154 27.6419 84.516 27.6197 84.4276 27.5754C84.4166 27.5644 84.4055 27.5644 84.3945 27.5533C84.3503 27.5201 84.3061 27.4869 84.273 27.4537L84.2619 27.4426C83.9195 27.0994 83.4887 26.9002 83.0026 26.8669C82.9806 26.8669 82.9474 26.8669 82.9253 26.8669C82.7486 26.8669 82.5829 26.9112 82.4172 26.9887C82.2294 27.0883 82.13 27.2433 82.13 27.4758C82.13 27.5754 82.1521 27.664 82.1963 27.7415C82.2404 27.819 82.3178 27.8743 82.4282 27.9297C82.5277 27.985 82.6602 28.0293 82.8259 28.0847C82.9806 28.14 83.1904 28.1954 83.4335 28.2728C83.6875 28.3503 83.9416 28.4389 84.1625 28.5385C84.3834 28.6382 84.5823 28.7599 84.748 28.8928C84.9137 29.0367 85.0352 29.2027 85.1346 29.4131C85.223 29.6123 85.2782 29.8669 85.2782 30.1548C85.2782 30.4537 85.2119 30.7193 85.0794 30.9518C84.9468 31.1843 84.7701 31.3946 84.5491 31.5607C84.3282 31.7267 84.0741 31.8596 83.798 31.9481C83.5439 32.0367 83.2567 32.081 82.9695 32.081Z" fill="#DE5959"/>
</svg>
