<svg xmlns="http://www.w3.org/2000/svg" width="27.446" height="29.155" viewBox="0 0 27.446 29.155">
  <g id="icon_bonds" transform="translate(-2.277 -1.286)">
    <path id="Path_2257" data-name="Path 2257" d="M3.277,19.091h-1a1,1,0,0,0,.667.943Zm0-14.036-.333-.943a1,1,0,0,0-.667.943Zm1.957,16.8h-1a1,1,0,0,0,.979,1Zm6.876,0v1a1,1,0,0,0,.9-.567Zm.156-.252.791.612Zm.261-1.142.978-.208Zm1.342-1.683-.015-1h0Zm1.055-.508-.772-.635h0Zm2.153,0,.772-.635h0Zm1.055.508.015-1h0Zm1.342,1.683.978.208h0Zm.261,1.142-.791.612Zm.155.252-.9.433a1,1,0,0,0,.9.567Zm6.833,0v1h.005Zm.022,0,.005,1h.01Zm.021,0,.016,1a1,1,0,0,0,.984-1Zm1.957-2.769.333.943a1,1,0,0,0,.667-.943Zm0-14.036h1a1,1,0,0,0-.667-.943ZM26.766,2.286h1a1,1,0,0,0-.979-1Zm-21.531,0-.021-1a1,1,0,0,0-.979,1Zm-.957,16.8V5.055h-2V19.091Zm1.957,2.768A3.937,3.937,0,0,0,3.61,18.148l-.666,1.886A1.937,1.937,0,0,1,4.234,21.86Zm-.957-1H5.255l-.042,2h.063Zm6.833,0H5.277v2H12.11Zm.9,1.433a.408.408,0,0,1,.045-.073L11.475,21a2.4,2.4,0,0,0-.266.431Zm.045-.073a2.394,2.394,0,0,0,.448-1.962l-1.956.416a.394.394,0,0,1-.074.323Zm.448-1.962a.393.393,0,0,1,.379-.475l-.03-2a2.394,2.394,0,0,0-2.305,2.891Zm.379-.475A2.393,2.393,0,0,0,15.7,18.91l-1.545-1.27a.393.393,0,0,1-.3.144ZM15.7,18.91a.393.393,0,0,1,.608,0l1.545-1.27a2.394,2.394,0,0,0-3.7,0Zm.608,0a2.393,2.393,0,0,0,1.813.873l.03-2a.393.393,0,0,1-.3-.144Zm1.813.873a.393.393,0,0,1,.379.475l1.956.416a2.394,2.394,0,0,0-2.305-2.891Zm.379.475a2.393,2.393,0,0,0,.448,1.962L20.526,21a.394.394,0,0,1-.074-.323Zm.448,1.962a.408.408,0,0,1,.045.073l1.8-.865A2.4,2.4,0,0,0,20.526,21Zm7.78-1.36H19.89v2h6.833Zm.017,0h-.022l.011,2h.022Zm.01,0h-.021l.031,2h.021Zm1.64-2.712a3.937,3.937,0,0,0-2.624,3.711h2a1.937,1.937,0,0,1,1.291-1.826ZM27.723,5.055V19.091h2V5.055ZM25.766,2.286A3.937,3.937,0,0,0,28.39,6l.667-1.886a1.937,1.937,0,0,1-1.291-1.826Zm.957,1h.022l.042-2h-.063Zm-21.446,0H26.723v-2H5.277Zm-.022,0h.022v-2H5.214ZM3.61,6A3.937,3.937,0,0,0,6.234,2.286h-2A1.937,1.937,0,0,1,2.944,4.112Z" fill="#445b74"/>
    <path id="Path_2258" data-name="Path 2258" d="M18.009,25.285v4.256L16.1,28.393l-1.913,1.148V25.285" fill="none" stroke="#445b74" stroke-linecap="round" stroke-linejoin="round" stroke-width="1.8"/>
    <path id="Path_2259" data-name="Path 2259" d="M14.978,18.209a1.324,1.324,0,0,1,2.045,0h0a1.324,1.324,0,0,0,1,.483h0a1.324,1.324,0,0,1,1.275,1.6h0a1.324,1.324,0,0,0,.248,1.085h0a1.324,1.324,0,0,1-.455,1.994h0a1.324,1.324,0,0,0-.694.87h0a1.324,1.324,0,0,1-1.842.887h0a1.323,1.323,0,0,0-1.113,0h0a1.324,1.324,0,0,1-1.842-.887h0a1.323,1.323,0,0,0-.694-.87h0a1.324,1.324,0,0,1-.455-1.994h0a1.324,1.324,0,0,0,.248-1.085h0a1.324,1.324,0,0,1,1.275-1.6h0a1.324,1.324,0,0,0,1-.483Z" fill="none" stroke="#445b74" stroke-width="1.8"/>
    <path id="Path_2269" data-name="Path 2269" d="M24.808,14.03H7.192" fill="none" stroke="#445b74" stroke-linecap="round" stroke-linejoin="round" stroke-width="1.8"/>
    <path id="Path_2270" data-name="Path 2270" d="M10.128,16.966H7.192" fill="none" stroke="#445b74" stroke-linecap="round" stroke-linejoin="round" stroke-width="1.8"/>
    <path id="Path_2271" data-name="Path 2271" d="M24.808,16.966H21.872" fill="none" stroke="#445b74" stroke-linecap="round" stroke-linejoin="round" stroke-width="1.8"/>
  </g>
</svg>
