<svg width="32" height="32" viewBox="0 0 32 32" fill="none" xmlns="http://www.w3.org/2000/svg">
<path d="M3.27704 8.76903L2.94379 7.82619C2.5442 7.96742 2.27704 8.34521 2.27704 8.76903H3.27704ZM3.27704 22.805H2.27704C2.27704 23.2288 2.5442 23.6066 2.94379 23.7478L3.27704 22.805ZM5.23444 6.00044L5.21355 5.00066C4.66958 5.01203 4.23452 5.45621 4.23444 6.0003L5.23444 6.00044ZM26.7658 6.00044L27.7658 6.0003C27.7657 5.45621 27.3307 5.01203 26.7867 5.00066L26.7658 6.00044ZM28.7232 8.76903H29.7232C29.7232 8.34521 29.4561 7.96742 29.0565 7.82619L28.7232 8.76903ZM28.7232 22.805L29.0565 23.7478C29.4561 23.6066 29.7232 23.2288 29.7232 22.805H28.7232ZM26.7658 25.5735L26.7866 26.5733C27.3306 26.562 27.7657 26.1178 27.7658 25.5737L26.7658 25.5735ZM26.7451 25.5739L26.7559 26.5738H26.7559L26.7451 25.5739ZM5.23444 25.5735L4.23444 25.5737C4.23452 26.1178 4.66959 26.562 5.21357 26.5733L5.23444 25.5735ZM2.27704 8.76903V22.805H4.27704V8.76903H2.27704ZM4.23444 6.0003C4.23431 6.84159 3.69703 7.55996 2.94379 7.82619L3.61028 9.71187C5.13753 9.17206 6.23418 7.7157 6.23444 6.00059L4.23444 6.0003ZM5.27704 5C5.25584 5 5.23467 5.00022 5.21355 5.00066L5.25533 7.00023C5.26253 7.00008 5.26977 7 5.27704 7V5ZM26.7232 5H5.27704V7H26.7232V5ZM26.7867 5.00066C26.7656 5.00022 26.7444 5 26.7232 5V7C26.7305 7 26.7377 7.00008 26.7449 7.00023L26.7867 5.00066ZM29.0565 7.82619C28.3032 7.55996 27.7659 6.84159 27.7658 6.0003L25.7658 6.00059C25.7661 7.7157 26.8627 9.17206 28.39 9.71187L29.0565 7.82619ZM29.7232 22.805V8.76903H27.7232V22.805H29.7232ZM27.7658 25.5737C27.7659 24.7324 28.3032 24.014 29.0565 23.7478L28.39 21.8621C26.8627 22.4019 25.7661 23.8583 25.7658 25.5734L27.7658 25.5737ZM26.7559 26.5738C26.7661 26.5737 26.7764 26.5735 26.7866 26.5733L26.7451 24.5738C26.7415 24.5738 26.7379 24.5739 26.7344 24.5739L26.7559 26.5738ZM26.7232 26.574C26.7342 26.574 26.7451 26.5739 26.7559 26.5738L26.7344 24.5739C26.7306 24.574 26.7269 24.574 26.7232 24.574V26.574ZM5.27704 26.574H26.7232V24.574H5.27704V26.574ZM5.21357 26.5733C5.23468 26.5738 5.25584 26.574 5.27704 26.574V24.574C5.26977 24.574 5.26252 24.5739 5.2553 24.5738L5.21357 26.5733ZM2.94379 23.7478C3.69703 24.014 4.23431 24.7324 4.23444 25.5737L6.23444 25.5734C6.23418 23.8583 5.13753 22.4019 3.61028 21.8621L2.94379 23.7478Z" fill="#445B74"/>
<path d="M21.4285 17.5238H10L14.2914 21.3333" stroke="#1AC486" stroke-width="1.5" stroke-linecap="round" stroke-linejoin="round"/>
<path d="M10.0067 13.5238H21.4353L17.6258 9.71423" stroke="#1AC486" stroke-width="1.5" stroke-linecap="round" stroke-linejoin="round"/>
</svg>
