<svg width="580" height="216" viewBox="0 0 580 216" fill="none" xmlns="http://www.w3.org/2000/svg">
<rect x="12" y="17" width="550" height="186" rx="24" fill="url(#paint0_linear_2019_262)"/>
<rect x="14.5" y="18.5" width="547" height="183" rx="22.5" stroke="url(#paint1_linear_2019_262)" stroke-width="3"/>
<g filter="url(#filter0_f_2019_262)">
<rect x="16.5" y="16.5" width="547" height="183" rx="22.5" stroke="url(#paint2_linear_2019_262)" stroke-width="3"/>
</g>
<g filter="url(#filter1_f_2019_262)">
<path opacity="0.3" d="M86.6458 114.859L86.5244 114.979V114.859H86.6458Z" fill="url(#paint3_linear_2019_262)"/>
<path opacity="0.3" d="M86.5247 65H58V108.852H86.5247V65Z" fill="url(#paint4_linear_2019_262)"/>
<path opacity="0.3" d="M126.048 65L94.2598 108.852H125.564L158.924 65H126.048Z" fill="url(#paint5_linear_2019_262)"/>
<path opacity="0.3" d="M119.28 122.067H58V167H86.5247V122.308L118.675 167H153.244L119.28 122.067Z" fill="url(#paint6_linear_2019_262)"/>
<path opacity="0.3" d="M163.639 65V108.852H192.163V65H163.639ZM163.639 122.067V167H192.163V122.067H163.639Z" fill="url(#paint7_linear_2019_262)"/>
<path opacity="0.3" d="M237.005 145.254V65H208.48V167H268.914V145.254H237.005Z" fill="url(#paint8_linear_2019_262)"/>
<path opacity="0.3" d="M308.558 145.254V65H280.033V167H340.467V145.254H308.558Z" fill="url(#paint9_linear_2019_262)"/>
<path opacity="0.3" d="M379.991 128.074V65H351.466V167H417.097V144.293H379.991V128.074ZM388.21 65V87.7067H417.097V65H388.21ZM412.746 104.406H388.21V125.912H412.746V104.406Z" fill="url(#paint10_linear_2019_262)"/>
<path opacity="0.3" d="M491.914 127.233C499.287 124.951 504.847 121.226 508.714 116.06C512.582 110.774 514.516 104.647 514.516 97.7986C514.516 91.6714 513.066 86.0247 510.165 81.0989C507.264 76.1731 502.913 72.2085 497.232 69.3251C491.43 66.4417 484.42 65 476.201 65H431.238V88.788H473.905C477.651 88.788 480.552 89.7491 482.607 91.6714C484.662 93.5936 485.629 96.1166 485.629 99.3604C485.629 102.845 484.662 105.488 482.728 107.29C480.794 109.092 477.893 110.053 474.025 110.053H469.191H431.359V167H459.884V129.396H462.906L483.211 167H515.12L491.914 127.233Z" fill="url(#paint11_linear_2019_262)"/>
<path opacity="0.3" d="M86.6458 108.852L86.5244 108.972V108.852H86.6458Z" fill="url(#paint12_linear_2019_262)"/>
</g>
<g clip-path="url(#clip0_2019_262)">
<path d="M86.6458 103.859L86.5244 103.979V103.859H86.6458Z" fill="url(#paint13_linear_2019_262)"/>
<path d="M86.5247 54H58V97.8516H86.5247V54Z" fill="url(#paint14_linear_2019_262)"/>
<path d="M126.048 54L94.2598 97.8516H125.564L158.924 54H126.048Z" fill="url(#paint15_linear_2019_262)"/>
<path d="M119.28 111.067H58V156H86.5247V111.308L118.675 156H153.244L119.28 111.067Z" fill="url(#paint16_linear_2019_262)"/>
<path d="M163.639 54V97.8516H192.163V54H163.639ZM163.639 111.067V156H192.163V111.067H163.639Z" fill="url(#paint17_linear_2019_262)"/>
<path d="M237.005 134.254V54H208.48V156H268.914V134.254H237.005Z" fill="url(#paint18_linear_2019_262)"/>
<path d="M308.558 134.254V54H280.033V156H340.467V134.254H308.558Z" fill="url(#paint19_linear_2019_262)"/>
<path d="M379.991 117.074V54H351.466V156H417.097V133.293H379.991V117.074ZM388.21 54V76.7067H417.097V54H388.21ZM412.746 93.4064H388.21V114.912H412.746V93.4064Z" fill="url(#paint20_linear_2019_262)"/>
<path d="M491.914 116.233C499.287 113.951 504.847 110.226 508.714 105.06C512.582 99.7739 514.516 93.6466 514.516 86.7986C514.516 80.6714 513.066 75.0247 510.165 70.0989C507.264 65.1731 502.913 61.2085 497.232 58.3251C491.43 55.4417 484.42 54 476.201 54H431.238V77.788H473.905C477.651 77.788 480.552 78.7491 482.607 80.6714C484.662 82.5936 485.629 85.1166 485.629 88.3604C485.629 91.8445 484.662 94.4876 482.728 96.2898C480.794 98.0919 477.893 99.053 474.025 99.053H469.191H431.359V156H459.884V118.396H462.906L483.211 156H515.12L491.914 116.233Z" fill="url(#paint21_linear_2019_262)"/>
<path d="M86.6458 97.8516L86.5244 97.9717V97.8516H86.6458Z" fill="url(#paint22_linear_2019_262)"/>
</g>
<defs>
<filter id="filter0_f_2019_262" x="0" y="0" width="580" height="216" filterUnits="userSpaceOnUse" color-interpolation-filters="sRGB">
<feFlood flood-opacity="0" result="BackgroundImageFix"/>
<feBlend mode="normal" in="SourceGraphic" in2="BackgroundImageFix" result="shape"/>
<feGaussianBlur stdDeviation="7.5" result="effect1_foregroundBlur_2019_262"/>
</filter>
<filter id="filter1_f_2019_262" x="42" y="49" width="489.12" height="134" filterUnits="userSpaceOnUse" color-interpolation-filters="sRGB">
<feFlood flood-opacity="0" result="BackgroundImageFix"/>
<feBlend mode="normal" in="SourceGraphic" in2="BackgroundImageFix" result="shape"/>
<feGaussianBlur stdDeviation="8" result="effect1_foregroundBlur_2019_262"/>
</filter>
<linearGradient id="paint0_linear_2019_262" x1="287" y1="-107" x2="287" y2="203" gradientUnits="userSpaceOnUse">
<stop/>
<stop offset="1" stop-color="#1AC486" stop-opacity="0"/>
</linearGradient>
<linearGradient id="paint1_linear_2019_262" x1="288" y1="17" x2="288" y2="203" gradientUnits="userSpaceOnUse">
<stop stop-color="#77FFCD"/>
<stop offset="1" stop-color="#077E53" stop-opacity="0"/>
</linearGradient>
<linearGradient id="paint2_linear_2019_262" x1="290" y1="15" x2="290" y2="201" gradientUnits="userSpaceOnUse">
<stop stop-color="#00FFA2"/>
<stop offset="1" stop-color="#077E53" stop-opacity="0"/>
</linearGradient>
<linearGradient id="paint3_linear_2019_262" x1="86.5912" y1="69.1816" x2="86.5912" y2="169.378" gradientUnits="userSpaceOnUse">
<stop stop-color="#55FF69"/>
<stop offset="1" stop-color="#BFE5FF"/>
</linearGradient>
<linearGradient id="paint4_linear_2019_262" x1="72.2684" y1="69.1809" x2="72.2684" y2="169.379" gradientUnits="userSpaceOnUse">
<stop stop-color="#55FF69"/>
<stop offset="1" stop-color="#BFE5FF"/>
</linearGradient>
<linearGradient id="paint5_linear_2019_262" x1="126.626" y1="69.1809" x2="126.626" y2="169.379" gradientUnits="userSpaceOnUse">
<stop stop-color="#55FF69"/>
<stop offset="1" stop-color="#BFE5FF"/>
</linearGradient>
<linearGradient id="paint6_linear_2019_262" x1="105.598" y1="69.1812" x2="105.598" y2="169.379" gradientUnits="userSpaceOnUse">
<stop stop-color="#55FF69"/>
<stop offset="1" stop-color="#BFE5FF"/>
</linearGradient>
<linearGradient id="paint7_linear_2019_262" x1="177.937" y1="69.1809" x2="177.937" y2="169.379" gradientUnits="userSpaceOnUse">
<stop stop-color="#55FF69"/>
<stop offset="1" stop-color="#BFE5FF"/>
</linearGradient>
<linearGradient id="paint8_linear_2019_262" x1="238.703" y1="69.1809" x2="238.703" y2="169.379" gradientUnits="userSpaceOnUse">
<stop stop-color="#55FF69"/>
<stop offset="1" stop-color="#BFE5FF"/>
</linearGradient>
<linearGradient id="paint9_linear_2019_262" x1="310.172" y1="69.1809" x2="310.172" y2="169.379" gradientUnits="userSpaceOnUse">
<stop stop-color="#55FF69"/>
<stop offset="1" stop-color="#BFE5FF"/>
</linearGradient>
<linearGradient id="paint10_linear_2019_262" x1="384.251" y1="69.1809" x2="384.251" y2="169.379" gradientUnits="userSpaceOnUse">
<stop stop-color="#55FF69"/>
<stop offset="1" stop-color="#BFE5FF"/>
</linearGradient>
<linearGradient id="paint11_linear_2019_262" x1="473.113" y1="69.1809" x2="473.113" y2="169.379" gradientUnits="userSpaceOnUse">
<stop stop-color="#55FF69"/>
<stop offset="1" stop-color="#BFE5FF"/>
</linearGradient>
<linearGradient id="paint12_linear_2019_262" x1="86.5912" y1="69.1813" x2="86.5912" y2="169.378" gradientUnits="userSpaceOnUse">
<stop stop-color="#55FF69"/>
<stop offset="1" stop-color="#BFE5FF"/>
</linearGradient>
<linearGradient id="paint13_linear_2019_262" x1="86.5912" y1="58.1816" x2="86.5912" y2="158.378" gradientUnits="userSpaceOnUse">
<stop stop-color="#55FF69"/>
<stop offset="1" stop-color="#BFE5FF"/>
</linearGradient>
<linearGradient id="paint14_linear_2019_262" x1="72.2684" y1="58.1809" x2="72.2684" y2="158.379" gradientUnits="userSpaceOnUse">
<stop stop-color="#55FF69"/>
<stop offset="1" stop-color="#BFE5FF"/>
</linearGradient>
<linearGradient id="paint15_linear_2019_262" x1="126.626" y1="58.1809" x2="126.626" y2="158.379" gradientUnits="userSpaceOnUse">
<stop stop-color="#55FF69"/>
<stop offset="1" stop-color="#BFE5FF"/>
</linearGradient>
<linearGradient id="paint16_linear_2019_262" x1="105.598" y1="58.1812" x2="105.598" y2="158.379" gradientUnits="userSpaceOnUse">
<stop stop-color="#55FF69"/>
<stop offset="1" stop-color="#BFE5FF"/>
</linearGradient>
<linearGradient id="paint17_linear_2019_262" x1="177.937" y1="58.1809" x2="177.937" y2="158.379" gradientUnits="userSpaceOnUse">
<stop stop-color="#55FF69"/>
<stop offset="1" stop-color="#BFE5FF"/>
</linearGradient>
<linearGradient id="paint18_linear_2019_262" x1="238.703" y1="58.1809" x2="238.703" y2="158.379" gradientUnits="userSpaceOnUse">
<stop stop-color="#55FF69"/>
<stop offset="1" stop-color="#BFE5FF"/>
</linearGradient>
<linearGradient id="paint19_linear_2019_262" x1="310.172" y1="58.1809" x2="310.172" y2="158.379" gradientUnits="userSpaceOnUse">
<stop stop-color="#55FF69"/>
<stop offset="1" stop-color="#BFE5FF"/>
</linearGradient>
<linearGradient id="paint20_linear_2019_262" x1="384.251" y1="58.1809" x2="384.251" y2="158.379" gradientUnits="userSpaceOnUse">
<stop stop-color="#55FF69"/>
<stop offset="1" stop-color="#BFE5FF"/>
</linearGradient>
<linearGradient id="paint21_linear_2019_262" x1="473.113" y1="58.1809" x2="473.113" y2="158.379" gradientUnits="userSpaceOnUse">
<stop stop-color="#55FF69"/>
<stop offset="1" stop-color="#BFE5FF"/>
</linearGradient>
<linearGradient id="paint22_linear_2019_262" x1="86.5912" y1="58.1813" x2="86.5912" y2="158.378" gradientUnits="userSpaceOnUse">
<stop stop-color="#55FF69"/>
<stop offset="1" stop-color="#BFE5FF"/>
</linearGradient>
<clipPath id="clip0_2019_262">
<rect width="457" height="102" fill="white" transform="translate(58 54)"/>
</clipPath>
</defs>
</svg>
