<svg width="32" height="39" viewBox="0 0 32 39" fill="none" xmlns="http://www.w3.org/2000/svg">
<path d="M31.1942 23.8856C31.0894 23.5354 30.9846 23.1852 30.8449 22.8349C30.4607 22.0644 30.0764 21.2939 29.6921 20.5584C27.0722 15.4451 24.2428 10.4368 21.1687 5.56864C21.029 5.3585 20.8893 5.14837 20.7496 4.93823C19.3174 2.83686 17.2215 1.26082 14.7413 0.490318C13.9029 0.245158 13.0296 0.0700458 12.1563 0C12.0865 0 12.0166 0 11.9118 0C11.7721 0 11.5974 0 11.4577 0H11.3529C10.7241 0 10.0953 0.0700436 9.46657 0.140089C9.01245 0.210135 8.55834 0.315207 8.13916 0.455299C7.99943 0.490321 7.89462 0.525345 7.75489 0.560368C7.37064 0.70046 7.02133 0.84055 6.67201 0.980642C5.93844 1.33087 5.2398 1.71612 4.5761 2.20644C3.598 2.94192 2.75963 3.81749 2.06099 4.83315C1.9562 4.97325 1.88634 5.07832 1.78154 5.21841C0.663719 7.00457 0 9.10595 0 11.3824C0 12.258 0.104813 13.0986 0.279473 13.9041C0.349336 14.2543 0.454128 14.5695 0.558924 14.8847C0.733583 15.4101 0.943171 15.9354 1.18769 16.4257C1.60688 17.0912 2.02605 17.7566 2.44524 18.422C5.0302 22.5898 7.44051 26.8976 9.67615 31.3105C9.88574 31.7307 10.0953 32.151 10.3049 32.5713C10.3049 32.6063 10.3399 32.6413 10.3399 32.6413C10.8289 33.4819 11.4228 34.2174 12.0865 34.8828C14.1474 36.9491 16.9769 38.21 20.1208 38.21C20.54 38.21 20.9592 38.1749 21.3434 38.1399C21.4831 38.1399 21.6229 38.1049 21.7626 38.1049C22.2517 38.0348 22.7756 37.9298 23.2297 37.7897C23.8585 37.6146 24.4524 37.3694 25.0462 37.0892C25.8497 36.704 26.6182 36.2137 27.3168 35.6533C27.6661 35.3731 27.9805 35.0579 28.2949 34.7427C28.5743 34.4275 28.8538 34.1123 29.1332 33.7971C29.8319 32.9215 30.3908 31.9058 30.775 30.8552C31.2291 29.5943 31.5086 28.2284 31.5086 26.8275C31.5436 25.7768 31.4038 24.7962 31.1942 23.8856Z" fill="#27DC8A"/>
</svg>
