<svg xmlns="http://www.w3.org/2000/svg" width="25.172" height="29.434" viewBox="0 0 25.172 29.434">
  <g id="logo_buying_competition" transform="translate(-3.702 -1.334)">
    <path id="Path_2169" data-name="Path 2169" d="M8.922,7.623l-1.6,0a3.513,3.513,0,0,0-3.519,3.539q-.005,7.943,0,15.883a3.519,3.519,0,0,0,3.633,3.621h18.9a2.292,2.292,0,0,0,2.443-2.437V21.737q0-.817,0-1.634,0-2.453,0-4.906a2.254,2.254,0,0,0-1.887-2.24,3.919,3.919,0,0,0-.457-.044c-.079,0-.161-.009-.246-.017q0-.5,0-.99c0-.653,0-1.3,0-1.948A2.282,2.282,0,0,0,23.83,7.625H22.723A4.469,4.469,0,0,1,22.6,9.181h1.136c.606,0,.875.272.875.88V12.9l-.046,0a.557.557,0,0,1-.134,0q-8.544.005-17.091,0a1.963,1.963,0,0,1-1.908-1.485A1.87,1.87,0,0,1,6.779,9.271a2.668,2.668,0,0,1,.7-.086h1.6A2.912,2.912,0,0,1,8.922,7.623ZM27.205,18.076v.29h0c-.14,0-.237,0-.326,0H25.025q-1.853,0-3.706,0a3.628,3.628,0,0,0-.846,7.163,4.111,4.111,0,0,0,.94.1q2.054.008,4.112,0h1.67c0,.025,0,.048.006.069,0,.057.009.1.009.15q0,.41,0,.819c0,.546,0,1.093,0,1.639a.738.738,0,0,1-.785.8h-3.9q-7.5,0-15-.008a2.509,2.509,0,0,1-.951-.165A1.873,1.873,0,0,1,5.373,27.1c-.01-.749-.008-1.5-.006-2.247q0-.481,0-.963V13.922l.051.014a.355.355,0,0,1,.089.032,3.75,3.75,0,0,0,1.976.512q7.049-.008,14.1,0h4.7c.674,0,.922.247.922.923Zm-1.83,1.854c.6,0,1.21.007,1.819.007v4.115l-.058.007A1.065,1.065,0,0,1,27,24.07H25.587q-2.128,0-4.256,0a2.053,2.053,0,0,1-2.077-1.75,2.017,2.017,0,0,1,1.876-2.365C22.542,19.914,23.954,19.922,25.376,19.93Z" fill="#445b74" fill-rule="evenodd"/>
    <path id="Path_2170" data-name="Path 2170" d="M7.324,7.625v-.1h0Zm1.6,0,.1.015.018-.115H8.921ZM3.805,11.164h0Zm3.63,19.5v-.1h0ZM28.773,20.1h0Zm0-4.906h0Zm-1.887-2.24.017-.1h0Zm-.457-.044-.006.1ZM26.18,12.9h-.1v.092l.092.008Zm0-.99h0Zm0-1.948h0ZM23.83,7.625v.1h0Zm-1.108,0v-.1h-.108l.009.108ZM22.6,9.181l-.1-.027-.035.127H22.6ZM24.612,12.9l.008.1.092-.008V12.9Zm-.046,0,.009.1h0Zm-.134,0,.016-.1h-.017Zm-17.091,0v.1h0ZM5.434,11.425l-.1.024h0ZM6.779,9.271l-.026-.1h0Zm.7-.086v.1h0Zm1.6,0v.1h.148L9.17,9.147Zm18.129,9.182v.1h.1v-.1Zm-.326,0,0-.1h0Zm-1.854,0v0Zm-3.706,0v.1h0Zm-3.648,3.3-.1-.011h0Zm2.8,3.861.023-.1h0Zm.94.1v-.1h0Zm4.112,0v0Zm1.67,0,.1-.008-.007-.092h-.093Zm.006.069-.1.008h0Zm.01.969h0Zm0,1.639h0Zm-.785.8v.1h0Zm-3.9,0v0Zm-15-.008V29h0Zm-.951-.165.039-.092h0ZM5.373,27.1h0Zm-.006-2.247h0Zm0-10.931.03-.1-.13-.04v.136Zm.051.014-.026.1h0Zm.089.032.051-.086h0Zm1.976.512v.1h0Zm14.1,0v0Zm5.611,5.461h.1v-.1h-.1Zm-1.819-.007v0Zm1.819,4.122.01.1.09-.009v-.09Zm-.058.007-.012-.1h0Zm-1.55.011v0Zm-4.256,0v-.1h0Zm-2.077-1.75-.1.015h0Zm1.876-2.365,0,.1h0ZM7.324,7.725l1.6,0v-.2l-1.6,0ZM3.905,11.164A3.413,3.413,0,0,1,7.324,7.725v-.2a3.613,3.613,0,0,0-3.618,3.639Zm0,15.883q0-7.944,0-15.883h-.2q-.005,7.944,0,15.883Zm3.533,3.521A3.419,3.419,0,0,1,3.9,27.047H3.7a3.619,3.619,0,0,0,3.734,3.721Zm18.9,0H7.435v.2h18.9Zm2.343-2.337a2.193,2.193,0,0,1-2.343,2.337v.2a2.392,2.392,0,0,0,2.543-2.537Zm0-6.494v6.494h.2V21.737Zm0-1.634q0,.817,0,1.634h.2q0-.817,0-1.634Zm0-4.906q.008,2.451,0,4.906h.2q0-2.453,0-4.907Zm-1.8-2.142a2.153,2.153,0,0,1,1.8,2.142h.2A2.353,2.353,0,0,0,26.9,12.858Zm-.445-.043a3.836,3.836,0,0,1,.445.043l.035-.2a4.021,4.021,0,0,0-.469-.046Zm-.249-.017c.086.007.169.012.249.017l.012-.2c-.08,0-.16-.009-.244-.016Zm-.09-1.09q0,.492,0,.99h.2q0-.5,0-.99Zm0-1.947c0,.647,0,1.294,0,1.947h.2c0-.653,0-1.3,0-1.949ZM23.83,7.725A2.182,2.182,0,0,1,26.08,9.959l.2,0A2.381,2.381,0,0,0,23.83,7.525Zm-1.108,0H23.83v-.2H22.723Zm-.1-.092A4.367,4.367,0,0,1,22.5,9.155l.193.053a4.569,4.569,0,0,0,.125-1.592Zm1.114,1.449H22.6v.2h1.136Zm.975.98a1.007,1.007,0,0,0-.239-.739,1,1,0,0,0-.736-.242v.2a.8.8,0,0,1,.594.182.814.814,0,0,1,.181.6Zm0,2.58v-2.58h-.2v2.58Zm0,.261v-.261h-.2V12.9Zm-.137.1.045,0-.017-.2-.046,0Zm-.159,0a.644.644,0,0,0,.159,0l-.018-.2a.485.485,0,0,1-.108,0Zm-17.075,0q8.544.005,17.091,0v-.2q-8.544.005-17.091,0ZM5.337,11.449a2.063,2.063,0,0,0,2,1.561v-.2A1.863,1.863,0,0,1,5.531,11.4ZM6.752,9.174a1.97,1.97,0,0,0-1.415,2.275l.194-.049A1.771,1.771,0,0,1,6.806,9.367Zm.723-.09a2.767,2.767,0,0,0-.722.089l.053.193a2.568,2.568,0,0,1,.669-.082Zm1.6,0h-1.6v.2h1.6Zm.093.063A2.812,2.812,0,0,1,9.02,7.638l-.2-.031a3.012,3.012,0,0,0,.161,1.614Zm18.136,9.22v-.29h-.2v.29Zm-.1.1h0v-.2h0Zm-.33,0c.092,0,.191,0,.33,0v-.2c-.14,0-.235,0-.322,0Zm-1.85,0h1.854v-.2H25.025Zm-3.705,0q1.854,0,3.705,0v-.2q-1.852,0-3.706,0Zm-3.549,3.214a3.54,3.54,0,0,1,3.549-3.214v-.2a3.74,3.74,0,0,0-3.747,3.391ZM20.5,25.429a3.535,3.535,0,0,1-2.725-3.752l-.2-.023a3.735,3.735,0,0,0,2.878,3.97Zm.917.094a4.014,4.014,0,0,1-.917-.094l-.046.195a4.209,4.209,0,0,0,.963.1Zm4.112,0q-2.058,0-4.112,0v.2q2.054.008,4.113,0Zm1.372,0H25.525v.2H26.9Zm.3,0h-.3v.2h.3Zm.105.16c0-.021,0-.043-.006-.068l-.2.015c0,.025,0,.048.006.069Zm.009.158c0-.052,0-.1-.009-.158l-.2.017c0,.058.008.1.008.141Zm0,.819q0-.41,0-.819h-.2q0,.41,0,.819Zm0,1.639c0-.547,0-1.093,0-1.639h-.2c0,.546,0,1.092,0,1.638Zm-.883.9a.837.837,0,0,0,.883-.9h-.2a.64.64,0,0,1-.688.7Zm-.15,0h.147V29h-.147Zm-3.749,0h3.749V29H22.528Zm-15-.007q7.5.013,15,.007V29q-7.5,0-15-.007Zm-.989-.172a2.608,2.608,0,0,0,.989.172V29a2.411,2.411,0,0,1-.912-.157ZM5.273,27.1A2.159,2.159,0,0,0,5.6,28.268a2.016,2.016,0,0,0,.942.757l.077-.184a1.816,1.816,0,0,1-.852-.681,1.96,1.96,0,0,1-.292-1.06Zm-.006-2.248c0,.749,0,1.5.006,2.248l.2,0c-.01-.748-.008-1.5-.006-2.245Zm0-.962q0,.481,0,.962h.2q0-.481,0-.963Zm0-9.657v9.657h.2V14.234Zm0-.311v.311h.2v-.311Zm.177-.082L5.4,13.827l-.06.191.055.016Zm.115.043a.442.442,0,0,0-.115-.043l-.052.193a.273.273,0,0,1,.064.021Zm1.925.5a3.65,3.65,0,0,1-1.925-.5l-.1.172a3.849,3.849,0,0,0,2.028.526Zm14.1,0q-7.049,0-14.1,0v.2q7.049-.008,14.1,0Zm4.7,0h-4.7v.2h4.7ZM27.306,15.4a.868.868,0,0,0-1.022-1.023v.2a.679.679,0,0,1,.822.823Zm0,2.676V15.4h-.2v2.676Zm-.111,1.761c-.608,0-1.214,0-1.818-.007v.2c.6,0,1.21.007,1.819.007Zm.1,4.215V19.937h-.2v4.115Zm-.146.106.056-.007-.021-.2-.06.007ZM27,24.17a1.167,1.167,0,0,0,.144-.012l-.025-.2a.986.986,0,0,1-.119.01Zm-1.418,0H27v-.2H25.587Zm-4.257,0q2.127.008,4.257,0v-.2q-2.128,0-4.256,0Zm-2.175-1.835a2.153,2.153,0,0,0,2.175,1.835v-.2A1.953,1.953,0,0,1,19.352,22.3Zm1.972-2.48a2.117,2.117,0,0,0-1.972,2.48l.2-.03a1.917,1.917,0,0,1,1.78-2.25Zm4.25-.021c-1.422-.008-2.836-.016-4.25.021l.005.2c1.41-.038,2.821-.029,4.243-.021Z" fill="#445b74"/>
    <path id="Path_2171" data-name="Path 2171" d="M19.294,14.479a6.357,6.357,0,1,0-7.06,0H9.952a7.857,7.857,0,1,1,11.623,0Z" fill="#445b74" fill-rule="evenodd"/>
  </g>
</svg>
