<svg xmlns="http://www.w3.org/2000/svg" width="26.508" height="26.002" viewBox="0 0 26.508 26.002">
  <g id="logo_referral_competition" transform="translate(-2.992 -3)">
    <path id="Path_2173" data-name="Path 2173" d="M14.667,7.843V25.653a2.347,2.347,0,0,1-4.556.789l-2.863-8.2m0,0A5.334,5.334,0,0,1,9.333,8h2.443C17.243,8,21.942,6.355,24,4V22.667c-2.057-2.355-6.756-4-12.224-4H9.333A5.32,5.32,0,0,1,7.248,18.243ZM24,17.333a4,4,0,0,0,0-8Z" fill="none" stroke="#445a73" stroke-linecap="round" stroke-linejoin="round" stroke-width="2"/>
    <path id="Path_2174" data-name="Path 2174" d="M25.333,18.154a5,5,0,0,0,0-9.641v2.132a3,3,0,0,1,0,5.376Z" fill="#cd58c1" stroke="#cd58c1" stroke-width="1" fill-rule="evenodd"/>
  </g>
</svg>
