<svg width="32" height="32" viewBox="0 0 32 32" fill="none" xmlns="http://www.w3.org/2000/svg">
<mask id="path-1-outside-1_14607_59608" maskUnits="userSpaceOnUse" x="2.80176" y="6.62305" width="27" height="25" fill="black">
<rect fill="white" x="2.80176" y="6.62305" width="27" height="25"/>
<path fill-rule="evenodd" clip-rule="evenodd" d="M8.92156 7.62305C8.38903 7.62355 7.8565 7.62414 7.32397 7.62483C5.35842 7.62841 3.80534 9.20278 3.80534 11.1636C3.80176 16.4592 3.80176 21.7512 3.80176 27.0469C3.80176 29.1365 5.34407 30.6715 7.43516 30.6679H26.3303C27.808 30.6679 28.7729 29.7054 28.7729 28.2312V21.7369C28.7729 21.1923 28.7731 20.6475 28.7733 20.1026C28.774 18.4671 28.7747 16.8306 28.7693 15.1961C28.7657 14.069 27.9874 13.153 26.8827 12.9562C26.7344 12.93 26.5846 12.9212 26.4257 12.912C26.3463 12.9073 26.2646 12.9026 26.1796 12.8954C26.1796 12.5637 26.1804 12.234 26.1812 11.9056C26.1828 11.2528 26.1844 10.6053 26.1796 9.95777C26.1689 8.61239 25.1789 7.62483 23.8303 7.62483C23.4611 7.62459 23.092 7.62435 22.7228 7.62412C22.7705 8.21843 22.7254 8.73416 22.6014 9.18132C22.98 9.18131 23.3585 9.18131 23.737 9.18131C24.3432 9.18131 24.6122 9.45325 24.6122 10.0615V12.6414V12.9026C24.5957 12.9039 24.5805 12.9053 24.5665 12.9066C24.5072 12.9119 24.4677 12.9155 24.4329 12.9097C18.7371 12.9133 13.0377 12.9133 7.3419 12.9097C6.42728 12.9061 5.65253 12.2943 5.43374 11.4248C5.21136 10.5374 5.82829 9.53555 6.77878 9.27077C7.00116 9.20994 7.24147 9.18489 7.47461 9.18489C8.00867 9.18454 8.54275 9.18422 9.07686 9.18394C8.89284 8.72759 8.83077 8.20892 8.92156 7.62305ZM27.2055 18.0765V18.3663H27.2053C27.0655 18.3663 26.9687 18.3663 26.8791 18.3628C26.2608 18.3628 25.643 18.3624 25.0252 18.362C23.7902 18.3612 22.5557 18.3604 21.3196 18.3628C19.4114 18.3663 17.8942 19.7439 17.6718 21.6654C17.471 23.4079 18.694 25.1039 20.4731 25.5262C20.7744 25.5977 21.0972 25.6228 21.4128 25.6228C22.782 25.6281 24.1532 25.6275 25.5249 25.6268C25.9823 25.6266 26.4396 25.6263 26.897 25.6263H27.1947C27.1966 25.6513 27.1985 25.6739 27.2003 25.6949C27.2052 25.7522 27.209 25.7975 27.209 25.8446C27.209 26.1177 27.2094 26.3909 27.2098 26.664C27.2106 27.2103 27.2114 27.7565 27.209 28.3028C27.2055 28.8001 26.9185 29.09 26.4235 29.1043H26.2765C25.0269 29.1043 23.7773 29.1044 22.5275 29.1046C17.5279 29.1051 12.527 29.1057 7.52842 29.0971C7.20919 29.0971 6.86845 29.0542 6.57792 28.9325C5.78166 28.5998 5.38353 27.9593 5.37276 27.1005C5.36272 26.3516 5.36498 25.6027 5.36724 24.8538C5.36821 24.5329 5.36918 24.2119 5.36918 23.891V14.2336V13.9223C5.38714 13.9279 5.40405 13.9325 5.41991 13.9367C5.4547 13.9461 5.48442 13.9541 5.50906 13.9688C6.11881 14.3338 6.77878 14.4805 7.48537 14.4805C12.1848 14.4751 16.8843 14.4758 21.5838 14.4765C23.1504 14.4767 24.717 14.4769 26.2837 14.4769C26.958 14.4769 27.2055 14.7238 27.2055 15.4001V18.0765ZM25.376 19.9301C25.9802 19.9336 26.5862 19.9371 27.1947 19.9371V24.052C27.1747 24.0541 27.1553 24.0565 27.1363 24.0588C27.0907 24.0645 27.0477 24.0699 27.0046 24.0699C26.5322 24.0699 26.0595 24.0701 25.5867 24.0703C24.1679 24.071 22.7481 24.0717 21.3303 24.0663C20.2543 24.0627 19.4078 23.3328 19.2536 22.3166C19.0742 21.1251 19.9171 19.9837 21.1295 19.9514C22.5417 19.9138 23.9539 19.9219 25.376 19.9301Z"/>
</mask>
<path fill-rule="evenodd" clip-rule="evenodd" d="M8.92156 7.62305C8.38903 7.62355 7.8565 7.62414 7.32397 7.62483C5.35842 7.62841 3.80534 9.20278 3.80534 11.1636C3.80176 16.4592 3.80176 21.7512 3.80176 27.0469C3.80176 29.1365 5.34407 30.6715 7.43516 30.6679H26.3303C27.808 30.6679 28.7729 29.7054 28.7729 28.2312V21.7369C28.7729 21.1923 28.7731 20.6475 28.7733 20.1026C28.774 18.4671 28.7747 16.8306 28.7693 15.1961C28.7657 14.069 27.9874 13.153 26.8827 12.9562C26.7344 12.93 26.5846 12.9212 26.4257 12.912C26.3463 12.9073 26.2646 12.9026 26.1796 12.8954C26.1796 12.5637 26.1804 12.234 26.1812 11.9056C26.1828 11.2528 26.1844 10.6053 26.1796 9.95777C26.1689 8.61239 25.1789 7.62483 23.8303 7.62483C23.4611 7.62459 23.092 7.62435 22.7228 7.62412C22.7705 8.21843 22.7254 8.73416 22.6014 9.18132C22.98 9.18131 23.3585 9.18131 23.737 9.18131C24.3432 9.18131 24.6122 9.45325 24.6122 10.0615V12.6414V12.9026C24.5957 12.9039 24.5805 12.9053 24.5665 12.9066C24.5072 12.9119 24.4677 12.9155 24.4329 12.9097C18.7371 12.9133 13.0377 12.9133 7.3419 12.9097C6.42728 12.9061 5.65253 12.2943 5.43374 11.4248C5.21136 10.5374 5.82829 9.53555 6.77878 9.27077C7.00116 9.20994 7.24147 9.18489 7.47461 9.18489C8.00867 9.18454 8.54275 9.18422 9.07686 9.18394C8.89284 8.72759 8.83077 8.20892 8.92156 7.62305ZM27.2055 18.0765V18.3663H27.2053C27.0655 18.3663 26.9687 18.3663 26.8791 18.3628C26.2608 18.3628 25.643 18.3624 25.0252 18.362C23.7902 18.3612 22.5557 18.3604 21.3196 18.3628C19.4114 18.3663 17.8942 19.7439 17.6718 21.6654C17.471 23.4079 18.694 25.1039 20.4731 25.5262C20.7744 25.5977 21.0972 25.6228 21.4128 25.6228C22.782 25.6281 24.1532 25.6275 25.5249 25.6268C25.9823 25.6266 26.4396 25.6263 26.897 25.6263H27.1947C27.1966 25.6513 27.1985 25.6739 27.2003 25.6949C27.2052 25.7522 27.209 25.7975 27.209 25.8446C27.209 26.1177 27.2094 26.3909 27.2098 26.664C27.2106 27.2103 27.2114 27.7565 27.209 28.3028C27.2055 28.8001 26.9185 29.09 26.4235 29.1043H26.2765C25.0269 29.1043 23.7773 29.1044 22.5275 29.1046C17.5279 29.1051 12.527 29.1057 7.52842 29.0971C7.20919 29.0971 6.86845 29.0542 6.57792 28.9325C5.78166 28.5998 5.38353 27.9593 5.37276 27.1005C5.36272 26.3516 5.36498 25.6027 5.36724 24.8538C5.36821 24.5329 5.36918 24.2119 5.36918 23.891V14.2336V13.9223C5.38714 13.9279 5.40405 13.9325 5.41991 13.9367C5.4547 13.9461 5.48442 13.9541 5.50906 13.9688C6.11881 14.3338 6.77878 14.4805 7.48537 14.4805C12.1848 14.4751 16.8843 14.4758 21.5838 14.4765C23.1504 14.4767 24.717 14.4769 26.2837 14.4769C26.958 14.4769 27.2055 14.7238 27.2055 15.4001V18.0765ZM25.376 19.9301C25.9802 19.9336 26.5862 19.9371 27.1947 19.9371V24.052C27.1747 24.0541 27.1553 24.0565 27.1363 24.0588C27.0907 24.0645 27.0477 24.0699 27.0046 24.0699C26.5322 24.0699 26.0595 24.0701 25.5867 24.0703C24.1679 24.071 22.7481 24.0717 21.3303 24.0663C20.2543 24.0627 19.4078 23.3328 19.2536 22.3166C19.0742 21.1251 19.9171 19.9837 21.1295 19.9514C22.5417 19.9138 23.9539 19.9219 25.376 19.9301Z" fill="#445B74"/>
<path d="M7.32397 7.62483L7.32384 7.52483L7.32379 7.52483L7.32397 7.62483ZM8.92156 7.62305L9.02038 7.63836L9.03826 7.52294L8.92146 7.52305L8.92156 7.62305ZM3.80534 11.1636L3.90534 11.1637V11.1636H3.80534ZM7.43516 30.6679V30.5679H7.43499L7.43516 30.6679ZM28.7733 20.1026L28.6733 20.1026L28.7733 20.1026ZM28.7693 15.1961L28.6693 15.1964V15.1965L28.7693 15.1961ZM26.8827 12.9562L26.9002 12.8578L26.9001 12.8578L26.8827 12.9562ZM26.4257 12.912L26.4199 13.0118L26.4257 12.912ZM26.1796 12.8954H26.0796V12.9873L26.1712 12.995L26.1796 12.8954ZM26.1812 11.9056L26.2812 11.9058V11.9058L26.1812 11.9056ZM26.1796 9.95777L26.2796 9.95703V9.95697L26.1796 9.95777ZM23.8303 7.62483L23.8302 7.72483H23.8303V7.62483ZM22.7228 7.62412L22.7229 7.52412L22.6145 7.52405L22.6231 7.63212L22.7228 7.62412ZM22.6014 9.18132L22.505 9.15459L22.4699 9.28132L22.6014 9.28132V9.18132ZM24.6122 12.9026L24.6205 13.0022L24.7122 12.9946V12.9026H24.6122ZM24.5665 12.9066L24.5755 13.0062H24.5755L24.5665 12.9066ZM24.4329 12.9097L24.4493 12.8111L24.4411 12.8097L24.4328 12.8097L24.4329 12.9097ZM7.3419 12.9097L7.34151 13.0097L7.34184 13.0097L7.3419 12.9097ZM5.43374 11.4248L5.33674 11.4491L5.33676 11.4492L5.43374 11.4248ZM6.77878 9.27077L6.7524 9.17431L6.75195 9.17443L6.77878 9.27077ZM7.47461 9.18489V9.28489L7.47468 9.28489L7.47461 9.18489ZM9.07686 9.18394L9.07692 9.28394L9.22498 9.28386L9.16961 9.14654L9.07686 9.18394ZM27.2055 18.3663V18.4663H27.3055V18.3663H27.2055ZM26.8791 18.3628L26.8831 18.2628H26.8791V18.3628ZM25.0252 18.362L25.0252 18.462L25.0252 18.362ZM21.3196 18.3628L21.3197 18.4628H21.3198L21.3196 18.3628ZM17.6718 21.6654L17.5725 21.6539L17.5725 21.6539L17.6718 21.6654ZM20.4731 25.5262L20.4962 25.4289L20.4962 25.4289L20.4731 25.5262ZM21.4128 25.6228L21.4132 25.5228H21.4128V25.6228ZM25.5249 25.6268L25.5249 25.5268L25.5249 25.6268ZM27.1947 25.6263L27.2944 25.6187L27.2873 25.5263H27.1947V25.6263ZM27.2003 25.6949L27.1007 25.7033V25.7033L27.2003 25.6949ZM27.2098 26.664L27.3098 26.6639L27.2098 26.664ZM27.209 28.3028L27.309 28.3035V28.3032L27.209 28.3028ZM26.4235 29.1043V29.2043L26.4264 29.2042L26.4235 29.1043ZM22.5275 29.1046L22.5275 29.2046L22.5275 29.1046ZM7.52842 29.0971L7.52859 28.9971H7.52842V29.0971ZM6.57792 28.9325L6.61655 28.8403L6.61648 28.8403L6.57792 28.9325ZM5.37276 27.1005L5.47276 27.0993L5.47276 27.0992L5.37276 27.1005ZM5.36724 24.8538L5.26724 24.8535L5.36724 24.8538ZM5.36918 13.9223L5.39894 13.8269L5.26918 13.7864V13.9223H5.36918ZM5.41991 13.9367L5.39393 14.0333H5.39393L5.41991 13.9367ZM5.50906 13.9688L5.56042 13.883H5.56042L5.50906 13.9688ZM7.48537 14.4805V14.5805L7.48549 14.5805L7.48537 14.4805ZM21.5838 14.4765L21.5838 14.5765L21.5838 14.4765ZM27.1947 19.9371H27.2947V19.8371H27.1947V19.9371ZM25.376 19.9301L25.3765 19.8302L25.376 19.9301ZM27.1947 24.052L27.2051 24.1514L27.2947 24.142V24.052H27.1947ZM27.1363 24.0588L27.124 23.9596H27.124L27.1363 24.0588ZM25.5867 24.0703L25.5867 23.9703L25.5867 24.0703ZM21.3303 24.0663L21.3307 23.9663H21.3307L21.3303 24.0663ZM19.2536 22.3166L19.1547 22.3315L19.1547 22.3316L19.2536 22.3166ZM21.1295 19.9514L21.1321 20.0514H21.1321L21.1295 19.9514ZM7.3241 7.72483C7.85662 7.72414 8.38913 7.72355 8.92165 7.72305L8.92146 7.52305C8.38892 7.52355 7.85638 7.52414 7.32384 7.52483L7.3241 7.72483ZM3.90534 11.1636C3.90534 9.25734 5.41435 7.72831 7.32415 7.72483L7.32379 7.52483C5.30248 7.52851 3.70534 9.14822 3.70534 11.1636H3.90534ZM3.90176 27.0469C3.90176 21.7512 3.90176 16.4592 3.90534 11.1637L3.70534 11.1635C3.70176 16.4592 3.70176 21.7512 3.70176 27.0469H3.90176ZM7.43499 30.5679C5.399 30.5714 3.90176 29.081 3.90176 27.0469H3.70176C3.70176 29.192 5.28914 30.7716 7.43533 30.7679L7.43499 30.5679ZM26.3303 30.5679H7.43516V30.7679H26.3303V30.5679ZM28.6729 28.2312C28.6729 28.946 28.4394 29.5283 28.0351 29.9316C27.6308 30.3349 27.047 30.5679 26.3303 30.5679V30.7679C27.0913 30.7679 27.7288 30.5196 28.1764 30.0732C28.6239 29.6267 28.8729 28.9906 28.8729 28.2312H28.6729ZM28.6729 21.7369V28.2312H28.8729V21.7369H28.6729ZM28.6733 20.1026C28.6731 20.6475 28.6729 21.1923 28.6729 21.7369H28.8729C28.8729 21.1924 28.8731 20.6476 28.8733 20.1027L28.6733 20.1026ZM28.6693 15.1965C28.6747 16.8307 28.674 18.4671 28.6733 20.1026L28.8733 20.1027C28.874 18.4672 28.8747 16.8305 28.8693 15.1958L28.6693 15.1965ZM26.8651 13.0547C27.9227 13.2431 28.6659 14.1181 28.6693 15.1964L28.8693 15.1958C28.8656 14.0199 28.0521 13.063 26.9002 12.8578L26.8651 13.0547ZM26.4199 13.0118C26.5798 13.0211 26.7237 13.0297 26.8652 13.0547L26.9001 12.8578C26.7451 12.8303 26.5894 12.8214 26.4316 12.8121L26.4199 13.0118ZM26.1712 12.995C26.2576 13.0023 26.3406 13.0072 26.4199 13.0118L26.4316 12.8121C26.3519 12.8075 26.2715 12.8028 26.188 12.7958L26.1712 12.995ZM26.0812 11.9054C26.0804 12.2337 26.0796 12.5635 26.0796 12.8954H26.2796C26.2796 12.5638 26.2804 12.2342 26.2812 11.9058L26.0812 11.9054ZM26.0796 9.9585C26.0844 10.6055 26.0828 11.2525 26.0812 11.9054L26.2812 11.9058C26.2828 11.2531 26.2844 10.6051 26.2796 9.95703L26.0796 9.9585ZM23.8303 7.72483C25.1238 7.72483 26.0693 8.66789 26.0796 9.95857L26.2796 9.95697C26.2684 8.5569 25.2341 7.52483 23.8303 7.52483V7.72483ZM22.7228 7.72412C23.0919 7.72435 23.4611 7.72459 23.8302 7.72483L23.8304 7.52483C23.4612 7.52459 23.0921 7.52435 22.7229 7.52412L22.7228 7.72412ZM22.6231 7.63212C22.6701 8.21687 22.6254 8.72061 22.505 9.15459L22.6978 9.20804C22.8254 8.74772 22.871 8.21999 22.8225 7.61611L22.6231 7.63212ZM23.737 9.08131C23.3585 9.08131 22.98 9.08131 22.6014 9.08132V9.28132C22.98 9.28131 23.3585 9.28131 23.737 9.28131V9.08131ZM24.7122 10.0615C24.7122 9.74504 24.6425 9.49365 24.4729 9.32285C24.3031 9.15191 24.0528 9.08131 23.737 9.08131V9.28131C24.0275 9.28131 24.2147 9.34669 24.331 9.46378C24.4474 9.58102 24.5122 9.76974 24.5122 10.0615H24.7122ZM24.7122 12.6414V10.0615H24.5122V12.6414H24.7122ZM24.7122 12.9026V12.6414H24.5122V12.9026H24.7122ZM24.5755 13.0062C24.5896 13.0049 24.6044 13.0036 24.6205 13.0022L24.6039 12.8029C24.587 12.8043 24.5715 12.8057 24.5575 12.807L24.5755 13.0062ZM24.4165 13.0084C24.4667 13.0167 24.5209 13.0111 24.5755 13.0062L24.5575 12.807C24.4934 12.8128 24.4686 12.8143 24.4493 12.8111L24.4165 13.0084ZM7.34184 13.0097C13.0377 13.0133 18.7371 13.0133 24.4329 13.0097L24.4328 12.8097C18.7371 12.8133 13.0377 12.8133 7.34197 12.8097L7.34184 13.0097ZM5.33676 11.4492C5.56673 12.3631 6.38132 13.006 7.34151 13.0097L7.3423 12.8097C6.47323 12.8063 5.73833 12.2255 5.53072 11.4004L5.33676 11.4492ZM6.75195 9.17443C5.75458 9.45227 5.09987 10.5039 5.33674 11.4491L5.53074 11.4005C5.32285 10.5709 5.90199 9.61882 6.80562 9.3671L6.75195 9.17443ZM7.47461 9.08489C7.23478 9.08489 6.98528 9.11061 6.7524 9.17431L6.80516 9.36722C7.01704 9.30927 7.24817 9.28489 7.47461 9.28489V9.08489ZM9.07681 9.08394C8.54269 9.08422 8.0086 9.08454 7.47455 9.08489L7.47468 9.28489C8.00873 9.28454 8.54281 9.28422 9.07692 9.28394L9.07681 9.08394ZM9.16961 9.14654C8.99286 8.70824 8.93212 8.20791 9.02038 7.63836L8.82273 7.60773C8.72942 8.20992 8.79282 8.74695 8.98412 9.22133L9.16961 9.14654ZM27.3055 18.3663V18.0765H27.1055V18.3663H27.3055ZM27.2053 18.4663H27.2055V18.2663H27.2053V18.4663ZM26.8751 18.4627C26.9671 18.4664 27.0662 18.4663 27.2053 18.4663V18.2663C27.0649 18.2663 26.9703 18.2663 26.8831 18.2628L26.8751 18.4627ZM25.0252 18.462C25.6429 18.4624 26.2608 18.4628 26.8791 18.4628V18.2628C26.2608 18.2628 25.643 18.2624 25.0253 18.262L25.0252 18.462ZM21.3198 18.4628C22.5557 18.4604 23.7901 18.4612 25.0252 18.462L25.0253 18.262C23.7903 18.2612 22.5556 18.2604 21.3194 18.2628L21.3198 18.4628ZM17.7712 21.6769C17.9879 19.8045 19.4636 18.4662 21.3197 18.4628L21.3194 18.2628C19.3592 18.2664 17.8005 19.6834 17.5725 21.6539L17.7712 21.6769ZM20.4962 25.4289C18.7638 25.0177 17.5764 23.3663 17.7712 21.6768L17.5725 21.6539C17.3655 23.4495 18.6243 25.1902 20.45 25.6235L20.4962 25.4289ZM21.4128 25.5228C21.102 25.5228 20.7875 25.498 20.4962 25.4289L20.45 25.6235C20.7613 25.6974 21.0924 25.7228 21.4128 25.7228V25.5228ZM25.5249 25.5268C24.1531 25.5275 22.7822 25.5281 21.4132 25.5228L21.4124 25.7228C22.7819 25.7281 24.1533 25.7275 25.525 25.7268L25.5249 25.5268ZM26.897 25.5263C26.4396 25.5263 25.9822 25.5266 25.5249 25.5268L25.525 25.7268C25.9823 25.7266 26.4397 25.7263 26.897 25.7263V25.5263ZM27.1947 25.5263H26.897V25.7263H27.1947V25.5263ZM27.3 25.6864C27.2982 25.6654 27.2963 25.6431 27.2944 25.6187L27.095 25.634C27.097 25.6594 27.0989 25.6824 27.1007 25.7033L27.3 25.6864ZM27.309 25.8446C27.309 25.7925 27.3048 25.7429 27.3 25.6864L27.1007 25.7033C27.1056 25.7615 27.109 25.8025 27.109 25.8446H27.309ZM27.3098 26.6639C27.3094 26.3907 27.309 26.1177 27.309 25.8446H27.109C27.109 26.1178 27.1094 26.391 27.1098 26.6641L27.3098 26.6639ZM27.309 28.3032C27.3114 27.7566 27.3106 27.2101 27.3098 26.6639L27.1098 26.6641C27.1106 27.2105 27.1114 27.7564 27.109 28.3023L27.309 28.3032ZM26.4264 29.2042C26.6927 29.1965 26.9154 29.114 27.0719 28.9548C27.2285 28.7954 27.3071 28.5712 27.309 28.3035L27.109 28.3021C27.1074 28.5317 27.0408 28.7011 26.9292 28.8146C26.8177 28.9281 26.6493 28.9977 26.4207 29.0043L26.4264 29.2042ZM26.2765 29.2043H26.4235V29.0043H26.2765V29.2043ZM22.5275 29.2046C23.7773 29.2044 25.0269 29.2043 26.2765 29.2043V29.0043C25.0269 29.0043 23.7772 29.0044 22.5275 29.0046L22.5275 29.2046ZM7.52824 29.1971C12.527 29.2057 17.528 29.2051 22.5275 29.2046L22.5275 29.0046C17.5279 29.0051 12.5271 29.0057 7.52859 28.9971L7.52824 29.1971ZM6.5393 29.0248C6.84647 29.1534 7.20173 29.1971 7.52842 29.1971V28.9971C7.21665 28.9971 6.89043 28.955 6.61655 28.8403L6.5393 29.0248ZM5.27277 27.1018C5.27834 27.5464 5.38439 27.9405 5.59688 28.2682C5.80958 28.5962 6.12505 28.8516 6.53936 29.0248L6.61648 28.8403C6.23452 28.6806 5.9528 28.4495 5.76468 28.1594C5.57634 27.8689 5.47795 27.5134 5.47276 27.0993L5.27277 27.1018ZM5.26724 24.8535C5.26498 25.6023 5.26272 26.352 5.27277 27.1019L5.47276 27.0992C5.46273 26.3512 5.46498 25.6032 5.46724 24.8541L5.26724 24.8535ZM5.26918 23.891C5.26918 24.2117 5.26821 24.5325 5.26724 24.8535L5.46724 24.8541C5.46821 24.5332 5.46918 24.2121 5.46918 23.891H5.26918ZM5.26918 14.2336V23.891H5.46918V14.2336H5.26918ZM5.26918 13.9223V14.2336H5.46918V13.9223H5.26918ZM5.44588 13.8402C5.42984 13.8359 5.41475 13.8318 5.39894 13.8269L5.33942 14.0178C5.35953 14.0241 5.37826 14.0291 5.39393 14.0333L5.44588 13.8402ZM5.56042 13.883C5.5215 13.8597 5.47708 13.8486 5.44588 13.8402L5.39393 14.0333C5.43233 14.0436 5.44735 14.0484 5.4577 14.0546L5.56042 13.883ZM7.48537 14.3805C6.79326 14.3805 6.15182 14.237 5.56042 13.883L5.4577 14.0546C6.0858 14.4306 6.7643 14.5805 7.48537 14.5805V14.3805ZM21.5838 14.3765C16.8843 14.3758 12.1848 14.3751 7.48526 14.3805L7.48549 14.5805C12.1849 14.5751 16.8843 14.5758 21.5838 14.5765L21.5838 14.3765ZM26.2837 14.3769C24.717 14.3769 23.1504 14.3767 21.5838 14.3765L21.5838 14.5765C23.1504 14.5767 24.717 14.5769 26.2837 14.5769V14.3769ZM27.3055 15.4001C27.3055 15.0542 27.2431 14.7893 27.0682 14.6142C26.8932 14.4391 26.6286 14.3769 26.2837 14.3769V14.5769C26.6131 14.5769 26.8093 14.6382 26.9267 14.7556C27.0441 14.873 27.1055 15.0697 27.1055 15.4001H27.3055ZM27.3055 18.0765V15.4001H27.1055V18.0765H27.3055ZM27.1947 19.8371C26.5865 19.8371 25.9808 19.8336 25.3765 19.8302L25.3754 20.0301C25.9795 20.0336 26.5858 20.0371 27.1947 20.0371V19.8371ZM27.2947 24.052V19.9371H27.0947V24.052H27.2947ZM27.1486 24.1581C27.1677 24.1557 27.1862 24.1534 27.2051 24.1514L27.1843 23.9525C27.1631 23.9547 27.1428 23.9573 27.124 23.9596L27.1486 24.1581ZM27.0046 24.1699C27.0549 24.1699 27.1042 24.1636 27.1486 24.1581L27.124 23.9596C27.0772 23.9654 27.0404 23.9699 27.0046 23.9699V24.1699ZM25.5868 24.1703C26.0595 24.1701 26.5322 24.1699 27.0046 24.1699V23.9699C26.5321 23.9699 26.0594 23.9701 25.5867 23.9703L25.5868 24.1703ZM21.3299 24.1663C22.748 24.1717 24.168 24.171 25.5868 24.1703L25.5867 23.9703C24.1678 23.971 22.7482 23.9717 21.3307 23.9663L21.3299 24.1663ZM19.1547 22.3316C19.3166 23.398 20.2061 24.1625 21.33 24.1663L21.3307 23.9663C20.3025 23.9629 19.4991 23.2676 19.3524 22.3016L19.1547 22.3316ZM21.1268 19.8515C19.8469 19.8855 18.9676 21.0882 19.1547 22.3315L19.3525 22.3017C19.1809 21.1619 19.9874 20.0818 21.1321 20.0514L21.1268 19.8515ZM25.3765 19.8302C23.9547 19.8219 22.5409 19.8138 21.1268 19.8515L21.1321 20.0514C22.5424 20.0138 23.953 20.0219 25.3754 20.0301L25.3765 19.8302Z" fill="#445B74" mask="url(#path-1-outside-1_14607_59608)"/>
<path fill-rule="evenodd" clip-rule="evenodd" d="M19.2935 14.4789C20.9981 13.3386 22.1206 11.3959 22.1206 9.19114C22.1206 5.68018 19.2744 2.83398 15.7634 2.83398C12.2524 2.83398 9.40625 5.68018 9.40625 9.19114C9.40625 11.3959 10.5287 13.3386 12.2333 14.4789H9.95172C8.68095 13.083 7.90625 11.2275 7.90625 9.19114C7.90625 4.85175 11.424 1.33398 15.7634 1.33398C20.1028 1.33398 23.6206 4.85175 23.6206 9.19114C23.6206 11.2275 22.8459 13.083 21.5751 14.4789H19.2935Z" fill="#445B74"/>
<path d="M17.2449 5.52539C17.2397 5.52539 17.2357 5.52539 17.2305 5.52539C17.2252 5.52539 17.22 5.52539 17.216 5.52539C17.2134 5.52539 17.2095 5.52539 17.2068 5.52539C17.2042 5.52539 17.2003 5.52539 17.1976 5.52539C17.1924 5.52539 17.1871 5.52667 17.1819 5.52667C17.1648 5.52667 17.149 5.52539 17.132 5.52539H13.8019C13.4866 5.52539 13.2305 5.77401 13.2305 6.08001C13.2305 6.38601 13.4866 6.63464 13.8019 6.63464H17.132C17.149 6.63464 17.1648 6.63336 17.1819 6.63209C17.1976 6.63336 17.2147 6.63464 17.2305 6.63464C17.8623 6.63464 18.3733 7.13061 18.3733 7.74388C18.3733 8.35715 17.8623 8.85313 17.2305 8.85313H16.0876V8.2985H17.2278H17.2292H17.2305C17.5444 8.2985 17.8019 8.0486 17.8019 7.74388C17.8019 7.43916 17.5444 7.18926 17.2305 7.18926H17.2292H17.2278H15.5162H14.5638C14.2485 7.18926 13.9924 7.43788 13.9924 7.74388C13.9924 8.04988 14.2485 8.2985 14.5638 8.2985H14.9448V8.85313V9.96237V11.2565C14.9448 11.5612 15.2022 11.8111 15.5162 11.8111C15.8301 11.8111 16.0876 11.5612 16.0876 11.2565V9.96237H17.2305C18.4929 9.96237 19.5162 8.96915 19.5162 7.74388C19.5162 6.52371 18.5008 5.53304 17.2449 5.52539Z" fill="#1AC486"/>
</svg>
