<svg width="32" height="32" viewBox="0 0 32 32" fill="none" xmlns="http://www.w3.org/2000/svg">
<path d="M14.6665 7.84267V25.6533C14.6661 26.206 14.4707 26.7407 14.1147 27.1634C13.7587 27.5861 13.2649 27.8695 12.7204 27.9639C12.1759 28.0582 11.6155 27.9574 11.1381 27.6791C10.6607 27.4008 10.2967 26.9629 10.1105 26.4427L7.24779 18.2427M7.24779 18.2427C6.11608 17.7615 5.18537 16.9054 4.61317 15.8169C4.04096 14.7284 3.8624 13.4756 4.10771 12.2705C4.35301 11.0655 5.00712 9.9822 5.95933 9.204C6.91154 8.4258 8.10337 8.00047 9.33313 8H11.7758C17.2425 8 21.9425 6.35467 23.9998 4V22.6667C21.9425 20.312 17.2438 18.6667 11.7758 18.6667H9.33313C8.61664 18.6677 7.90733 18.5226 7.24779 18.2427ZM23.9998 17.3333C25.0607 17.3333 26.0781 16.9119 26.8282 16.1618C27.5784 15.4116 27.9998 14.3942 27.9998 13.3333C27.9998 12.2725 27.5784 11.2551 26.8282 10.5049C26.0781 9.75476 25.0607 9.33333 23.9998 9.33333V17.3333Z" stroke="#445A73" stroke-width="2" stroke-linecap="round" stroke-linejoin="round"/>
<path fill-rule="evenodd" clip-rule="evenodd" d="M25.3335 18.1542C27.4476 17.5707 29.0002 15.6336 29.0002 13.3339C29.0002 11.0342 27.4476 9.09717 25.3335 8.51367V10.6458C26.3213 11.1367 27.0002 12.156 27.0002 13.3339C27.0002 14.5118 26.3213 15.5312 25.3335 16.0221V18.1542Z" fill="#1AC486"/>
</svg>
