<svg width="27" height="28" viewBox="0 0 27 28" fill="none" xmlns="http://www.w3.org/2000/svg">
<path d="M26.0054 10.2375C26.0054 15.532 21.7716 19.8237 16.5486 19.8237C15.2443 19.8237 14.1844 18.7494 14.1844 17.4272C14.1844 16.1049 15.2443 15.0306 16.5486 15.0306C19.1574 15.0306 21.277 12.882 21.277 10.2375C21.277 7.59308 19.1574 5.44445 16.5486 5.44445C15.2443 5.44445 14.1844 4.37014 14.1844 3.04791C14.1844 1.74772 15.2116 0.684423 16.4889 0.651367C16.5106 0.651367 16.5269 0.651367 16.5486 0.651367C16.5704 0.651367 16.5921 0.651367 16.6084 0.651367C21.8042 0.684423 26.0054 4.96514 26.0054 10.2375Z" fill="url(#paint0_linear_14466_66431)"/>
<path d="M18.9122 3.04791C18.9122 4.37014 17.8525 5.44445 16.5483 5.44445C15.2441 5.44445 14.1844 4.37014 14.1844 3.04791C14.1844 1.74772 15.2115 0.684423 16.4885 0.651367C16.5103 0.651367 16.5266 0.651367 16.5483 0.651367C16.5701 0.651367 16.5918 0.651367 16.6081 0.651367C17.8851 0.684423 18.9122 1.74772 18.9122 3.04791Z" fill="url(#paint1_linear_14466_66431)"/>
<path d="M16.5483 19.8234C17.8539 19.8234 18.9122 18.7504 18.9122 17.4268C18.9122 16.1032 17.8539 15.0303 16.5483 15.0303C15.2428 15.0303 14.1844 16.1032 14.1844 17.4268C14.1844 18.7504 15.2428 19.8234 16.5483 19.8234Z" fill="url(#paint2_linear_14466_66431)"/>
<path d="M16.5489 15.0303H7.09216V19.8234H16.5489V15.0303Z" fill="url(#paint3_linear_14466_66431)"/>
<path d="M9.45604 27.812C8.15726 27.812 7.09216 26.7322 7.09216 25.4155V10.2374C7.09216 8.92064 8.15726 7.84082 9.45604 7.84082C10.7548 7.84082 11.8199 8.92064 11.8199 10.2374V25.4155C11.8199 26.7322 10.7548 27.812 9.45604 27.812Z" fill="url(#paint4_linear_14466_66431)"/>
<path d="M16.5483 7.84082C15.2495 7.84082 14.1844 8.92064 14.1844 10.2374C14.1844 11.5541 15.2495 12.6339 16.5483 12.6339C17.8471 12.6339 18.9122 11.5541 18.9122 10.2374C18.9122 8.92064 17.8471 7.84082 16.5483 7.84082Z" fill="url(#paint5_linear_14466_66431)"/>
<path d="M16.5383 12.6339H5.51629C4.21191 12.6339 3.1521 11.5596 3.1521 10.2374C3.1521 8.91513 4.21191 7.84082 5.51629 7.84082H16.5383C17.8427 7.84082 18.9025 8.91513 18.9025 10.2374C18.9025 11.5596 17.8427 12.6339 16.5383 12.6339Z" fill="url(#paint6_linear_14466_66431)"/>
<path d="M16.5483 0.651367C15.2495 0.651367 14.1844 1.73119 14.1844 3.04791C14.1844 4.36463 15.2495 5.44445 16.5483 5.44445C17.8471 5.44445 18.9122 4.36463 18.9122 3.04791C18.9122 1.73119 17.8471 0.651367 16.5483 0.651367Z" fill="url(#paint7_linear_14466_66431)"/>
<path d="M16.1417 5.44445H2.36419C1.05981 5.44445 0 4.37014 0 3.04791C0 1.72568 1.05981 0.651367 2.36419 0.651367H16.1417C17.4461 0.651367 18.5059 1.72568 18.5059 3.04791C18.5059 4.37014 17.4461 5.44445 16.1417 5.44445Z" fill="url(#paint8_linear_14466_66431)"/>
<defs>
<linearGradient id="paint0_linear_14466_66431" x1="34.2657" y1="-8.92861" x2="-10.8948" y2="43.465" gradientUnits="userSpaceOnUse">
<stop stop-color="#00A8A1"/>
<stop offset="1" stop-color="#41FF7A"/>
</linearGradient>
<linearGradient id="paint1_linear_14466_66431" x1="29.8117" y1="-12.7659" x2="-15.3497" y2="39.6217" gradientUnits="userSpaceOnUse">
<stop stop-color="#00A8A1"/>
<stop offset="1" stop-color="#41FF7A"/>
</linearGradient>
<linearGradient id="paint2_linear_14466_66431" x1="36.8111" y1="-6.73233" x2="-8.35031" y2="45.6552" gradientUnits="userSpaceOnUse">
<stop stop-color="#00A8A1"/>
<stop offset="1" stop-color="#41FF7A"/>
</linearGradient>
<linearGradient id="paint3_linear_14466_66431" x1="34.0702" y1="-9.09771" x2="-11.0903" y2="43.2959" gradientUnits="userSpaceOnUse">
<stop stop-color="#00A8A1"/>
<stop offset="1" stop-color="#41FF7A"/>
</linearGradient>
<linearGradient id="paint4_linear_14466_66431" x1="32.8891" y1="-10.1126" x2="-12.2723" y2="42.275" gradientUnits="userSpaceOnUse">
<stop stop-color="#00A8A1"/>
<stop offset="1" stop-color="#41FF7A"/>
</linearGradient>
<linearGradient id="paint5_linear_14466_66431" x1="33.3114" y1="-9.74912" x2="-11.85" y2="42.6385" gradientUnits="userSpaceOnUse">
<stop stop-color="#00A8A1"/>
<stop offset="1" stop-color="#41FF7A"/>
</linearGradient>
<linearGradient id="paint6_linear_14466_66431" x1="34.2849" y1="-17.488" x2="-23.2482" y2="49.26" gradientUnits="userSpaceOnUse">
<stop stop-color="#00A8A1"/>
<stop offset="1" stop-color="#41FF7A"/>
</linearGradient>
<linearGradient id="paint7_linear_14466_66431" x1="29.8117" y1="-12.7659" x2="-15.3497" y2="39.6217" gradientUnits="userSpaceOnUse">
<stop stop-color="#00A8A1"/>
<stop offset="1" stop-color="#41FF7A"/>
</linearGradient>
<linearGradient id="paint8_linear_14466_66431" x1="31.3537" y1="-23.2991" x2="-35.9077" y2="54.7353" gradientUnits="userSpaceOnUse">
<stop stop-color="#00A8A1"/>
<stop offset="1" stop-color="#41FF7A"/>
</linearGradient>
</defs>
</svg>
