<?xml version="1.0" encoding="utf-8"?>
<!-- Generator: Adobe Illustrator 22.1.0, SVG Export Plug-In . SVG Version: 6.00 Build 0)  -->
<svg version="1.1" id="Layer_1" xmlns="http://www.w3.org/2000/svg" xmlns:xlink="http://www.w3.org/1999/xlink" x="0px" y="0px"
	 viewBox="0 0 561 559" style="enable-background:new 0 0 561 559;" xml:space="preserve">
<style type="text/css">
	.st0{fill:url(#SVGID_1_);}
	.st1{fill:url(#SVGID_2_);}
	.st2{fill:url(#SVGID_3_);}
	.st3{fill:#FFFFFF;}
	.st4{fill:url(#SVGID_4_);}
	.st5{fill:url(#SVGID_5_);}
	.st6{opacity:0.57;fill:url(#SVGID_6_);enable-background:new    ;}
	.st7{opacity:0.57;fill:url(#SVGID_7_);enable-background:new    ;}
	.st8{clip-path:url(#SVGID_9_);}
	.st9{fill:url(#SVGID_10_);}
	.st10{clip-path:url(#SVGID_12_);}
	.st11{fill:url(#SVGID_13_);}
	.st12{clip-path:url(#SVGID_15_);}
	.st13{fill:url(#SVGID_16_);}
	.st14{clip-path:url(#SVGID_18_);}
	.st15{fill:url(#SVGID_19_);}
	.st16{clip-path:url(#SVGID_21_);}
	.st17{fill:url(#SVGID_22_);}
	.st18{fill:#F7F7F7;}
	.st19{fill:url(#SVGID_23_);}
</style>
<linearGradient id="SVGID_1_" gradientUnits="userSpaceOnUse" x1="275.3" y1="520" x2="275.3" y2="1017.1" gradientTransform="matrix(1 0 0 1 0 -520)">
	<stop  offset="0" style="stop-color:#000000"/>
	<stop  offset="1" style="stop-color:#41FF7A"/>
</linearGradient>
<path class="st0" d="M275.3,2C139.6,2,29.5,112.4,29.5,248.6s110.1,246.6,245.8,246.6s245.8-110.4,245.8-246.6
	C521.2,112.4,411.1,2,275.3,2z M27.5,248.6C27.5,111.3,138.5,0,275.3,0s247.8,111.3,247.8,248.6S412.2,497.1,275.3,497.1
	S27.5,385.8,27.5,248.6z"/>
<linearGradient id="SVGID_2_" gradientUnits="userSpaceOnUse" x1="275.3" y1="520.5" x2="275.3" y2="1017.5849" gradientTransform="matrix(1 0 0 1 0 -520)">
	<stop  offset="0" style="stop-color:#7A29AA"/>
	<stop  offset="1" style="stop-color:#BE5CA9"/>
</linearGradient>
<path class="st1" d="M275.3,1.5C139.3,1.5,29,112.1,29,248.6s110.3,247.1,246.3,247.1s246.3-110.6,246.3-247.1S411.4,1.5,275.3,1.5z
	 M28,248.6C28,111.6,138.8,0.5,275.3,0.5s247.3,111.1,247.3,248.1S411.9,496.7,275.3,496.7S28,385.6,28,248.6z"/>
<linearGradient id="SVGID_3_" gradientUnits="userSpaceOnUse" x1="438.3347" y1="898.3597" x2="50.2493" y2="592.9993" gradientTransform="matrix(1 0 0 1 0 -520)">
	<stop  offset="3.886620e-03" style="stop-color:#2AF0FF;stop-opacity:0.3"/>
	<stop  offset="0.5051" style="stop-color:#00A8A1;stop-opacity:0.4"/>
	<stop  offset="1" style="stop-color:#41FF7A"/>
</linearGradient>
<path class="st2" d="M411.8,249c0,74.1-61.8,134.1-138,134.1c-22.6,0-43.8-5.3-62.6-14.6c-23.4-11.6-43-29.5-56.3-51.5
	c-12.1-20-19.1-43.3-19.1-68.1c0-1.4,0-2.7,0.1-4.1c2.2-72.2,63.2-130,138-130c18.3,0,35.7,3.4,51.7,9.7c5.7,2.2,11.3,4.9,16.5,7.8
	c6.5,3.6,12.6,7.7,18.4,12.2C391.7,169.1,411.8,206.8,411.8,249z"/>
<path class="st3" d="M366.7,249c0,49.9-41.6,90.3-92.9,90.3c-0.7,0-1.5,0-2.2,0c-50.3-1.1-90.7-41.1-90.7-90.3s40.4-89.2,90.7-90.3
	c0.7,0,1.5,0,2.2,0C325.1,158.7,366.7,199.1,366.7,249z"/>
<path class="st3" d="M366.7,249c0,49.9-41.6,90.3-92.9,90.3c-0.7,0-1.5,0-2.2,0c-50.3-1.1-90.7-41.1-90.7-90.3s40.4-89.2,90.7-90.3
	c0.7,0,1.5,0,2.2,0C325.1,158.7,366.7,199.1,366.7,249z"/>
<linearGradient id="SVGID_4_" gradientUnits="userSpaceOnUse" x1="393.1357" y1="667.8678" x2="154.1016" y2="870.3548" gradientTransform="matrix(1 0 0 1 0 -520)">
	<stop  offset="0" style="stop-color:#7A29AA;stop-opacity:0"/>
	<stop  offset="1" style="stop-color:#BE5CA9"/>
</linearGradient>
<path class="st4" d="M273.7,96.1c-86.9,0-157.3,68.4-157.3,152.8s70.4,152.8,157.3,152.8S431,333.3,431,248.9
	C431,164.6,360.6,96.1,273.7,96.1z M115.5,249c0-85,70.9-153.8,158.3-153.8C361.2,95.1,432,164,432,249s-70.9,153.8-158.3,153.8
	S115.5,333.9,115.5,249z"/>
<linearGradient id="SVGID_5_" gradientUnits="userSpaceOnUse" x1="269.8596" y1="634.8505" x2="277.5496" y2="903.4645" gradientTransform="matrix(1 0 0 1 0 -520)">
	<stop  offset="0" style="stop-color:#7A29AA"/>
	<stop  offset="1" style="stop-color:#BE5CA9"/>
</linearGradient>
<path class="st5" d="M273.7,383.2c76.3,0,138.1-60.1,138.1-134.2S350,114.8,273.7,114.8s-138.1,60-138.1,134.2
	C135.6,323.1,197.5,383.2,273.7,383.2z"/>
<path class="st3" d="M273.7,115.7c-75.8,0-137.1,59.7-137.1,133.2S198,382.1,273.7,382.1S410.9,322.5,410.9,249
	C410.9,175.4,349.5,115.7,273.7,115.7z M134.6,249c0-74.7,62.3-135.2,139.1-135.2S412.9,174.3,412.9,249s-62.3,135.2-139.1,135.2
	S134.6,323.7,134.6,249z"/>
<linearGradient id="SVGID_6_" gradientUnits="userSpaceOnUse" x1="325.0352" y1="831.2943" x2="181.2682" y2="656.6392" gradientTransform="matrix(1 0 0 1 0 -520)">
	<stop  offset="0" style="stop-color:#225221"/>
	<stop  offset="1" style="stop-color:#000000;stop-opacity:0"/>
</linearGradient>
<path class="st6" d="M273.7,339.2c50.1,0,90.7-40.4,90.7-90.3s-40.6-90.3-90.7-90.3S183,199.1,183,249S223.6,339.2,273.7,339.2z"/>
<linearGradient id="SVGID_7_" gradientUnits="userSpaceOnUse" x1="414.113" y1="879.4037" x2="83.0604" y2="618.9187" gradientTransform="matrix(1 0 0 1 0 -520)">
	<stop  offset="3.886620e-03" style="stop-color:#1B1B1B;stop-opacity:0"/>
	<stop  offset="0.9792" style="stop-color:#11C4BC"/>
</linearGradient>
<path class="st7" d="M273.8,363.4c65,0,117.8-51.2,117.8-114.4s-52.7-114.4-117.8-114.4S156,185.8,156,249S208.7,363.4,273.8,363.4z
	"/>
<g>
	<g>
		<defs>
			<rect id="SVGID_8_" y="320.1" width="100.2" height="100.2"/>
		</defs>
		<clipPath id="SVGID_9_">
			<use xlink:href="#SVGID_8_"  style="overflow:visible;"/>
		</clipPath>
		<g class="st8">
			
				<linearGradient id="SVGID_10_" gradientUnits="userSpaceOnUse" x1="-4.2698" y1="945.646" x2="159.0715" y2="778.828" gradientTransform="matrix(1 0 0 1 0 -520)">
				<stop  offset="0" style="stop-color:#006A5F"/>
				<stop  offset="1" style="stop-color:#3AFF2A"/>
			</linearGradient>
			<path class="st9" d="M50.1,420.2c27.7,0,50.1-22.4,50.1-50.1S77.8,320,50.1,320S0,342.5,0,370.1C0,397.8,22.4,420.2,50.1,420.2z"
				/>
			<path class="st3" d="M54.3,370.3c0.2,0.1,0.4,0.1,0.6,0.1c0.3,0,0.7-0.1,0.9-0.3l15.1-12.5c0.3-0.3,0.5-0.7,0.5-1.1
				s-0.1-0.8-0.5-1.1l-15.1-12.5c-0.4-0.4-1-0.4-1.5-0.2c-0.5,0.2-0.8,0.7-0.8,1.3v3.9H27.6c-0.8,0-1.4,0.7-1.4,1.4v14.4
				c0,0.7,0.7,1.4,1.4,1.4h25.9v3.9C53.5,369.6,53.8,370,54.3,370.3z M29,362.3v-11.6h25.9c0.8,0,1.4-0.7,1.4-1.4V347l11.5,9.5
				l-11.5,9.4v-2.3c0-0.8-0.7-1.4-1.4-1.4L29,362.3L29,362.3z"/>
			<path class="st3" d="M26.7,381.5L41.8,394c0.3,0.2,0.6,0.3,0.9,0.3c0.2,0,0.4-0.1,0.6-0.1c0.5-0.2,0.8-0.7,0.8-1.3V389H70
				c0.8,0,1.4-0.7,1.4-1.4v-14.5c0-0.8-0.7-1.4-1.4-1.4H44.1v-3.9c0-0.5-0.3-1-0.8-1.3c-0.5-0.2-1.1-0.1-1.5,0.2l-15.1,12.5
				c-0.3,0.3-0.5,0.7-0.5,1.1C26.2,380.8,26.4,381.2,26.7,381.5z M41.2,370.9v2.3c0,0.8,0.7,1.4,1.4,1.4h25.9v11.6H42.7
				c-0.8,0-1.4,0.7-1.4,1.4v2.3l-11.4-9.4L41.2,370.9z"/>
		</g>
	</g>
</g>
<g>
	<g>
		<defs>
			<rect id="SVGID_11_" x="41.3" y="6.4" width="100.2" height="100.2"/>
		</defs>
		<clipPath id="SVGID_12_">
			<use xlink:href="#SVGID_11_"  style="overflow:visible;"/>
		</clipPath>
		<g class="st10">
			
				<linearGradient id="SVGID_13_" gradientUnits="userSpaceOnUse" x1="54.3489" y1="645.4478" x2="122.6919" y2="518.2693" gradientTransform="matrix(1 0 0 1 0 -520)">
				<stop  offset="0" style="stop-color:#D44D00"/>
				<stop  offset="1" style="stop-color:#FEFF6A"/>
			</linearGradient>
			<path class="st11" d="M91.4,106.6c27.6,0,50.1-22.4,50.1-50.1S119,6.4,91.4,6.4S41.3,28.8,41.3,56.5S63.7,106.6,91.4,106.6z"/>
			<path class="st3" d="M122.5,70.6c0-0.3,0.3-9-5.3-13.9c-0.4-0.3-1-0.3-1.4-0.1c-0.1,0.1-6.5,4.8-12.5,0c-0.4-0.3-1-0.3-1.4,0
				c-0.1,0.1-1.9,1.6-3.4,4.5c-0.4-0.2-0.8-0.1-1.1,0.2c-0.3,0.2-6.5,4.7-12.5,0c-0.3-0.3-0.7-0.3-1.1-0.2c-0.8-1.6-1.9-3.2-3.4-4.5
				c-0.4-0.3-1-0.3-1.4-0.1c-0.1,0.1-6.5,4.8-12.5,0c-0.4-0.3-1-0.3-1.4,0c-0.3,0.2-5.6,4.8-5.7,13.9c0,0.3,0.1,0.6,0.4,0.8
				c0.2,0.2,0.4,0.3,0.8,0.3H78c-0.2,1.1-0.4,2.3-0.4,3.7c0,0.3,0.1,0.6,0.4,0.8c0.2,0.2,0.5,0.3,0.8,0.3H103c0.6,0,1.1-0.4,1.1-1
				c0-0.2,0.1-1.6-0.3-3.7h17.7C122.1,71.6,122.5,71.2,122.5,70.6z M78.6,69.5h-17c0.4-5.7,3.1-9.3,4.3-10.6
				c5.7,3.9,11.6,1.2,13.7,0c1.1,1.2,1.9,2.6,2.5,3.9C81,64.1,79.5,66.3,78.6,69.5z M79.9,74.3c0.4-5.7,3.1-9.3,4.3-10.6
				c5.7,3.9,11.6,1.2,13.7,0c3.3,3.4,3.9,8.5,4,10.7L79.9,74.3z M103.4,69.5c-0.5-2.1-1.5-4.6-3.3-6.7c0.9-1.9,1.9-3.3,2.6-3.9
				c5.7,3.9,11.6,1.2,13.7,0c3.3,3.4,3.9,8.5,4,10.7L103.4,69.5z"/>
			<path class="st3" d="M109.4,35.7c-2.7,0-5.4,1-7.3,2.9c-1.6,1.5-2.7,3.6-2.9,5.7c-1.9-2.4-4.9-4-8.2-4c-2.7,0-5.4,1-7.3,2.9
				c-0.3,0.3-0.5,0.5-0.8,0.9c-0.8-4.8-5-8.5-10.2-8.5c-2.7,0-5.4,1-7.3,2.9s-3,4.5-3,7.1c0,5.6,4.7,10,10.3,10c2.7,0,5.4-1,7.3-2.9
				c0.3-0.3,0.5-0.5,0.8-0.9c0.8,4.8,5,8.5,10.2,8.5c2.7,0,5.4-1,7.3-2.9c1.6-1.5,2.6-3.6,2.9-5.7c1.9,2.4,4.9,4,8.2,4
				c2.7,0,5.4-1,7.3-2.9s3-4.5,3-7.1C119.7,40.2,115.1,35.7,109.4,35.7z M78.4,51.4c-1.5,1.5-3.6,2.3-5.7,2.3
				c-4.5,0-8.1-3.5-8.1-7.9c0-2.1,0.9-4.1,2.4-5.6s3.6-2.3,5.7-2.3c4.5,0,8.1,3.5,8.1,7.9C80.8,47.8,79.9,49.8,78.4,51.4z
				 M96.7,56.1c-1.5,1.5-3.6,2.3-5.7,2.3c-4.5,0-8.1-3.5-8.1-7.9c0-2.1,0.9-4.1,2.4-5.6s3.6-2.3,5.7-2.3c4.5,0,8.1,3.5,8.1,7.9
				C99.1,52.6,98.2,54.5,96.7,56.1z M115.1,51.4c-1.5,1.5-3.6,2.3-5.7,2.3c-4.5,0-8.1-3.5-8.1-7.9c0-2.1,0.9-4.1,2.4-5.6
				s3.6-2.3,5.7-2.3c4.5,0,8.1,3.5,8.1,7.9C117.5,47.8,116.7,49.8,115.1,51.4z"/>
		</g>
	</g>
</g>
<g>
	<g>
		<defs>
			<rect id="SVGID_14_" x="224.9" y="458" width="100.2" height="100.2"/>
		</defs>
		<clipPath id="SVGID_15_">
			<use xlink:href="#SVGID_14_"  style="overflow:visible;"/>
		</clipPath>
		<g class="st12">
			
				<linearGradient id="SVGID_16_" gradientUnits="userSpaceOnUse" x1="341.7051" y1="963.9311" x2="176.9021" y2="1122.4681" gradientTransform="matrix(1 0 0 1 0 -520)">
				<stop  offset="0" style="stop-color:#7A29AA"/>
				<stop  offset="1" style="stop-color:#BE5CA9"/>
			</linearGradient>
			<path class="st13" d="M275,558.2c27.6,0,50.1-22.4,50.1-50.1S302.6,458,275,458s-50.1,22.4-50.1,50.1
				C224.9,535.8,247.4,558.2,275,558.2z"/>
			<path class="st3" d="M262,504.9c-8.3,0-15,6.5-15,14.6c0,8,6.7,14.6,15,14.6c6.5,0,12.1-4.1,14.1-9.8c1,0.1,1.9,0.1,2.7,0.1
				c4.6,0,15.2-0.5,15.2-4.9v-5.6v-0.2c0-0.2,0.1-0.2,0.1-0.4s0-0.2-0.1-0.4V508c0-0.2,0.1-0.2,0.1-0.4c0-0.2,0-0.2-0.1-0.4v-5.4
				c0-0.2,0.1-0.2,0.1-0.4c0-0.2-0.1-0.5-0.2-0.6c0.1-0.2,0.1-0.4,0.1-0.6v-6c0-0.2,0.1-0.2,0.1-0.4c0-0.2,0-0.2-0.1-0.4V488
				c0-0.2,0.1-0.2,0.1-0.4c0-0.2-0.1-0.5-0.2-0.7c-0.2-0.5-0.4-0.8-0.8-1c-3.2-2.6-13-2.7-14.3-2.7s-11.3,0.1-14.3,2.7
				c-0.4,0.2-0.6,0.6-0.8,1c-0.1,0.2-0.2,0.5-0.2,0.7s0,0.2,0.1,0.4v5.4c0,0.2-0.1,0.2-0.1,0.4c0,0.2,0,0.2,0.1,0.4v5.8
				c0,0.2,0,0.4,0.1,0.6c-0.1,0.2-0.2,0.4-0.2,0.6s0,0.2,0.1,0.4v3.1C263.1,504.9,262.5,504.9,262,504.9z M292.3,519.3L292.3,519.3
				c0,0.1,0,0.1,0,0.2c-0.1,1.7-6.2,2.9-13.5,2.9c-0.7,0-1.5,0-2.2-0.1c0.2-0.9,0.3-2,0.3-2.9c0-0.2,0-0.5,0-0.8c0.7,0,1.3,0,1.9,0
				c3.5,0,10.3-0.2,13.5-2.2L292.3,519.3L292.3,519.3z M292.3,513.7L292.3,513.7c0,0.1,0,0.1,0,0.2c-0.1,1.7-6.2,2.9-13.5,2.9
				c-0.7,0-1.4,0-2.1-0.1c-0.3-1.6-0.8-3-1.6-4.3c1.4,0.1,2.7,0.1,3.6,0.1c3.5,0,10.3-0.2,13.5-2.2L292.3,513.7L292.3,513.7z
				 M292.3,500L292.3,500c0,0.1,0,0.1,0,0.2c-0.1,1.7-6.2,2.9-13.5,2.9s-13.5-1.3-13.5-2.9V500c0,0,0,0,0-0.1v-3.4
				c3.2,2,10,2.3,13.5,2.3s10.3-0.2,13.5-2.2V500z M278.8,485.4c7.7,0,12.5,1.4,13.2,2.3c-0.8,0.9-5.6,2.3-13.2,2.3
				c-7.7,0-12.5-1.4-13.2-2.3C266.4,486.8,271.2,485.4,278.8,485.4z M278.8,492.1c1.2,0,9.7-0.1,13.5-2.1v3.9v0.1c0,0,0,0,0,0.1
				c-0.1,1.7-6.2,2.9-13.5,2.9s-13.5-1.3-13.5-2.9V494c0,0,0,0,0-0.1V490C269.1,492,277.6,492.1,278.8,492.1z M278.8,505.7
				c1.2,0,9.7-0.1,13.5-2.1v3.9v0.1c0,0,0,0,0,0.1c-0.1,1.7-6.2,2.9-13.5,2.9c-1.8,0-3.5-0.1-5-0.2c-2.1-2.6-5.1-4.5-8.5-5.3v-1.6
				C269.1,505.7,277.6,505.7,278.8,505.7z M275.1,519.4c0,7-5.8,12.7-13,12.7c-7.2,0-13-5.7-13-12.7s5.8-12.7,13-12.7
				C269.2,506.7,275.1,512.4,275.1,519.4z"/>
			<path class="st3" d="M252,519.4c0,5.4,4.5,9.8,10,9.8c5.6,0,10-4.4,10-9.8c0-5.4-4.5-9.8-10-9.8C256.4,509.6,252,514,252,519.4z
				 M270.9,519.4c0,4.7-4,8.6-8.8,8.6s-8.8-3.9-8.8-8.6c0-4.7,4-8.6,8.8-8.6S270.9,514.7,270.9,519.4z"/>
			<path class="st3" d="M260.8,513.2v1c-0.5,0.2-1,0.5-1.4,0.9c-0.6,0.6-0.9,1.3-0.9,2.2c0,0.5,0.1,0.9,0.2,1.2
				c0.2,0.5,0.6,0.9,1.1,1.3c0.4,0.3,1,0.6,1.6,0.8s0.8,0.4,0.9,0.5s0.1,0.1,0.1,0.2c0,0,0,0.1,0,0.2c0,0.2,0,0.2-0.2,0.2
				c-0.2,0.1-0.3,0.2-0.6,0.2c-0.6,0-1.2-0.2-1.5-0.5l-0.4-0.2c-0.2-0.1-0.4-0.2-0.6-0.1c-0.2,0.1-0.3,0.2-0.4,0.4l-0.6,1.7
				c-0.1,0.2,0,0.6,0.2,0.7l0.2,0.2c0.3,0.2,0.8,0.5,1.3,0.6c0.2,0.1,0.3,0.1,0.6,0.2v0.9c0,0.3,0.3,0.6,0.6,0.6h1.6
				c0.3,0,0.6-0.3,0.6-0.6v-1.1c0.6-0.2,1.1-0.6,1.5-1c0.6-0.6,0.8-1.3,0.8-2.2c0-0.4-0.1-0.8-0.2-1.2c-0.2-0.6-0.6-1-1.1-1.4
				c-0.4-0.3-0.9-0.6-1.6-0.9h-0.1c-0.6-0.3-1-0.5-1.1-0.6c-0.1,0-0.1-0.1-0.1-0.1s0,0,0-0.1c0,0,0-0.1,0.1-0.2
				c0.1-0.1,0.2-0.2,0.5-0.2s0.6,0.1,0.8,0.2c0.2,0.1,0.4,0.2,0.5,0.2l0.3,0.2c0.2,0.1,0.3,0.1,0.6,0.1c0.2-0.1,0.3-0.2,0.4-0.4
				l0.6-1.6c0.1-0.3,0-0.6-0.2-0.8l-0.2-0.2c-0.4-0.2-0.9-0.4-1.5-0.6V513c0-0.3-0.3-0.6-0.6-0.6H261
				C261,512.6,260.8,512.9,260.8,513.2z M262.1,514.7v-0.9h0.3v0.8c0,0.3,0.2,0.6,0.6,0.6c0.5,0.1,0.9,0.2,1.3,0.3l-0.2,0.4
				c-0.2-0.1-0.2-0.2-0.4-0.2c-0.4-0.2-0.8-0.2-1.3-0.2c-0.6,0-1.1,0.2-1.4,0.5c-0.3,0.2-0.4,0.6-0.4,1c0,0.2,0.1,0.4,0.2,0.6
				c0.1,0.2,0.2,0.3,0.4,0.5c0.3,0.2,0.7,0.5,1.5,0.8c0.6,0.2,1,0.5,1.3,0.7s0.6,0.6,0.6,0.9c0.1,0.2,0.2,0.5,0.2,0.8
				c0,0.5-0.2,1-0.5,1.3c-0.3,0.4-0.8,0.6-1.3,0.7c-0.3,0.1-0.5,0.3-0.5,0.6v0.9h-0.3v-0.9c0-0.3-0.2-0.6-0.6-0.6
				c-0.3,0-0.6-0.1-0.9-0.2c-0.2-0.1-0.5-0.2-0.7-0.3l0.2-0.4c0.6,0.3,1.3,0.5,1.9,0.5s1.1-0.2,1.5-0.5s0.6-0.7,0.6-1.2
				c0-0.2-0.1-0.5-0.2-0.6c-0.1-0.2-0.2-0.4-0.4-0.6c-0.3-0.3-0.7-0.6-1.3-0.8c-0.6-0.2-1.1-0.5-1.4-0.7s-0.6-0.6-0.7-0.8
				s-0.2-0.5-0.2-0.7c0-0.5,0.2-0.9,0.5-1.3c0.3-0.3,0.7-0.6,1.2-0.6C261.9,515.2,262.1,515,262.1,514.7z"/>
		</g>
	</g>
</g>
<g>
	<g>
		<defs>
			<rect id="SVGID_17_" x="460.4" y="327.1" width="100.2" height="100.2"/>
		</defs>
		<clipPath id="SVGID_18_">
			<use xlink:href="#SVGID_17_"  style="overflow:visible;"/>
		</clipPath>
		<g class="st14">
			
				<linearGradient id="SVGID_19_" gradientUnits="userSpaceOnUse" x1="473.333" y1="966.1387" x2="541.735" y2="838.9218" gradientTransform="matrix(1 0 0 1 0 -520)">
				<stop  offset="0" style="stop-color:#7A29AA"/>
				<stop  offset="1" style="stop-color:#0084E9"/>
			</linearGradient>
			<path class="st15" d="M510.4,427.3c27.6,0,50.1-22.4,50.1-50.1c0-27.6-22.5-50.1-50.1-50.1s-50.1,22.4-50.1,50.1
				C460.4,404.9,482.8,427.3,510.4,427.3z"/>
			<path class="st3" d="M510,364.7c-0.8,0-1.7-0.3-2.4-0.7l-0.5-0.3l-0.7,2l0.3,0.2c0.6,0.4,1.6,0.7,2.6,0.8v1.8h2v-1.9
				c1.7-0.4,2.9-1.7,2.9-3.3c0-2.1-1.7-3-3-3.6c-1.7-0.7-1.9-1.1-1.9-1.6s0.4-1.1,1.5-1.1s1.7,0.4,2,0.5l0.5,0.3l0.7-2l-0.4-0.2
				c-0.6-0.4-1.3-0.5-2.1-0.6v-1.7h-1.9v1.9c-1.7,0.4-2.8,1.6-2.8,3.1c0,1.9,1.6,2.8,3.2,3.4c1.3,0.5,1.7,1,1.7,1.7
				C511.7,364.2,511,364.7,510,364.7z M510.3,361c-1.9-0.7-2.7-1.5-2.7-2.7c0-1.3,0.9-2.1,2.4-2.4l0.4-0.1v-1.7h0.3v1.7h0.4
				c0.6,0,1.3,0.2,1.8,0.4l-0.2,0.4c-0.5-0.2-1.1-0.4-2-0.4c-1.7,0-2.3,1-2.3,1.9c0,1.3,1.1,1.8,2.5,2.4c1.7,0.7,2.5,1.5,2.5,2.9
				s-1,2.3-2.5,2.6l-0.4,0.1v1.8h-0.3V366h-0.5c-0.8,0-1.7-0.2-2.2-0.5l0.2-0.4c0.7,0.4,1.6,0.5,2.4,0.5c1.5,0,2.6-0.9,2.6-2.1
				C512.6,362.1,511.4,361.4,510.3,361z"/>
			<path class="st3" d="M519.5,365.7c0.9-1.5,1.4-3.2,1.4-5.1c0-5.6-4.8-10.3-10.6-10.3c-5.9,0-10.6,4.6-10.6,10.3
				c0,1.9,0.6,3.6,1.4,5.1h-12.8l-3.2,8.6l1.6,19.6h46l1.3-19.7l-4.1-8.6L519.5,365.7L519.5,365.7z M501,360.7c0-5,4.2-9.1,9.4-9.1
				c2,0,4,0.6,5.5,1.8c0.1,0.1,0.3,0.2,0.4,0.3c0.9,0.7,1.7,1.5,2.2,2.5c0.8,1.3,1.3,3,1.3,4.7c0,0.4,0,0.6-0.1,0.9
				c-0.1,0.9-0.4,1.8-0.6,2.6c-0.7,1.6-1.9,3-3.4,4s-3.3,1.5-5.2,1.5C505.2,369.8,501,365.7,501,360.7z M512.6,370.7h12.7v2.1h-31.5
				v-2.1H508h0.1c0.6,0.2,1.4,0.2,2.1,0.2c0,0,0,0,0.1,0C511.1,371,511.9,370.9,512.6,370.7z M531,392.2h-42.6l-1.2-15.7h44.9
				L531,392.2z M532.2,375v0.3h-45.1V375v-0.4l2.7-7.1h12.8c0.2,0.2,0.3,0.4,0.5,0.4c0.8,0.8,1.7,1.4,2.8,1.9H493v3.8h33.1v-3.8H515
				c1.2-0.6,2.3-1.4,3.2-2.4h10.5l3.4,7.2L532.2,375L532.2,375z"/>
		</g>
	</g>
</g>
<g>
	<g>
		<defs>
			<rect id="SVGID_20_" x="412" y="9.9" width="100.2" height="100.2"/>
		</defs>
		<clipPath id="SVGID_21_">
			<use xlink:href="#SVGID_20_"  style="overflow:visible;"/>
		</clipPath>
		<g class="st16">
			
				<linearGradient id="SVGID_22_" gradientUnits="userSpaceOnUse" x1="425.0399" y1="648.9581" x2="493.412" y2="521.7783" gradientTransform="matrix(1 0 0 1 0 -520)">
				<stop  offset="0" style="stop-color:#636BAA"/>
				<stop  offset="0.995" style="stop-color:#3FFFB8"/>
			</linearGradient>
			<path class="st17" d="M462.1,110.1c27.6,0,50.1-22.4,50.1-50.1S489.7,9.9,462.1,9.9S412,32.4,412,60S434.4,110.1,462.1,110.1z"/>
			<path class="st3" d="M474.8,85.6h-0.7c-0.2,0-0.3,0-1-0.2c-0.5-0.1-1.3-0.3-1.6-0.3c-2.5,0-5,0-7.5,0h-3.8l2-4
				c1.3-2.8,2.7-5.5,3.9-8.3c0.2-0.4,0.5-0.9,1.1-1.1s1.1,0,1.5,0.3c2.1,1.1,4.4,2.2,6.6,3.2c1.1,0.5,1.5,1.3,1.2,2.6
				c-0.4,1.7-0.8,3.4-1.2,5.2c-0.2,0.7-0.3,1.3-0.4,2L474.8,85.6z M465.4,83.5c2.1,0,4.1,0,6.2,0c0.4,0,1.1,0.1,1.9,0.3
				c0.1-0.4,0.2-0.8,0.3-1.3c0.3-1.7,0.8-3.5,1.2-5.2c0.1-0.3,0.1-0.4,0.1-0.4s-0.1-0.1-0.3-0.2c-2.2-1-4.5-2.1-6.6-3.2
				c-0.1-0.1-0.2-0.1-0.2-0.1s-0.1,0.1-0.1,0.2c-1.3,2.8-2.7,5.5-3.9,8.3l-0.8,1.7h1.1C464.4,83.5,464.9,83.5,465.4,83.5z"/>
			<path class="st3" d="M435.5,76.2l-0.9-0.9c-0.3-0.3-0.5-0.4-0.7-0.7c-0.3-0.4-0.9-0.8-1.4-1.2c-1.3-1-2.7-2.1-2.7-3.5
				c-0.1-1.3,1.4-2.5,2.7-3.6c0.4-0.4,0.9-0.8,1.3-1.1c2.3-2.3,4.5-4.5,6.9-6.7c4.6-4.5,9.4-9.2,14.1-13.9c0.5-0.5,1.2-1.1,2-1
				c0.8,0,1.4,0.7,1.8,1.2c0.3,0.4,0.9,0.8,1.5,1.3c1.1,0.9,2.3,1.8,2.3,3.3c-0.1,1.3-1.4,2.4-2.6,3.4c-0.4,0.3-0.9,0.7-1.2,1
				c-6,5.9-12,11.8-18.1,17.7l-3.3,3.2c-0.3,0.3-0.5,0.5-0.8,0.8L435.5,76.2z M456.6,45.4c0,0-0.2,0-0.7,0.5
				c-4.7,4.7-9.5,9.3-14.1,13.9c-2.3,2.3-4.5,4.5-6.9,6.7c-0.4,0.4-0.9,0.8-1.4,1.2c-0.9,0.7-2.1,1.8-2.1,2.3c0,0.6,1.1,1.5,2.1,2.3
				c0.5,0.4,1,0.8,1.5,1.3c0.2,0.2,0.3,0.3,0.4,0.4c0.2-0.2,0.3-0.3,0.5-0.5l3.3-3.2c6-5.9,12-11.8,18.1-17.7
				c0.4-0.4,0.9-0.8,1.3-1.2c0.9-0.7,2-1.6,2-2.2s-0.9-1.3-1.6-1.8c-0.6-0.5-1.2-1-1.7-1.6C456.8,45.4,456.6,45.4,456.6,45.4z"/>
			<path class="st3" d="M475.2,64.4l-0.9-1.5c-7.9-13.6-18.3-23.7-31.6-31l-1.6-0.8l1.7-0.7c3.3-1.3,6.7-1.4,9.8-0.3
				c11.7,4,19.7,11.8,23.6,23.2c1,3.1,0.9,6.4-0.3,9.6L475.2,64.4z M445.2,31.4c12.3,7.1,22,16.6,29.7,29c0.5-2.3,0.4-4.5-0.3-6.7
				c-3.7-10.8-11.3-18.2-22.6-22.1C449.9,30.9,447.5,30.8,445.2,31.4z"/>
			<path class="st3" d="M492.7,85.1h-1c-2.6,0-4.1-0.1-5.6-0.2s-3-0.2-5.5-0.2h-0.9v-0.1c-0.3,0-0.8,0-1.1,0c-2.2,0-2.3,0-2.7-0.3
				l-0.3-0.3l0.1-0.4c0.2-0.8,0.3-1.5,0.4-2.4c0.3-2,0.6-4,1.9-5.3c2-1.8,4.5-3.1,6.9-4.3c0.9-0.5,2-1,2.9-1.5
				c0.5-0.3,1-0.3,1.5-0.2c0.7,0.3,0.8,1.1,0.9,1.3L492.7,85.1z M480.7,83.1c2.5,0,3.9,0.1,5.4,0.2c1.3,0.1,2.6,0.2,4.5,0.2
				l-2.2-11.6c-0.9,0.5-1.9,1-2.8,1.4c-2.4,1.2-4.6,2.4-6.4,3.9c-0.9,0.8-1.1,2.6-1.4,4.3c-0.1,0.5-0.2,1-0.3,1.5c0.3,0,0.6,0,0.9,0
				C479.9,83,480.5,83,480.7,83.1z"/>
			<path class="st3" d="M477.2,75.1c-0.3,0-0.6-0.1-0.9-0.3c-1.9-0.9-3.8-1.8-5.7-2.8l-3-1.4l1-1.3c3.7-4.1,8.1-5,12.9-2.9
				c1.1,0.5,2.2,0.8,3.7,1.1c0.7,0.2,1.4,0.3,2.1,0.5l2.1,0.5l-4.3,2.4c-2.3,1.3-4.5,2.5-6.8,3.7C478.1,75,477.7,75.1,477.2,75.1z
				 M470.4,70.2l1,0.5c1.9,0.9,3.8,1.8,5.7,2.8c0.2,0.1,0.2,0.1,0.4-0.1c2.2-1.3,4.4-2.4,6.8-3.7l0.5-0.3c-1.4-0.3-2.7-0.6-3.9-1.2
				C476.9,66.3,473.5,67,470.4,70.2z"/>
			<path class="st3" d="M471.2,41.5l-0.8-0.7l-6.6-6.6l2-0.1c0.3,0,0.7-0.4,1.1-0.8c0.8-0.8,2.1-2.1,4-0.5c3.9,3.3,3.7,3.9,0.9,7.8
				L471.2,41.5z M467.3,35.2l3.7,3.7c0.8-1.1,1.3-1.8,1.3-2.3c-0.1-0.5-0.9-1.3-2.4-2.4c-0.7-0.6-0.9-0.4-1.7,0.3
				C467.9,34.7,467.7,35,467.3,35.2z"/>
			<path class="st3" d="M458.4,71.4c-0.1,0-0.3,0-0.3,0c-1.1-0.1-1.9-0.8-2-1.8c-0.1-0.6,0.1-1.1,0.4-1.5s0.9-0.7,1.5-0.7
				c1.3-0.1,2.5-0.2,3.8-0.3l1.8-0.1c1.3-0.1,2.2,0.6,2.3,1.8c0.1,0.8-0.2,1.2-0.4,1.5c-0.3,0.4-0.9,0.7-1.7,0.8
				c-0.8,0.1-1.5,0.1-2.2,0.2c-0.4,0.1-0.9,0.1-1.4,0.1H458.4z M463.7,68.7L463.7,68.7l-1.9,0.1c-1.3,0.1-2.5,0.2-3.8,0.3
				c-0.2,0-0.3,0.1-0.3,0.1s-0.1,0.2,0,0.3c0,0.2,0,0.3,0.3,0.3c0.2,0,0.3,0,0.5,0h0.6c0.7-0.1,1.4-0.1,2.1-0.2
				c0.8-0.1,1.5-0.2,2.2-0.2c0.3,0,0.4-0.1,0.5-0.2s0-0.2,0-0.3C464.2,68.8,464.1,68.7,463.7,68.7z"/>
			<path class="st3" d="M467.6,65.5c-0.5,0-1.1-0.3-1.6-0.8c-0.7-0.6-1.4-1.3-2.1-1.8c-0.5-0.5-1.1-1-1.6-1.5
				c-0.8-0.7-0.9-1.5-0.5-2.4c0.3-0.7,0.9-1.1,1.8-1.2h0.3l0.3,0.2c0.1,0,0.2,0.1,0.3,0.1c0.3,0.1,0.5,0.3,0.9,0.5
				c0.8,0.7,1.5,1.3,2.3,2c0.4,0.4,0.9,0.8,1.3,1.2c0.5,0.5,0.9,1,0.9,1.6c0,0.5-0.2,1-0.5,1.4c-0.5,0.5-1,0.7-1.4,0.7
				C467.7,65.5,467.6,65.5,467.6,65.5z M463.5,59.6c-0.2,0.1-0.3,0.2-0.3,0.2c0,0.1-0.1,0.2,0.2,0.4c0.5,0.5,1.1,1,1.6,1.5
				c0.7,0.6,1.4,1.3,2.1,1.8c0.3,0.3,0.4,0.3,0.5,0.3c0,0,0.1-0.1,0.2-0.1c0.1-0.1,0.1-0.2,0.1-0.2c0-0.1-0.1-0.3-0.3-0.4
				c-0.4-0.4-0.9-0.8-1.3-1.2c-0.8-0.7-1.5-1.3-2.3-2C463.8,59.8,463.7,59.7,463.5,59.6z"/>
			<path class="st3" d="M481.8,63.6c-0.3,0-0.4,0-0.7-0.1c-0.5-0.2-1-0.5-1.3-1c-0.2-0.4-0.3-0.8-0.1-1.3c0.6-1.8,1.3-3.5,2.1-5.4
				c0.4-0.9,1.5-1.3,2.5-0.8c1.4,0.6,1.2,1.8,1.2,2.4l-0.1,0.3l-0.5,1.2c-0.4,1.1-0.9,2.4-1.5,3.6C483.2,63.1,482.5,63.6,481.8,63.6
				z M481.5,61.8c0,0,0.1,0.1,0.3,0.1c0.2,0.1,0.3,0,0.3-0.1c0.5-1.3,1-2.5,1.5-3.6l0.4-1.1c0-0.5-0.1-0.5-0.2-0.6
				c-0.2-0.1-0.2,0-0.3,0C482.7,58.3,482,60.1,481.5,61.8C481.4,61.8,481.4,61.8,481.5,61.8z"/>
		</g>
	</g>
</g>
<g>
	<g>
		<path class="st18" d="M329.3,183.4c-40.3,0-80.5,0-120.8,0c-0.1,0.6-0.2,1-0.2,1.5c0,19.1,0,38.3,0,57.4c0,1.1,0.3,1.8,1.1,2.5
			c2.4,2.1,3.1,4.9,2.3,7.8c-0.8,2.9-3.1,4.6-5.9,5.4c-2.9,0.8-6.5-1.2-8.1-4.1c-1.7-3.2-0.6-6.6,1.2-8.4c1.3-1.2,1.6-2.6,1.6-4.3
			c0-20.4,0-40.8,0-61.2c0-1.4,0-2.8,0-4.1c0.1-0.1,0.2-0.2,0.2-0.3c0.1,0,0.1-0.1,0.2-0.1c0.2-0.1,0.4-0.2,0.6-0.2
			c44.9,0,89.8,0,134.8,0c0.2,0,0.4,0.1,0.9,0.2c0.1,0.9,0.2,1.8,0.2,2.7c0,18.6,0,37.3,0,55.9c0,2.7,0,5.3,0,8
			c-0.3,10.9-3,21.2-8,30.9c-7,13.3-17.1,23.5-30.3,30.6c-5.8,3.2-12.1,5.4-18.6,6.8c-5.3,1.2-10.6,1.6-16,1.6
			c-17.2,0-34.3,0-51.5,0c-1.4,0-2.1,0.5-3,1.5c-3.9,4.2-10.5,2.8-12.6-2.5c-1.2-3.1-0.2-6.4,2.5-8.5c2.6-2,6.5-2.4,8.8-0.2
			c2,2,4.2,2,6.7,2c14,0,28,0,42,0c2.4,0,4.7,0,7.1,0c16.9,0.1,31.6-5.6,44.1-16.8c9.7-8.7,16-19.5,19.2-32.1
			c1.2-4.9,1.9-9.8,1.9-14.9c0-18.3,0-36.5,0-54.8C329.4,185,329.3,184.2,329.3,183.4z"/>
		<path class="st18" d="M319.4,193.2c0.1,1,0.1,1.7,0.1,2.4c0,11.6,0,23.3,0,34.9c0,2.7,0,5.4,0,8.2c-0.1,10.5-2.9,20.2-8.4,29.1
			c-5.9,9.4-13.9,16.5-23.9,21.3c-7.3,3.4-15,5.2-23.1,5.2c-11.1,0-22.2,0-33.4,0c-1.3,0-2.2,0.3-3.1,1.3c-2.1,2.5-4.9,2.9-7.8,2.1
			c-2.9-0.8-4.6-3.1-5.2-6.1c-0.6-2.7,1.2-6.2,3.8-7.6c2.6-1.5,6.4-1.3,8.5,0.8c1.5,1.6,3.2,1.8,5.1,1.8c10.4,0,20.8,0.1,31.1,0
			c13.5-0.2,25.1-4.9,34.7-14.6c6.3-6.4,10.5-14,12.5-22.7c0.7-3.1,1.2-6.4,1.2-9.6c0.1-12.1,0.1-24.3,0.1-36.5
			c0-0.6-0.1-1.3-0.2-1.9c-28.5,0-56.7,0-85.2,0c-0.1,0.8-0.1,1.6-0.1,2.3c0,7,0,14-0.1,21c0,1.1,0.3,1.8,1.1,2.5
			c1.6,1.5,2.5,3.4,2.5,5.7c0,3.3-2,6-5,7.1s-6.6,0-8.5-2.6c-2-2.6-2.1-5.9-0.3-8.7c0.1-0.2,0.2-0.4,0.4-0.5
			c2.3-1.6,2.2-3.9,2.2-6.3c-0.1-8.8,0-17.7-0.1-26.5c0-1.9,0.1-2,2-2c17.1,0,34.2,0,51.3,0c15.4,0,30.8,0,46.2,0
			C318.2,193.2,318.6,193.2,319.4,193.2z"/>
		<path class="st18" d="M301.5,211.2c0.1,0.7,0.2,1.2,0.2,1.7c0,8.2,0.1,16.3,0,24.5c-0.2,17.2-11.6,32.4-27.9,37.4
			c-3.8,1.2-7.6,1.7-11.5,1.8c-4.2,0-8.4,0.1-12.6,0c-1.7,0-3.1,0.3-4.2,1.7c-2.3,3-8.1,2.9-10.8-0.2c-2.3-2.5-2.5-7.5-0.1-10.1
			c2.5-2.8,7.2-3.5,10-1c1.8,1.6,3.6,1.9,5.8,1.8c4-0.1,8,0.1,11.9,0c9.2-0.4,17.1-3.8,23.4-10.7c3.4-3.8,5.9-8.1,7.1-13.1
			c0.6-2.6,1-5.4,1-8.1c0.2-5.1,0-10.3,0-15.5c0-2.5,0-2.5-2.4-2.5c-14.1,0-28.1,0-42.2,0c-1.6,0-2.7,0.4-3.9,1.5
			c-2,2.1-4.6,2.9-7.5,1.8c-3-1.2-4.9-3.2-5.1-6.5c-0.2-3.1,0.9-5.6,3.7-7.2c2.7-1.6,6.6-1.2,9,1.2c1.1,1.1,2.2,1.4,3.7,1.4
			c16.3,0,32.7,0,49,0C299.2,211.2,300.2,211.2,301.5,211.2z"/>
	</g>
</g>
<linearGradient id="SVGID_23_" gradientUnits="userSpaceOnUse" x1="-52.6" y1="263.575" x2="5" y2="263.575">
	<stop  offset="0" style="stop-color:#7A90AA"/>
	<stop  offset="1" style="stop-color:#BED3A9"/>
</linearGradient>
<rect x="-52.6" y="249" class="st19" width="57.6" height="29.2"/>
</svg>
