<svg width="583" height="419" viewBox="0 0 583 419" fill="none" xmlns="http://www.w3.org/2000/svg">
<path d="M108.721 237.566L108.721 237.566L254.895 152.409C266.005 145.938 280.642 142.673 295.333 142.673C310.025 142.673 324.661 145.938 335.772 152.409L481.945 237.566L482.449 236.702L481.946 237.566C493.06 244.039 498.397 252.397 498.397 260.555C498.397 268.713 493.06 277.071 481.946 283.544L482.449 284.408L481.945 283.544L335.772 368.702C324.661 375.173 310.025 378.437 295.333 378.437C280.642 378.437 266.005 375.173 254.895 368.702L108.721 283.544L108.218 284.408L108.721 283.544C97.6068 277.071 92.2693 268.713 92.2693 260.555C92.2693 252.397 97.6068 244.039 108.721 237.566Z" stroke="#323A51" stroke-width="2"/>
<path opacity="0.4" d="M267.373 332.218L167.547 278.383C152.114 270.062 152.114 256.544 167.547 248.223L267.373 194.388C282.806 186.068 307.861 186.068 323.294 194.388L423.12 248.223C438.552 256.544 438.552 270.062 423.12 278.383L323.294 332.218C307.861 340.538 282.806 340.538 267.373 332.218Z" fill="black"/>
<path d="M443.155 337.961L374.958 298.537L377.578 297.057L445.644 336.467L443.155 337.961Z" fill="url(#paint0_linear)"/>
<path opacity="0.4" d="M71.2809 414.091L8.03594 379.873C-1.76556 374.586 -1.76556 366 8.03594 360.713L71.2809 326.537C81.0824 321.25 96.9254 321.25 106.685 326.537L169.93 360.755C179.731 366.042 179.731 374.628 169.93 379.915L106.685 414.091C96.8831 419.378 81.0402 419.378 71.2809 414.091Z" fill="black"/>
<path d="M72.2526 410.369L12.4719 378.054C3.21965 373.063 3.21965 364.942 12.4719 359.951L72.2104 327.637C81.4626 322.646 96.4606 322.646 105.671 327.637L165.451 359.951C174.704 364.942 174.704 373.063 165.451 378.054L105.713 410.369C96.4606 415.36 81.4626 415.36 72.2526 410.369Z" fill="#323A51"/>
<path d="M72.5484 404.066L12.5142 371.583C3.2197 366.55 3.2197 358.429 12.5142 353.395L72.5484 320.912C81.8429 315.879 96.8831 315.879 106.178 320.912L166.212 353.395C175.506 358.429 175.506 366.55 166.212 371.583L106.178 404.066C96.9254 409.057 81.8429 409.057 72.5484 404.066Z" fill="url(#paint1_linear)"/>
<path d="M89.3631 408C83.2371 408 77.1112 406.731 72.4639 404.235L12.4298 371.752C7.86701 369.299 5.37439 366 5.37439 362.489C5.37439 358.979 7.86701 355.722 12.4298 353.226L72.4639 320.743C81.8007 315.71 96.9254 315.71 106.262 320.743L166.296 353.269C170.859 355.722 173.352 359.021 173.352 362.531C173.352 366.042 170.859 369.299 166.296 371.794L106.262 404.278C101.615 406.731 95.489 408 89.3631 408ZM89.3631 317.359C83.3216 317.359 77.2379 318.586 72.6329 321.081L12.5988 353.565C8.16275 355.933 5.75462 359.105 5.75462 362.489C5.75462 365.873 8.20499 369.045 12.641 371.414L72.6752 403.897C81.8852 408.888 96.9254 408.888 106.135 403.897L166.17 371.414C170.606 369.003 173.056 365.831 173.056 362.489C173.056 359.105 170.606 355.933 166.17 353.565L106.135 321.081C101.488 318.586 95.4467 317.359 89.3631 317.359Z" fill="url(#paint2_linear)"/>
<path opacity="0.4" d="M477.011 411.669L414.111 377.647C404.392 372.403 404.392 363.845 414.111 358.601L477.011 324.579C486.73 319.334 502.515 319.334 512.234 324.579L575.134 358.601C584.853 363.845 584.853 372.403 575.134 377.647L512.234 411.669C502.515 416.914 486.764 416.914 477.011 411.669Z" fill="black"/>
<path d="M477.976 407.977L418.557 375.819C409.355 370.85 409.355 362.776 418.557 357.807L477.976 325.648C487.178 320.68 502.067 320.68 511.269 325.648L570.688 357.807C579.89 362.776 579.89 370.85 570.688 375.819L511.269 407.977C502.102 412.946 487.178 412.946 477.976 407.977Z" fill="#323A51"/>
<path d="M478.32 401.697L418.592 369.401C409.355 364.398 409.355 356.323 418.592 351.32L478.32 319.024C487.557 314.02 502.515 314.02 511.752 319.024L571.481 351.32C580.717 356.323 580.717 364.398 571.481 369.401L511.752 401.697C502.515 406.666 487.557 406.666 478.32 401.697Z" fill="url(#paint3_linear)"/>
<path d="M495.036 405.596C488.936 405.596 482.87 404.354 478.217 401.835L418.488 369.539C413.974 367.089 411.458 363.811 411.458 360.326C411.458 356.841 413.939 353.563 418.488 351.113L478.217 318.816C487.488 313.813 502.55 313.813 511.821 318.816L571.55 351.113C576.065 353.563 578.581 356.841 578.581 360.326C578.581 363.811 576.099 367.089 571.55 369.539L511.821 401.835C507.203 404.354 501.137 405.596 495.036 405.596ZM495.036 315.435C489.005 315.435 482.973 316.677 478.389 319.162L418.661 351.458C414.249 353.839 411.837 357.013 411.837 360.36C411.837 363.707 414.249 366.882 418.661 369.263L478.389 401.559C487.557 406.528 502.481 406.528 511.683 401.559L571.412 369.263C575.823 366.882 578.236 363.707 578.236 360.36C578.236 357.013 575.823 353.839 571.412 351.458L511.683 319.162C507.099 316.677 501.068 315.435 495.036 315.435Z" fill="url(#paint4_linear)"/>
<path d="M269.508 145.806L168.789 91.3281C153.199 82.9111 153.199 69.2495 168.789 60.8325L269.508 6.31271C285.097 -2.10424 310.319 -2.10424 325.908 6.31271L426.627 60.7902C442.217 69.2072 442.217 82.8688 426.627 91.2858L325.908 145.806C310.319 154.223 285.097 154.223 269.508 145.806Z" fill="#323A51"/>
<path d="M425.276 271.299L324.557 325.734C308.967 334.151 283.703 334.151 268.156 325.734L167.395 271.299C159.114 266.815 155.227 260.851 155.777 254.972V196.942C156.326 202.017 160.213 207.051 167.395 210.942L268.114 265.419C283.703 273.836 308.967 273.836 324.514 265.419L425.276 210.942C431.655 207.474 435.415 203.159 436.598 198.676V253.069C438.203 259.54 434.443 266.308 425.276 271.299Z" fill="#1F273A"/>
<path d="M267.818 269.311L167.099 214.833C151.51 206.416 151.51 192.755 167.099 184.338L267.818 129.86C283.407 121.443 308.672 121.443 324.219 129.86L424.938 184.338C440.527 192.755 440.527 206.416 424.938 214.833L324.219 269.311C308.629 277.728 283.407 277.728 267.818 269.311Z" fill="#323A51"/>
<path d="M436.978 187.256C435.837 191.739 432.035 196.054 425.656 199.522L324.979 253.999C309.39 262.416 284.125 262.416 268.578 253.999L167.817 199.522C160.635 195.631 156.748 190.64 156.199 185.522C155.565 179.6 159.41 173.51 167.817 168.984L268.536 114.549C284.125 106.132 309.39 106.132 324.937 114.549L425.698 169.026C434.908 173.975 438.668 180.785 436.978 187.256Z" fill="url(#paint5_linear)"/>
<path d="M391.731 195.969L316.868 236.446C305.292 242.706 286.534 242.706 274.916 236.446L200.052 195.969C193.884 192.628 191.011 188.187 191.392 183.83V140.688C191.814 144.452 194.687 148.174 200.01 151.093L274.873 191.57C286.449 197.83 305.25 197.83 316.825 191.57L391.689 151.093C396.42 148.513 399.251 145.298 400.096 141.957V182.392C400.645 188.06 398.575 192.247 391.731 195.969Z" fill="url(#paint6_linear)"/>
<path d="M296.758 260.725C286.449 260.725 276.183 258.61 268.367 254.38L167.606 199.903C160.551 196.096 156.368 191.02 155.777 185.606C155.101 179.262 159.41 173.087 167.606 168.646L268.325 114.168C283.999 105.709 309.474 105.709 325.148 114.168L425.867 168.646C434.992 173.552 439.175 180.404 437.358 187.383C436.133 192.162 432.162 196.519 425.867 199.903L325.148 254.38C317.332 258.61 307.066 260.725 296.758 260.725ZM296.758 108.627C286.618 108.627 276.479 110.7 268.747 114.887L168.028 169.365C160.128 173.637 155.988 179.516 156.622 185.48C157.171 190.597 161.227 195.461 168.028 199.141L268.747 253.619C284.21 261.951 309.305 261.951 324.768 253.619L425.487 199.141C431.57 195.842 435.415 191.697 436.598 187.129C438.288 180.573 434.232 174.102 425.487 169.365L324.768 114.93C317.037 110.742 306.897 108.627 296.758 108.627Z" fill="url(#paint7_linear)"/>
<path d="M425.276 156.676L324.557 211.111C308.967 219.528 283.703 219.528 268.156 211.111L167.395 156.676C159.114 152.192 155.227 146.229 155.777 140.349V82.3191C156.326 87.3946 160.213 92.4279 167.395 96.3191L268.114 150.797C283.703 159.214 308.967 159.214 324.514 150.797L425.276 96.3191C431.655 92.8508 435.415 88.5366 436.598 84.0532V138.446C438.203 144.917 434.443 151.685 425.276 156.676Z" fill="#1F273A"/>
<path opacity="0.4" d="M228.114 138.605C228.072 138.605 228.072 138.562 228.03 138.562C227.988 138.562 227.988 138.52 227.945 138.52H227.903H227.861C227.819 138.52 227.819 138.478 227.776 138.478C227.692 138.436 227.65 138.393 227.565 138.351L212.948 130.272C211.553 129.511 210.37 130.399 210.328 132.26C210.244 134.121 211.342 136.236 212.694 136.997L227.312 145.076C227.396 145.118 227.439 145.161 227.523 145.203C227.608 145.245 227.65 145.288 227.734 145.33C230.523 146.852 232.635 151.082 232.508 154.804C232.382 158.526 230.016 160.26 227.227 158.738L222.2 155.988L222.327 152.647L227.354 155.396C228.748 156.158 229.931 155.269 229.973 153.408C230.058 151.547 228.959 149.433 227.608 148.671L220.087 144.526L215.905 142.2C214.511 141.439 213.328 142.327 213.286 144.188C213.201 146.049 214.299 148.164 215.651 148.925L217.341 149.856L217.215 153.197L216.961 159.922L216.665 167.747C216.581 169.608 217.679 171.723 219.031 172.484C220.425 173.245 221.608 172.357 221.651 170.496L221.946 162.671L226.974 165.421C232.508 168.466 237.24 164.955 237.536 157.553C237.874 150.152 233.649 141.692 228.114 138.605Z" fill="black"/>
<path d="M225.791 139.155C225.749 139.155 225.749 139.112 225.706 139.112C225.664 139.112 225.664 139.07 225.622 139.07H225.58H225.537C225.495 139.07 225.495 139.028 225.453 139.028C225.368 138.985 225.326 138.943 225.242 138.901L210.624 130.822C209.23 130.061 208.047 130.949 208.005 132.81C207.92 134.671 209.019 136.786 210.37 137.547L224.988 145.626C225.073 145.668 225.115 145.711 225.199 145.753C225.284 145.795 225.326 145.837 225.411 145.88C228.199 147.402 230.311 151.632 230.185 155.354C230.058 159.076 227.692 160.81 224.904 159.288L219.876 156.538L220.003 153.197L225.03 155.946C226.425 156.708 227.608 155.819 227.65 153.958C227.734 152.097 226.636 149.982 225.284 149.221L217.764 145.076L213.581 142.75C212.187 141.989 211.004 142.877 210.962 144.738C210.877 146.599 211.976 148.714 213.328 149.475L215.018 150.405L214.891 153.747L214.637 160.472L214.342 168.297C214.257 170.158 215.356 172.273 216.708 173.034C218.102 173.795 219.285 172.907 219.327 171.046L219.623 163.221L224.65 165.97C230.185 169.016 234.916 165.505 235.212 158.103C235.55 150.702 231.325 142.242 225.791 139.155Z" fill="url(#paint8_linear)"/>
<path d="M436.556 84.0533C435.415 88.5367 431.613 92.8509 425.233 96.3192L324.557 150.797C308.967 159.214 283.703 159.214 268.156 150.797L167.395 96.3192C160.213 92.428 156.326 87.437 155.777 82.3192C155.143 76.3977 158.988 70.3071 167.395 65.7814L268.114 11.3462C283.703 2.92921 308.967 2.92921 324.515 11.3462L425.276 65.8237C434.486 70.7723 438.246 77.582 436.556 84.0533Z" fill="#323A51"/>
<path d="M386.534 86.6758C385.478 87.6063 384.211 88.4946 382.69 89.2982L364.608 99.0686L315.22 125.8C304.785 131.425 287.843 131.425 277.408 125.8L228.02 99.0686L209.981 89.2982C208.502 88.4946 207.192 87.6063 206.136 86.6758C199.757 81.0927 201.024 73.6909 209.981 68.8691L277.45 32.3675C287.886 26.7421 304.785 26.7421 315.262 32.3675L382.732 68.8691C391.646 73.6909 392.914 81.135 386.534 86.6758Z" fill="url(#paint9_linear)"/>
<path d="M386.534 86.6757C385.478 87.6063 384.211 88.4945 382.69 89.2981L364.608 99.0685L315.22 125.8C304.785 131.425 287.843 131.425 277.408 125.8L228.02 99.0685L209.981 89.2981C208.502 88.4945 207.192 87.6063 206.136 86.6757L268.283 53.0503C283.788 44.6756 308.883 44.6756 324.388 53.0503L386.534 86.6757Z" fill="url(#paint10_linear)"/>
<path d="M386.323 87.0565L324.176 53.431C308.798 45.1409 283.83 45.1409 268.452 53.431L206.305 87.0565L205.883 86.2951L268.029 52.6696C283.619 44.2527 308.967 44.2527 324.557 52.6696L386.703 86.2951L386.323 87.0565Z" fill="url(#paint11_linear)"/>
<path d="M296.462 145.806C287.674 145.806 278.887 143.987 272.212 140.392L186.28 93.9083C179.689 90.3554 176.098 85.6182 176.098 80.5427C176.098 75.4671 179.731 70.7299 186.28 67.1771L272.169 20.6935C285.562 13.4609 307.32 13.4609 320.712 20.6935L406.644 67.1348C413.235 70.6876 416.826 75.4248 416.826 80.5004C416.826 85.5759 413.193 90.3131 406.644 93.866L320.712 140.349C314.037 143.987 305.249 145.806 296.462 145.806ZM272.592 139.63C285.731 146.736 307.151 146.736 320.332 139.63L406.264 93.1892C412.559 89.8055 416.023 85.3221 416.023 80.5427C416.023 75.8055 412.559 71.2798 406.264 67.8961L320.332 21.4126C307.193 14.3068 285.773 14.3068 272.592 21.4126L186.66 67.8961C180.365 71.2798 176.901 75.7632 176.901 80.5427C176.901 85.3221 180.365 89.8055 186.66 93.1892L272.592 139.63Z" fill="url(#paint12_linear)"/>
<path d="M382.774 263.939C382.098 266.054 380.197 267.661 378.549 267.619C376.902 267.534 376.141 265.8 376.817 263.685C377.493 261.571 379.394 259.963 381.042 260.006C382.69 260.048 383.492 261.824 382.774 263.939Z" fill="url(#paint13_linear)"/>
<path d="M393.252 258.229C392.576 260.344 390.675 261.951 389.027 261.909C387.379 261.824 386.619 260.09 387.295 257.975C387.971 255.861 389.872 254.253 391.52 254.296C393.167 254.338 393.928 256.114 393.252 258.229Z" fill="url(#paint14_linear)"/>
<path d="M403.687 252.519C403.011 254.634 401.11 256.241 399.462 256.199C397.814 256.114 397.054 254.38 397.73 252.265C398.406 250.151 400.307 248.543 401.955 248.586C403.602 248.628 404.405 250.404 403.687 252.519Z" fill="url(#paint15_linear)"/>
<path d="M353.412 92.8509L307.277 117.806C300.137 121.655 288.562 121.655 281.464 117.806L235.329 92.8509C231.527 90.7784 229.753 88.0714 230.006 85.3645V58.8025C230.26 61.1288 232.034 63.4128 235.329 65.1892L281.464 90.144C288.604 93.9929 300.18 93.9929 307.277 90.144L353.412 65.1892C356.327 63.6243 358.059 61.6363 358.566 59.5638V84.4763C359.327 87.437 357.595 90.5669 353.412 92.8509Z" fill="#1F273A"/>
<path d="M358.566 59.6062C358.059 61.6787 356.327 63.6243 353.412 65.2316L307.277 90.1864C300.137 94.0353 288.562 94.0353 281.464 90.1864L235.329 65.2316C232.034 63.4552 230.26 61.1712 230.006 58.8449C229.71 56.1379 231.485 53.3464 235.329 51.2738L281.464 26.3191C288.604 22.4701 300.18 22.4701 307.277 26.3191L353.412 51.2738C357.594 53.5155 359.327 56.6455 358.566 59.6062Z" fill="#323A51"/>
<path d="M359.369 59.606C358.82 61.6786 357.088 63.7088 354.13 65.2737L307.446 90.5246C300.222 94.4158 288.519 94.4158 281.295 90.5246L234.611 65.2737C231.274 63.455 229.499 61.171 229.246 58.8024C228.95 56.0532 230.724 53.2616 234.611 51.1468L281.295 25.896C288.519 22.0047 300.222 22.0047 307.446 25.896L354.13 51.1468C358.397 53.4731 360.129 56.603 359.369 59.606Z" fill="url(#paint16_linear)"/>
<path opacity="0.4" d="M129.763 384.485C129.956 377.106 119.978 370.857 107.475 370.529C94.9725 370.2 84.6802 375.916 84.4868 383.295C84.2933 390.675 94.2719 396.923 106.775 397.252C119.277 397.58 129.569 391.865 129.763 384.485Z" fill="black"/>
<path d="M129.34 381.736C129.534 374.356 119.555 368.108 107.053 367.779C94.5499 367.451 84.2576 373.167 84.0642 380.546C83.8707 387.926 93.8493 394.174 106.352 394.503C118.855 394.831 129.147 389.115 129.34 381.736Z" fill="#0F5454"/>
<path d="M129.28 376.815C129.473 369.436 119.495 363.187 106.992 362.858C94.4893 362.53 84.1971 368.246 84.0036 375.625C83.8102 383.005 93.7887 389.253 106.291 389.582C118.794 389.91 129.086 384.194 129.28 376.815Z" fill="#00757A"/>
<path d="M107.276 390.067C106.938 390.067 106.6 390.067 106.262 390.067C93.5454 389.729 83.3636 383.257 83.5749 375.686C83.7861 368.073 94.2636 362.152 107.022 362.49C113.148 362.659 118.852 364.224 123.161 366.889C127.513 369.596 129.836 373.149 129.752 376.871C129.498 384.23 119.528 390.067 107.276 390.067ZM106.304 389.179C118.556 389.517 128.696 383.934 128.865 376.828C128.949 373.402 126.752 370.103 122.696 367.566C118.556 364.985 112.979 363.463 106.98 363.294C94.7283 362.955 84.5888 368.538 84.4198 375.644C84.2508 382.75 94.0523 388.883 106.304 389.179Z" fill="url(#paint17_linear)"/>
<path d="M125.774 376.723C125.938 370.488 117.504 365.208 106.938 364.93C96.371 364.653 87.6726 369.482 87.5091 375.717C87.3456 381.952 95.779 387.232 106.346 387.51C116.912 387.787 125.611 382.958 125.774 376.723Z" fill="#073837"/>
<path d="M124.69 377.325C124.845 371.417 116.877 366.415 106.894 366.153C96.9102 365.89 88.6915 370.467 88.5366 376.375C88.3817 382.283 96.3493 387.286 106.333 387.548C116.316 387.81 124.535 383.233 124.69 377.325Z" fill="#0A5959"/>
<path d="M115.768 373.19C115.768 373.148 115.768 373.148 115.768 373.19C115.726 373.148 115.726 373.148 115.683 373.148C115.683 373.148 115.683 373.148 115.641 373.148C115.641 373.148 115.641 373.148 115.599 373.148H115.557C115.514 373.105 115.472 373.105 115.472 373.105L108.121 369.13C107.445 368.749 106.178 368.833 105.333 369.299C104.488 369.764 104.361 370.483 105.079 370.864L112.43 374.839C112.472 374.839 112.515 374.882 112.557 374.882C112.599 374.924 112.641 374.924 112.641 374.924C114.036 375.685 113.782 377.081 112.092 378.012C110.402 378.984 107.91 379.111 106.516 378.392L103.981 377.039L105.502 376.193L107.994 377.546C108.67 377.927 109.938 377.843 110.783 377.377C111.628 376.912 111.754 376.193 111.036 375.812L107.276 373.782L105.164 372.64C104.488 372.259 103.22 372.344 102.375 372.809C101.53 373.275 101.404 373.994 102.122 374.374L102.967 374.839L101.446 375.685L98.4039 377.42L94.8129 379.45C93.9679 379.915 93.8412 380.634 94.5594 381.015C95.2354 381.395 96.5028 381.311 97.3478 380.846L100.939 378.815L103.474 380.169C106.262 381.691 111.247 381.353 114.627 379.45C118.049 377.42 118.514 374.67 115.768 373.19Z" fill="#073837"/>
<path d="M115.641 372.429C115.599 372.429 115.599 372.429 115.641 372.429C115.599 372.386 115.599 372.386 115.556 372.386C115.556 372.386 115.556 372.386 115.514 372.386C115.514 372.386 115.514 372.386 115.472 372.386H115.43C115.387 372.344 115.345 372.344 115.345 372.344L107.994 368.368C107.318 367.988 106.051 368.072 105.206 368.537C104.361 369.003 104.234 369.722 104.952 370.102L112.303 374.078C112.346 374.078 112.388 374.121 112.43 374.121C112.472 374.163 112.515 374.163 112.515 374.163C113.909 374.924 113.655 376.32 111.965 377.251C110.275 378.223 107.783 378.35 106.389 377.631L103.854 376.278L105.375 375.432L107.867 376.785C108.543 377.166 109.811 377.081 110.656 376.616C111.501 376.151 111.627 375.432 110.909 375.051L107.149 373.021L105.037 371.879C104.361 371.498 103.093 371.583 102.248 372.048C101.403 372.513 101.277 373.232 101.995 373.613L102.84 374.078L101.319 374.924L98.2771 376.658L94.6861 378.689C93.8411 379.154 93.7144 379.873 94.4326 380.254C95.1085 380.634 96.376 380.55 97.2209 380.084L100.812 378.054L103.347 379.408C106.135 380.93 111.12 380.592 114.5 378.689C117.88 376.701 118.387 373.951 115.641 372.429Z" fill="url(#paint18_linear)"/>
<path opacity="0.4" d="M77.614 383.968C89.2849 379.468 96.598 370.236 93.948 363.347C91.2981 356.459 79.6887 354.522 68.0178 359.022C56.3468 363.522 49.0338 372.754 51.6837 379.643C54.3336 386.531 65.943 388.468 77.614 383.968Z" fill="black"/>
<path d="M76.1799 381.596C87.8509 377.096 95.1639 367.864 92.514 360.975C89.864 354.087 78.2547 352.151 66.5837 356.65C54.9127 361.15 47.5997 370.383 50.2496 377.271C52.8996 384.16 64.5089 386.096 76.1799 381.596Z" fill="#0F5454"/>
<path d="M74.2407 377.078C85.9116 372.578 93.2247 363.345 90.5747 356.457C87.9248 349.568 76.3154 347.632 64.6445 352.132C52.9735 356.632 45.6605 365.864 48.3104 372.753C50.9603 379.641 62.5697 381.578 74.2407 377.078Z" fill="#00757A"/>
<path d="M75.3367 377.082C75.041 377.208 74.703 377.335 74.365 377.462C62.4934 382.03 50.6217 380 47.8756 372.894C45.1295 365.788 52.5651 356.272 64.4368 351.704C70.1402 349.504 76.0549 348.743 80.9979 349.589C86.0677 350.435 89.5742 352.804 90.9262 356.314C93.63 363.208 86.6591 372.387 75.3367 377.082ZM74.0693 376.701C85.5184 372.302 92.7428 363.293 90.1657 356.61C88.9405 353.438 85.6452 351.239 80.9134 350.435C76.0972 349.631 70.3515 350.35 64.7748 352.507C53.3256 356.906 46.1012 365.915 48.6783 372.598C51.2555 379.281 62.6624 381.1 74.0693 376.701Z" fill="url(#paint19_linear)"/>
<path d="M73.4967 375.143C83.3604 371.34 89.5415 363.539 87.3024 357.719C85.0634 351.898 75.2522 350.263 65.3885 354.066C55.5248 357.869 49.3438 365.671 51.5828 371.491C53.8218 377.311 63.633 378.947 73.4967 375.143Z" fill="#073837"/>
<path d="M73.4907 375.144C82.81 371.55 88.645 364.167 86.5234 358.651C84.4018 353.136 75.127 351.578 65.8077 355.171C56.4883 358.765 50.6534 366.149 52.775 371.664C54.8966 377.179 64.1713 378.737 73.4907 375.144Z" fill="#0A5959"/>
<path d="M76.7309 358.26C76.6886 358.26 76.6886 358.26 76.7309 358.26C76.6886 358.26 76.6886 358.26 76.6464 358.26C76.6464 358.26 76.6464 358.26 76.6041 358.26C76.6041 358.26 76.6042 358.26 76.5619 358.26H76.5197C76.4774 358.26 76.4352 358.26 76.3929 358.26L68.1123 357.414C67.3096 357.329 66.2112 357.879 65.6197 358.64C65.0282 359.402 65.155 360.078 65.9577 360.163L74.2383 361.009C74.2805 361.009 74.3228 361.009 74.365 361.009C74.4073 361.009 74.4495 361.009 74.4918 361.009C76.0549 361.178 76.3507 362.532 75.1677 364.097C73.9848 365.619 71.7456 366.719 70.1402 366.592L67.3096 366.296L68.4081 364.9L71.2387 365.196C72.0414 365.281 73.1398 364.731 73.7313 363.97C74.3228 363.208 74.1538 362.532 73.3933 362.447L69.1263 362.024L66.7604 361.77C65.9577 361.686 64.8593 362.236 64.2678 362.997C63.6763 363.758 63.8031 364.435 64.6058 364.519L65.5352 364.604L64.4368 366L62.2821 368.791L59.7473 372.006C59.1558 372.767 59.3248 373.444 60.0853 373.529C60.888 373.613 61.9864 373.063 62.5779 372.302L65.1127 369.087L67.9433 369.384C71.0697 369.722 75.5902 367.48 77.9561 364.435C80.4065 361.347 79.815 358.598 76.7309 358.26Z" fill="#073837"/>
<path d="M76.2662 357.625C76.2239 357.625 76.2239 357.625 76.1817 357.625C76.1817 357.625 76.1817 357.625 76.1394 357.625C76.1394 357.625 76.1394 357.625 76.0972 357.625H76.0549C76.0127 357.625 75.9705 357.625 75.9282 357.625L67.6476 356.779C66.8449 356.695 65.7465 357.245 65.155 358.006C64.5635 358.767 64.6903 359.444 65.493 359.529L73.7736 360.375C73.8158 360.375 73.8581 360.375 73.9003 360.375C73.9426 360.375 73.9848 360.375 74.0271 360.375C75.5902 360.544 75.886 361.897 74.703 363.462C73.5201 364.985 71.2809 366.084 69.6755 365.958L66.8449 365.662L67.9434 364.266L70.774 364.562C71.5767 364.646 72.6751 364.097 73.2666 363.335C73.8581 362.574 73.6891 361.897 72.9286 361.813L68.6616 361.39L66.2957 361.136C65.493 361.051 64.3945 361.601 63.8031 362.362C63.2116 363.124 63.3383 363.8 64.1411 363.885L65.0705 363.97L63.9721 365.365L61.8174 368.157L59.2825 371.371C58.6911 372.133 58.8601 372.81 59.6205 372.894C60.4232 372.979 61.5217 372.429 62.1132 371.668L64.648 368.453L67.4786 368.749C70.605 369.087 75.1255 366.846 77.4914 363.8C79.984 360.713 79.3925 357.964 76.2662 357.625Z" fill="url(#paint20_linear)"/>
<path d="M190.546 271.425L250.707 303.105L251.088 275.189L191.096 242.368L190.546 271.425Z" fill="url(#paint21_linear)"/>
<path d="M162.874 351.323L250.665 303.063L250.708 311.057L169.761 354.707L162.874 351.323Z" fill="#0A0D15"/>
<path d="M106.896 320.658L216.529 256.156L251.088 275.19L250.707 303.105L162.79 351.323L106.896 320.658Z" fill="#323A51"/>
<g opacity="0.4">
<path d="M276.225 61.9744L271.451 59.2674L278.844 45.3097L263.466 54.7417L258.692 52.0348L283.618 36.7659L288.392 39.4728L280.957 53.4729L296.42 43.9985L301.194 46.7055L276.225 61.9744Z" fill="black"/>
<path d="M317.417 55.8838L312.558 58.8868L304.573 54.3611L299.335 57.5756L305.334 60.9593L300.602 63.8355L294.603 60.4518L284.506 66.627L279.732 63.9201L304.658 48.6511L317.417 55.8838Z" fill="black"/>
<path d="M334.062 65.3157L329.204 68.3187L324.007 65.358L303.94 77.6662L299.166 74.9592L319.233 62.651L314.037 59.6903L318.895 56.6873L334.062 65.3157Z" fill="black"/>
</g>
<path d="M276.521 59.4368L271.747 56.7299L279.14 42.7721L263.762 52.2042L258.988 49.4972L283.914 34.2283L288.688 36.9352L281.21 50.9353L296.673 41.4609L301.447 44.1679L276.521 59.4368Z" fill="url(#paint22_linear)"/>
<path d="M317.713 53.3462L312.854 56.3492L304.869 51.8235L299.63 55.038L305.63 58.4217L300.898 61.2979L294.899 57.9142L284.801 64.0894L280.027 61.3825L304.954 46.1135L317.713 53.3462Z" fill="url(#paint23_linear)"/>
<path d="M334.316 62.7781L329.457 65.7811L324.261 62.8204L304.193 75.1286L299.419 72.4216L319.487 60.1134L314.29 57.1527L319.149 54.1497L334.316 62.7781Z" fill="url(#paint24_linear)"/>
<path opacity="0.4" d="M222.088 297.196C222.246 291.171 214.092 286.069 203.875 285.801C193.658 285.532 185.248 290.199 185.09 296.224C184.932 302.249 193.086 307.35 203.303 307.619C213.52 307.887 221.93 303.221 222.088 297.196Z" fill="black"/>
<path d="M221.746 294.944C221.904 288.919 213.75 283.817 203.533 283.549C193.317 283.28 184.906 287.947 184.748 293.972C184.59 299.997 192.745 305.098 202.961 305.367C213.178 305.635 221.588 300.969 221.746 294.944Z" fill="#0F5454"/>
<path d="M221.719 290.934C221.877 284.909 213.723 279.807 203.506 279.539C193.29 279.27 184.879 283.937 184.721 289.962C184.563 295.987 192.718 301.088 202.934 301.357C213.151 301.625 221.561 296.959 221.719 290.934Z" fill="#00757A"/>
<path d="M203.77 301.753C203.475 301.753 203.221 301.753 202.925 301.753C192.532 301.5 184.21 296.212 184.379 289.995C184.547 283.777 193.124 278.956 203.517 279.209C208.502 279.336 213.192 280.605 216.698 282.805C220.247 285.046 222.148 287.922 222.064 290.968C221.895 297.016 213.741 301.753 203.77 301.753ZM202.925 301.034C212.938 301.288 221.176 296.762 221.345 290.925C221.43 288.134 219.613 285.469 216.276 283.354C212.896 281.24 208.333 280.013 203.475 279.886C193.462 279.632 185.223 284.158 185.054 289.995C184.885 295.832 192.913 300.781 202.925 301.034Z" fill="url(#paint25_linear)"/>
<path d="M218.847 290.858C218.981 285.767 212.093 281.457 203.462 281.23C194.831 281.003 187.727 284.946 187.593 290.037C187.46 295.128 194.348 299.439 202.979 299.666C211.609 299.892 218.714 295.949 218.847 290.858Z" fill="#073837"/>
<path d="M218.004 291.317C218.13 286.506 211.614 282.433 203.45 282.218C195.286 282.004 188.566 285.729 188.44 290.54C188.314 295.351 194.83 299.424 202.994 299.639C211.158 299.853 217.878 296.128 218.004 291.317Z" fill="#0A5959"/>
<path d="M210.699 287.963C210.699 287.963 210.657 287.963 210.699 287.963C210.657 287.963 210.657 287.921 210.657 287.921C210.657 287.921 210.657 287.921 210.614 287.921C210.572 287.921 210.572 287.879 210.53 287.879L204.531 284.622C203.982 284.326 202.925 284.368 202.249 284.749C201.573 285.129 201.447 285.721 202.038 286.018L208.037 289.274C208.08 289.274 208.08 289.317 208.122 289.317C208.164 289.317 208.164 289.359 208.206 289.359C209.347 289.993 209.136 291.093 207.742 291.897C206.347 292.658 204.32 292.827 203.179 292.193L201.109 291.093L202.376 290.374L204.446 291.474C204.995 291.77 206.052 291.728 206.728 291.347C207.404 290.966 207.53 290.374 206.939 290.078L203.855 288.386L202.123 287.456C201.573 287.16 200.517 287.202 199.841 287.583C199.165 287.963 199.039 288.555 199.63 288.851L200.306 289.232L199.039 289.951L196.546 291.347L193.631 292.996C192.955 293.377 192.828 293.969 193.42 294.265C193.969 294.561 195.025 294.519 195.701 294.138L198.616 292.489L200.686 293.589C202.968 294.815 207.023 294.561 209.812 292.996C212.516 291.431 212.938 289.19 210.699 287.963Z" fill="#073837"/>
<path d="M210.572 287.371C210.53 287.329 210.53 287.329 210.572 287.371C210.53 287.371 210.53 287.329 210.53 287.329C210.53 287.329 210.53 287.329 210.488 287.329C210.445 287.329 210.445 287.286 210.403 287.286L204.404 284.03C203.855 283.734 202.799 283.776 202.123 284.157C201.447 284.537 201.32 285.129 201.911 285.425L207.911 288.682C207.953 288.682 207.953 288.724 207.995 288.724C208.037 288.724 208.037 288.767 208.08 288.767C209.22 289.401 209.009 290.501 207.615 291.305C206.221 292.066 204.193 292.235 203.052 291.601L200.982 290.501L202.249 289.782L204.319 290.882C204.869 291.178 205.925 291.135 206.601 290.755C207.277 290.374 207.404 289.782 206.812 289.486L203.728 287.794L201.996 286.863C201.447 286.567 200.39 286.61 199.714 286.99C199.038 287.371 198.912 287.963 199.503 288.259L200.179 288.64L198.912 289.359L196.419 290.755L193.504 292.404C192.828 292.785 192.701 293.377 193.293 293.673C193.842 293.969 194.898 293.927 195.574 293.546L198.489 291.897L200.559 292.996C202.841 294.223 206.897 293.969 209.685 292.404C212.389 290.839 212.811 288.598 210.572 287.371Z" fill="url(#paint26_linear)"/>
<path opacity="0.4" d="M174.207 323.45C174.365 317.425 166.211 312.323 155.994 312.055C145.777 311.786 137.367 316.453 137.209 322.478C137.051 328.503 145.205 333.604 155.422 333.873C165.639 334.141 174.049 329.475 174.207 323.45Z" fill="black"/>
<path d="M173.866 321.198C174.024 315.173 165.869 310.071 155.653 309.803C145.436 309.534 137.026 314.201 136.868 320.226C136.71 326.251 144.864 331.353 155.081 331.621C165.297 331.889 173.708 327.223 173.866 321.198Z" fill="#0F5454"/>
<path d="M173.839 317.188C173.997 311.163 165.842 306.061 155.626 305.793C145.409 305.524 136.999 310.191 136.841 316.216C136.683 322.241 144.837 327.343 155.054 327.611C165.27 327.88 173.681 323.213 173.839 317.188Z" fill="#00757A"/>
<path d="M155.861 327.977C155.565 327.977 155.312 327.977 155.016 327.977C144.623 327.723 136.3 322.436 136.469 316.218C136.638 310.001 145.215 305.179 155.608 305.433C160.593 305.56 165.282 306.829 168.789 309.028C172.338 311.27 174.239 314.146 174.154 317.191C174.028 323.24 165.874 327.977 155.861 327.977ZM155.058 327.258C165.071 327.512 173.309 322.986 173.478 317.149C173.563 314.357 171.746 311.693 168.409 309.578C165.029 307.463 160.466 306.237 155.608 306.11C145.595 305.856 137.357 310.382 137.188 316.218C137.019 322.055 145.046 327.004 155.058 327.258Z" fill="url(#paint27_linear)"/>
<path d="M170.967 317.112C171.1 312.022 164.212 307.711 155.581 307.484C146.951 307.257 139.846 311.2 139.713 316.291C139.579 321.382 146.468 325.693 155.098 325.92C163.729 326.146 170.833 322.203 170.967 317.112Z" fill="#073837"/>
<path d="M170.124 317.571C170.25 312.76 163.734 308.687 155.57 308.472C147.406 308.258 140.685 311.984 140.559 316.794C140.433 321.605 146.949 325.679 155.113 325.893C163.277 326.108 169.997 322.382 170.124 317.571Z" fill="#0A5959"/>
<path d="M162.79 314.187C162.748 314.187 162.748 314.145 162.748 314.145C162.748 314.145 162.748 314.145 162.705 314.145C162.663 314.145 162.663 314.102 162.621 314.102L156.622 310.846C156.072 310.549 155.016 310.592 154.34 310.972C153.664 311.353 153.537 311.945 154.129 312.241L160.128 315.498C160.17 315.498 160.17 315.54 160.213 315.54C160.255 315.54 160.255 315.583 160.297 315.583C161.438 316.217 161.227 317.317 159.832 318.121C158.438 318.882 156.41 319.051 155.27 318.417L153.2 317.317L154.467 316.598L156.537 317.698C157.086 317.994 158.142 317.951 158.818 317.571C159.494 317.19 159.621 316.598 159.03 316.302L155.946 314.61L154.213 313.679C153.664 313.383 152.608 313.426 151.932 313.806C151.256 314.187 151.129 314.779 151.721 315.075L152.397 315.456L151.129 316.175L148.637 317.571L145.722 319.22C145.046 319.601 144.919 320.193 145.51 320.489C146.06 320.785 147.116 320.743 147.792 320.362L150.707 318.713L152.777 319.812C155.058 321.039 159.114 320.785 161.903 319.22C164.649 317.655 165.029 315.414 162.79 314.187Z" fill="#073837"/>
<path d="M162.663 313.595C162.663 313.552 162.663 313.552 162.663 313.595C162.621 313.595 162.621 313.552 162.621 313.552C162.621 313.552 162.621 313.552 162.579 313.552C162.536 313.552 162.536 313.51 162.494 313.51L156.495 310.253C155.946 309.957 154.889 310 154.213 310.38C153.538 310.761 153.411 311.353 154.002 311.649L160.001 314.906C160.044 314.906 160.044 314.948 160.086 314.948C160.128 314.948 160.128 314.991 160.17 314.991C161.311 315.625 161.1 316.725 159.706 317.528C158.312 318.29 156.284 318.459 155.143 317.824L153.073 316.725L154.34 316.006L156.41 317.105C156.96 317.401 158.016 317.359 158.692 316.978C159.368 316.598 159.494 316.006 158.903 315.71L155.819 314.018L154.087 313.087C153.538 312.791 152.481 312.833 151.805 313.214C151.129 313.595 151.003 314.187 151.594 314.483L152.27 314.864L151.003 315.583L148.51 316.978L145.595 318.628C144.919 319.009 144.792 319.601 145.384 319.897C145.933 320.193 146.989 320.151 147.665 319.77L150.58 318.12L152.65 319.22C154.932 320.447 158.987 320.193 161.776 318.628C164.522 317.063 164.902 314.821 162.663 313.595Z" fill="url(#paint28_linear)"/>
<path opacity="0.4" d="M89.1338 357.225C98.6352 353.458 104.541 345.861 102.324 340.258C100.108 334.655 90.6085 333.167 81.1071 336.934C71.6058 340.702 65.7003 348.298 67.9168 353.901C70.1333 359.504 79.6325 360.992 89.1338 357.225Z" fill="black"/>
<path d="M87.9047 355.291C97.406 351.523 103.312 343.927 101.095 338.324C98.8785 332.721 89.3793 331.233 79.878 335C70.3767 338.767 64.4712 346.363 66.6877 351.966C68.9042 357.57 78.4034 359.058 87.9047 355.291Z" fill="#0F5454"/>
<path d="M86.3023 351.61C95.8036 347.843 101.709 340.247 99.4926 334.644C97.2761 329.041 87.7769 327.553 78.2756 331.32C68.7743 335.087 62.8687 342.683 65.0853 348.286C67.3018 353.889 76.801 355.378 86.3023 351.61Z" fill="#00757A"/>
<path d="M87.2505 351.619C86.9971 351.746 86.7436 351.83 86.4901 351.957C76.8153 355.806 67.0983 354.199 64.817 348.447C62.5356 342.652 68.5348 334.87 78.2095 331.021C82.8568 329.16 87.673 328.525 91.7288 329.16C95.8691 329.794 98.742 331.74 99.8826 334.574C102.08 340.157 96.4183 347.685 87.2505 351.619ZM86.1944 351.323C95.4889 347.643 101.319 340.199 99.1644 334.785C98.1505 332.205 95.4466 330.428 91.5598 329.836C87.6308 329.202 82.9413 329.879 78.4208 331.655C69.1262 335.335 63.296 342.779 65.4507 348.193C67.6053 353.607 76.8998 355.003 86.1944 351.323Z" fill="url(#paint29_linear)"/>
<path d="M85.68 350.038C93.7063 346.855 98.6946 340.437 96.8217 335.703C94.9488 330.969 86.924 329.71 78.8978 332.893C70.8715 336.075 65.8833 342.493 67.7561 347.227C69.629 351.962 77.6538 353.22 85.68 350.038Z" fill="#073837"/>
<path d="M85.7049 350.02C93.2973 347.009 98.0174 340.942 96.2476 336.468C94.4779 331.995 86.8883 330.808 79.2959 333.819C71.7036 336.829 66.9834 342.896 68.7532 347.37C70.523 351.844 78.1125 353.03 85.7049 350.02Z" fill="#0A5959"/>
<path d="M88.2222 336.223C88.18 336.223 88.18 336.223 88.2222 336.223C88.18 336.223 88.18 336.223 88.18 336.223H88.1378C88.0955 336.223 88.0955 336.223 88.0533 336.223L81.2514 335.589C80.6176 335.546 79.6882 335.969 79.2235 336.604C78.7587 337.238 78.8855 337.788 79.5192 337.873L86.3211 338.507C86.3633 338.507 86.4056 338.507 86.4056 338.507C86.4478 338.507 86.4478 338.507 86.4901 338.507C87.7575 338.634 88.0533 339.734 87.0816 341.003C86.1099 342.271 84.2932 343.202 83.0258 343.075L80.7021 342.864L81.5893 341.722L83.913 341.933C84.5467 341.975 85.4761 341.51 85.9409 340.918C86.4056 340.284 86.2789 339.734 85.6451 339.649L82.1386 339.311L80.1952 339.142C79.5614 339.099 78.632 339.522 78.1673 340.157C77.7025 340.791 77.8293 341.341 78.463 341.426L79.2235 341.51L78.3363 342.652L76.6041 344.936L74.5762 347.601C74.1115 348.235 74.2382 348.785 74.8719 348.87C75.5057 348.912 76.4351 348.447 76.8998 347.855L78.9277 345.19L81.2514 345.401C83.8285 345.655 87.4618 343.794 89.4052 341.299C91.2641 338.719 90.7571 336.477 88.2222 336.223Z" fill="#073837"/>
<path d="M87.842 335.715C87.7998 335.715 87.7998 335.715 87.7998 335.715H87.7575C87.7153 335.715 87.7153 335.715 87.673 335.715L80.8711 335.081C80.2374 335.039 79.3079 335.462 78.8432 336.096C78.3785 336.731 78.5052 337.28 79.139 337.365L85.9409 337.999C85.9831 337.999 86.0254 337.999 86.0254 337.999C86.0676 337.999 86.0676 337.999 86.1098 337.999C87.3773 338.126 87.673 339.226 86.7013 340.495C85.7296 341.764 83.913 342.694 82.6455 342.567L80.3219 342.356L81.2091 341.214L83.5327 341.425C84.1664 341.468 85.0959 341.003 85.5606 340.41C86.0253 339.776 85.8986 339.226 85.2649 339.141L81.7583 338.803L79.8149 338.634C79.1812 338.592 78.2517 339.015 77.787 339.649C77.3223 340.283 77.449 340.833 78.0828 340.918L78.8432 341.003L77.956 342.145L76.2239 344.429L74.196 347.093C73.7312 347.728 73.858 348.277 74.4917 348.362C75.1254 348.404 76.0549 347.939 76.5196 347.347L78.5475 344.682L80.8711 344.894C83.4482 345.148 87.0815 343.287 89.025 340.791C90.9261 338.211 90.4191 335.969 87.842 335.715Z" fill="url(#paint30_linear)"/>
<path opacity="0.4" d="M83.8295 357.343C84.0229 349.963 74.0444 343.715 61.5418 343.386C49.0391 343.058 38.7469 348.773 38.5534 356.153C38.36 363.532 48.3385 369.781 60.8412 370.109C73.3438 370.438 83.636 364.722 83.8295 357.343Z" fill="black"/>
<path d="M83.4069 354.593C83.6003 347.214 73.6218 340.965 61.1191 340.637C48.6165 340.308 38.3243 346.024 38.1308 353.404C37.9374 360.783 47.9159 367.031 60.4185 367.36C72.9212 367.689 83.2134 361.973 83.4069 354.593Z" fill="#0F5454"/>
<path d="M83.3462 349.672C83.5397 342.293 73.5611 336.044 61.0585 335.716C48.5558 335.387 38.2636 341.103 38.0701 348.483C37.8767 355.862 47.8552 362.11 60.3579 362.439C72.8605 362.768 83.1528 357.052 83.3462 349.672Z" fill="#00757A"/>
<path d="M61.3528 362.913C61.0148 362.913 60.6768 362.913 60.3389 362.913C47.6223 362.575 37.4405 356.103 37.6518 348.532C37.863 340.919 48.3405 334.997 61.0993 335.336C67.2253 335.505 72.9287 337.07 77.238 339.735C81.5895 342.442 83.9132 345.994 83.8287 349.717C83.5752 357.118 73.6047 362.913 61.3528 362.913ZM60.3811 362.025C72.633 362.363 82.7725 356.78 82.9415 349.674C83.0259 346.248 80.8291 342.949 76.7733 340.411C72.633 337.831 67.0563 336.309 61.0571 336.139C48.8052 335.801 38.6657 341.384 38.4967 348.49C38.3278 355.596 48.1292 361.729 60.3811 362.025Z" fill="url(#paint31_linear)"/>
<path d="M79.8408 349.58C80.0043 343.345 71.5709 338.065 61.0043 337.788C50.4377 337.51 41.7392 342.34 41.5758 348.575C41.4123 354.81 49.8457 360.089 60.4123 360.367C70.9789 360.645 79.6773 355.815 79.8408 349.58Z" fill="#073837"/>
<path d="M78.7986 350.184C78.9535 344.276 70.9859 339.273 61.0024 339.011C51.019 338.749 42.8002 343.326 42.6453 349.234C42.4904 355.142 50.4581 360.144 60.4415 360.407C70.425 360.669 78.6437 356.092 78.7986 350.184Z" fill="#0A5959"/>
<path d="M69.8446 346.036C69.8446 346.036 69.8446 345.994 69.8446 346.036C69.8023 345.994 69.8023 345.994 69.7601 345.994C69.7601 345.994 69.7601 345.994 69.7178 345.994C69.7178 345.994 69.7178 345.994 69.6756 345.994H69.6333C69.5911 345.951 69.5488 345.951 69.5488 345.951L62.1977 341.975C61.5218 341.595 60.2543 341.679 59.4094 342.145C58.5644 342.61 58.4377 343.329 59.1559 343.71L66.507 347.685C66.5493 347.685 66.5915 347.728 66.6338 347.728C66.676 347.77 66.7182 347.77 66.7182 347.77C68.1124 348.531 67.8589 349.927 66.169 350.858C64.4791 351.83 61.9865 351.957 60.5923 351.238L58.0574 349.885L59.5784 349.039L62.071 350.392C62.747 350.773 64.0144 350.688 64.8593 350.223C65.7043 349.758 65.831 349.039 65.1128 348.658L61.3528 346.628L59.2404 345.486C58.5644 345.105 57.297 345.19 56.452 345.655C55.6071 346.12 55.4803 346.84 56.1985 347.22L57.0435 347.685L55.5226 348.531L52.4807 350.265L48.8897 352.296C48.0447 352.761 47.918 353.48 48.6362 353.861C49.3121 354.241 50.5796 354.157 51.4245 353.692L55.0156 351.661L57.5505 353.015C60.3388 354.537 65.3241 354.199 68.7039 352.296C72.126 350.308 72.5907 347.559 69.8446 346.036Z" fill="#073837"/>
<path d="M69.7179 345.275C69.6756 345.275 69.6756 345.275 69.7179 345.275C69.6756 345.232 69.6756 345.232 69.6334 345.232C69.6334 345.232 69.6334 345.232 69.5911 345.232C69.5911 345.232 69.5911 345.232 69.5489 345.232H69.5066C69.4644 345.19 69.4221 345.19 69.4221 345.19L62.071 341.214C61.3951 340.833 60.1276 340.918 59.2827 341.383C58.4377 341.849 58.311 342.568 59.0292 342.948L66.3803 346.924C66.4225 346.924 66.4648 346.966 66.507 346.966C66.5493 347.009 66.5915 347.009 66.5915 347.009C67.9857 347.77 67.7322 349.166 66.0423 350.096C64.3524 351.069 61.8598 351.196 60.4656 350.477L57.9307 349.123L59.4517 348.278L61.9443 349.631C62.6202 350.012 63.8877 349.927 64.7326 349.462C65.5776 348.997 65.7043 348.278 64.9861 347.897L61.2261 345.867L59.1137 344.725C58.4377 344.344 57.1703 344.429 56.3253 344.894C55.4804 345.359 55.3536 346.078 56.0718 346.459L56.9168 346.924L55.3959 347.77L52.354 349.504L48.763 351.534C47.918 352 47.7913 352.719 48.5095 353.099C49.1854 353.48 50.4529 353.395 51.2978 352.93L54.8889 350.9L57.4238 352.253C60.2121 353.776 65.1974 353.438 68.5772 351.534C71.957 349.546 72.464 346.797 69.7179 345.275Z" fill="url(#paint32_linear)"/>
<path opacity="0.4" d="M110.372 372.206C112.933 365.283 105.501 356.146 93.7726 351.798C82.0441 347.45 70.4604 349.536 67.8997 356.459C65.339 363.381 72.771 372.518 84.4995 376.866C96.228 381.215 107.812 379.128 110.372 372.206Z" fill="black"/>
<path d="M110.856 369.443C113.416 362.521 105.984 353.384 94.2559 349.036C82.5274 344.687 70.9437 346.774 68.383 353.696C65.8223 360.619 73.2543 369.756 84.9828 374.104C96.7113 378.453 108.295 376.366 110.856 369.443Z" fill="#0F5454"/>
<path d="M112.431 364.766C114.992 357.843 107.56 348.706 95.8317 344.358C84.1032 340.009 72.5195 342.096 69.9588 349.019C67.3981 355.941 74.8301 365.078 86.5586 369.426C98.2871 373.775 109.871 371.688 112.431 364.766Z" fill="#00757A"/>
<path d="M87.335 370.187C86.9971 370.06 86.7013 369.976 86.3633 369.849C74.4495 365.408 66.8871 356.018 69.5065 348.87C72.1258 341.722 83.9975 339.522 95.9536 343.963C101.699 346.078 106.6 349.42 109.811 353.353C113.064 357.329 114.12 361.432 112.81 364.942C110.233 371.879 98.9532 374.121 87.335 370.187ZM86.6591 369.045C98.1505 373.317 109.515 371.329 112.008 364.646C113.191 361.432 112.177 357.625 109.135 353.903C106.051 350.096 101.277 346.882 95.6579 344.809C84.1665 340.537 72.8018 342.525 70.3092 349.208C67.8166 355.891 75.1677 364.773 86.6591 369.045Z" fill="url(#paint33_linear)"/>
<path d="M109.143 363.547C111.307 357.698 105.025 349.977 95.1128 346.302C85.2004 342.627 75.4109 344.389 73.2473 350.238C71.0837 356.087 77.3652 363.808 87.2776 367.483C97.1899 371.158 106.979 369.396 109.143 363.547Z" fill="#073837"/>
<path d="M107.927 363.742C109.977 358.199 104.047 350.892 94.6814 347.419C85.3161 343.947 76.0621 345.625 74.0119 351.168C71.9617 356.71 77.8917 364.018 87.257 367.49C96.6223 370.962 105.876 369.284 107.927 363.742Z" fill="#0A5959"/>
<path d="M100.812 356.948C100.77 356.906 100.77 356.906 100.77 356.906C100.77 356.906 100.77 356.906 100.728 356.864C100.685 356.821 100.685 356.821 100.643 356.779L94.9819 350.646C94.4327 350.054 93.2497 349.758 92.278 349.927C91.3063 350.096 90.9684 350.731 91.5176 351.323L97.1788 357.456C97.221 357.498 97.221 357.498 97.2633 357.54C97.3055 357.583 97.3055 357.583 97.3478 357.625C98.404 358.809 97.728 360.036 95.8269 360.374C93.9257 360.713 91.5176 360.078 90.4191 358.894L88.4757 356.779L90.2079 356.441L92.1513 358.556C92.7005 359.148 93.8835 359.444 94.8552 359.275C95.7846 359.105 96.1648 358.471 95.6156 357.879L92.7005 354.707L91.0951 352.93C90.5459 352.338 89.363 352.042 88.3913 352.211C87.4196 352.38 87.0816 353.015 87.6308 353.607L88.2645 354.326L86.5323 354.664L83.068 355.299L79.0545 356.06C78.125 356.229 77.7448 356.864 78.294 357.456C78.8432 358.048 80.0262 358.344 80.9979 358.175L85.0114 357.414L86.9548 359.528C89.1095 361.855 93.9257 363.166 97.728 362.447C101.573 361.728 102.924 359.275 100.812 356.948Z" fill="#073837"/>
<path d="M100.897 356.187C100.854 356.145 100.854 356.145 100.854 356.145C100.854 356.145 100.854 356.145 100.812 356.102C100.77 356.06 100.77 356.06 100.728 356.018L95.0664 349.885C94.5172 349.293 93.3342 348.997 92.3625 349.166C91.3908 349.335 91.0528 349.969 91.6021 350.562L97.2633 356.695C97.3055 356.737 97.3055 356.737 97.3478 356.779C97.39 356.821 97.39 356.821 97.4323 356.864C98.4885 358.048 97.8125 359.275 95.9113 359.613C94.0102 359.951 91.6021 359.317 90.5036 358.133L88.5602 356.018L90.2924 355.679L92.2358 357.794C92.785 358.386 93.9679 358.682 94.9396 358.513C95.8691 358.344 96.2493 357.71 95.7001 357.118L92.785 353.945L91.1796 352.169C90.6304 351.577 89.4474 351.281 88.4757 351.45C87.504 351.619 87.166 352.253 87.7153 352.846L88.349 353.565L86.6168 353.903L83.1525 354.537L79.139 355.299C78.2095 355.468 77.8293 356.102 78.3785 356.695C78.9277 357.287 80.1107 357.583 81.0824 357.414L85.0959 356.652L87.0393 358.767C89.1939 361.093 94.0102 362.405 97.8125 361.685C101.657 360.966 103.009 358.513 100.897 356.187Z" fill="url(#paint34_linear)"/>
<path opacity="0.4" d="M130.258 359.498C132.819 352.575 125.387 343.438 113.658 339.09C101.93 334.741 90.3463 336.828 87.7856 343.75C85.2249 350.673 92.6569 359.81 104.385 364.158C116.114 368.507 127.698 366.42 130.258 359.498Z" fill="black"/>
<path d="M130.727 356.775C133.288 349.852 125.856 340.715 114.127 336.367C102.399 332.019 90.8149 334.105 88.2542 341.028C85.6935 347.95 93.1255 357.087 104.854 361.436C116.582 365.784 128.166 363.697 130.727 356.775Z" fill="#0F5454"/>
<path d="M132.303 352.097C134.863 345.175 127.431 336.038 115.703 331.689C103.974 327.341 92.3908 329.428 89.83 336.35C87.2693 343.273 94.7013 352.41 106.43 356.758C118.158 361.106 129.742 359.02 132.303 352.097Z" fill="#00757A"/>
<path d="M107.234 357.498C106.896 357.371 106.6 357.287 106.262 357.16C94.3481 352.719 86.7858 343.329 89.4051 336.181C92.0245 329.033 103.896 326.834 115.852 331.275C121.598 333.389 126.499 336.731 129.71 340.664C132.963 344.64 134.019 348.743 132.709 352.254C130.132 359.19 118.81 361.432 107.234 357.498ZM106.558 356.356C118.049 360.628 129.414 358.64 131.906 351.958C133.089 348.743 132.075 344.936 129.034 341.214C125.95 337.408 121.176 334.193 115.557 332.121C104.065 327.849 92.7005 329.837 90.2078 336.519C87.7152 343.202 95.0664 352.084 106.558 356.356Z" fill="url(#paint35_linear)"/>
<path d="M129.014 350.878C131.178 345.029 124.896 337.308 114.984 333.633C105.072 329.958 95.2822 331.72 93.1185 337.569C90.9549 343.418 97.2365 351.139 107.149 354.814C117.061 358.489 126.851 356.727 129.014 350.878Z" fill="#073837"/>
<path d="M127.798 351.073C129.848 345.531 123.918 338.223 114.553 334.751C105.187 331.278 95.9333 332.957 93.8831 338.499C91.8329 344.041 97.763 351.349 107.128 354.821C116.494 358.294 125.748 356.616 127.798 351.073Z" fill="#0A5959"/>
<path d="M120.711 344.26C120.711 344.26 120.669 344.26 120.711 344.26C120.669 344.217 120.669 344.217 120.669 344.217C120.669 344.217 120.669 344.217 120.626 344.175C120.584 344.133 120.584 344.133 120.542 344.09L114.881 337.957C114.331 337.365 113.149 337.069 112.177 337.238C111.205 337.408 110.867 338.042 111.416 338.634L117.078 344.767C117.12 344.809 117.12 344.809 117.162 344.852C117.204 344.894 117.204 344.894 117.247 344.936C118.303 346.121 117.627 347.347 115.726 347.686C113.824 348.024 111.416 347.389 110.318 346.205L108.375 344.09L110.107 343.752L112.05 345.867C112.599 346.459 113.782 346.755 114.754 346.586C115.683 346.417 116.064 345.782 115.514 345.19L112.599 342.018L110.994 340.241C110.445 339.649 109.262 339.353 108.29 339.522C107.318 339.692 106.98 340.326 107.53 340.918L108.163 341.637L106.431 341.976L102.967 342.61L98.9533 343.371C98.0238 343.54 97.6436 344.175 98.1928 344.767C98.742 345.359 99.925 345.655 100.897 345.486L104.91 344.725L106.854 346.84C109.008 349.166 113.824 350.477 117.627 349.758C121.429 349.039 122.823 346.586 120.711 344.26Z" fill="#073837"/>
<path d="M120.795 343.498C120.795 343.498 120.753 343.498 120.795 343.498C120.753 343.456 120.753 343.456 120.753 343.456C120.753 343.456 120.753 343.456 120.711 343.414C120.669 343.371 120.669 343.371 120.626 343.329L114.965 337.196C114.416 336.604 113.233 336.308 112.261 336.477C111.29 336.646 110.952 337.281 111.501 337.873L117.162 344.006C117.204 344.048 117.204 344.048 117.246 344.09C117.289 344.133 117.289 344.133 117.331 344.175C118.387 345.359 117.711 346.586 115.81 346.924C113.909 347.263 111.501 346.628 110.402 345.444L108.459 343.329L110.191 342.991L112.134 345.105C112.684 345.698 113.867 345.994 114.838 345.825C115.768 345.655 116.148 345.021 115.599 344.429L112.684 341.257L111.078 339.48C110.529 338.888 109.346 338.592 108.374 338.761C107.403 338.93 107.065 339.565 107.614 340.157L108.248 340.876L106.516 341.214L103.051 341.849L99.0376 342.61C98.1082 342.779 97.728 343.414 98.2772 344.006C98.8264 344.598 100.009 344.894 100.981 344.725L104.995 343.963L106.938 346.078C109.093 348.405 113.909 349.716 117.711 348.997C121.556 348.278 122.908 345.825 120.795 343.498Z" fill="url(#paint36_linear)"/>
<path d="M112.092 324.169L111.881 323.788L222.824 259.498L223.035 259.878L112.092 324.169Z" fill="url(#paint37_linear)"/>
<path d="M155.101 347.39L154.889 347.051L250.876 291.516L251.088 291.897L155.101 347.39Z" fill="url(#paint38_linear)"/>
<path d="M191.096 242.368L251.088 275.19L250.707 303.105L212.938 323.83L158.861 289.993L191.096 242.368Z" fill="url(#paint39_linear)"/>
<path d="M482.638 395.194L435.212 369.533C427.885 365.546 427.885 359.111 435.212 355.164L482.638 329.503C489.965 325.516 501.861 325.516 509.188 329.503L556.614 355.164C563.941 359.151 563.941 365.586 556.614 369.533L509.188 395.194C501.861 399.181 489.965 399.181 482.638 395.194Z" fill="#1F273A"/>
<path d="M483.035 390.188L435.259 364.166C427.869 360.141 427.869 353.606 435.259 349.581L483.035 323.559C490.424 319.534 502.398 319.534 509.787 323.559L557.563 349.581C564.952 353.606 564.952 360.141 557.563 364.166L509.787 390.188C502.437 394.213 490.424 394.213 483.035 390.188Z" fill="#323A51"/>
<path d="M495.893 393.207C490.988 393.207 486.043 392.182 482.325 390.172L434.497 364.432C430.779 362.422 428.721 359.741 428.721 356.864C428.721 353.986 430.779 351.306 434.497 349.296L482.325 323.556C489.801 319.535 501.986 319.535 509.502 323.556L557.329 349.296C561.048 351.306 563.105 353.986 563.105 356.864C563.105 359.741 561.048 362.422 557.329 364.432L509.502 390.172C505.744 392.182 500.799 393.207 495.893 393.207ZM482.681 389.462C489.96 393.365 501.827 393.365 509.106 389.462L556.934 363.723C560.375 361.87 562.274 359.426 562.274 356.864C562.274 354.302 560.375 351.858 556.934 350.005L509.106 324.265C501.827 320.363 489.96 320.363 482.681 324.265L434.853 350.005C431.411 351.858 429.513 354.302 429.513 356.864C429.513 359.426 431.411 361.87 434.853 363.723L482.681 389.462Z" fill="url(#paint40_linear)"/>
<path d="M495.829 383.225C516.782 383.225 533.768 371.844 533.768 357.805C533.768 343.765 516.782 332.385 495.829 332.385C474.877 332.385 457.891 343.765 457.891 357.805C457.891 371.844 474.877 383.225 495.829 383.225Z" fill="#2A2D33"/>
<path d="M495.829 379.883C516.782 379.883 533.768 368.503 533.768 354.463C533.768 340.424 516.782 329.043 495.829 329.043C474.877 329.043 457.891 340.424 457.891 354.463C457.891 368.503 474.877 379.883 495.829 379.883Z" fill="#195E38"/>
<path d="M495.238 375.738C512.551 375.738 526.586 366.346 526.586 354.759C526.586 343.173 512.551 333.78 495.238 333.78C477.925 333.78 463.89 343.173 463.89 354.759C463.89 366.346 477.925 375.738 495.238 375.738Z" fill="#00D009"/>
<path d="M495.238 207.061C468.495 207.061 446.78 221.611 446.78 239.502C446.78 241.702 447.118 243.859 447.751 245.931L463.932 355.013C463.932 366.602 477.959 375.992 495.28 375.992C512.602 375.992 526.628 366.602 526.628 355.013L542.809 245.931C543.443 243.859 543.781 241.702 543.781 239.502C543.696 221.569 521.981 207.061 495.238 207.061Z" fill="url(#paint41_linear)"/>
<path d="M489.535 242.801C489.788 243.309 490.042 243.774 490.253 244.239C495.618 256.082 500.984 267.968 506.349 279.81C509.729 287.255 513.109 294.741 516.489 302.185C517.376 304.173 517.334 304.427 515.517 305.653C513.278 307.134 510.87 308.149 508.208 308.614C506.307 308.953 506.096 308.868 505.377 307.007C500.392 293.768 495.449 280.487 490.464 267.248C487.929 260.481 485.394 253.671 482.817 246.904C482.395 245.847 482.648 245.466 483.662 245.085C485.352 244.493 487 243.732 488.647 243.055C488.859 242.97 489.197 242.886 489.535 242.801Z" fill="url(#paint42_linear)"/>
<path d="M442.175 262.3C444.245 259.424 446.568 256.59 449.103 253.925C456.961 245.635 465.918 238.825 476.142 233.75C476.902 233.369 477.494 233.073 476.945 232.1C476.691 231.593 476.945 231.212 477.494 231.001C479.057 230.366 480.662 229.732 482.226 229.055C482.817 228.801 483.24 228.886 483.451 229.52C483.789 230.535 484.38 230.282 485.098 230.028C498.956 225.46 513.151 224.064 527.642 225.925C528.191 226.01 528.783 226.094 529.332 226.179C529.712 226.263 530.304 226.263 530.261 226.813C530.219 227.405 529.67 227.321 529.29 227.321C526.586 227.532 523.924 227.659 521.22 227.913C512.94 228.717 504.87 230.366 497.012 233.115C495.872 233.496 495.196 234.131 494.815 235.273C494.477 236.415 493.928 237.472 493.548 238.572C493.168 239.671 492.661 240.686 491.393 240.982C491.013 241.067 490.675 241.321 490.886 241.786C491.267 242.674 490.76 243.055 489.999 243.351C487.38 244.408 484.76 245.508 482.141 246.608C481.592 246.862 481 247.073 480.662 246.396C480.282 245.593 479.817 245.677 479.184 246.016C478.381 246.439 477.663 246.312 476.86 245.973C475.55 245.381 474.241 244.874 472.973 244.239C471.875 243.689 470.988 243.816 469.889 244.324C460.172 249.019 451.554 255.279 443.611 262.511C443.358 262.723 443.146 262.977 442.893 263.188C442.639 263.399 442.428 263.696 442.048 263.442C441.752 263.23 441.752 263.019 442.175 262.3Z" fill="url(#paint43_linear)"/>
<path opacity="0.3" d="M494.815 375.95C477.409 375.95 463.256 366.433 463.256 354.759C463.256 343.086 477.409 333.569 494.815 333.569C512.222 333.569 526.375 343.086 526.375 354.759C526.375 366.433 512.222 375.95 494.815 375.95ZM494.815 333.992C477.663 333.992 463.679 343.297 463.679 354.759C463.679 366.222 477.621 375.527 494.815 375.527C511.968 375.527 525.952 366.222 525.952 354.759C525.952 343.297 511.968 333.992 494.815 333.992Z" fill="#0DFFAD"/>
<path opacity="0.3" d="M495.069 350.445C475.508 350.445 459.581 339.66 459.581 326.421C459.581 313.182 475.508 302.397 495.069 302.397C514.63 302.397 530.557 313.182 530.557 326.421C530.557 339.66 514.63 350.445 495.069 350.445ZM495.069 302.82C475.719 302.82 460.003 313.394 460.003 326.421C460.003 339.448 475.719 350.022 495.069 350.022C514.419 350.022 530.135 339.448 530.135 326.421C530.135 313.394 514.419 302.82 495.069 302.82Z" fill="#0DFFAD"/>
<path opacity="0.3" d="M495.153 335.768C474.241 335.768 457.257 324.221 457.257 310.052C457.257 295.883 474.283 284.336 495.153 284.336C516.066 284.336 533.05 295.883 533.05 310.052C533.092 324.221 516.066 335.768 495.153 335.768ZM495.153 284.801C474.494 284.801 457.679 296.137 457.679 310.094C457.679 324.052 474.494 335.387 495.153 335.387C515.812 335.387 532.627 324.052 532.627 310.094C532.669 296.137 515.812 284.801 495.153 284.801Z" fill="#0DFFAD"/>
<defs>
<linearGradient id="paint0_linear" x1="374.96" y1="318.77" x2="450.091" y2="318.77" gradientUnits="userSpaceOnUse">
<stop offset="0.00121702" stop-color="#00FFED"/>
<stop offset="0.3575" stop-color="#00FFEB" stop-opacity="0.8571"/>
<stop offset="0.5109" stop-color="#00FEE4" stop-opacity="0.7956"/>
<stop offset="0.6253" stop-color="#00FCD7" stop-opacity="0.7497"/>
<stop offset="0.7205" stop-color="#00F9C5" stop-opacity="0.7116"/>
<stop offset="0.8036" stop-color="#00F6AE" stop-opacity="0.6783"/>
<stop offset="0.8783" stop-color="#00F292" stop-opacity="0.6483"/>
<stop offset="0.9452" stop-color="#00EE71" stop-opacity="0.6215"/>
<stop offset="0.9988" stop-color="#00E950" stop-opacity="0.6"/>
</linearGradient>
<linearGradient id="paint1_linear" x1="5.56256" y1="362.494" x2="173.194" y2="362.494" gradientUnits="userSpaceOnUse">
<stop stop-color="#00FFED" stop-opacity="0.1"/>
<stop offset="0.3567" stop-color="#00FFEB" stop-opacity="0.2786"/>
<stop offset="0.5103" stop-color="#00FEE4" stop-opacity="0.3555"/>
<stop offset="0.6249" stop-color="#00FCD7" stop-opacity="0.4128"/>
<stop offset="0.7201" stop-color="#00F9C5" stop-opacity="0.4605"/>
<stop offset="0.8033" stop-color="#00F6AE" stop-opacity="0.5022"/>
<stop offset="0.8781" stop-color="#00F292" stop-opacity="0.5396"/>
<stop offset="0.9451" stop-color="#00EE71" stop-opacity="0.5731"/>
<stop offset="0.9988" stop-color="#00E950" stop-opacity="0.6"/>
</linearGradient>
<linearGradient id="paint2_linear" x1="5.38943" y1="362.494" x2="173.367" y2="362.494" gradientUnits="userSpaceOnUse">
<stop offset="0.00121702" stop-color="#00FFED"/>
<stop offset="0.3575" stop-color="#00FFEB" stop-opacity="0.8571"/>
<stop offset="0.5109" stop-color="#00FEE4" stop-opacity="0.7956"/>
<stop offset="0.6253" stop-color="#00FCD7" stop-opacity="0.7497"/>
<stop offset="0.7205" stop-color="#00F9C5" stop-opacity="0.7116"/>
<stop offset="0.8036" stop-color="#00F6AE" stop-opacity="0.6783"/>
<stop offset="0.8783" stop-color="#00F292" stop-opacity="0.6483"/>
<stop offset="0.9452" stop-color="#00EE71" stop-opacity="0.6215"/>
<stop offset="0.9988" stop-color="#00E950" stop-opacity="0.6"/>
</linearGradient>
<linearGradient id="paint3_linear" x1="411.677" y1="360.351" x2="578.404" y2="360.351" gradientUnits="userSpaceOnUse">
<stop stop-color="#00FFED" stop-opacity="0.1"/>
<stop offset="0.3567" stop-color="#00FFEB" stop-opacity="0.2786"/>
<stop offset="0.5103" stop-color="#00FEE4" stop-opacity="0.3555"/>
<stop offset="0.6249" stop-color="#00FCD7" stop-opacity="0.4128"/>
<stop offset="0.7201" stop-color="#00F9C5" stop-opacity="0.4605"/>
<stop offset="0.8033" stop-color="#00F6AE" stop-opacity="0.5022"/>
<stop offset="0.8781" stop-color="#00F292" stop-opacity="0.5396"/>
<stop offset="0.9451" stop-color="#00EE71" stop-opacity="0.5731"/>
<stop offset="0.9988" stop-color="#00E950" stop-opacity="0.6"/>
</linearGradient>
<linearGradient id="paint4_linear" x1="411.505" y1="360.351" x2="578.576" y2="360.351" gradientUnits="userSpaceOnUse">
<stop offset="0.00121702" stop-color="#00FFED"/>
<stop offset="0.3575" stop-color="#00FFEB" stop-opacity="0.8571"/>
<stop offset="0.5109" stop-color="#00FEE4" stop-opacity="0.7956"/>
<stop offset="0.6253" stop-color="#00FCD7" stop-opacity="0.7497"/>
<stop offset="0.7205" stop-color="#00F9C5" stop-opacity="0.7116"/>
<stop offset="0.8036" stop-color="#00F6AE" stop-opacity="0.6783"/>
<stop offset="0.8783" stop-color="#00F292" stop-opacity="0.6483"/>
<stop offset="0.9452" stop-color="#00EE71" stop-opacity="0.6215"/>
<stop offset="0.9988" stop-color="#00E950" stop-opacity="0.6"/>
</linearGradient>
<linearGradient id="paint5_linear" x1="156.136" y1="184.265" x2="437.377" y2="184.265" gradientUnits="userSpaceOnUse">
<stop stop-color="#00FFED" stop-opacity="0.1"/>
<stop offset="0.3567" stop-color="#00FFEB" stop-opacity="0.2786"/>
<stop offset="0.5103" stop-color="#00FEE4" stop-opacity="0.3555"/>
<stop offset="0.6249" stop-color="#00FCD7" stop-opacity="0.4128"/>
<stop offset="0.7201" stop-color="#00F9C5" stop-opacity="0.4605"/>
<stop offset="0.8033" stop-color="#00F6AE" stop-opacity="0.5022"/>
<stop offset="0.8781" stop-color="#00F292" stop-opacity="0.5396"/>
<stop offset="0.9451" stop-color="#00EE71" stop-opacity="0.5731"/>
<stop offset="0.9988" stop-color="#00E950" stop-opacity="0.6"/>
</linearGradient>
<linearGradient id="paint6_linear" x1="191.388" y1="190.92" x2="400.216" y2="190.92" gradientUnits="userSpaceOnUse">
<stop stop-color="#00FFED" stop-opacity="0.6"/>
<stop offset="0.1207" stop-color="#00FEE5" stop-opacity="0.6"/>
<stop offset="0.3062" stop-color="#00FBD0" stop-opacity="0.6"/>
<stop offset="0.5334" stop-color="#00F6AD" stop-opacity="0.6"/>
<stop offset="0.7912" stop-color="#00EF7C" stop-opacity="0.6"/>
<stop offset="0.9988" stop-color="#00E950" stop-opacity="0.6"/>
</linearGradient>
<linearGradient id="paint7_linear" x1="155.714" y1="184.265" x2="437.81" y2="184.265" gradientUnits="userSpaceOnUse">
<stop offset="0.00121702" stop-color="#00FFED"/>
<stop offset="0.3575" stop-color="#00FFEB" stop-opacity="0.8571"/>
<stop offset="0.5109" stop-color="#00FEE4" stop-opacity="0.7956"/>
<stop offset="0.6253" stop-color="#00FCD7" stop-opacity="0.7497"/>
<stop offset="0.7205" stop-color="#00F9C5" stop-opacity="0.7116"/>
<stop offset="0.8036" stop-color="#00F6AE" stop-opacity="0.6783"/>
<stop offset="0.8783" stop-color="#00F292" stop-opacity="0.6483"/>
<stop offset="0.9452" stop-color="#00EE71" stop-opacity="0.6215"/>
<stop offset="0.9988" stop-color="#00E950" stop-opacity="0.6"/>
</linearGradient>
<linearGradient id="paint8_linear" x1="208.033" y1="151.893" x2="235.274" y2="151.893" gradientUnits="userSpaceOnUse">
<stop stop-color="#00A8A1"/>
<stop offset="1" stop-color="#41FF7A"/>
</linearGradient>
<linearGradient id="paint9_linear" x1="237.281" y1="81.941" x2="381.764" y2="74.9783" gradientUnits="userSpaceOnUse">
<stop stop-color="#00FFED" stop-opacity="0.1"/>
<stop offset="0.3567" stop-color="#00FFEB" stop-opacity="0.2786"/>
<stop offset="0.5103" stop-color="#00FEE4" stop-opacity="0.3555"/>
<stop offset="0.6249" stop-color="#00FCD7" stop-opacity="0.4128"/>
<stop offset="0.7201" stop-color="#00F9C5" stop-opacity="0.4605"/>
<stop offset="0.8033" stop-color="#00F6AE" stop-opacity="0.5022"/>
<stop offset="0.8781" stop-color="#00F292" stop-opacity="0.5396"/>
<stop offset="0.9451" stop-color="#00EE71" stop-opacity="0.5731"/>
<stop offset="0.9988" stop-color="#00E950" stop-opacity="0.6"/>
</linearGradient>
<linearGradient id="paint10_linear" x1="297.932" y1="51.2696" x2="294.545" y2="126.134" gradientUnits="userSpaceOnUse">
<stop stop-color="#00FFED" stop-opacity="0.1"/>
<stop offset="0.3567" stop-color="#00FFEB" stop-opacity="0.2786"/>
<stop offset="0.5103" stop-color="#00FEE4" stop-opacity="0.3555"/>
<stop offset="0.6249" stop-color="#00FCD7" stop-opacity="0.4128"/>
<stop offset="0.7201" stop-color="#00F9C5" stop-opacity="0.4605"/>
<stop offset="0.8033" stop-color="#00F6AE" stop-opacity="0.5022"/>
<stop offset="0.8781" stop-color="#00F292" stop-opacity="0.5396"/>
<stop offset="0.9451" stop-color="#00EE71" stop-opacity="0.5731"/>
<stop offset="0.9988" stop-color="#00E950" stop-opacity="0.6"/>
</linearGradient>
<linearGradient id="paint11_linear" x1="205.937" y1="66.7345" x2="386.729" y2="66.7345" gradientUnits="userSpaceOnUse">
<stop offset="0.00121702" stop-color="#00FFED"/>
<stop offset="0.3575" stop-color="#00FFEB" stop-opacity="0.8571"/>
<stop offset="0.5109" stop-color="#00FEE4" stop-opacity="0.7956"/>
<stop offset="0.6253" stop-color="#00FCD7" stop-opacity="0.7497"/>
<stop offset="0.7205" stop-color="#00F9C5" stop-opacity="0.7116"/>
<stop offset="0.8036" stop-color="#00F6AE" stop-opacity="0.6783"/>
<stop offset="0.8783" stop-color="#00F292" stop-opacity="0.6483"/>
<stop offset="0.9452" stop-color="#00EE71" stop-opacity="0.6215"/>
<stop offset="0.9988" stop-color="#00E950" stop-opacity="0.6"/>
</linearGradient>
<linearGradient id="paint12_linear" x1="176.085" y1="80.5234" x2="416.816" y2="80.5234" gradientUnits="userSpaceOnUse">
<stop offset="0.00121702" stop-color="#00FFED"/>
<stop offset="0.3575" stop-color="#00FFEB" stop-opacity="0.8571"/>
<stop offset="0.5109" stop-color="#00FEE4" stop-opacity="0.7956"/>
<stop offset="0.6253" stop-color="#00FCD7" stop-opacity="0.7497"/>
<stop offset="0.7205" stop-color="#00F9C5" stop-opacity="0.7116"/>
<stop offset="0.8036" stop-color="#00F6AE" stop-opacity="0.6783"/>
<stop offset="0.8783" stop-color="#00F292" stop-opacity="0.6483"/>
<stop offset="0.9452" stop-color="#00EE71" stop-opacity="0.6215"/>
<stop offset="0.9988" stop-color="#00E950" stop-opacity="0.6"/>
</linearGradient>
<linearGradient id="paint13_linear" x1="376.862" y1="263.646" x2="382.299" y2="265.428" gradientUnits="userSpaceOnUse">
<stop stop-color="#00A8A1"/>
<stop offset="1" stop-color="#41FF7A"/>
</linearGradient>
<linearGradient id="paint14_linear" x1="387.319" y1="257.936" x2="392.755" y2="259.718" gradientUnits="userSpaceOnUse">
<stop stop-color="#00A8A1"/>
<stop offset="1" stop-color="#41FF7A"/>
</linearGradient>
<linearGradient id="paint15_linear" x1="397.775" y1="252.226" x2="403.211" y2="254.008" gradientUnits="userSpaceOnUse">
<stop stop-color="#00A8A1"/>
<stop offset="1" stop-color="#41FF7A"/>
</linearGradient>
<linearGradient id="paint16_linear" x1="237.015" y1="58.1132" x2="347.282" y2="58.3242" gradientUnits="userSpaceOnUse">
<stop stop-color="#00FFED" stop-opacity="0.1"/>
<stop offset="0.3567" stop-color="#00FFEB" stop-opacity="0.2786"/>
<stop offset="0.5103" stop-color="#00FEE4" stop-opacity="0.3555"/>
<stop offset="0.6249" stop-color="#00FCD7" stop-opacity="0.4128"/>
<stop offset="0.7201" stop-color="#00F9C5" stop-opacity="0.4605"/>
<stop offset="0.8033" stop-color="#00F6AE" stop-opacity="0.5022"/>
<stop offset="0.8781" stop-color="#00F292" stop-opacity="0.5396"/>
<stop offset="0.9451" stop-color="#00EE71" stop-opacity="0.5731"/>
<stop offset="0.9988" stop-color="#00E950" stop-opacity="0.6"/>
</linearGradient>
<linearGradient id="paint17_linear" x1="83.5575" y1="376.24" x2="129.699" y2="376.24" gradientUnits="userSpaceOnUse">
<stop offset="0.00121702" stop-color="#00FFED"/>
<stop offset="0.3575" stop-color="#00FFEB" stop-opacity="0.8571"/>
<stop offset="0.5109" stop-color="#00FEE4" stop-opacity="0.7956"/>
<stop offset="0.6253" stop-color="#00FCD7" stop-opacity="0.7497"/>
<stop offset="0.7205" stop-color="#00F9C5" stop-opacity="0.7116"/>
<stop offset="0.8036" stop-color="#00F6AE" stop-opacity="0.6783"/>
<stop offset="0.8783" stop-color="#00F292" stop-opacity="0.6483"/>
<stop offset="0.9452" stop-color="#00EE71" stop-opacity="0.6215"/>
<stop offset="0.9988" stop-color="#00E950" stop-opacity="0.6"/>
</linearGradient>
<linearGradient id="paint18_linear" x1="111.62" y1="372.678" x2="109.587" y2="382.148" gradientUnits="userSpaceOnUse">
<stop stop-color="#00A8A1"/>
<stop offset="1" stop-color="#41FF7A"/>
</linearGradient>
<linearGradient id="paint19_linear" x1="48.1104" y1="373.471" x2="90.7363" y2="355.781" gradientUnits="userSpaceOnUse">
<stop offset="0.00121702" stop-color="#00FFED"/>
<stop offset="0.3575" stop-color="#00FFEB" stop-opacity="0.8571"/>
<stop offset="0.5109" stop-color="#00FEE4" stop-opacity="0.7956"/>
<stop offset="0.6253" stop-color="#00FCD7" stop-opacity="0.7497"/>
<stop offset="0.7205" stop-color="#00F9C5" stop-opacity="0.7116"/>
<stop offset="0.8036" stop-color="#00F6AE" stop-opacity="0.6783"/>
<stop offset="0.8783" stop-color="#00F292" stop-opacity="0.6483"/>
<stop offset="0.9452" stop-color="#00EE71" stop-opacity="0.6215"/>
<stop offset="0.9988" stop-color="#00E950" stop-opacity="0.6"/>
</linearGradient>
<linearGradient id="paint20_linear" x1="72.6597" y1="359.439" x2="74.4205" y2="368.964" gradientUnits="userSpaceOnUse">
<stop stop-color="#00A8A1"/>
<stop offset="1" stop-color="#41FF7A"/>
</linearGradient>
<linearGradient id="paint21_linear" x1="203.128" y1="239.449" x2="233.913" y2="298.205" gradientUnits="userSpaceOnUse">
<stop stop-color="#00FFED"/>
<stop offset="0.1207" stop-color="#00FEE5"/>
<stop offset="0.3062" stop-color="#00FBD0"/>
<stop offset="0.5334" stop-color="#00F6AD"/>
<stop offset="0.7912" stop-color="#00EF7C"/>
<stop offset="0.9988" stop-color="#00E950"/>
</linearGradient>
<linearGradient id="paint22_linear" x1="258.97" y1="46.8348" x2="301.461" y2="46.8074" gradientUnits="userSpaceOnUse">
<stop stop-color="#00A8A1"/>
<stop offset="1" stop-color="#41FF7A"/>
</linearGradient>
<linearGradient id="paint23_linear" x1="279.989" y1="55.1294" x2="317.701" y2="55.1051" gradientUnits="userSpaceOnUse">
<stop stop-color="#00A8A1"/>
<stop offset="1" stop-color="#41FF7A"/>
</linearGradient>
<linearGradient id="paint24_linear" x1="299.416" y1="64.671" x2="334.333" y2="64.6485" gradientUnits="userSpaceOnUse">
<stop stop-color="#00A8A1"/>
<stop offset="1" stop-color="#41FF7A"/>
</linearGradient>
<linearGradient id="paint25_linear" x1="184.374" y1="290.466" x2="222.052" y2="290.466" gradientUnits="userSpaceOnUse">
<stop offset="0.00121702" stop-color="#00FFED"/>
<stop offset="0.3575" stop-color="#00FFEB" stop-opacity="0.8571"/>
<stop offset="0.5109" stop-color="#00FEE4" stop-opacity="0.7956"/>
<stop offset="0.6253" stop-color="#00FCD7" stop-opacity="0.7497"/>
<stop offset="0.7205" stop-color="#00F9C5" stop-opacity="0.7116"/>
<stop offset="0.8036" stop-color="#00F6AE" stop-opacity="0.6783"/>
<stop offset="0.8783" stop-color="#00F292" stop-opacity="0.6483"/>
<stop offset="0.9452" stop-color="#00EE71" stop-opacity="0.6215"/>
<stop offset="0.9988" stop-color="#00E950" stop-opacity="0.6"/>
</linearGradient>
<linearGradient id="paint26_linear" x1="207.291" y1="287.558" x2="205.632" y2="295.29" gradientUnits="userSpaceOnUse">
<stop stop-color="#00A8A1"/>
<stop offset="1" stop-color="#41FF7A"/>
</linearGradient>
<linearGradient id="paint27_linear" x1="136.493" y1="316.69" x2="174.171" y2="316.69" gradientUnits="userSpaceOnUse">
<stop offset="0.00121702" stop-color="#00FFED"/>
<stop offset="0.3575" stop-color="#00FFEB" stop-opacity="0.8571"/>
<stop offset="0.5109" stop-color="#00FEE4" stop-opacity="0.7956"/>
<stop offset="0.6253" stop-color="#00FCD7" stop-opacity="0.7497"/>
<stop offset="0.7205" stop-color="#00F9C5" stop-opacity="0.7116"/>
<stop offset="0.8036" stop-color="#00F6AE" stop-opacity="0.6783"/>
<stop offset="0.8783" stop-color="#00F292" stop-opacity="0.6483"/>
<stop offset="0.9452" stop-color="#00EE71" stop-opacity="0.6215"/>
<stop offset="0.9988" stop-color="#00E950" stop-opacity="0.6"/>
</linearGradient>
<linearGradient id="paint28_linear" x1="159.412" y1="313.781" x2="157.752" y2="321.514" gradientUnits="userSpaceOnUse">
<stop stop-color="#00A8A1"/>
<stop offset="1" stop-color="#41FF7A"/>
</linearGradient>
<linearGradient id="paint29_linear" x1="64.9967" y1="348.849" x2="99.6612" y2="334.072" gradientUnits="userSpaceOnUse">
<stop offset="0.00121702" stop-color="#00FFED"/>
<stop offset="0.3575" stop-color="#00FFEB" stop-opacity="0.8571"/>
<stop offset="0.5109" stop-color="#00FEE4" stop-opacity="0.7956"/>
<stop offset="0.6253" stop-color="#00FCD7" stop-opacity="0.7497"/>
<stop offset="0.7205" stop-color="#00F9C5" stop-opacity="0.7116"/>
<stop offset="0.8036" stop-color="#00F6AE" stop-opacity="0.6783"/>
<stop offset="0.8783" stop-color="#00F292" stop-opacity="0.6483"/>
<stop offset="0.9452" stop-color="#00EE71" stop-opacity="0.6215"/>
<stop offset="0.9988" stop-color="#00E950" stop-opacity="0.6"/>
</linearGradient>
<linearGradient id="paint30_linear" x1="84.9105" y1="337.232" x2="86.4226" y2="344.995" gradientUnits="userSpaceOnUse">
<stop stop-color="#00A8A1"/>
<stop offset="1" stop-color="#41FF7A"/>
</linearGradient>
<linearGradient id="paint31_linear" x1="37.6348" y1="349.095" x2="83.7761" y2="349.095" gradientUnits="userSpaceOnUse">
<stop offset="0.00121702" stop-color="#00FFED"/>
<stop offset="0.3575" stop-color="#00FFEB" stop-opacity="0.8571"/>
<stop offset="0.5109" stop-color="#00FEE4" stop-opacity="0.7956"/>
<stop offset="0.6253" stop-color="#00FCD7" stop-opacity="0.7497"/>
<stop offset="0.7205" stop-color="#00F9C5" stop-opacity="0.7116"/>
<stop offset="0.8036" stop-color="#00F6AE" stop-opacity="0.6783"/>
<stop offset="0.8783" stop-color="#00F292" stop-opacity="0.6483"/>
<stop offset="0.9452" stop-color="#00EE71" stop-opacity="0.6215"/>
<stop offset="0.9988" stop-color="#00E950" stop-opacity="0.6"/>
</linearGradient>
<linearGradient id="paint32_linear" x1="65.694" y1="345.533" x2="63.6614" y2="355.003" gradientUnits="userSpaceOnUse">
<stop stop-color="#00A8A1"/>
<stop offset="1" stop-color="#41FF7A"/>
</linearGradient>
<linearGradient id="paint33_linear" x1="69.3514" y1="349.443" x2="113.039" y2="364.31" gradientUnits="userSpaceOnUse">
<stop offset="0.00121702" stop-color="#00FFED"/>
<stop offset="0.3575" stop-color="#00FFEB" stop-opacity="0.8571"/>
<stop offset="0.5109" stop-color="#00FEE4" stop-opacity="0.7956"/>
<stop offset="0.6253" stop-color="#00FCD7" stop-opacity="0.7497"/>
<stop offset="0.7205" stop-color="#00F9C5" stop-opacity="0.7116"/>
<stop offset="0.8036" stop-color="#00F6AE" stop-opacity="0.6783"/>
<stop offset="0.8783" stop-color="#00F292" stop-opacity="0.6483"/>
<stop offset="0.9452" stop-color="#00EE71" stop-opacity="0.6215"/>
<stop offset="0.9988" stop-color="#00E950" stop-opacity="0.6"/>
</linearGradient>
<linearGradient id="paint34_linear" x1="96.9667" y1="355.132" x2="91.9868" y2="363.437" gradientUnits="userSpaceOnUse">
<stop stop-color="#00A8A1"/>
<stop offset="1" stop-color="#41FF7A"/>
</linearGradient>
<linearGradient id="paint35_linear" x1="89.2303" y1="336.753" x2="132.918" y2="351.62" gradientUnits="userSpaceOnUse">
<stop offset="0.00121702" stop-color="#00FFED"/>
<stop offset="0.3575" stop-color="#00FFEB" stop-opacity="0.8571"/>
<stop offset="0.5109" stop-color="#00FEE4" stop-opacity="0.7956"/>
<stop offset="0.6253" stop-color="#00FCD7" stop-opacity="0.7497"/>
<stop offset="0.7205" stop-color="#00F9C5" stop-opacity="0.7116"/>
<stop offset="0.8036" stop-color="#00F6AE" stop-opacity="0.6783"/>
<stop offset="0.8783" stop-color="#00F292" stop-opacity="0.6483"/>
<stop offset="0.9452" stop-color="#00EE71" stop-opacity="0.6215"/>
<stop offset="0.9988" stop-color="#00E950" stop-opacity="0.6"/>
</linearGradient>
<linearGradient id="paint36_linear" x1="116.847" y1="342.443" x2="111.867" y2="350.748" gradientUnits="userSpaceOnUse">
<stop stop-color="#00A8A1"/>
<stop offset="1" stop-color="#41FF7A"/>
</linearGradient>
<linearGradient id="paint37_linear" x1="111.862" y1="291.841" x2="223.044" y2="291.841" gradientUnits="userSpaceOnUse">
<stop offset="0.00121702" stop-color="#00FFED"/>
<stop offset="0.3575" stop-color="#00FFEB" stop-opacity="0.8571"/>
<stop offset="0.5109" stop-color="#00FEE4" stop-opacity="0.7956"/>
<stop offset="0.6253" stop-color="#00FCD7" stop-opacity="0.7497"/>
<stop offset="0.7205" stop-color="#00F9C5" stop-opacity="0.7116"/>
<stop offset="0.8036" stop-color="#00F6AE" stop-opacity="0.6783"/>
<stop offset="0.8783" stop-color="#00F292" stop-opacity="0.6483"/>
<stop offset="0.9452" stop-color="#00EE71" stop-opacity="0.6215"/>
<stop offset="0.9988" stop-color="#00E950" stop-opacity="0.6"/>
</linearGradient>
<linearGradient id="paint38_linear" x1="154.902" y1="319.458" x2="251.069" y2="319.458" gradientUnits="userSpaceOnUse">
<stop offset="0.00121702" stop-color="#00FFED"/>
<stop offset="0.3575" stop-color="#00FFEB" stop-opacity="0.8571"/>
<stop offset="0.5109" stop-color="#00FEE4" stop-opacity="0.7956"/>
<stop offset="0.6253" stop-color="#00FCD7" stop-opacity="0.7497"/>
<stop offset="0.7205" stop-color="#00F9C5" stop-opacity="0.7116"/>
<stop offset="0.8036" stop-color="#00F6AE" stop-opacity="0.6783"/>
<stop offset="0.8783" stop-color="#00F292" stop-opacity="0.6483"/>
<stop offset="0.9452" stop-color="#00EE71" stop-opacity="0.6215"/>
<stop offset="0.9988" stop-color="#00E950" stop-opacity="0.6"/>
</linearGradient>
<linearGradient id="paint39_linear" x1="185.133" y1="307.539" x2="230.388" y2="263.603" gradientUnits="userSpaceOnUse">
<stop stop-color="#00FFED" stop-opacity="0"/>
<stop offset="0.1474" stop-color="#00FDDD" stop-opacity="0.0885717"/>
<stop offset="0.4372" stop-color="#00F7B2" stop-opacity="0.2626"/>
<stop offset="0.8376" stop-color="#00ED6D" stop-opacity="0.5032"/>
<stop offset="0.9988" stop-color="#00E950" stop-opacity="0.6"/>
</linearGradient>
<linearGradient id="paint40_linear" x1="428.714" y1="356.868" x2="563.067" y2="356.868" gradientUnits="userSpaceOnUse">
<stop offset="0.00121702" stop-color="#00FFED"/>
<stop offset="0.3575" stop-color="#00FFEB" stop-opacity="0.8571"/>
<stop offset="0.5109" stop-color="#00FEE4" stop-opacity="0.7956"/>
<stop offset="0.6253" stop-color="#00FCD7" stop-opacity="0.7497"/>
<stop offset="0.7205" stop-color="#00F9C5" stop-opacity="0.7116"/>
<stop offset="0.8036" stop-color="#00F6AE" stop-opacity="0.6783"/>
<stop offset="0.8783" stop-color="#00F292" stop-opacity="0.6483"/>
<stop offset="0.9452" stop-color="#00EE71" stop-opacity="0.6215"/>
<stop offset="0.9988" stop-color="#00E950" stop-opacity="0.6"/>
</linearGradient>
<linearGradient id="paint41_linear" x1="497.674" y1="190.093" x2="491.45" y2="315.995" gradientUnits="userSpaceOnUse">
<stop stop-color="#00FFED" stop-opacity="0"/>
<stop offset="0.4103" stop-color="#00FFEB" stop-opacity="0.1232"/>
<stop offset="0.558" stop-color="#00FEE4" stop-opacity="0.1676"/>
<stop offset="0.6634" stop-color="#00FCD9" stop-opacity="0.1993"/>
<stop offset="0.7485" stop-color="#00FAC8" stop-opacity="0.2248"/>
<stop offset="0.8215" stop-color="#00F7B2" stop-opacity="0.2468"/>
<stop offset="0.8861" stop-color="#00F396" stop-opacity="0.2662"/>
<stop offset="0.9431" stop-color="#00EE77" stop-opacity="0.2833"/>
<stop offset="0.9952" stop-color="#00E953" stop-opacity="0.2989"/>
<stop offset="0.9988" stop-color="#00E950" stop-opacity="0.3"/>
</linearGradient>
<linearGradient id="paint42_linear" x1="474.284" y1="265.896" x2="524.266" y2="286.584" gradientUnits="userSpaceOnUse">
<stop stop-color="#00A8A1"/>
<stop offset="1" stop-color="#41FF7A"/>
</linearGradient>
<linearGradient id="paint43_linear" x1="454.704" y1="231.848" x2="517.429" y2="257.81" gradientUnits="userSpaceOnUse">
<stop stop-color="#00A8A1"/>
<stop offset="1" stop-color="#41FF7A"/>
</linearGradient>
</defs>
</svg>
