<svg xmlns="http://www.w3.org/2000/svg" width="27.564" height="30.237" viewBox="0 0 27.564 30.237">
  <g id="nfts_market_place" transform="translate(-2.553 -1.619)">
    <path id="Path_2211" data-name="Path 2211" d="M5.683,27.943v2.913m21.3,0V27.944" fill="none" stroke="#445b74" stroke-linecap="round" stroke-linejoin="round" stroke-width="2"/>
    <path id="Path_2212" data-name="Path 2212" d="M12.074,23.045V24a4.528,4.528,0,0,1-1.248,3.136,4.144,4.144,0,0,1-6.026,0A4.528,4.528,0,0,1,3.552,24v-.95" fill="none" stroke="#445b74" stroke-linecap="round" stroke-linejoin="round" stroke-width="2"/>
    <path id="Path_2213" data-name="Path 2213" d="M20.595,23.045V24a4.528,4.528,0,0,1-1.248,3.136,4.144,4.144,0,0,1-6.026,0A4.529,4.529,0,0,1,12.073,24v-.95" fill="none" stroke="#445b74" stroke-linecap="round" stroke-linejoin="round" stroke-width="2"/>
    <path id="Path_2214" data-name="Path 2214" d="M29.117,23.045V24a4.529,4.529,0,0,1-1.248,3.136,4.144,4.144,0,0,1-6.026,0A4.528,4.528,0,0,1,20.6,24v-.95" fill="none" stroke="#445b74" stroke-linecap="round" stroke-linejoin="round" stroke-width="2"/>
    <path id="Path_2215" data-name="Path 2215" d="M9.17,13.266H6.486a2.038,2.038,0,0,0-1.259.437,2.111,2.111,0,0,0-.73,1.1l-.008.032L2.58,22.812a1,1,0,0,0,.973,1.233H29.118a1,1,0,0,0,.972-1.233l-1.91-7.975-.008-.032a2.111,2.111,0,0,0-.73-1.1,2.038,2.038,0,0,0-1.259-.437H23.5a.706.706,0,0,1-.126.1l-3.167,1.9h5.979l.009,0a.05.05,0,0,1,.015.009.108.108,0,0,1,.033.05l1.609,6.719H4.82l1.609-6.719a.108.108,0,0,1,.033-.05.05.05,0,0,1,.015-.009l.009,0h5.977L9.3,13.363A.705.705,0,0,1,9.17,13.266Z" fill="#445b74" fill-rule="evenodd"/>
    <path id="Path_2216" data-name="Path 2216" d="M16.3,2.469a.636.636,0,0,1,.636,0L23.23,6.1a.636.636,0,0,1,.318.551v7.265a.636.636,0,0,1-.318.551L16.938,18.1a.637.637,0,0,1-.636,0L10.01,14.469a.636.636,0,0,1-.318-.551V6.653A.636.636,0,0,1,10.01,6.1Z" fill="rgba(255,0,0,0)" stroke="#cd58c1" stroke-width="1.5"/>
    <path id="Path_2217" data-name="Path 2217" d="M18.767,6.857a.655.655,0,0,1,.509.211.715.715,0,0,1,.2.528v5.39a.761.761,0,0,1-.2.548.671.671,0,0,1-.509.2.694.694,0,0,1-.557-.25L14.991,9.365v3.622a.783.783,0,0,1-.192.548.64.64,0,0,1-.5.2.671.671,0,0,1-.509-.2.783.783,0,0,1-.192-.548V7.6a.735.735,0,0,1,.192-.528.686.686,0,0,1,.519-.211.65.65,0,0,1,.548.25L18.075,11.2V7.6a.735.735,0,0,1,.192-.528A.644.644,0,0,1,18.767,6.857Z" fill="#cd58c1"/>
  </g>
</svg>
