<svg xmlns="http://www.w3.org/2000/svg" width="27.143" height="27.143" viewBox="0 0 27.143 27.143">
  <g id="pool" transform="translate(-2.429 -3.572)">
    <path id="Path_2218" data-name="Path 2218" d="M17.724,11.43h-.088l-.029,0-.092,0h-6.17a1.059,1.059,0,1,0,0,2.118h6.17c.032,0,.061,0,.092,0s.061,0,.09,0a2.118,2.118,0,1,1,0,4.235H15.58V16.724H17.7a1.059,1.059,0,1,0,0-2.118H12.756a1.059,1.059,0,0,0,0,2.118h.706v5.647a1.059,1.059,0,0,0,2.118,0V19.9H17.7a4.235,4.235,0,0,0,.027-8.471Z" fill="rgba(255,0,0,0)" stroke="#cd58c1" stroke-width="1"/>
    <circle id="Ellipse_90" data-name="Ellipse 90" cx="12.571" cy="12.571" r="12.571" transform="translate(3.429 4.572)" fill="none" stroke="#445b74" stroke-width="2"/>
    <path id="Path_2219" data-name="Path 2219" d="M28.572,29.715H3.429" fill="none" stroke="#445b74" stroke-linecap="round" stroke-linejoin="round" stroke-width="2"/>
  </g>
</svg>
