<svg width="99" height="92" viewBox="0 0 99 92" fill="none" xmlns="http://www.w3.org/2000/svg">
<circle cx="24" cy="24" r="24" fill="#F3BA0F"/>
<g clip-path="url(#clip0)">
<path d="M23.7179 38.9996C23.4401 38.9996 23.3475 38.8143 23.2548 38.7217C22.236 37.7029 21.3098 36.6841 20.1984 35.6653C19.6426 35.2021 20.0131 34.9243 20.291 34.6464C23.8106 31.1268 27.3301 27.6073 30.8497 24.0877C32.1464 22.791 33.5357 21.4943 34.8324 20.105C35.2029 19.7345 35.4807 19.7345 35.8512 20.105C36.7774 21.1238 37.7962 22.1427 38.8151 23.0689C39.1856 23.3467 39.1856 23.6246 38.8151 23.9024C33.9062 28.8113 28.9973 33.7202 24.0884 38.6291C23.9032 38.8143 23.8106 38.907 23.7179 38.9996Z" fill="#FEFEFC"/>
<path d="M33.2578 17.7895C33.0725 17.9747 32.9799 18.0673 32.8873 18.16C27.9784 23.0688 23.0695 27.9777 18.2532 32.8866C17.9754 33.1645 17.6975 33.2571 17.4197 32.8866C16.4008 31.8678 15.382 30.849 14.3632 29.8301C14.0853 29.5523 14.0853 29.367 14.3632 29.0892C19.2721 24.1803 24.181 19.2714 29.0898 14.3625C29.3677 14.0847 29.5529 13.992 29.8308 14.3625C30.8496 15.474 31.9611 16.4928 32.9799 17.5116C33.0725 17.5116 33.1651 17.6042 33.2578 17.7895Z" fill="#FEFEFD"/>
<path d="M17.7898 21.68C17.6046 21.4947 17.512 21.4021 17.3267 21.3095C16.3079 20.2907 15.2891 19.2718 14.2702 18.253C13.8998 17.8825 13.9924 17.6973 14.2702 17.3268C17.2341 14.4556 20.1053 11.4917 23.0692 8.52786C23.4397 8.15738 23.7175 8.15738 24.088 8.52786C25.0142 9.54669 26.033 10.5655 27.0519 11.4917C27.4223 11.7696 27.4223 12.0474 27.0519 12.3253C24.088 15.2892 21.1242 18.253 18.1603 21.2169C18.0677 21.4021 17.9751 21.4947 17.7898 21.68Z" fill="#FEFEFD"/>
<path d="M11.9549 19.8271C12.1402 19.9198 12.2328 20.0124 12.3254 20.105C13.3442 21.1238 14.3631 22.1427 15.3819 23.1615C15.7524 23.532 15.6597 23.7172 15.3819 23.9951C14.3631 25.0139 13.3442 26.0327 12.3254 27.0515C12.0475 27.422 11.7697 27.422 11.4918 27.0515C10.473 26.0327 9.45417 25.0139 8.43534 23.9951C8.15748 23.7172 7.97224 23.532 8.34272 23.1615C9.45417 22.1427 10.473 21.0312 11.5844 19.9198C11.7697 19.9198 11.8623 19.9198 11.9549 19.8271Z" fill="#FEFEFD"/>
</g>
<circle cx="61.5" cy="54.5" r="37.5" fill="#050505"/>
<g clip-path="url(#clip1)">
<path d="M82.8704 48.2615C82.8704 57.0648 75.7807 64.2008 67.0346 64.2008C64.8504 64.2008 63.0757 62.4145 63.0757 60.216C63.0757 58.0175 64.8504 56.2312 67.0346 56.2312C71.4031 56.2312 74.9525 52.6586 74.9525 48.2615C74.9525 43.8645 71.4031 40.2919 67.0346 40.2919C64.8504 40.2919 63.0757 38.5056 63.0757 36.3071C63.0757 34.1452 64.7958 32.3772 66.9345 32.3223C66.9709 32.3223 66.9982 32.3223 67.0346 32.3223C67.071 32.3223 67.1074 32.3223 67.1347 32.3223C75.8353 32.3772 82.8704 39.4949 82.8704 48.2615Z" fill="url(#paint0_linear)"/>
<path d="M70.9936 36.3071C70.9936 38.5056 69.2189 40.2919 67.0346 40.2919C64.8504 40.2919 63.0757 38.5056 63.0757 36.3071C63.0757 34.1452 64.7958 32.3772 66.9345 32.3223C66.9709 32.3223 66.9982 32.3223 67.0346 32.3223C67.071 32.3223 67.1074 32.3223 67.1347 32.3223C69.2735 32.3772 70.9936 34.1452 70.9936 36.3071Z" fill="url(#paint1_linear)"/>
<path d="M67.0346 64.2011C69.2211 64.2011 70.9936 62.417 70.9936 60.2163C70.9936 58.0155 69.2211 56.2314 67.0346 56.2314C64.8482 56.2314 63.0757 58.0155 63.0757 60.2163C63.0757 62.417 64.8482 64.2011 67.0346 64.2011Z" fill="url(#paint2_linear)"/>
<path d="M67.035 56.2314H51.1992V64.2011H67.035V56.2314Z" fill="url(#paint3_linear)"/>
<path d="M55.1582 77.4842C52.983 77.4842 51.1992 75.6887 51.1992 73.4993V48.2622C51.1992 46.0728 52.983 44.2773 55.1582 44.2773C57.3333 44.2773 59.1171 46.0728 59.1171 48.2622V73.4993C59.1171 75.6887 57.3333 77.4842 55.1582 77.4842Z" fill="url(#paint4_linear)"/>
<path d="M67.0346 44.2773C64.8595 44.2773 63.0757 46.0728 63.0757 48.2622C63.0757 50.4515 64.8595 52.247 67.0346 52.247C69.2098 52.247 70.9936 50.4515 70.9936 48.2622C70.9936 46.0728 69.2098 44.2773 67.0346 44.2773Z" fill="url(#paint5_linear)"/>
<path d="M67.0169 52.247H48.56C46.3758 52.247 44.6011 50.4607 44.6011 48.2622C44.6011 46.0636 46.3758 44.2773 48.56 44.2773H67.0169C69.2011 44.2773 70.9758 46.0636 70.9758 48.2622C70.9758 50.4607 69.2011 52.247 67.0169 52.247Z" fill="url(#paint6_linear)"/>
<path d="M67.0346 32.3223C64.8595 32.3223 63.0757 34.1177 63.0757 36.3071C63.0757 38.4964 64.8595 40.2919 67.0346 40.2919C69.2098 40.2919 70.9936 38.4964 70.9936 36.3071C70.9936 34.1177 69.2098 32.3223 67.0346 32.3223Z" fill="url(#paint7_linear)"/>
<path d="M66.3523 40.2919H43.2812C41.097 40.2919 39.3223 38.5056 39.3223 36.3071C39.3223 34.1086 41.097 32.3223 43.2812 32.3223H66.3523C68.5365 32.3223 70.3112 34.1086 70.3112 36.3071C70.3112 38.5056 68.5365 40.2919 66.3523 40.2919Z" fill="url(#paint8_linear)"/>
</g>
<defs>
<linearGradient id="paint0_linear" x1="96.7026" y1="16.3933" x2="21.6927" y2="104.035" gradientUnits="userSpaceOnUse">
<stop stop-color="#00A8A1"/>
<stop offset="1" stop-color="#41FF7A"/>
</linearGradient>
<linearGradient id="paint1_linear" x1="89.2478" y1="10.0129" x2="14.2379" y2="97.6547" gradientUnits="userSpaceOnUse">
<stop stop-color="#00A8A1"/>
<stop offset="1" stop-color="#41FF7A"/>
</linearGradient>
<linearGradient id="paint2_linear" x1="100.97" y1="20.0459" x2="25.9602" y2="107.688" gradientUnits="userSpaceOnUse">
<stop stop-color="#00A8A1"/>
<stop offset="1" stop-color="#41FF7A"/>
</linearGradient>
<linearGradient id="paint3_linear" x1="96.3751" y1="16.1129" x2="21.3652" y2="103.755" gradientUnits="userSpaceOnUse">
<stop stop-color="#00A8A1"/>
<stop offset="1" stop-color="#41FF7A"/>
</linearGradient>
<linearGradient id="paint4_linear" x1="94.4031" y1="14.4255" x2="19.3932" y2="102.067" gradientUnits="userSpaceOnUse">
<stop stop-color="#00A8A1"/>
<stop offset="1" stop-color="#41FF7A"/>
</linearGradient>
<linearGradient id="paint5_linear" x1="95.1089" y1="15.0299" x2="20.0991" y2="102.672" gradientUnits="userSpaceOnUse">
<stop stop-color="#00A8A1"/>
<stop offset="1" stop-color="#41FF7A"/>
</linearGradient>
<linearGradient id="paint6_linear" x1="96.7342" y1="2.16224" x2="1.17392" y2="113.815" gradientUnits="userSpaceOnUse">
<stop stop-color="#00A8A1"/>
<stop offset="1" stop-color="#41FF7A"/>
</linearGradient>
<linearGradient id="paint7_linear" x1="89.2477" y1="10.0129" x2="14.2379" y2="97.6546" gradientUnits="userSpaceOnUse">
<stop stop-color="#00A8A1"/>
<stop offset="1" stop-color="#41FF7A"/>
</linearGradient>
<linearGradient id="paint8_linear" x1="91.8254" y1="-7.50098" x2="-19.8933" y2="123.031" gradientUnits="userSpaceOnUse">
<stop stop-color="#00A8A1"/>
<stop offset="0.9999" stop-color="#40FE7A"/>
<stop offset="1" stop-color="#41FF7A"/>
</linearGradient>
<clipPath id="clip0">
<rect width="30.75" height="30.75" fill="white" transform="translate(8.25 8.25)"/>
</clipPath>
<clipPath id="clip1">
<rect width="43.5484" height="45.1613" fill="white" transform="translate(39.3223 32.3223)"/>
</clipPath>
</defs>
</svg>
