<?xml version="1.0" encoding="utf-8"?>
<!-- Generator: Adobe Illustrator 22.0.0, SVG Export Plug-In . SVG Version: 6.00 Build 0)  -->
<svg version="1.1" id="Layer_1" xmlns="http://www.w3.org/2000/svg" xmlns:xlink="http://www.w3.org/1999/xlink" x="0px" y="0px"
	 viewBox="0 0 255.5 433.9" style="enable-background:new 0 0 255.5 433.9;" xml:space="preserve">
<style type="text/css">
	.st0{fill:#27DC8A;}
</style>
<path class="st0" d="M91.8,100c-1,0.6-2,1.3-3,2c-0.3,0.1-0.5,0.3-0.8,0.4c-0.2,0.1-0.4,0.2-0.7,0.4l-0.2,0.1
	c-0.2,0.1-0.3,0.2-0.5,0.3c-0.4,0.2-0.7,0.4-1.1,0.6c-0.3,0.2-0.7,0.4-1,0.6c-39.5,24.3-67.2,62.6-78,107.6
	C-4.3,257.1,2.9,303.8,27,343.5c24.2,39.8,62.5,67.8,107.8,78.9c41.3,10.1,83.8,4.9,121.2-14.4v-11.3c-36.3,20.2-78.2,25.9-118.8,16
	c-42.7-10.4-78.8-36.8-101.6-74.4C12.9,300.9,6,256.9,16.2,214.4c10.2-42.5,36.4-78.6,73.6-101.5l0.1-0.1c0.2-0.2,0.5-0.3,0.8-0.5
	c0.3-0.2,0.6-0.3,0.8-0.5l0.6-0.3c0.2-0.1,0.3-0.2,0.5-0.3c0.3-0.2,0.6-0.3,0.9-0.5l0.4-0.2l0.4-0.3c0.9-0.7,1.8-1.3,2.6-1.8
	l159-96.6V0.2L91.8,100z M133,173.9l-0.4,0.2l-0.3,0.2c-0.9,0.6-1.7,1.2-2.5,1.7l-0.3,0.2C109,188.7,94.6,208.4,89,231.6
	c-5.7,23.3-1.9,47.4,10.5,67.9c25.7,42.3,81,55.8,123.3,30.1l33.2-20.2v-11.7L217.6,321c-37.6,22.8-86.7,10.9-109.6-26.7
	c-22.8-37.5-10.9-86.6,26.6-109.5l0.3-0.2c0.9-0.6,1.9-1.2,2.9-2c1.2-0.6,2.2-1.2,3.2-1.8L256,111V99.3l-120.2,73.1
	C134.9,172.9,134,173.4,133,173.9z M151.5,212.4c-22.3,13.6-29.4,42.8-15.9,65.1c6.5,10.8,16.9,18.4,29.3,21.4c12.3,3,25,1,35.8-5.5
	l55.2-33.6v-11.7l-60.2,36.6c0,0-0.1,0-0.1,0.1l-0.2,0.1c-8.5,5.1-18.5,6.6-28.2,4.3c-9.7-2.4-17.9-8.4-23.1-16.9
	c-10.7-17.6-5.1-40.6,12.5-51.3l99.3-60.3v-11.7l-104.3,63.4L151.5,212.4z"/>
</svg>
