<svg width="36" height="37" viewBox="0 0 36 37" fill="none" xmlns="http://www.w3.org/2000/svg">
<path d="M35.1763 21.9593C35.0366 21.399 34.862 20.8736 34.6174 20.3483C34.5825 20.2432 34.5126 20.1031 34.4777 19.9981C34.3729 19.7879 34.2681 19.5778 34.1633 19.3676C33.814 18.7372 33.4298 18.1769 32.9756 17.6165C32.801 17.4064 32.6263 17.2313 32.4517 17.0211C28.6441 12.6433 24.6269 8.40549 20.4351 4.37786C19.6666 3.60736 18.8632 2.87188 18.0947 2.1364C17.1166 1.43594 16.0337 0.910595 14.881 0.525343C14.0426 0.280183 13.1693 0.105071 12.2611 0.035025C12.1912 0.035025 12.1213 0.035025 12.0166 0.035025C11.8768 0.035025 11.7022 0.0350229 11.5624 0H11.4577C10.7939 0 10.1652 0.0700457 9.57133 0.175114C9.11721 0.24516 8.6631 0.350232 8.24392 0.490323C8.10419 0.525346 7.99939 0.560365 7.85966 0.595388C7.47541 0.735479 7.12611 0.875575 6.74186 1.01567C6.00829 1.3659 5.30965 1.78617 4.64595 2.24147C3.66786 2.97695 2.79455 3.85252 2.09591 4.86818C1.99111 5.00827 1.92125 5.14836 1.81646 5.25343C0.663709 7.0396 0 9.17599 0 11.4525C0 12.328 0.104813 13.1686 0.279472 14.0091C0.349335 14.3594 0.454126 14.6746 0.558922 15.0248C0.803445 15.7953 1.11783 16.5308 1.53701 17.2312C1.57194 17.2663 1.57194 17.3013 1.60688 17.3363C1.88633 17.7916 2.20071 18.2469 2.5151 18.6672C3.24866 19.3676 4.01717 20.0681 4.75074 20.7686C8.20899 24.1308 11.5624 27.633 14.7762 31.2404C15.3351 31.8708 15.894 32.5012 16.4529 33.1667C18.4789 35.0229 21.1687 36.1786 24.1728 36.1786C24.592 36.1786 24.9763 36.1436 25.3954 36.1086C25.5352 36.1086 25.6749 36.0736 25.7797 36.0736C26.2687 36.0035 26.7927 35.8984 27.2818 35.7584C27.9105 35.5832 28.5044 35.3381 29.0982 35.0579C29.9017 34.6726 30.6702 34.1823 31.3688 33.622C31.7181 33.3418 32.0325 33.0266 32.3469 32.7114C32.6263 32.3962 32.9058 32.0809 33.1852 31.7657C33.8839 30.8902 34.4428 29.8745 34.827 28.8238C35.3161 27.563 35.5606 26.1971 35.5606 24.7962C35.5606 23.8506 35.4209 22.8699 35.1763 21.9593Z" fill="#805AD5"/>
</svg>
