<svg width="32" height="32" viewBox="0 0 32 32" fill="none" xmlns="http://www.w3.org/2000/svg">
<path d="M26.2856 12V16M26.2856 16V20M26.2856 16H30.2856M26.2856 16H22.2856M6.28564 26.6667C6.28564 24.5449 7.1285 22.5101 8.62879 21.0098C10.1291 19.5095 12.1639 18.6667 14.2856 18.6667C16.4074 18.6667 18.4422 19.5095 19.9425 21.0098C21.4428 22.5101 22.2856 24.5449 22.2856 26.6667V28H6.28564V26.6667Z" stroke="#445B74" stroke-width="2" stroke-linecap="round" stroke-linejoin="round"/>
<path d="M26.2856 12V16M26.2856 16V20M26.2856 16H30.2856M26.2856 16H22.2856" stroke="#445B74" stroke-width="2" stroke-linecap="round" stroke-linejoin="round"/>
<path d="M18.0533 13.1046C19.0535 12.1044 19.6154 10.7478 19.6154 9.33333C19.6154 7.91884 19.0535 6.56229 18.0533 5.5621C17.0531 4.5619 15.6966 4 14.2821 4C12.8676 4 11.511 4.5619 10.5108 5.5621C9.51063 6.56229 8.94873 7.91884 8.94873 9.33333C8.94873 10.7478 9.51063 12.1044 10.5108 13.1046C11.511 14.1048 12.8676 14.6667 14.2821 14.6667C15.6966 14.6667 17.0531 14.1048 18.0533 13.1046Z" stroke="#1AC486" stroke-width="2" stroke-linecap="round" stroke-linejoin="round"/>
</svg>
