<svg width="299" height="605" viewBox="0 0 299 605" fill="none" xmlns="http://www.w3.org/2000/svg">
<g clip-path="url(#clip0)">
<path d="M135.758 138.536C136.072 138.355 136.308 138.219 136.622 138.038C136.936 137.856 137.25 137.675 137.486 137.539C137.643 137.448 137.878 137.312 138.035 137.222C138.192 137.131 138.428 136.995 138.585 136.904C138.899 136.723 139.258 136.62 139.572 136.439C140.593 135.85 141.49 135.227 142.511 134.638L341.555 19.7197C360.399 8.83985 384.55 15.3111 395.43 34.1555C406.31 52.9999 399.838 77.1508 380.994 88.0306L181.95 202.949C180.929 203.538 179.942 204.003 178.876 204.514C177.979 205.137 177.003 205.805 176.061 206.349C138.294 228.154 125.385 276.332 147.19 314.099C168.995 351.866 217.173 364.776 254.94 342.971L323.251 303.531L303.531 269.376L235.377 308.724L235.299 308.77L235.22 308.815C216.454 319.65 192.18 313.145 181.345 294.379C170.511 275.613 177.015 251.339 195.781 240.504L195.859 240.459L195.938 240.413L298.247 181.345L355.173 148.479C374.018 137.599 398.168 144.07 409.048 162.915C419.928 181.759 413.457 205.91 394.612 216.79L371.842 229.936L391.562 264.092L431.001 332.403L477.014 412.099C487.848 430.865 481.344 455.14 462.578 465.974C443.812 476.809 419.537 470.304 408.703 451.538L362.69 371.842L294.379 411.281C218.923 454.846 122.443 428.994 78.8787 353.538C35.4954 278.396 60.9667 182.345 135.758 138.536Z" fill="#27DC8A"/>
</g>
<defs>
<clipPath id="clip0">
<rect width="433.833" height="446.979" fill="white" transform="matrix(-0.866025 0.5 0.5 0.866025 375.71 0)"/>
</clipPath>
</defs>
</svg>
