<?xml version="1.0" encoding="utf-8"?>
<!-- Generator: Adobe Illustrator 22.0.0, SVG Export Plug-In . SVG Version: 6.00 Build 0)  -->
<svg version="1.1" id="Layer_1" xmlns="http://www.w3.org/2000/svg" xmlns:xlink="http://www.w3.org/1999/xlink" x="0px" y="0px"
	 viewBox="0 0 234.5 334.7" style="enable-background:new 0 0 234.5 334.7;" xml:space="preserve">
<style type="text/css">
	.st0{fill:#27DC8A;}
</style>
<g>
	<path class="st0" d="M152.6,197.6l0.1-0.1h0.1l81.8-47.2v100.4l-38.3,22.2h-0.1h-0.1c-20.7,12-47.4,4.8-59.4-15.9
		S131.9,209.6,152.6,197.6z"/>
	<path class="st0" d="M99,278.8c24,41.6,77.1,55.8,118.8,31.8l16.7-9.6v33H31c-2.6-3.7-5-7.6-7.3-11.6c0,0,0-0.1-0.1-0.2
		C-24.1,239.4,3.9,133.5,86.2,85.1c0-0.1,0.1-0.1,0.1-0.1c0.4-0.2,0.7-0.3,1-0.5c0.4-0.2,0.7-0.4,1-0.5c0.2-0.2,0.4-0.3,0.6-0.4
		c0.2-0.1,0.4-0.2,0.6-0.3c0.4-0.2,0.8-0.3,1.1-0.5c1.1-0.7,2.1-1.4,3.2-2c0.1,0,0.1,0,0.1,0L234.6-0.4v100.5l-97.3,56.2
		c-1.1,0.6-2.2,1.1-3.4,1.7c-1,0.7-2.1,1.4-3.1,2C89.2,184,75,237.1,99,278.8z"/>
</g>
</svg>
