<?xml version="1.0" encoding="utf-8"?>
<!-- Generator: Adobe Illustrator 22.0.1, SVG Export Plug-In . SVG Version: 6.00 Build 0)  -->
<svg version="1.1" id="Layer_1" xmlns="http://www.w3.org/2000/svg" xmlns:xlink="http://www.w3.org/1999/xlink" x="0px" y="0px"
	 viewBox="0 0 204 782" style="enable-background:new 0 0 204 782;" xml:space="preserve">
<style type="text/css">
	.st0{fill:none;stroke:#2D3748;stroke-width:2;}
	.st1{fill:#28DE89;}
	.st2{fill:none;stroke:#000000;stroke-miterlimit:10;}
</style>
<path class="st0" d="M205,781.5C97.6,702.2,24.1,579.5,10.4,439.3c-0.7-6.6-1.2-13.2-1.5-19.9C8.3,410,8,400.7,8,391.3
	C8,231.3,85.5,89.3,205,1"/>
<path class="st0" d="M205,620.2c-49.5-64.2-79-144.6-79-232s29.5-167.8,79-232"/>
<path class="st1" d="M10,439.3c5.5,0,10-4.5,10-10s-4.5-10-10-10c-5.5,0-10,4.5-10,10S4.5,439.3,10,439.3z"/>
<line class="st2" x1="205" y1="781.5" x2="205" y2="620.2"/>
<line class="st2" x1="205" y1="156.3" x2="205" y2="1"/>
</svg>
