<?xml version="1.0" encoding="utf-8"?>
<!-- Generator: Adobe Illustrator 22.0.1, SVG Export Plug-In . SVG Version: 6.00 Build 0)  -->
<svg version="1.1" id="Layer_1" xmlns="http://www.w3.org/2000/svg" xmlns:xlink="http://www.w3.org/1999/xlink" x="0px" y="0px"
	 viewBox="0 0 162 581" style="enable-background:new 0 0 162 581;" xml:space="preserve">
<style type="text/css">
	.st0{fill:none;stroke:#2D3748;stroke-width:2;}
	.st1{fill:#28DE89;}
	.st2{fill:#01E5F5;}
</style>
<path class="st0" d="M162,1.5C65.4,61.3,1,168.4,1,290.5c0,76,24.9,146.1,67.1,202.7c2.8,3.7,5.6,7.4,8.6,11
	c24,29.6,52.9,55.1,85.4,75.2"/>
<path class="st0" d="M162,79.1c-38,32.1-67.2,74.2-83.5,122.4c-1.7,5-3.3,10.1-4.7,15.3C67.4,240,64,264.6,64,290
	c0,84.6,38.1,160.3,98,210.9"/>
<path class="st1" d="M72,492c-3.9,0-7,3.1-7,7s3.1,7,7,7s7-3.1,7-7S75.9,492,72,492z"/>
<circle class="st2" cx="76" cy="209" r="8"/>
</svg>
