<svg width="561" height="559" viewBox="0 0 561 559" fill="none" xmlns="http://www.w3.org/2000/svg">
<path fill-rule="evenodd" clip-rule="evenodd" d="M275.34 2C139.583 2 29.5251 112.388 29.5251 248.566C29.5251 384.743 139.583 495.132 275.34 495.132C411.097 495.132 521.155 384.743 521.155 248.566C521.155 112.388 411.097 2 275.34 2ZM27.5251 248.566C27.5251 111.29 138.473 0 275.34 0C412.207 0 523.155 111.29 523.155 248.566C523.155 385.842 412.207 497.132 275.34 497.132C138.473 497.132 27.5251 385.842 27.5251 248.566Z" fill="url(#paint0_linear)" style="mix-blend-mode:screen"/>
<path fill-rule="evenodd" clip-rule="evenodd" d="M275.34 1.5C139.305 1.5 29.0251 112.114 29.0251 248.566C29.0251 385.018 139.305 495.632 275.34 495.632C411.374 495.632 521.655 385.018 521.655 248.566C521.655 112.114 411.374 1.5 275.34 1.5ZM28.0251 248.566C28.0251 111.564 138.75 0.5 275.34 0.5C411.93 0.5 522.655 111.564 522.655 248.566C522.655 385.567 411.93 496.632 275.34 496.632C138.75 496.632 28.0251 385.567 28.0251 248.566Z" fill="url(#paint1_linear)" fill-opacity="0.4" style="mix-blend-mode:screen"/>
<path d="M411.761 248.958C411.761 323.047 349.956 383.107 273.714 383.107C251.163 383.107 229.896 377.85 211.098 368.519C187.667 356.921 168.125 338.982 154.803 317.068C142.666 297.092 135.701 273.797 135.701 248.958C135.701 247.578 135.734 246.231 135.768 244.851C138 172.668 198.926 114.81 273.748 114.81C292.039 114.81 309.485 118.259 325.478 124.535C331.191 126.769 336.736 129.397 342.011 132.322C348.469 135.903 354.622 139.977 360.37 144.511C391.712 169.12 411.761 206.772 411.761 248.958Z" fill="url(#paint2_linear)"/>
<path d="M366.691 248.959C366.691 298.833 325.07 339.278 273.747 339.278C273.003 339.278 272.293 339.278 271.583 339.246C221.273 338.129 180.836 298.111 180.836 248.959C180.836 199.807 221.273 159.789 271.583 158.672C272.293 158.639 273.037 158.639 273.747 158.639C325.07 158.672 366.691 199.084 366.691 248.959Z" fill="white"/>
<path d="M366.691 248.959C366.691 298.833 325.07 339.278 273.747 339.278C273.003 339.278 272.293 339.278 271.583 339.246C221.273 338.129 180.836 298.111 180.836 248.959C180.836 199.807 221.273 159.789 271.583 158.672C272.293 158.639 273.037 158.639 273.747 158.639C325.07 158.672 366.691 199.084 366.691 248.959Z" fill="white"/>
<path fill-rule="evenodd" clip-rule="evenodd" d="M273.747 96.1221C186.863 96.1221 116.454 164.563 116.454 248.959C116.454 333.354 186.863 401.795 273.747 401.795C360.63 401.795 431.039 333.354 431.039 248.959C431.039 164.563 360.63 96.1221 273.747 96.1221ZM115.454 248.959C115.454 163.984 186.338 95.1221 273.747 95.1221C361.155 95.1221 432.039 163.984 432.039 248.959C432.039 333.933 361.155 402.795 273.747 402.795C186.338 402.795 115.454 333.933 115.454 248.959Z" fill="url(#paint3_linear)"/>
<path d="M273.747 383.174C350.026 383.174 411.862 323.084 411.862 248.96C411.862 174.835 350.026 114.745 273.747 114.745C197.468 114.745 135.632 174.835 135.632 248.96C135.632 323.084 197.468 383.174 273.747 383.174Z" fill="url(#paint4_linear)"/>
<path fill-rule="evenodd" clip-rule="evenodd" d="M273.747 115.745C197.993 115.745 136.632 175.414 136.632 248.96C136.632 322.505 197.993 382.174 273.747 382.174C349.501 382.174 410.862 322.505 410.862 248.96C410.862 175.414 349.501 115.745 273.747 115.745ZM134.632 248.96C134.632 174.256 196.943 113.745 273.747 113.745C350.551 113.745 412.862 174.256 412.862 248.96C412.862 323.663 350.551 384.174 273.747 384.174C196.943 384.174 134.632 323.663 134.632 248.96Z" fill="white"/>
<path opacity="0.57" d="M273.745 339.246C323.863 339.246 364.491 298.823 364.491 248.959C364.491 199.095 323.863 158.672 273.745 158.672C223.627 158.672 182.998 199.095 182.998 248.959C182.998 298.823 223.627 339.246 273.745 339.246Z" fill="url(#paint5_linear)"/>
<path opacity="0.57" d="M273.761 363.394C338.799 363.394 391.522 312.16 391.522 248.959C391.522 185.757 338.799 134.523 273.761 134.523C208.723 134.523 156 185.757 156 248.959C156 312.16 208.723 363.394 273.761 363.394Z" fill="url(#paint6_linear)"/>
<path opacity="0.7" fill-rule="evenodd" clip-rule="evenodd" d="M60.9349 242.551C58.0833 244.715 56.7131 246.862 56.7131 248.959C56.7131 251.057 58.0833 253.204 60.9349 255.368C63.7755 257.523 67.9964 259.624 73.4804 261.637C84.4427 265.661 100.334 269.294 120.004 272.348C159.338 278.455 213.695 282.235 273.748 282.235C333.801 282.235 388.158 278.455 427.492 272.348C447.163 269.294 463.054 265.661 474.016 261.637C479.5 259.624 483.721 257.523 486.562 255.368C489.413 253.204 490.783 251.057 490.783 248.959C490.783 246.862 489.413 244.715 486.562 242.551C483.721 240.396 479.5 238.295 474.016 236.282C463.054 232.258 447.163 228.625 427.492 225.571C388.158 219.464 333.801 215.684 273.748 215.684C213.695 215.684 159.338 219.464 120.004 225.571C100.334 228.625 84.4427 232.258 73.4804 236.282C67.9964 238.295 63.7755 240.396 60.9349 242.551ZM119.851 224.583C159.249 218.465 213.66 214.684 273.748 214.684C333.836 214.684 388.247 218.465 427.646 224.583C447.341 227.641 463.307 231.286 474.361 235.343C479.885 237.371 484.211 239.512 487.166 241.754C490.11 243.988 491.783 246.394 491.783 248.959C491.783 251.525 490.11 253.931 487.166 256.165C484.211 258.407 479.885 260.548 474.361 262.576C463.307 266.633 447.341 270.278 427.646 273.336C388.247 279.454 333.836 283.235 273.748 283.235C213.66 283.235 159.249 279.454 119.851 273.336C100.156 270.278 84.1893 266.633 73.1358 262.576C67.6119 260.548 63.2853 258.407 60.3304 256.165C57.3865 253.931 55.7131 251.525 55.7131 248.959C55.7131 246.394 57.3865 243.988 60.3304 241.754C63.2853 239.512 67.6119 237.371 73.1358 235.343C84.1893 231.286 100.156 227.641 119.851 224.583Z" fill="url(#paint7_linear)"/>
<g opacity="0.7">
<path fill-rule="evenodd" clip-rule="evenodd" d="M148.765 182.179C167.056 212.546 197.283 249.716 235.117 286.481C272.95 323.246 311.201 352.62 342.45 370.394C358.078 379.283 371.929 385.256 383.086 387.812C394.275 390.376 402.588 389.468 407.342 384.848C412.095 380.229 413.029 372.151 410.391 361.278C407.761 350.436 401.614 336.976 392.467 321.789C374.176 291.423 343.949 254.252 306.115 217.487C268.282 180.722 230.032 151.349 198.782 133.574C183.154 124.685 169.303 118.712 158.146 116.156C146.957 113.593 138.644 114.5 133.891 119.12C129.137 123.739 128.203 131.817 130.841 142.69C133.471 153.532 139.618 166.992 148.765 182.179ZM129.854 142.916C127.198 131.969 128.025 123.426 133.173 118.423C138.321 113.42 147.114 112.616 158.379 115.197C169.675 117.785 183.626 123.812 199.295 132.724C230.638 150.552 268.956 179.984 306.833 216.79C344.709 253.597 374.996 290.833 393.342 321.291C402.513 336.517 408.715 350.074 411.379 361.052C414.034 371.999 413.207 380.543 408.059 385.545C402.911 390.548 394.118 391.352 382.853 388.771C371.557 386.183 357.606 380.157 341.938 371.245C310.594 353.417 272.276 323.985 234.399 287.178C196.523 250.371 166.236 213.135 147.89 182.677C138.719 167.451 132.517 153.894 129.854 142.916Z" fill="url(#paint8_linear)" style="mix-blend-mode:screen"/>
</g>
<path opacity="0.7" fill-rule="evenodd" clip-rule="evenodd" d="M137.736 361.029C135.124 371.876 136.07 379.941 140.825 384.561C145.579 389.182 153.879 390.102 165.042 387.563C176.173 385.032 189.988 379.094 205.57 370.25C236.728 352.564 274.853 323.312 312.548 286.682C350.242 250.052 380.344 213.003 398.544 182.725C407.646 167.583 413.756 154.158 416.361 143.341C418.973 132.494 418.026 124.429 413.272 119.808C408.517 115.188 400.218 114.268 389.055 116.806C377.924 119.338 364.109 125.275 348.527 134.12C317.368 151.806 279.243 181.058 241.549 217.688C203.854 254.318 173.753 291.366 155.553 321.645C146.451 336.787 140.341 350.212 137.736 361.029ZM154.677 321.148C172.932 290.777 203.094 253.663 240.832 216.991C278.569 180.319 316.762 151.009 348.015 133.269C363.638 124.401 377.552 118.41 388.824 115.847C400.064 113.291 408.841 114.109 413.989 119.111C419.136 124.113 419.979 132.643 417.348 143.566C414.711 154.519 408.545 168.04 399.42 183.222C381.165 213.592 351.003 250.707 313.265 287.379C275.527 324.051 237.334 353.361 206.082 371.101C190.459 379.968 176.544 385.96 165.273 388.523C154.033 391.079 145.255 390.26 140.108 385.258C134.96 380.256 134.118 371.727 136.748 360.804C139.386 349.851 145.551 336.329 154.677 321.148Z" fill="url(#paint9_linear)"/>
<g clip-path="url(#clip0)">
<path d="M50.077 420.225C77.7393 420.225 100.154 397.805 100.154 370.148C100.154 342.492 77.7393 320.071 50.077 320.071C22.4147 320.071 0 342.492 0 370.148C0 397.805 22.4147 420.225 50.077 420.225Z" fill="url(#paint10_linear)"/>
<path d="M54.2754 370.296C54.5003 370.37 54.6502 370.443 54.8751 370.443C55.1749 370.443 55.5498 370.296 55.7747 370.148L70.8428 357.611C71.1426 357.316 71.3675 356.947 71.3675 356.504C71.3675 356.062 71.2176 355.693 70.8428 355.398L55.7747 342.86C55.3249 342.492 54.7252 342.418 54.2754 342.639C53.7506 342.86 53.4507 343.377 53.4507 343.893V347.802H27.5876C26.763 347.802 26.1633 348.465 26.1633 349.203V363.584C26.1633 364.322 26.838 364.986 27.5876 364.986H53.4507V368.895C53.4507 369.558 53.7506 370.001 54.2754 370.296ZM29.012 362.257V350.678H54.8751C55.6997 350.678 56.2994 350.014 56.2994 349.277V346.99L67.7692 356.504L56.2994 365.944V363.658C56.2994 362.847 55.6247 362.257 54.8751 362.257H29.012Z" fill="white"/>
<path d="M26.688 381.506L41.7561 394.044C42.056 394.265 42.3558 394.339 42.6557 394.339C42.8806 394.339 43.0305 394.265 43.2554 394.191C43.7802 393.97 44.08 393.454 44.08 392.937V389.029H69.9432C70.7678 389.029 71.3675 388.365 71.3675 387.627V373.172C71.3675 372.361 70.6928 371.771 69.9432 371.771H44.08V367.862C44.08 367.346 43.7802 366.83 43.2554 366.608C42.7307 366.387 42.1309 366.461 41.7561 366.83L26.688 379.367C26.3882 379.662 26.1633 380.031 26.1633 380.474C26.1633 380.842 26.3882 381.211 26.688 381.506ZM41.2314 370.886V373.172C41.2314 373.983 41.906 374.573 42.6557 374.573H68.5188V386.152H42.6557C41.8311 386.152 41.2314 386.816 41.2314 387.554V389.84L29.8366 380.4L41.2314 370.886Z" fill="white"/>
</g>
<g clip-path="url(#clip1)">
<path d="M91.3685 106.585C119.012 106.585 141.446 84.2044 141.446 56.5077C141.446 28.811 119.012 6.43066 91.3685 6.43066C63.7246 6.43066 41.2915 28.811 41.2915 56.5077C41.2915 84.2044 63.7246 106.585 91.3685 106.585Z" fill="url(#paint11_linear)"/>
<path d="M122.546 70.5705C122.546 70.2275 122.811 61.5669 117.247 56.6792C116.893 56.3362 116.275 56.3362 115.834 56.5935C115.745 56.6792 109.298 61.3954 103.292 56.5935C102.851 56.2505 102.321 56.2505 101.879 56.5935C101.791 56.6792 100.024 58.2227 98.4346 61.1381C98.0814 60.9666 97.6398 61.0524 97.3748 61.3096C97.1099 61.4811 90.8392 66.0258 84.8335 61.3096C84.5685 61.0524 84.1269 61.0524 83.7736 61.1381C82.9788 59.5089 81.9189 57.9655 80.4175 56.5935C80.0642 56.2505 79.446 56.2505 79.0044 56.5077C78.9161 56.5935 72.4688 61.3096 66.4631 56.5077C66.0215 56.1647 65.4916 56.1647 65.05 56.5077C64.785 56.6792 59.4858 61.3096 59.3092 70.399C59.3092 70.6562 59.3975 70.9992 59.6625 71.1707C59.8391 71.3422 60.1041 71.5137 60.4574 71.5137H78.0329C77.8563 72.6284 77.6796 73.8289 77.6796 75.2009C77.6796 75.4581 77.7679 75.8011 78.0329 75.9726C78.2095 76.1441 78.5628 76.3156 78.8278 76.3156H103.027C103.645 76.3156 104.087 75.8869 104.087 75.2866C104.087 75.1151 104.175 73.6574 103.822 71.5994H121.486C122.104 71.5994 122.546 71.1707 122.546 70.5705ZM78.5628 69.5415H61.6055C61.9588 63.7963 64.6967 60.2807 65.9331 58.9087C71.6739 62.7674 77.503 60.1092 79.6226 58.9087C80.7708 60.1092 81.5657 61.4811 82.0956 62.8531C81.0357 64.0536 79.5343 66.283 78.5628 69.5415ZM79.8876 74.2576C80.2409 68.5125 82.9788 64.9968 84.2152 63.6248C89.956 67.4835 95.7851 64.8253 97.9047 63.6248C101.173 67.0548 101.791 72.1139 101.879 74.3434L79.8876 74.2576ZM103.381 69.5415C102.851 67.3978 101.879 64.9111 100.113 62.8531C100.996 60.9666 102.056 59.5947 102.674 58.9087C108.415 62.7674 114.244 60.1092 116.363 58.9087C119.631 62.3386 120.25 67.3978 120.338 69.6272L103.381 69.5415Z" fill="white"/>
<path d="M109.386 35.6707C106.648 35.6707 103.999 36.6997 102.056 38.5862C100.466 40.1296 99.406 42.1876 99.141 44.3313C97.2863 41.9303 94.2835 40.3011 90.9273 40.3011C88.1894 40.3011 85.5399 41.3301 83.5968 43.2166C83.3319 43.4738 83.0669 43.7311 82.802 44.074C82.0071 39.2721 77.7678 35.585 72.5569 35.585C69.819 35.585 67.1694 36.6139 65.2264 38.5004C63.2834 40.3869 62.2236 42.9593 62.2236 45.6175C62.2236 51.1912 66.9045 55.6501 72.5569 55.6501C75.2948 55.6501 77.9444 54.6211 79.8874 52.7346C80.1524 52.4774 80.4173 52.2201 80.6823 51.8771C81.4772 56.679 85.7165 60.3662 90.9273 60.3662C93.6652 60.3662 96.3148 59.3372 98.2578 57.4508C99.8476 55.9073 100.907 53.8494 101.172 51.7056C103.027 54.1066 106.03 55.7358 109.386 55.7358C112.124 55.7358 114.774 54.7068 116.717 52.8204C118.66 50.9339 119.719 48.3615 119.719 45.7033C119.719 40.2154 115.127 35.6707 109.386 35.6707ZM78.386 51.3627C76.8846 52.8204 74.7649 53.6779 72.6452 53.6779C68.141 53.6779 64.5199 50.1622 64.5199 45.789C64.5199 43.6453 65.4031 41.6731 66.9045 40.2154C68.4059 38.7577 70.5256 37.9002 72.6452 37.9002C77.1495 37.9002 80.7706 41.4158 80.7706 45.789C80.7706 47.847 79.8874 49.8192 78.386 51.3627ZM96.6681 56.0788C95.1667 57.5365 93.047 58.394 90.9273 58.394C86.423 58.394 82.802 54.8783 82.802 50.5052C82.802 48.3615 83.6852 46.3893 85.1866 44.9315C86.688 43.3881 88.8077 42.6163 90.9273 42.6163C95.4316 42.6163 99.0527 46.132 99.0527 50.5052C99.0527 52.5631 98.1695 54.5353 96.6681 56.0788ZM115.127 51.3627C113.625 52.8204 111.506 53.6779 109.386 53.6779C104.882 53.6779 101.261 50.1622 101.261 45.789C101.261 43.6453 102.144 41.6731 103.645 40.2154C105.147 38.7577 107.266 37.9002 109.386 37.9002C113.89 37.9002 117.511 41.4158 117.511 45.789C117.511 47.847 116.717 49.8192 115.127 51.3627Z" fill="white"/>
</g>
<g clip-path="url(#clip2)">
<path d="M274.984 558.157C302.616 558.157 325.061 535.717 325.061 508.08C325.061 480.443 302.616 458.003 274.984 458.003C247.353 458.003 224.907 480.443 224.907 508.08C224.907 535.796 247.353 558.157 274.984 558.157Z" fill="url(#paint12_linear)"/>
<path d="M262.019 504.851C253.754 504.851 247.029 511.387 247.029 519.418C247.029 527.449 253.754 533.984 262.019 533.984C268.502 533.984 274.093 529.89 276.119 524.221C277.091 524.3 278.063 524.3 278.793 524.3C283.412 524.3 294.027 523.827 294.027 519.418V513.827V513.591C294.027 513.434 294.108 513.355 294.108 513.198C294.108 513.04 294.108 512.961 294.027 512.804V508.001C294.027 507.843 294.108 507.765 294.108 507.607C294.108 507.45 294.108 507.371 294.027 507.214V501.859C294.027 501.702 294.108 501.623 294.108 501.466C294.108 501.229 294.027 500.993 293.946 500.836C294.027 500.678 294.027 500.442 294.027 500.206V494.222C294.027 494.064 294.108 493.986 294.108 493.828C294.108 493.671 294.108 493.592 294.027 493.434V488.08C294.027 487.923 294.108 487.844 294.108 487.687C294.108 487.45 294.027 487.214 293.946 486.978C293.783 486.506 293.54 486.191 293.135 485.954C289.975 483.356 280.089 483.277 278.793 483.277C277.496 483.277 267.529 483.356 264.45 485.954C264.045 486.191 263.802 486.584 263.64 486.978C263.559 487.214 263.478 487.45 263.478 487.687C263.478 487.844 263.478 487.923 263.559 488.08V493.434C263.559 493.592 263.478 493.671 263.478 493.828C263.478 493.986 263.478 494.064 263.559 494.222V500.048C263.559 500.285 263.559 500.442 263.64 500.678C263.559 500.915 263.478 501.072 263.478 501.308C263.478 501.466 263.478 501.544 263.559 501.702V504.851C263.073 504.851 262.506 504.851 262.019 504.851ZM292.325 519.26V519.339C292.325 519.339 292.325 519.339 292.325 519.418C292.244 521.071 286.167 522.331 278.793 522.331C278.063 522.331 277.334 522.331 276.605 522.252C276.767 521.308 276.929 520.284 276.929 519.339C276.929 519.103 276.929 518.867 276.929 518.552C277.658 518.552 278.226 518.552 278.793 518.552C282.277 518.552 289.084 518.316 292.325 516.347V519.26ZM292.325 513.67V513.749C292.325 513.749 292.325 513.749 292.325 513.827C292.244 515.481 286.167 516.741 278.793 516.741C278.063 516.741 277.415 516.741 276.686 516.662C276.362 515.087 275.876 513.67 275.065 512.331C276.443 512.41 277.739 512.41 278.712 512.41C282.196 512.41 289.003 512.174 292.244 510.206V513.67H292.325ZM292.325 499.97V500.048C292.325 500.048 292.325 500.048 292.325 500.127C292.244 501.781 286.167 503.04 278.793 503.04C271.419 503.04 265.342 501.702 265.261 500.127V500.048C265.261 500.048 265.261 500.048 265.261 499.97V496.584C268.502 498.552 275.308 498.867 278.793 498.867C282.277 498.867 289.084 498.631 292.325 496.663V499.97ZM278.793 485.403C286.491 485.403 291.271 486.821 292.001 487.687C291.19 488.553 286.41 489.97 278.793 489.97C271.095 489.97 266.314 488.553 265.585 487.687C266.395 486.821 271.176 485.403 278.793 485.403ZM278.793 492.096C280.008 492.096 288.516 492.017 292.325 489.97V493.907V493.986C292.325 493.986 292.325 493.986 292.325 494.064C292.244 495.718 286.167 496.978 278.793 496.978C271.419 496.978 265.342 495.639 265.261 494.064V493.986C265.261 493.986 265.261 493.986 265.261 493.907V489.97C269.069 492.017 277.577 492.096 278.793 492.096ZM278.793 505.718C280.008 505.718 288.516 505.639 292.325 503.592V507.528V507.607C292.325 507.607 292.325 507.607 292.325 507.686C292.244 509.339 286.167 510.599 278.793 510.599C277.01 510.599 275.308 510.521 273.769 510.363C271.662 507.765 268.664 505.875 265.261 505.088V503.513C269.069 505.718 277.577 505.718 278.793 505.718ZM275.065 519.418C275.065 526.425 269.231 532.095 262.019 532.095C254.808 532.095 248.973 526.425 248.973 519.418C248.973 512.41 254.808 506.741 262.019 506.741C269.231 506.741 275.065 512.41 275.065 519.418Z" fill="white"/>
<path d="M251.971 519.418C251.971 524.851 256.509 529.181 262.019 529.181C267.61 529.181 272.067 524.772 272.067 519.418C272.067 513.985 267.529 509.654 262.019 509.654C256.428 509.576 251.971 513.985 251.971 519.418ZM270.852 519.418C270.852 524.142 266.881 528 262.019 528C257.157 528 253.187 524.142 253.187 519.418C253.187 514.694 257.157 510.835 262.019 510.835C266.881 510.835 270.852 514.694 270.852 519.418Z" fill="white"/>
<path d="M260.804 513.197V514.221C260.318 514.378 259.832 514.693 259.427 515.087C258.859 515.638 258.535 516.426 258.535 517.292C258.535 517.764 258.616 518.158 258.778 518.473C259.021 518.945 259.427 519.418 259.913 519.811C260.318 520.126 260.885 520.363 261.533 520.599C262.101 520.835 262.344 520.992 262.425 521.071C262.506 521.15 262.506 521.15 262.506 521.229C262.506 521.229 262.506 521.307 262.506 521.386C262.506 521.544 262.506 521.544 262.344 521.622C262.182 521.701 262.019 521.78 261.695 521.78C261.047 521.78 260.48 521.544 260.156 521.307L259.751 521.071C259.589 520.992 259.345 520.914 259.183 520.992C259.021 521.071 258.859 521.229 258.778 521.386L258.211 523.04C258.13 523.276 258.211 523.591 258.454 523.748L258.697 523.906C259.021 524.142 259.508 524.378 259.994 524.457C260.156 524.536 260.318 524.536 260.561 524.614V525.559C260.561 525.874 260.885 526.189 261.209 526.189H262.83C263.154 526.189 263.478 525.874 263.478 525.559V524.457C264.045 524.221 264.531 523.906 264.937 523.433C265.504 522.803 265.747 522.095 265.747 521.229C265.747 520.835 265.666 520.441 265.585 520.048C265.423 519.496 265.018 519.024 264.531 518.63C264.126 518.315 263.64 518 262.911 517.764H262.83C262.182 517.449 261.857 517.292 261.776 517.213C261.695 517.213 261.695 517.134 261.695 517.134C261.695 517.134 261.695 517.134 261.695 517.056C261.695 517.056 261.695 516.977 261.776 516.898C261.857 516.819 262.019 516.741 262.263 516.741C262.587 516.741 262.83 516.819 263.073 516.898C263.316 516.977 263.478 517.056 263.559 517.134L263.883 517.37C264.045 517.449 264.207 517.449 264.45 517.449C264.612 517.37 264.775 517.292 264.856 517.056L265.504 515.481C265.585 515.166 265.504 514.851 265.261 514.693L265.018 514.536C264.612 514.3 264.126 514.142 263.559 513.985V513.119C263.559 512.804 263.235 512.489 262.911 512.489H261.29C261.047 512.568 260.804 512.882 260.804 513.197ZM262.101 514.693V513.827H262.425V514.615C262.425 514.93 262.668 515.166 262.992 515.245C263.478 515.323 263.883 515.402 264.288 515.56L264.126 515.953C263.964 515.874 263.883 515.796 263.721 515.796C263.316 515.638 262.911 515.638 262.425 515.638C261.857 515.638 261.371 515.796 261.047 516.111C260.723 516.347 260.642 516.741 260.642 517.134C260.642 517.37 260.723 517.528 260.804 517.764C260.885 517.922 261.047 518.079 261.209 518.237C261.533 518.473 261.938 518.709 262.668 519.024C263.235 519.26 263.64 519.496 263.964 519.733C264.288 519.969 264.531 520.284 264.612 520.599C264.694 520.835 264.775 521.071 264.775 521.386C264.775 521.859 264.612 522.41 264.288 522.725C263.964 523.118 263.478 523.355 262.992 523.433C262.668 523.512 262.506 523.748 262.506 524.063V525.008H262.182V524.142C262.182 523.827 261.938 523.591 261.614 523.512C261.29 523.512 261.047 523.433 260.723 523.355C260.48 523.276 260.237 523.197 259.994 523.04L260.156 522.646C260.723 522.961 261.452 523.118 262.101 523.118C262.668 523.118 263.154 522.961 263.559 522.646C263.964 522.331 264.126 521.937 264.126 521.465C264.126 521.229 264.045 520.992 263.964 520.835C263.883 520.677 263.721 520.441 263.559 520.284C263.235 519.969 262.83 519.733 262.263 519.496C261.695 519.26 261.209 519.024 260.885 518.788C260.561 518.552 260.318 518.237 260.156 518C260.075 517.764 259.994 517.528 259.994 517.292C259.994 516.819 260.156 516.347 260.48 515.953C260.804 515.638 261.209 515.402 261.695 515.323C261.857 515.245 262.101 515.008 262.101 514.693Z" fill="white"/>
</g>
<g clip-path="url(#clip3)">
<path d="M510.434 427.254C538.05 427.254 560.511 404.808 560.511 377.177C560.511 349.545 538.05 327.1 510.434 327.1C482.818 327.1 460.357 349.545 460.357 377.177C460.357 404.898 482.818 427.254 510.434 427.254Z" fill="url(#paint13_linear)"/>
<path d="M509.974 364.747C509.145 364.747 508.317 364.479 507.58 364.032L507.12 363.763L506.384 365.731L506.66 365.909C507.304 366.357 508.225 366.625 509.237 366.714V368.503H511.262V366.625C513.011 366.178 514.116 364.926 514.116 363.316C514.116 361.17 512.459 360.276 511.078 359.739C509.421 359.024 509.145 358.666 509.145 358.13C509.145 357.593 509.513 357.056 510.618 357.056C511.723 357.056 512.367 357.414 512.643 357.593L513.103 357.861L513.84 355.894L513.472 355.715C512.827 355.357 512.183 355.179 511.354 355.089V353.39H509.421V355.268C507.764 355.626 506.66 356.878 506.66 358.398C506.66 360.276 508.225 361.17 509.882 361.796C511.17 362.332 511.631 362.78 511.631 363.495C511.723 364.21 510.986 364.747 509.974 364.747ZM510.25 360.991C508.317 360.276 507.58 359.471 507.58 358.308C507.58 357.056 508.501 356.162 509.974 355.894L510.342 355.805V354.106H510.618V355.805H510.986C511.631 355.805 512.275 355.983 512.827 356.162L512.643 356.609C512.183 356.431 511.539 356.162 510.618 356.162C508.961 356.162 508.317 357.146 508.317 358.04C508.317 359.292 509.421 359.829 510.802 360.455C512.551 361.17 513.288 361.975 513.288 363.316C513.288 364.657 512.275 365.641 510.802 365.909L510.434 365.999V367.787H510.158V365.999H509.697C508.869 365.999 508.041 365.82 507.488 365.462L507.672 365.105C508.409 365.462 509.237 365.641 510.066 365.641C511.539 365.641 512.643 364.747 512.643 363.495C512.551 362.064 511.354 361.438 510.25 360.991Z" fill="white"/>
<path d="M519.548 365.73C520.468 364.21 520.929 362.511 520.929 360.633C520.929 355 516.142 350.35 510.342 350.35C504.451 350.35 499.756 355 499.756 360.633C499.756 362.511 500.309 364.21 501.137 365.73H488.342L485.12 374.315L486.685 393.899H532.711L534 374.226L529.858 365.641H519.548V365.73ZM500.953 360.723C500.953 355.715 505.187 351.602 510.342 351.602C512.368 351.602 514.301 352.227 515.866 353.39C515.958 353.479 516.142 353.569 516.234 353.658C517.154 354.374 517.891 355.178 518.443 356.162C519.272 357.503 519.732 359.113 519.732 360.812C519.732 361.17 519.732 361.438 519.64 361.706C519.548 362.601 519.272 363.495 518.995 364.3C518.259 365.909 517.062 367.34 515.589 368.324C514.117 369.307 512.275 369.844 510.342 369.844C505.187 369.844 500.953 365.73 500.953 360.723ZM512.644 370.738H525.347V372.884H493.865V370.738H508.041H508.133C508.777 370.917 509.514 370.917 510.25 370.917C510.25 370.917 510.25 370.917 510.342 370.917C511.079 371.006 511.907 370.917 512.644 370.738ZM530.962 392.2H488.342L487.145 376.461H532.067L530.962 392.2ZM532.159 375.03V375.299H487.053V375.03V374.673L489.722 367.608H502.518C502.702 367.787 502.794 367.966 502.978 368.055C503.807 368.86 504.727 369.486 505.74 369.933H493.036V373.689H526.176V369.933H515.037C516.234 369.307 517.338 368.503 518.259 367.519H528.753L532.159 374.673V375.03Z" fill="white"/>
</g>
<path d="M292.577 182.329C292.476 182.329 292.374 182.329 292.273 182.329C292.171 182.329 292.07 182.329 291.969 182.329C291.901 182.329 291.833 182.329 291.766 182.329C291.698 182.329 291.63 182.329 291.563 182.329C291.461 182.329 291.326 182.329 291.225 182.361C290.887 182.329 290.515 182.329 290.177 182.329H218.195C211.365 182.329 205.854 187.684 205.854 194.321C205.854 200.958 211.365 206.313 218.195 206.313H290.109C290.481 206.313 290.819 206.28 291.157 206.28C291.495 206.313 291.867 206.313 292.205 206.313C305.831 206.313 316.887 217.057 316.887 230.298C316.887 243.538 305.831 254.282 292.205 254.282H267.524V242.29H292.171C292.171 242.29 292.171 242.29 292.205 242.29C292.205 242.29 292.205 242.29 292.239 242.29C299.035 242.29 304.58 236.902 304.58 230.298C304.58 223.694 299.035 218.305 292.239 218.305C292.239 218.305 292.239 218.305 292.205 218.305C292.205 218.305 292.205 218.305 292.171 218.305H255.217H234.66C227.831 218.305 222.319 223.661 222.319 230.298C222.319 236.934 227.831 242.29 234.66 242.29H242.876V254.282V278.267V306.259C242.876 312.863 248.421 318.252 255.217 318.252C262.013 318.252 267.558 312.863 267.558 306.259V278.267H292.239C319.49 278.267 341.602 256.779 341.602 230.298C341.602 203.915 319.693 182.493 292.577 182.329Z" fill="url(#paint14_linear)"/>
<path d="M284.464 176.743C284.363 176.743 284.262 176.743 284.16 176.743C284.059 176.743 283.957 176.743 283.856 176.743C283.788 176.743 283.721 176.743 283.653 176.743C283.585 176.743 283.518 176.743 283.45 176.743C283.349 176.743 283.213 176.743 283.112 176.776C282.774 176.743 282.402 176.743 282.064 176.743H210.082C203.252 176.743 197.741 182.099 197.741 188.735C197.741 195.372 203.252 200.728 210.082 200.728H281.996C282.368 200.728 282.706 200.695 283.044 200.695C283.382 200.728 283.754 200.728 284.092 200.728C297.718 200.728 308.774 211.471 308.774 224.712C308.774 237.953 297.718 248.697 284.092 248.697H259.411V236.704H284.059C284.059 236.704 284.059 236.704 284.092 236.704C284.092 236.704 284.092 236.704 284.126 236.704C290.922 236.704 296.467 231.316 296.467 224.712C296.467 218.108 290.922 212.72 284.126 212.72C284.126 212.72 284.126 212.72 284.092 212.72C284.092 212.72 284.092 212.72 284.059 212.72H247.104H226.547C219.718 212.72 214.207 218.075 214.207 224.712C214.207 231.349 219.718 236.704 226.547 236.704H234.763V248.697V272.681V300.674C234.763 307.278 240.308 312.666 247.104 312.666C253.9 312.666 259.445 307.278 259.445 300.674V272.681H284.126C311.377 272.681 333.489 251.194 333.489 224.712C333.489 198.329 311.58 176.907 284.464 176.743Z" fill="white"/>
<g clip-path="url(#clip4)">
<path d="M462.114 110.099C489.725 110.099 512.191 87.6655 512.191 60.0223C512.191 32.3791 489.725 9.94531 462.114 9.94531C434.503 9.94531 412.037 32.3791 412.037 60.0223C412.037 87.6655 434.418 110.099 462.114 110.099Z" fill="url(#paint15_linear)"/>
<path d="M474.806 85.565H474.12C473.948 85.565 473.777 85.565 473.091 85.397C472.576 85.313 471.805 85.1449 471.462 85.1449C468.975 85.1449 466.488 85.1449 464.002 85.1449H460.229L462.201 81.1119C463.487 78.3391 464.859 75.5664 466.145 72.7937C466.317 72.3736 466.66 71.8695 467.26 71.7014C467.86 71.5334 468.375 71.7014 468.803 71.9535C470.947 73.0458 473.177 74.1381 475.406 75.1463C476.521 75.6505 476.95 76.4907 476.607 77.751C476.178 79.4314 475.835 81.1959 475.406 82.9603C475.235 83.6325 475.149 84.3047 474.977 84.9769L474.806 85.565ZM465.374 83.4645C467.431 83.4645 469.489 83.4645 471.547 83.4645C471.976 83.4645 472.662 83.5485 473.434 83.7165C473.52 83.2964 473.605 82.8763 473.691 82.4562C474.034 80.7758 474.463 78.9273 474.892 77.2469C474.977 76.9108 474.977 76.8268 474.977 76.8268C474.977 76.8268 474.892 76.7427 474.634 76.6587C472.405 75.6505 470.175 74.5582 468.032 73.4659C467.946 73.3819 467.86 73.3819 467.86 73.3819C467.86 73.3819 467.774 73.4659 467.774 73.5499C466.488 76.3226 465.116 79.0953 463.83 81.8681L463.058 83.5485H464.173C464.43 83.4645 464.945 83.4645 465.374 83.4645Z" fill="white"/>
<path d="M435.532 76.2384L434.589 75.3142C434.332 75.0621 434.075 74.8941 433.903 74.642C433.56 74.2219 433.046 73.8858 432.531 73.4657C431.245 72.4574 429.873 71.3652 429.873 69.9368C429.787 68.5924 431.245 67.4161 432.531 66.3239C432.96 65.9037 433.474 65.5677 433.817 65.2316C436.133 62.963 438.362 60.7784 440.677 58.5098C445.308 53.9726 450.109 49.2674 454.826 44.6462C455.34 44.1421 456.026 43.5539 456.798 43.638C457.57 43.638 458.17 44.3101 458.599 44.8143C458.942 45.2344 459.542 45.6545 460.056 46.0746C461.171 46.9988 462.371 47.9231 462.371 49.3514C462.286 50.6958 461 51.7041 459.799 52.7123C459.37 53.0484 458.942 53.3845 458.599 53.7206C452.596 59.6021 446.594 65.4836 440.506 71.4492L437.247 74.642C436.99 74.8941 436.733 75.1461 436.475 75.3982L435.532 76.2384ZM456.626 45.4024C456.626 45.4024 456.455 45.4024 455.94 45.9065C451.224 50.6118 446.422 55.233 441.792 59.8542C439.477 62.1228 437.247 64.3073 434.932 66.5759C434.503 66.996 433.989 67.4161 433.56 67.7522C432.703 68.4244 431.502 69.5167 431.502 70.0208C431.502 70.609 432.617 71.5332 433.56 72.2894C434.075 72.7095 434.589 73.1296 435.018 73.5497C435.189 73.7178 435.275 73.8018 435.447 73.9698C435.618 73.8018 435.79 73.6338 435.961 73.4657L439.219 70.2729C445.222 64.3914 451.224 58.5098 457.312 52.5443C457.741 52.1242 458.17 51.7881 458.599 51.368C459.456 50.6958 460.571 49.7716 460.571 49.1834C460.571 48.5952 459.713 47.9231 458.942 47.3349C458.341 46.8308 457.741 46.3267 457.227 45.7385C456.798 45.4024 456.626 45.4024 456.626 45.4024Z" fill="white"/>
<path d="M475.234 64.3915L474.376 62.8791C466.487 49.2675 456.112 39.1849 442.735 31.875L441.106 31.0348L442.821 30.3626C446.165 29.1023 449.509 28.9342 452.596 30.0265C464.344 34.0596 472.318 41.7896 476.177 53.2166C477.206 56.3254 477.12 59.6022 475.92 62.7951L475.234 64.3915ZM445.222 31.3709C457.57 38.4287 467.259 47.9232 474.891 60.3584C475.405 58.0898 475.32 55.8212 474.634 53.6367C470.946 42.7979 463.315 35.4039 452.082 31.5389C449.852 30.8668 447.537 30.7827 445.222 31.3709Z" fill="white"/>
<path d="M492.727 85.145H491.698C489.126 85.145 487.582 85.0609 486.125 84.9769C484.667 84.8929 483.123 84.8089 480.637 84.8089H479.693V84.7248C479.35 84.7248 478.922 84.7248 478.579 84.7248C476.349 84.7248 476.263 84.7248 475.92 84.3888L475.663 84.0527L475.749 83.6326C475.92 82.8764 476.006 82.1202 476.178 81.28C476.435 79.2634 476.778 77.2469 478.064 75.9866C480.036 74.1381 482.523 72.8778 484.924 71.7015C485.867 71.1973 486.896 70.6932 487.839 70.1891C488.354 69.853 488.868 69.853 489.297 70.021C489.983 70.3571 490.069 71.1133 490.155 71.3654L492.727 85.145ZM480.722 83.1284C483.209 83.1284 484.667 83.2125 486.125 83.2965C487.411 83.3805 488.697 83.4645 490.583 83.4645L488.354 71.8695C487.411 72.3736 486.467 72.8778 485.524 73.2979C483.123 74.4742 480.894 75.6505 479.093 77.2469C478.236 78.0871 477.978 79.8516 477.721 81.532C477.635 82.0361 477.55 82.5403 477.464 83.0444C477.807 83.0444 478.064 83.0444 478.407 83.0444C479.865 83.0444 480.465 83.0444 480.722 83.1284Z" fill="white"/>
<path d="M477.206 75.1462C476.949 75.1462 476.606 75.0621 476.263 74.8941C474.377 73.9699 472.49 73.0456 470.604 72.1214L467.602 70.693L468.631 69.4327C472.319 65.3156 476.692 64.3914 481.494 66.5759C482.608 67.0801 483.723 67.3321 485.181 67.6682C485.867 67.8363 486.553 68.0043 487.325 68.1723L489.382 68.6765L485.095 71.0291C482.78 72.2894 480.55 73.5497 478.321 74.7261C478.064 74.9781 477.721 75.1462 477.206 75.1462ZM470.432 70.1889L471.461 70.693C473.348 71.6172 475.234 72.5415 477.12 73.4657C477.292 73.5497 477.292 73.5497 477.549 73.3817C479.779 72.1214 481.922 70.9451 484.323 69.6847L484.838 69.3487C483.466 69.0126 482.094 68.7605 480.893 68.1723C476.863 66.3239 473.519 66.996 470.432 70.1889Z" fill="white"/>
<path d="M471.203 41.4537L470.431 40.7815L463.829 34.1438L465.801 34.0598C466.144 34.0598 466.487 33.6397 466.916 33.3036C467.688 32.5474 468.974 31.203 470.946 32.7994C474.89 36.0763 474.633 36.6644 471.803 40.6135L471.203 41.4537ZM467.345 35.2361L471.032 38.933C471.803 37.8407 472.318 37.0846 472.318 36.6644C472.232 36.1603 471.375 35.4041 469.917 34.2278C469.231 33.6397 469.06 33.8077 468.202 34.5639C467.945 34.7319 467.688 34.984 467.345 35.2361Z" fill="white"/>
<path d="M458.427 71.3654C458.342 71.3654 458.17 71.3654 458.084 71.3654C456.97 71.2814 456.198 70.6092 456.112 69.6009C456.026 69.0128 456.198 68.5087 456.541 68.0885C456.884 67.6684 457.398 67.4164 457.999 67.4164C459.285 67.3324 460.485 67.2483 461.771 67.1643L463.572 67.0803C464.858 66.9963 465.802 67.6684 465.887 68.8447C465.973 69.6009 465.716 70.021 465.459 70.3571C465.116 70.7772 464.515 71.0293 463.744 71.1133C462.972 71.1973 462.286 71.1973 461.514 71.2814C461.085 71.3654 460.571 71.3654 460.142 71.3654H458.427ZM463.744 68.6767H463.658L461.857 68.7607C460.571 68.8447 459.37 68.9288 458.084 69.0128C457.913 69.0128 457.827 69.0968 457.741 69.0968C457.741 69.0968 457.656 69.2648 457.741 69.3489C457.741 69.5169 457.741 69.6009 458.084 69.6009C458.256 69.6009 458.427 69.6009 458.599 69.6009H459.199C459.885 69.5169 460.571 69.5169 461.257 69.4329C462.029 69.3489 462.8 69.2648 463.486 69.2648C463.744 69.2648 463.915 69.1808 464.001 69.0968C464.087 69.0128 464.001 68.9288 464.001 68.8447C464.172 68.8447 464.087 68.6767 463.744 68.6767Z" fill="white"/>
<path d="M467.602 65.4839C467.087 65.4839 466.487 65.2318 465.973 64.7277C465.287 64.1395 464.601 63.4674 463.915 62.8792C463.4 62.3751 462.8 61.8709 462.286 61.3668C461.514 60.6946 461.342 59.8544 461.771 59.0142C462.114 58.342 462.714 57.9219 463.572 57.8379H463.829L464.086 58.0059C464.172 58.0059 464.258 58.09 464.344 58.09C464.601 58.174 464.858 58.342 465.201 58.5941C465.973 59.2663 466.744 59.9384 467.516 60.6106C467.945 61.0307 468.374 61.3668 468.802 61.7869C469.317 62.2911 469.66 62.7952 469.66 63.3833C469.66 63.8875 469.488 64.3916 469.145 64.8117C468.631 65.3158 468.116 65.4839 467.773 65.4839C467.688 65.4839 467.602 65.4839 467.602 65.4839ZM463.486 59.6023C463.315 59.6864 463.229 59.7704 463.229 59.7704C463.229 59.8544 463.143 59.9384 463.4 60.1905C463.915 60.6946 464.515 61.1988 465.03 61.7029C465.715 62.291 466.401 62.9632 467.087 63.5514C467.345 63.8034 467.516 63.8034 467.602 63.8034C467.602 63.8034 467.688 63.7194 467.773 63.7194C467.859 63.6354 467.859 63.5514 467.859 63.5514C467.859 63.4674 467.773 63.2993 467.516 63.1313C467.087 62.7112 466.659 62.3751 466.23 61.955C465.458 61.2828 464.687 60.6106 463.915 59.9384C463.829 59.7704 463.658 59.6864 463.486 59.6023Z" fill="white"/>
<path d="M481.837 63.5513C481.579 63.5513 481.408 63.5513 481.151 63.4673C480.636 63.2992 480.122 62.9631 479.864 62.459C479.693 62.0389 479.607 61.6188 479.779 61.1987C480.379 59.4342 481.065 57.6698 481.837 55.8213C482.265 54.897 483.294 54.561 484.323 54.9811C485.695 55.5692 485.524 56.8296 485.524 57.3337L485.438 57.5857L484.923 58.7621C484.495 59.8543 483.98 61.1987 483.38 62.375C483.208 63.1312 482.522 63.5513 481.837 63.5513ZM481.494 61.7868C481.494 61.7868 481.579 61.8709 481.751 61.8709C481.922 61.9549 482.008 61.8709 482.008 61.7868C482.522 60.5265 483.037 59.2662 483.466 58.1739L483.894 57.0816C483.894 56.5775 483.809 56.5775 483.723 56.4935C483.551 56.4094 483.551 56.4935 483.466 56.4935C482.694 58.3419 482.008 60.1064 481.494 61.7868C481.408 61.7868 481.408 61.7868 481.494 61.7868Z" fill="white"/>
</g>
<defs>
<linearGradient id="paint0_linear" x1="275.333" y1="0.0391092" x2="275.333" y2="497.124" gradientUnits="userSpaceOnUse">
<stop/>
<stop offset="1" stop-color="#41FF7A"/>
</linearGradient>
<linearGradient id="paint1_linear" x1="275.333" y1="0.0391093" x2="275.333" y2="497.124" gradientUnits="userSpaceOnUse">
<stop stop-color="#6FDCFF" stop-opacity="0.8"/>
<stop offset="1" stop-color="#41FF7A" stop-opacity="0.8"/>
</linearGradient>
<linearGradient id="paint2_linear" x1="441.854" y1="373.887" x2="53.7685" y2="68.5266" gradientUnits="userSpaceOnUse">
<stop offset="0.00388662" stop-color="#2AF0FF" stop-opacity="0.3"/>
<stop offset="0.5051" stop-color="#00A8A1" stop-opacity="0.4"/>
<stop offset="1" stop-color="#41FF7A"/>
</linearGradient>
<linearGradient id="paint3_linear" x1="396.103" y1="151.091" x2="157.069" y2="353.578" gradientUnits="userSpaceOnUse">
<stop offset="0.00264997" stop-color="white"/>
<stop offset="0.5051" stop-color="#00A8A1"/>
<stop offset="1" stop-color="#41FF7A"/>
</linearGradient>
<linearGradient id="paint4_linear" x1="274.106" y1="114.492" x2="281.796" y2="383.106" gradientUnits="userSpaceOnUse">
<stop offset="0.5051" stop-color="#00A8A1"/>
<stop offset="1" stop-color="#41FF7A"/>
</linearGradient>
<linearGradient id="paint5_linear" x1="326" y1="310.5" x2="182.233" y2="135.845" gradientUnits="userSpaceOnUse">
<stop stop-color="#225221"/>
<stop offset="1" stop-opacity="0"/>
</linearGradient>
<linearGradient id="paint6_linear" x1="417.161" y1="355.53" x2="86.1085" y2="95.0449" gradientUnits="userSpaceOnUse">
<stop offset="0.00388662" stop-color="#1B1B1B" stop-opacity="0"/>
<stop offset="0.979167" stop-color="#11C4BC"/>
</linearGradient>
<linearGradient id="paint7_linear" x1="273.741" y1="214.222" x2="273.741" y2="283.728" gradientUnits="userSpaceOnUse">
<stop stop-color="#34BDC6"/>
<stop offset="1" stop-color="#41FF7A"/>
</linearGradient>
<linearGradient id="paint8_linear" x1="262.852" y1="194.48" x2="248.657" y2="305.79" gradientUnits="userSpaceOnUse">
<stop stop-color="#34BDC6"/>
<stop offset="1" stop-color="#41FF7A"/>
</linearGradient>
<linearGradient id="paint9_linear" x1="325.937" y1="254.519" x2="228.615" y2="259.381" gradientUnits="userSpaceOnUse">
<stop stop-color="#34BDC6"/>
<stop offset="1" stop-color="#41FF7A"/>
</linearGradient>
<linearGradient id="paint10_linear" x1="-5.15928" y1="424.775" x2="158.182" y2="257.957" gradientUnits="userSpaceOnUse">
<stop offset="0.00264997" stop-color="#F8FD10"/>
<stop offset="0.5051" stop-color="#00A8A1"/>
<stop offset="1" stop-color="#41FF7A"/>
</linearGradient>
<linearGradient id="paint11_linear" x1="52.604" y1="124.51" x2="120.947" y2="-2.66834" gradientUnits="userSpaceOnUse">
<stop offset="0.00264997" stop-color="#41A4FF"/>
<stop offset="0.5051" stop-color="#87A0DF"/>
<stop offset="1" stop-color="#C5BBFF"/>
</linearGradient>
<linearGradient id="paint12_linear" x1="343.525" y1="445.823" x2="178.722" y2="604.36" gradientUnits="userSpaceOnUse">
<stop offset="0.00264997" stop-color="#62FFC6"/>
<stop offset="0.4688" stop-color="#4CB6F1"/>
<stop offset="1" stop-color="#AF6CC7"/>
</linearGradient>
<linearGradient id="paint13_linear" x1="471.669" y1="445.244" x2="540.071" y2="318.027" gradientUnits="userSpaceOnUse">
<stop offset="0.00264997" stop-color="#41A4FF"/>
<stop offset="0.5051" stop-color="#AE87DF"/>
<stop offset="1" stop-color="#E960CB"/>
</linearGradient>
<linearGradient id="paint14_linear" x1="231.761" y1="191.929" x2="308.675" y2="285.877" gradientUnits="userSpaceOnUse">
<stop offset="0.00264997" stop-color="#6FFF2A"/>
<stop offset="0.5063" stop-color="#00A8A1"/>
<stop offset="1" stop-color="#41FF7A"/>
</linearGradient>
<linearGradient id="paint15_linear" x1="423.866" y1="128.327" x2="492.238" y2="1.14724" gradientUnits="userSpaceOnUse">
<stop offset="0.00264997" stop-color="#41FFBB"/>
<stop offset="0.5051" stop-color="#008AA8"/>
<stop offset="1" stop-color="#7E41FF"/>
</linearGradient>
<clipPath id="clip0">
<rect width="100.154" height="100.154" fill="white" transform="translate(0 320.071)"/>
</clipPath>
<clipPath id="clip1">
<rect width="100.154" height="100.154" fill="white" transform="translate(41.2915 6.43066)"/>
</clipPath>
<clipPath id="clip2">
<rect width="100.154" height="100.154" fill="white" transform="translate(224.907 458.003)"/>
</clipPath>
<clipPath id="clip3">
<rect width="100.154" height="100.154" fill="white" transform="translate(460.357 327.1)"/>
</clipPath>
<clipPath id="clip4">
<rect width="100.154" height="100.154" fill="white" transform="translate(412.037 9.94531)"/>
</clipPath>
</defs>
</svg>
