<svg width="581" height="410" viewBox="0 0 581 410" fill="none" xmlns="http://www.w3.org/2000/svg">
<path opacity="0.4" d="M212.454 345.819L66.0024 266.674C43.3325 254.433 43.3325 234.567 66.0024 222.326L212.494 143.181C235.164 130.94 271.877 130.94 294.546 143.181L440.998 222.326C463.667 234.567 463.667 254.433 440.998 266.674L294.506 345.819C271.877 358.06 235.123 358.06 212.454 345.819Z" fill="black"/>
<path d="M215.292 338.363L77.0483 263.872C55.6506 252.356 55.6506 233.644 77.0483 222.128L215.292 147.637C236.69 136.121 271.351 136.121 292.708 147.637L430.952 222.128C452.349 233.644 452.349 252.356 430.952 263.872L292.708 338.363C271.31 349.879 236.649 349.879 215.292 338.363Z" fill="#323A51"/>
<path d="M215.648 323.292L77.0767 248.086C55.6411 236.436 55.6411 217.594 77.0767 205.944L215.688 130.738C237.124 119.087 271.876 119.087 293.312 130.738L431.923 205.944C453.359 217.594 453.359 236.436 431.923 248.086L293.312 323.292C271.876 334.903 237.124 334.903 215.648 323.292Z" fill="url(#paint0_linear)"/>
<path d="M215.648 323.292L77.0767 248.086C55.6411 236.436 55.6411 217.594 77.0767 205.944L215.688 130.738C237.124 119.087 271.876 119.087 293.312 130.738L431.923 205.944C453.359 217.594 453.359 236.436 431.923 248.086L293.312 323.292C271.876 334.903 237.124 334.903 215.648 323.292Z" stroke="url(#paint1_linear)" stroke-width="2" stroke-miterlimit="10"/>
<path d="M203.533 370.743L203.532 370.743L21.5952 272.615L21.5948 272.614C7.68009 265.119 1 255.437 1 246C1 236.563 7.68009 226.881 21.5948 219.386L21.5952 219.385L203.532 121.258C217.43 113.771 235.701 110 254.02 110C272.339 110 290.596 113.771 304.467 121.257L304.468 121.257L486.405 219.385L486.405 219.386C500.32 226.881 507 236.563 507 246C507 255.437 500.32 265.119 486.405 272.614L486.405 272.615L304.468 370.742C304.468 370.743 304.468 370.743 304.468 370.743C290.569 378.229 272.299 382 253.98 382C235.661 382 217.404 378.229 203.533 370.743Z" stroke="#323A51" stroke-width="2"/>
<path opacity="0.4" d="M221.496 301.092L126.963 250.234C112.346 242.357 112.346 229.603 126.963 221.766L221.536 170.908C236.153 163.031 259.887 163.031 274.504 170.908L369.037 221.766C383.654 229.643 383.654 242.397 369.037 250.234L274.464 301.092C259.847 308.969 236.153 308.969 221.496 301.092Z" fill="black"/>
<path d="M221.338 296.917L125.715 245.246C110.914 237.262 110.914 224.304 125.715 216.321L221.338 164.65C236.139 156.667 260.125 156.667 274.886 164.65L370.509 216.321C385.31 224.304 385.31 237.262 370.509 245.246L274.886 296.917C260.125 304.9 236.139 304.9 221.338 296.917Z" fill="#323A51"/>
<path d="M221.86 286.807L125.796 234.895C110.955 226.872 110.955 213.834 125.796 205.81L221.86 153.898C236.701 145.875 260.808 145.875 275.689 153.898L371.753 205.81C386.594 213.834 386.594 226.872 371.753 234.895L275.689 286.807C260.808 294.831 236.701 294.831 221.86 286.807Z" fill="#323A51"/>
<path d="M221.86 286.807L125.796 234.895C110.955 226.872 110.955 213.834 125.796 205.81L221.86 153.898C236.701 145.875 260.808 145.875 275.689 153.898L371.753 205.81C386.594 213.834 386.594 226.872 371.753 234.895L275.689 286.807C260.808 294.831 236.701 294.831 221.86 286.807Z" stroke="url(#paint2_linear)" stroke-width="2" stroke-miterlimit="10"/>
<path opacity="0.4" d="M437.483 404.013L351.927 357.758C338.691 350.617 338.691 339.023 351.927 331.842L437.523 285.587C450.76 278.446 472.219 278.446 485.455 285.587L571.051 331.842C584.287 338.983 584.287 350.577 571.051 357.758L485.455 404.013C472.219 411.154 450.76 411.154 437.483 404.013Z" fill="black"/>
<path d="M438.807 398.999L357.944 355.311C345.429 348.571 345.429 337.579 357.944 330.839L438.807 287.151C451.321 280.412 471.577 280.412 484.091 287.151L564.954 330.839C577.468 337.579 577.468 348.571 564.954 355.311L484.091 398.999C471.617 405.738 451.321 405.738 438.807 398.999Z" fill="#323A51"/>
<path d="M440.05 390.735L358.826 346.806C346.272 340.026 346.272 328.994 358.826 322.214L440.09 278.326C452.645 271.546 473.021 271.546 485.615 278.326L566.879 322.214C579.434 328.994 579.434 340.026 566.879 346.806L485.615 390.694C473.021 397.514 452.645 397.514 440.05 390.735Z" fill="url(#paint3_linear)"/>
<path d="M439.248 390.454L358.024 346.565C345.469 339.785 345.469 328.753 358.024 321.973L439.288 278.085C451.842 271.305 472.219 271.305 484.813 278.085L566.077 321.973C578.632 328.753 578.632 339.785 566.077 346.565L484.813 390.454C472.219 397.234 451.842 397.234 439.248 390.454Z" stroke="url(#paint4_linear)" stroke-width="2" stroke-miterlimit="10"/>
<path opacity="0.4" d="M442.528 377.147L387.381 347.432C378.844 342.833 378.844 335.394 387.381 330.795L442.528 301.041C451.065 296.442 464.892 296.442 473.428 301.041L528.576 330.755C537.112 335.354 537.112 342.793 528.576 347.392L473.428 377.107C464.892 381.746 451.065 381.746 442.528 377.147Z" fill="black"/>
<path d="M442.338 375.115L386.475 345.023C377.813 340.388 377.813 332.835 386.475 328.159L442.338 298.068C451 293.432 464.996 293.432 473.618 298.068L529.482 328.159C538.144 332.795 538.144 340.348 529.482 345.023L473.658 375.115C464.996 379.75 451 379.75 442.338 375.115Z" fill="#323A51"/>
<path d="M442.736 369.059L386.514 338.626C377.8 333.916 377.8 326.267 386.514 321.557L442.736 291.124C451.451 286.414 465.546 286.414 474.22 291.124L530.442 321.557C539.157 326.267 539.157 333.916 530.442 338.626L474.22 369.059C465.506 373.769 451.41 373.769 442.736 369.059Z" fill="#323A51"/>
<path d="M389.492 320L207 221.192L262.228 190L444 290.096L389.492 320Z" fill="#1F283D"/>
<path d="M389.172 320L207 221.134L262.228 190L444 289.91L389.172 320Z" stroke="url(#paint5_linear)" stroke-miterlimit="10"/>
<path opacity="0.4" d="M359.987 264.174C360.171 257.175 350.697 251.248 338.827 250.936C326.957 250.625 317.185 256.046 317.001 263.045C316.818 270.045 326.292 275.971 338.162 276.283C350.032 276.595 359.803 271.173 359.987 264.174Z" fill="black"/>
<path d="M359.586 261.566C359.769 254.567 350.296 248.64 338.426 248.329C326.555 248.017 316.784 253.439 316.6 260.438C316.417 267.437 325.89 273.364 337.76 273.675C349.631 273.987 359.402 268.565 359.586 261.566Z" fill="#0F5454"/>
<path d="M359.528 256.899C359.712 249.9 350.238 243.973 338.368 243.661C326.498 243.35 316.726 248.771 316.543 255.771C316.359 262.77 325.833 268.696 337.703 269.008C349.573 269.32 359.345 263.898 359.528 256.899Z" fill="#00757A"/>
<path d="M359.528 256.899C359.712 249.9 350.238 243.973 338.368 243.661C326.498 243.35 316.726 248.771 316.543 255.771C316.359 262.77 325.833 268.696 337.703 269.008C349.573 269.32 359.345 263.898 359.528 256.899Z" stroke="url(#paint6_linear)" stroke-width="2" stroke-miterlimit="10"/>
<path d="M356.2 256.812C356.355 250.898 348.348 245.89 338.316 245.627C328.284 245.363 320.026 249.944 319.871 255.858C319.716 261.772 327.722 266.78 337.754 267.043C347.786 267.306 356.045 262.726 356.2 256.812Z" fill="#073837"/>
<path d="M355.212 257.344C355.359 251.74 347.794 246.996 338.316 246.747C328.837 246.498 321.034 250.839 320.887 256.443C320.74 262.047 328.305 266.791 337.783 267.04C347.262 267.289 355.065 262.948 355.212 257.344Z" fill="#0A5959"/>
<path d="M346.724 253.43C346.724 253.43 346.724 253.389 346.724 253.43C346.684 253.389 346.684 253.389 346.644 253.389C346.644 253.389 346.644 253.389 346.604 253.389C346.604 253.389 346.604 253.389 346.564 253.389H346.524C346.484 253.349 346.443 253.349 346.443 253.349L339.464 249.578C338.822 249.217 337.619 249.297 336.817 249.739C336.014 250.18 335.894 250.862 336.576 251.223L343.555 254.994C343.596 254.994 343.636 255.034 343.676 255.034C343.716 255.074 343.756 255.074 343.756 255.074C345.08 255.797 344.839 257.121 343.235 258.003C341.63 258.886 339.263 259.046 337.94 258.364L335.533 257.08L336.977 256.278L339.344 257.562C339.985 257.923 341.189 257.843 341.991 257.401C342.793 256.96 342.914 256.278 342.232 255.917L338.662 253.991L336.656 252.908C336.014 252.547 334.811 252.627 334.009 253.069C333.207 253.51 333.086 254.192 333.768 254.553L334.57 254.994L333.126 255.797L330.238 257.441L326.829 259.367C326.027 259.808 325.906 260.49 326.588 260.852C327.23 261.213 328.433 261.132 329.236 260.691L332.645 258.765L335.052 260.049C337.699 261.493 342.432 261.172 345.641 259.367C348.85 257.482 349.332 254.874 346.724 253.43Z" fill="#073837"/>
<path d="M346.564 252.708C346.524 252.668 346.524 252.668 346.484 252.668C346.484 252.668 346.484 252.668 346.444 252.668C346.444 252.668 346.444 252.668 346.403 252.668H346.363C346.323 252.627 346.283 252.627 346.283 252.627L339.304 248.856C338.662 248.495 337.458 248.575 336.656 249.017C335.854 249.458 335.734 250.14 336.416 250.501L343.395 254.272C343.435 254.272 343.475 254.312 343.515 254.312C343.555 254.353 343.596 254.353 343.596 254.353C344.919 255.075 344.679 256.399 343.074 257.281C341.47 258.164 339.103 258.324 337.779 257.642L335.373 256.358L336.817 255.556L339.183 256.84C339.825 257.201 341.028 257.121 341.831 256.679C342.633 256.238 342.753 255.556 342.071 255.195L338.501 253.269L336.496 252.186C335.854 251.825 334.651 251.905 333.848 252.347C333.046 252.788 332.926 253.47 333.608 253.831L334.41 254.272L332.966 255.075L330.078 256.72L326.668 258.645C325.866 259.087 325.746 259.769 326.428 260.13C327.069 260.491 328.273 260.41 329.075 259.969L332.485 258.043L334.891 259.327C337.539 260.772 342.272 260.451 345.481 258.645C348.73 256.76 349.171 254.152 346.564 252.708Z" fill="url(#paint7_linear)"/>
<path opacity="0.4" d="M312.389 236.87C312.572 229.871 303.099 223.944 291.229 223.632C279.358 223.321 269.587 228.742 269.403 235.741C269.22 242.741 278.693 248.667 290.563 248.979C302.434 249.291 312.205 243.869 312.389 236.87Z" fill="black"/>
<path d="M311.987 234.262C312.171 227.263 302.697 221.336 290.827 221.025C278.957 220.713 269.186 226.134 269.002 233.134C268.818 240.133 278.292 246.059 290.162 246.371C302.032 246.683 311.804 241.261 311.987 234.262Z" fill="#0F5454"/>
<path d="M311.93 229.595C312.114 222.596 302.64 216.669 290.77 216.357C278.9 216.046 269.128 221.467 268.944 228.466C268.761 235.466 278.234 241.392 290.105 241.704C301.975 242.015 311.746 236.594 311.93 229.595Z" fill="#00757A"/>
<path d="M311.93 229.595C312.114 222.596 302.64 216.669 290.77 216.357C278.9 216.046 269.128 221.467 268.944 228.466C268.761 235.466 278.234 241.392 290.105 241.704C301.975 242.015 311.746 236.594 311.93 229.595Z" stroke="url(#paint8_linear)" stroke-width="2" stroke-miterlimit="10"/>
<path d="M308.602 229.507C308.757 223.593 300.75 218.586 290.718 218.322C280.686 218.059 272.428 222.64 272.273 228.554C272.117 234.468 280.124 239.475 290.156 239.739C300.188 240.002 308.447 235.421 308.602 229.507Z" fill="#073837"/>
<path d="M307.612 230.08C307.759 224.476 300.195 219.731 290.716 219.483C281.238 219.234 273.435 223.575 273.288 229.179C273.141 234.783 280.706 239.527 290.184 239.776C299.662 240.025 307.465 235.684 307.612 230.08Z" fill="#0A5959"/>
<path d="M299.113 226.151C299.113 226.151 299.113 226.11 299.113 226.151C299.073 226.11 299.073 226.11 299.033 226.11C299.033 226.11 299.033 226.11 298.993 226.11C298.993 226.11 298.993 226.11 298.953 226.11H298.913C298.873 226.07 298.832 226.07 298.832 226.07L291.853 222.299C291.211 221.938 290.008 222.018 289.206 222.46C288.403 222.901 288.283 223.583 288.965 223.944L295.944 227.715C295.984 227.715 296.025 227.755 296.065 227.755C296.105 227.795 296.145 227.795 296.145 227.795C297.469 228.518 297.228 229.841 295.623 230.724C294.019 231.607 291.652 231.767 290.329 231.085L287.922 229.801L289.366 228.999L291.733 230.283C292.374 230.644 293.578 230.564 294.38 230.122C295.182 229.681 295.303 228.999 294.621 228.638L291.051 226.712L289.045 225.629C288.403 225.268 287.2 225.348 286.398 225.79C285.596 226.231 285.475 226.913 286.157 227.274L286.959 227.715L285.515 228.518L282.627 230.162L279.218 232.088C278.416 232.529 278.295 233.211 278.977 233.573C279.619 233.934 280.822 233.853 281.624 233.412L285.034 231.486L287.441 232.77C290.088 234.214 294.821 233.893 298.03 232.088C301.279 230.203 301.72 227.595 299.113 226.151Z" fill="#073837"/>
<path d="M298.993 225.428C298.953 225.428 298.953 225.428 298.993 225.428C298.953 225.388 298.953 225.388 298.913 225.388C298.913 225.388 298.913 225.388 298.872 225.388C298.872 225.388 298.872 225.388 298.832 225.388H298.792C298.752 225.348 298.712 225.348 298.712 225.348L291.733 221.577C291.091 221.215 289.887 221.296 289.085 221.737C288.283 222.178 288.163 222.86 288.844 223.221L295.824 226.993C295.864 226.993 295.904 227.033 295.944 227.033C295.984 227.073 296.024 227.073 296.024 227.073C297.348 227.795 297.107 229.119 295.503 230.001C293.899 230.884 291.532 231.045 290.208 230.363L287.802 229.079L289.246 228.276L291.612 229.56C292.254 229.921 293.457 229.841 294.26 229.4C295.062 228.958 295.182 228.276 294.5 227.915L290.93 225.99L288.925 224.906C288.283 224.545 287.08 224.626 286.277 225.067C285.475 225.508 285.355 226.19 286.037 226.551L286.839 226.993L285.395 227.795L282.507 229.44L279.097 231.365C278.295 231.807 278.175 232.489 278.857 232.85C279.498 233.211 280.702 233.131 281.504 232.689L284.914 230.764L287.32 232.047C289.968 233.492 294.701 233.171 297.91 231.365C301.119 229.48 301.6 226.872 298.993 225.428Z" fill="url(#paint9_linear)"/>
<path d="M442.736 369.059L386.514 338.626C377.8 333.916 377.8 326.267 386.514 321.557L442.736 291.124C451.451 286.414 465.546 286.414 474.22 291.124L530.442 321.557C539.157 326.267 539.157 333.916 530.442 338.626L474.22 369.059C465.506 373.769 451.41 373.769 442.736 369.059Z" stroke="url(#paint10_linear)" stroke-miterlimit="10"/>
<path d="M222.148 271.98L126.122 220.048C111.293 212.022 111.293 198.978 126.122 190.952L222.108 139.02C236.937 130.993 261.023 130.993 275.892 139.02L371.878 190.952C386.707 198.978 386.707 212.022 371.878 220.048L275.892 271.98C261.063 280.007 236.977 280.007 222.148 271.98Z" fill="url(#paint11_linear)"/>
<path d="M222.148 259.939L126.122 207.648C111.293 199.567 111.293 186.433 126.122 178.352L222.108 126.061C236.937 117.98 261.023 117.98 275.892 126.061L371.878 178.352C386.707 186.433 386.707 199.567 371.878 207.648L275.892 259.939C261.063 268.02 236.977 268.02 222.148 259.939Z" fill="url(#paint12_linear)"/>
<path d="M223.504 237.663L129.044 186.634C114.444 178.731 114.444 165.933 129.044 158.07L223.504 107.041C238.105 99.1377 261.81 99.1377 276.41 107.041L370.87 158.07C385.47 165.973 385.47 178.771 370.87 186.634L276.41 237.663C261.81 245.566 238.105 245.566 223.504 237.663Z" fill="#20283E"/>
<path d="M224.027 227.674L129.126 176.444C114.445 168.501 114.445 155.663 129.126 147.72L224.027 96.4501C238.708 88.5069 262.493 88.5069 277.174 96.4501L372.075 147.72C386.755 155.663 386.755 168.501 372.075 176.444L277.174 227.674C262.493 235.617 238.708 235.617 224.027 227.674Z" fill="#323A51"/>
<path d="M224.027 227.674L129.126 176.444C114.445 168.501 114.445 155.663 129.126 147.72L224.027 96.4501C238.708 88.5069 262.493 88.5069 277.174 96.4501L372.075 147.72C386.755 155.663 386.755 168.501 372.075 176.444L277.174 227.674C262.493 235.617 238.708 235.617 224.027 227.674Z" stroke="url(#paint13_linear)" stroke-width="2" stroke-miterlimit="10"/>
<path d="M231.158 200.399L172.784 169.205C163.739 164.397 163.739 156.568 172.784 151.76L231.158 120.606C240.203 115.798 254.837 115.798 263.842 120.606L322.216 151.76C331.261 156.568 331.261 164.397 322.216 169.205L263.842 200.359C254.837 205.207 240.203 205.207 231.158 200.399Z" fill="url(#paint14_linear)"/>
<path opacity="0.6" d="M280.785 147.583C280.75 147.547 280.714 147.547 280.679 147.511C280.644 147.475 280.608 147.475 280.573 147.439C280.537 147.439 280.502 147.403 280.502 147.403C280.467 147.403 280.467 147.367 280.431 147.367C280.396 147.331 280.325 147.331 280.29 147.295C280.184 147.222 280.078 147.15 279.936 147.078L254.22 132.838C251.78 131.504 247.393 131.793 244.422 133.487C241.451 135.182 241.026 137.669 243.467 139.003L269.183 153.243C269.324 153.315 269.43 153.387 269.572 153.459C269.678 153.531 269.82 153.603 269.926 153.676C274.807 156.379 273.958 161.318 268.016 164.743C262.073 168.168 253.336 168.745 248.455 166.041L239.611 161.174L244.988 158.074L253.796 162.941C256.237 164.274 260.623 163.986 263.594 162.292C266.53 160.597 266.99 158.11 264.549 156.776L251.32 149.458L243.998 145.384C241.557 144.05 237.171 144.338 234.199 146.033C231.228 147.727 230.804 150.215 233.244 151.549L236.18 153.171L230.804 156.271L220.05 162.436L207.529 169.646C204.593 171.34 204.133 173.828 206.573 175.162C209.014 176.496 213.4 176.207 216.372 174.513L228.894 167.303L237.737 172.17C247.499 177.577 265.009 176.424 276.859 169.61C288.673 162.832 290.406 152.991 280.785 147.583Z" fill="black"/>
<path d="M279.856 143.499C279.821 143.465 279.786 143.465 279.751 143.432C279.716 143.398 279.681 143.398 279.646 143.364C279.611 143.364 279.576 143.331 279.576 143.331C279.541 143.331 279.541 143.297 279.506 143.297C279.471 143.263 279.401 143.263 279.366 143.23C279.261 143.163 279.156 143.095 279.017 143.028L253.604 129.782C251.192 128.538 246.858 128.807 243.922 130.387C240.986 131.967 240.566 134.287 242.978 135.531L268.39 148.811C268.53 148.878 268.635 148.945 268.775 149.013C268.88 149.08 269.019 149.147 269.124 149.214C273.948 151.736 273.109 156.342 267.237 159.536C261.364 162.73 252.73 163.267 247.907 160.746L239.168 156.207L244.481 153.316L253.185 157.855C255.597 159.099 259.931 158.83 262.867 157.249C265.769 155.669 266.223 153.35 263.811 152.106L250.773 145.247L243.502 141.448C241.09 140.204 236.756 140.473 233.82 142.053C230.884 143.633 230.464 145.953 232.876 147.197L235.777 148.71L230.464 151.601L219.873 157.35L207.499 164.074C204.597 165.655 204.143 167.974 206.555 169.218C208.967 170.462 213.301 170.193 216.237 168.613L228.612 161.889L237.35 166.428C246.998 171.471 264.301 170.395 276.01 164.041C287.65 157.72 289.363 148.542 279.856 143.499Z" fill="url(#paint15_linear)"/>
<path opacity="0.4" d="M410.514 290.382C410.697 283.382 401.224 277.456 389.354 277.144C377.483 276.833 367.712 282.254 367.528 289.253C367.345 296.252 376.818 302.179 388.688 302.491C400.559 302.802 410.33 297.381 410.514 290.382Z" fill="black"/>
<path d="M410.113 287.774C410.296 280.775 400.823 274.848 388.953 274.536C377.082 274.225 367.311 279.646 367.127 286.645C366.944 293.645 376.417 299.571 388.287 299.883C400.157 300.194 409.929 294.773 410.113 287.774Z" fill="#0F5454"/>
<path d="M410.095 283.107C410.279 276.108 400.805 270.182 388.935 269.87C377.065 269.558 367.293 274.98 367.11 281.979C366.926 288.978 376.4 294.905 388.27 295.217C400.14 295.528 409.912 290.107 410.095 283.107Z" fill="#00757A"/>
<path d="M410.095 283.107C410.279 276.108 400.805 270.182 388.935 269.87C377.065 269.558 367.293 274.98 367.11 281.979C366.926 288.978 376.4 294.905 388.27 295.217C400.14 295.528 409.912 290.107 410.095 283.107Z" stroke="url(#paint16_linear)" stroke-width="2" stroke-miterlimit="10"/>
<path d="M406.767 283.02C406.922 277.106 398.915 272.098 388.883 271.835C378.851 271.572 370.593 276.152 370.438 282.066C370.283 287.98 378.289 292.988 388.321 293.251C398.353 293.515 406.612 288.934 406.767 283.02Z" fill="#073837"/>
<path d="M405.739 283.551C405.886 277.948 398.321 273.203 388.843 272.954C379.364 272.705 371.561 277.047 371.414 282.65C371.267 288.254 378.832 292.999 388.31 293.248C397.789 293.496 405.592 289.155 405.739 283.551Z" fill="#0A5959"/>
<path d="M397.263 279.627C397.223 279.587 397.223 279.587 397.183 279.587C397.183 279.587 397.183 279.587 397.143 279.587C397.143 279.587 397.143 279.587 397.103 279.587H397.063C397.023 279.546 396.983 279.546 396.983 279.546L390.003 275.775C389.361 275.414 388.158 275.494 387.356 275.936C386.554 276.377 386.433 277.059 387.115 277.42L394.095 281.191C394.135 281.191 394.175 281.231 394.215 281.231C394.255 281.271 394.295 281.272 394.295 281.272C395.619 281.994 395.378 283.318 393.774 284.2C392.169 285.123 389.803 285.243 388.479 284.561L386.072 283.277L387.516 282.475L389.883 283.759C390.525 284.12 391.728 284.04 392.53 283.598C393.332 283.157 393.453 282.475 392.771 282.114L389.201 280.188L387.195 279.105C386.554 278.744 385.35 278.824 384.548 279.266C383.746 279.707 383.625 280.389 384.307 280.75L385.11 281.191L383.666 281.994L380.777 283.638L377.368 285.564C376.566 286.006 376.445 286.688 377.127 287.049C377.769 287.41 378.972 287.329 379.775 286.888L383.184 284.962L385.591 286.246C388.238 287.69 392.971 287.37 396.18 285.564C399.389 283.679 399.871 281.071 397.263 279.627Z" fill="#073837"/>
<path d="M397.103 278.944C397.103 278.904 397.103 278.904 397.103 278.944C397.063 278.904 397.063 278.904 397.023 278.904C397.023 278.904 397.023 278.904 396.983 278.904C396.983 278.904 396.983 278.904 396.943 278.904H396.902C396.862 278.864 396.822 278.864 396.822 278.864L389.843 275.093C389.201 274.732 387.998 274.812 387.195 275.253C386.393 275.695 386.273 276.377 386.955 276.738L393.934 280.509C393.974 280.509 394.014 280.549 394.055 280.549C394.095 280.589 394.135 280.589 394.135 280.589C395.458 281.311 395.218 282.635 393.613 283.518C392.009 284.441 389.642 284.561 388.319 283.879L385.912 282.595L387.356 281.793L389.722 283.076C390.364 283.438 391.568 283.357 392.37 282.916C393.172 282.475 393.292 281.793 392.61 281.432L389.041 279.506L387.035 278.423C386.393 278.062 385.19 278.142 384.388 278.583C383.585 279.024 383.465 279.707 384.147 280.068L384.949 280.509L383.505 281.311L380.617 282.956L377.208 284.882C376.405 285.323 376.285 286.005 376.967 286.366C377.609 286.727 378.812 286.647 379.614 286.206L383.024 284.28L385.43 285.564C388.078 287.008 392.811 286.687 396.02 284.882C399.269 282.996 399.71 280.348 397.103 278.944Z" fill="url(#paint17_linear)"/>
<path opacity="0.4" d="M491 319.369C491.183 312.37 481.71 306.443 469.839 306.132C457.969 305.82 448.198 311.242 448.014 318.241C447.83 325.24 457.304 331.167 469.174 331.478C481.044 331.79 490.816 326.368 491 319.369Z" fill="black"/>
<path d="M490.598 316.762C490.782 309.762 481.308 303.836 469.438 303.524C457.568 303.212 447.796 308.634 447.613 315.633C447.429 322.632 456.903 328.559 468.773 328.871C480.643 329.182 490.415 323.761 490.598 316.762Z" fill="#0F5454"/>
<path d="M490.581 312.095C490.765 305.096 481.291 299.169 469.421 298.858C457.55 298.546 447.779 303.968 447.595 310.967C447.412 317.966 456.885 323.893 468.755 324.204C480.626 324.516 490.397 319.095 490.581 312.095Z" fill="#00757A"/>
<path d="M490.581 312.095C490.765 305.096 481.291 299.169 469.421 298.858C457.55 298.546 447.779 303.968 447.595 310.967C447.412 317.966 456.885 323.893 468.755 324.204C480.626 324.516 490.397 319.095 490.581 312.095Z" stroke="url(#paint18_linear)" stroke-width="2" stroke-miterlimit="10"/>
<path d="M487.253 312.008C487.408 306.094 479.401 301.086 469.369 300.823C459.337 300.559 451.079 305.14 450.923 311.054C450.768 316.968 458.775 321.976 468.807 322.239C478.839 322.502 487.097 317.922 487.253 312.008Z" fill="#073837"/>
<path d="M486.224 312.539C486.371 306.935 478.807 302.191 469.328 301.942C459.85 301.693 452.047 306.034 451.9 311.638C451.753 317.242 459.317 321.986 468.796 322.235C478.274 322.484 486.077 318.143 486.224 312.539Z" fill="#0A5959"/>
<path d="M477.754 308.605C477.714 308.565 477.714 308.565 477.674 308.565C477.674 308.565 477.674 308.565 477.634 308.565C477.634 308.565 477.634 308.565 477.594 308.565H477.554C477.513 308.525 477.473 308.525 477.473 308.525L470.494 304.754C469.852 304.393 468.649 304.473 467.846 304.914C467.044 305.356 466.924 306.038 467.606 306.399L474.585 310.17C474.625 310.17 474.665 310.21 474.706 310.21C474.746 310.25 474.786 310.25 474.786 310.25C476.11 310.972 475.869 312.296 474.264 313.179C472.66 314.102 470.293 314.222 468.97 313.54L466.563 312.256L468.007 311.454L470.374 312.738C471.015 313.099 472.219 313.018 473.021 312.577C473.823 312.136 473.943 311.454 473.262 311.093L469.692 309.167L467.686 308.084C467.044 307.723 465.841 307.803 465.039 308.244C464.236 308.686 464.116 309.368 464.798 309.729L465.6 310.17L464.156 310.972L461.268 312.617L457.859 314.543C457.056 314.984 456.936 315.666 457.618 316.027C458.26 316.388 459.463 316.308 460.265 315.867L463.675 313.941L466.082 315.225C468.729 316.669 473.462 316.348 476.671 314.543C479.88 312.657 480.361 310.05 477.754 308.605Z" fill="#073837"/>
<path d="M477.594 307.924C477.553 307.883 477.553 307.883 477.513 307.883C477.513 307.883 477.513 307.883 477.473 307.883C477.473 307.883 477.473 307.883 477.433 307.883H477.393C477.353 307.843 477.313 307.843 477.313 307.843L470.333 304.072C469.692 303.711 468.488 303.791 467.686 304.233C466.884 304.674 466.763 305.356 467.445 305.717L474.425 309.488C474.465 309.488 474.505 309.528 474.545 309.528C474.585 309.568 474.625 309.568 474.625 309.568C475.949 310.291 475.708 311.614 474.104 312.497C472.499 313.42 470.133 313.54 468.809 312.858L466.402 311.574L467.846 310.772L470.213 312.056C470.855 312.417 472.058 312.337 472.86 311.895C473.663 311.454 473.783 310.772 473.101 310.411L469.531 308.485L467.526 307.402C466.884 307.041 465.68 307.121 464.878 307.562C464.076 308.004 463.956 308.686 464.637 309.047L465.44 309.488L463.996 310.291L461.108 311.935L457.698 313.861C456.896 314.302 456.776 314.984 457.457 315.345C458.099 315.707 459.303 315.626 460.105 315.185L463.514 313.259L465.921 314.543C468.568 315.987 473.302 315.666 476.511 313.861C479.76 311.976 480.201 309.368 477.594 307.924Z" fill="url(#paint19_linear)"/>
<path opacity="0.4" d="M508.648 330.771C508.832 323.772 499.358 317.845 487.488 317.533C475.618 317.222 465.847 322.643 465.663 329.642C465.479 336.642 474.953 342.568 486.823 342.88C498.693 343.191 508.465 337.77 508.648 330.771Z" fill="black"/>
<path d="M508.247 328.163C508.431 321.164 498.957 315.237 487.087 314.925C475.217 314.614 465.446 320.035 465.262 327.034C465.078 334.034 474.552 339.96 486.422 340.272C498.292 340.584 508.064 335.162 508.247 328.163Z" fill="#0F5454"/>
<path d="M508.23 323.497C508.414 316.497 498.94 310.571 487.07 310.259C475.2 309.948 465.428 315.369 465.244 322.368C465.061 329.367 474.535 335.294 486.405 335.606C498.275 335.917 508.046 330.496 508.23 323.497Z" fill="#00757A"/>
<path d="M508.23 323.497C508.414 316.497 498.94 310.571 487.07 310.259C475.2 309.948 465.428 315.369 465.244 322.368C465.061 329.367 474.535 335.294 486.405 335.606C498.275 335.917 508.046 330.496 508.23 323.497Z" stroke="url(#paint20_linear)" stroke-width="2" stroke-miterlimit="10"/>
<path d="M504.902 323.409C505.057 317.495 497.05 312.487 487.018 312.224C476.986 311.961 468.728 316.542 468.572 322.455C468.417 328.369 476.424 333.377 486.456 333.64C496.488 333.904 504.747 329.323 504.902 323.409Z" fill="#073837"/>
<path d="M503.873 323.941C504.02 318.337 496.456 313.592 486.977 313.343C477.499 313.095 469.696 317.436 469.549 323.04C469.402 328.643 476.966 333.388 486.445 333.637C495.923 333.886 503.726 329.545 503.873 323.941Z" fill="#0A5959"/>
<path d="M495.403 320.008C495.363 319.968 495.363 319.968 495.323 319.968C495.323 319.968 495.323 319.968 495.283 319.968C495.283 319.968 495.283 319.968 495.242 319.968H495.202C495.162 319.928 495.122 319.928 495.122 319.928L488.143 316.157C487.501 315.796 486.298 315.876 485.495 316.317C484.693 316.758 484.573 317.44 485.255 317.801L492.234 321.573C492.274 321.573 492.314 321.613 492.354 321.613C492.395 321.653 492.435 321.653 492.435 321.653C493.758 322.375 493.518 323.699 491.913 324.582C490.309 325.504 487.942 325.625 486.618 324.943L484.212 323.659L485.656 322.856L488.022 324.14C488.664 324.501 489.868 324.421 490.67 323.98C491.472 323.538 491.592 322.856 490.91 322.495L487.34 320.57L485.335 319.486C484.693 319.125 483.49 319.206 482.687 319.647C481.885 320.088 481.765 320.77 482.447 321.131L483.249 321.573L481.805 322.375L478.917 324.02L475.507 325.946C474.705 326.387 474.585 327.069 475.267 327.43C475.909 327.791 477.112 327.711 477.914 327.27L481.324 325.344L483.73 326.628C486.378 328.072 491.111 327.751 494.32 325.946C497.529 324.06 498.01 321.452 495.403 320.008Z" fill="#073837"/>
<path d="M495.243 319.327C495.203 319.286 495.202 319.286 495.162 319.286C495.162 319.286 495.162 319.286 495.122 319.286C495.122 319.286 495.122 319.286 495.082 319.286H495.042C495.002 319.246 494.962 319.246 494.962 319.246L487.982 315.475C487.341 315.114 486.137 315.194 485.335 315.636C484.533 316.077 484.412 316.759 485.094 317.12L492.074 320.891C492.114 320.891 492.154 320.931 492.194 320.931C492.234 320.971 492.274 320.971 492.274 320.971C493.598 321.694 493.357 323.017 491.753 323.9C490.148 324.823 487.782 324.943 486.458 324.261L484.051 322.977L485.495 322.175L487.862 323.459C488.504 323.82 489.707 323.74 490.509 323.298C491.312 322.857 491.432 322.175 490.75 321.814L487.18 319.888L485.175 318.805C484.533 318.444 483.329 318.524 482.527 318.966C481.725 319.407 481.605 320.089 482.287 320.45L483.089 320.891L481.645 321.694L478.757 323.338L475.347 325.264C474.545 325.705 474.425 326.387 475.107 326.749C475.748 327.11 476.952 327.029 477.754 326.588L481.163 324.662L483.57 325.946C486.217 327.39 490.951 327.069 494.16 325.264C497.409 323.379 497.85 320.771 495.243 319.327Z" fill="url(#paint21_linear)"/>
<path opacity="0.4" d="M482.203 347.154C482.387 340.154 472.913 334.228 461.043 333.916C449.173 333.604 439.401 339.026 439.218 346.025C439.034 353.024 448.508 358.951 460.378 359.263C472.248 359.574 482.019 354.153 482.203 347.154Z" fill="black"/>
<path d="M481.802 344.546C481.986 337.547 472.512 331.62 460.642 331.308C448.772 330.997 439 336.418 438.816 343.418C438.633 350.417 448.106 356.343 459.977 356.655C471.847 356.967 481.618 351.545 481.802 344.546Z" fill="#0F5454"/>
<path d="M481.744 339.878C481.928 332.879 472.454 326.952 460.584 326.641C448.714 326.329 438.943 331.751 438.759 338.75C438.575 345.749 448.049 351.676 459.919 351.987C471.789 352.299 481.561 346.878 481.744 339.878Z" fill="#00757A"/>
<path d="M481.744 339.878C481.928 332.879 472.454 326.952 460.584 326.641C448.714 326.329 438.943 331.751 438.759 338.75C438.575 345.749 448.049 351.676 459.919 351.987C471.789 352.299 481.561 346.878 481.744 339.878Z" stroke="url(#paint22_linear)" stroke-width="2" stroke-miterlimit="10"/>
<path d="M478.416 339.791C478.571 333.877 470.565 328.869 460.533 328.606C450.501 328.343 442.242 332.923 442.087 338.837C441.932 344.751 449.938 349.759 459.971 350.022C470.003 350.286 478.261 345.705 478.416 339.791Z" fill="#073837"/>
<path d="M477.428 340.323C477.575 334.72 470.01 329.975 460.532 329.726C451.053 329.477 443.25 333.819 443.103 339.422C442.956 345.026 450.521 349.771 459.999 350.02C469.478 350.268 477.281 345.927 477.428 340.323Z" fill="#0A5959"/>
<path d="M468.93 336.416C468.93 336.416 468.93 336.376 468.93 336.416C468.89 336.376 468.89 336.376 468.85 336.376C468.85 336.376 468.85 336.376 468.81 336.376C468.81 336.376 468.81 336.376 468.77 336.376H468.73C468.689 336.335 468.649 336.335 468.649 336.335L461.67 332.564C461.028 332.203 459.825 332.283 459.023 332.725C458.22 333.166 458.1 333.848 458.782 334.209L465.761 337.98C465.801 337.98 465.841 338.02 465.882 338.02C465.922 338.061 465.962 338.061 465.962 338.061C467.286 338.783 467.045 340.107 465.44 340.989C463.836 341.912 461.469 342.032 460.146 341.35L457.739 340.066L459.183 339.264L461.55 340.548C462.191 340.909 463.395 340.829 464.197 340.387C464.999 339.946 465.119 339.264 464.438 338.903L460.868 336.977L458.862 335.894C458.22 335.533 457.017 335.613 456.215 336.055C455.412 336.496 455.292 337.178 455.974 337.539L456.776 337.98L455.332 338.783L452.444 340.428L449.035 342.353C448.232 342.795 448.112 343.477 448.794 343.838C449.436 344.199 450.639 344.118 451.441 343.677L454.851 341.751L457.258 343.035C459.905 344.48 464.638 344.159 467.847 342.353C471.056 340.468 471.537 337.82 468.93 336.416Z" fill="#073837"/>
<path d="M468.77 335.694C468.73 335.654 468.73 335.654 468.69 335.654C468.69 335.654 468.69 335.654 468.649 335.654C468.649 335.654 468.649 335.654 468.609 335.654H468.569C468.529 335.614 468.489 335.614 468.489 335.614L461.51 331.843C460.868 331.482 459.664 331.562 458.862 332.003C458.06 332.444 457.94 333.126 458.621 333.488L465.601 337.259C465.641 337.259 465.681 337.299 465.721 337.299C465.761 337.339 465.801 337.339 465.801 337.339C467.125 338.061 466.884 339.385 465.28 340.268C463.676 341.19 461.309 341.311 459.985 340.629L457.579 339.345L459.023 338.542L461.389 339.826C462.031 340.187 463.234 340.107 464.037 339.666C464.839 339.224 464.959 338.542 464.277 338.181L460.707 336.256L458.702 335.172C458.06 334.811 456.857 334.892 456.054 335.333C455.252 335.774 455.132 336.456 455.814 336.817L456.616 337.259L455.172 338.061L452.284 339.706L448.874 341.632C448.072 342.073 447.952 342.755 448.634 343.116C449.275 343.477 450.479 343.397 451.281 342.955L454.691 341.03L457.097 342.314C459.745 343.758 464.478 343.437 467.687 341.632C470.936 339.746 471.377 337.138 468.77 335.694Z" fill="url(#paint23_linear)"/>
<path opacity="0.4" d="M453.096 331.976C453.28 324.977 443.806 319.05 431.936 318.739C420.066 318.427 410.294 323.848 410.111 330.848C409.927 337.847 419.401 343.774 431.271 344.085C443.141 344.397 452.912 338.975 453.096 331.976Z" fill="black"/>
<path d="M452.695 329.368C452.878 322.369 443.405 316.443 431.535 316.131C419.664 315.819 409.893 321.241 409.709 328.24C409.525 335.239 418.999 341.166 430.869 341.478C442.74 341.789 452.511 336.368 452.695 329.368Z" fill="#0F5454"/>
<path d="M452.677 324.702C452.861 317.703 443.387 311.776 431.517 311.465C419.647 311.153 409.875 316.575 409.692 323.574C409.508 330.573 418.982 336.5 430.852 336.811C442.722 337.123 452.494 331.701 452.677 324.702Z" fill="#00757A"/>
<path d="M452.677 324.702C452.861 317.703 443.387 311.776 431.517 311.465C419.647 311.153 409.875 316.575 409.692 323.574C409.508 330.573 418.982 336.5 430.852 336.811C442.722 337.123 452.494 331.701 452.677 324.702Z" stroke="url(#paint24_linear)" stroke-width="2" stroke-miterlimit="10"/>
<path d="M449.349 324.615C449.504 318.701 441.497 313.693 431.465 313.43C421.433 313.166 413.175 317.747 413.02 323.661C412.865 329.575 420.871 334.583 430.903 334.846C440.935 335.109 449.194 330.529 449.349 324.615Z" fill="#073837"/>
<path d="M448.32 325.146C448.468 319.542 440.903 314.798 431.425 314.549C421.946 314.3 414.143 318.641 413.996 324.245C413.849 329.849 421.414 334.594 430.892 334.842C440.37 335.091 448.173 330.75 448.32 325.146Z" fill="#0A5959"/>
<path d="M439.85 321.211C439.81 321.171 439.81 321.171 439.77 321.171C439.77 321.171 439.77 321.171 439.73 321.171C439.73 321.171 439.73 321.171 439.69 321.171H439.65C439.61 321.131 439.569 321.131 439.569 321.131L432.59 317.36C431.948 316.999 430.745 317.079 429.943 317.52C429.14 317.961 429.02 318.644 429.702 319.005L436.681 322.776C436.722 322.776 436.762 322.816 436.802 322.816C436.842 322.856 436.882 322.856 436.882 322.856C438.206 323.578 437.965 324.902 436.361 325.785C434.756 326.707 432.389 326.828 431.066 326.146L428.659 324.862L430.103 324.06L432.47 325.343C433.111 325.704 434.315 325.624 435.117 325.183C435.919 324.742 436.04 324.06 435.358 323.698L431.788 321.773L429.782 320.69C429.14 320.328 427.937 320.409 427.135 320.85C426.333 321.291 426.212 321.973 426.894 322.334L427.696 322.776L426.252 323.578L423.364 325.223L419.955 327.149C419.153 327.59 419.032 328.272 419.714 328.633C420.356 328.994 421.559 328.914 422.361 328.473L425.771 326.547L428.178 327.831C430.825 329.275 435.558 328.954 438.767 327.149C441.976 325.263 442.458 322.655 439.85 321.211Z" fill="#073837"/>
<path d="M439.69 320.529C439.65 320.489 439.65 320.489 439.61 320.489C439.61 320.489 439.61 320.489 439.569 320.489C439.569 320.489 439.569 320.489 439.529 320.489H439.489C439.449 320.449 439.409 320.449 439.409 320.449L432.43 316.678C431.788 316.317 430.584 316.397 429.782 316.838C428.98 317.28 428.86 317.962 429.542 318.323L436.521 322.094C436.561 322.094 436.601 322.134 436.641 322.134C436.681 322.174 436.722 322.174 436.722 322.174C438.045 322.896 437.805 324.22 436.2 325.103C434.596 326.025 432.229 326.146 430.905 325.464L428.499 324.18L429.943 323.378L432.309 324.661C432.951 325.023 434.154 324.942 434.957 324.501C435.759 324.06 435.879 323.378 435.197 323.017L431.627 321.091L429.622 320.008C428.98 319.647 427.777 319.727 426.974 320.168C426.172 320.609 426.052 321.291 426.734 321.653L427.536 322.094L426.092 322.896L423.204 324.541L419.794 326.467C418.992 326.908 418.872 327.59 419.554 327.951C420.195 328.312 421.399 328.232 422.201 327.791L425.611 325.865L428.017 327.149C430.665 328.593 435.398 328.272 438.607 326.467C441.856 324.581 442.297 321.973 439.69 320.529Z" fill="url(#paint25_linear)"/>
<path opacity="0.4" d="M477.362 317.934C477.546 310.934 468.072 305.008 456.202 304.696C444.332 304.384 434.56 309.806 434.377 316.805C434.193 323.804 443.667 329.731 455.537 330.043C467.407 330.354 477.179 324.933 477.362 317.934Z" fill="black"/>
<path d="M476.961 315.326C477.145 308.327 467.671 302.4 455.801 302.089C443.931 301.777 434.159 307.199 433.975 314.198C433.792 321.197 443.265 327.124 455.135 327.435C467.006 327.747 476.777 322.325 476.961 315.326Z" fill="#0F5454"/>
<path d="M476.943 310.659C477.127 303.66 467.653 297.734 455.783 297.422C443.913 297.11 434.141 302.532 433.958 309.531C433.774 316.53 443.248 322.457 455.118 322.769C466.988 323.08 476.76 317.659 476.943 310.659Z" fill="#00757A"/>
<path d="M476.943 310.659C477.127 303.66 467.653 297.734 455.783 297.422C443.913 297.11 434.141 302.532 433.958 309.531C433.774 316.53 443.248 322.457 455.118 322.769C466.988 323.08 476.76 317.659 476.943 310.659Z" stroke="url(#paint26_linear)" stroke-width="2" stroke-miterlimit="10"/>
<path d="M473.615 310.572C473.77 304.659 465.763 299.651 455.731 299.387C445.699 299.124 437.441 303.705 437.286 309.619C437.131 315.533 445.137 320.54 455.169 320.804C465.201 321.067 473.46 316.486 473.615 310.572Z" fill="#073837"/>
<path d="M472.587 311.104C472.734 305.5 465.169 300.756 455.691 300.507C446.212 300.258 438.409 304.599 438.262 310.203C438.115 315.807 445.68 320.551 455.158 320.8C464.637 321.049 472.439 316.708 472.587 311.104Z" fill="#0A5959"/>
<path d="M464.117 307.17C464.077 307.13 464.077 307.13 464.037 307.13C464.037 307.13 464.037 307.13 463.997 307.13C463.997 307.13 463.997 307.13 463.957 307.13H463.916C463.876 307.09 463.836 307.09 463.836 307.09L456.857 303.319C456.215 302.958 455.012 303.038 454.209 303.479C453.407 303.92 453.287 304.602 453.969 304.964L460.948 308.735C460.988 308.735 461.028 308.775 461.069 308.775C461.109 308.815 461.149 308.815 461.149 308.815C462.472 309.537 462.232 310.861 460.627 311.744C459.023 312.666 456.656 312.787 455.333 312.105L452.926 310.821L454.37 310.019L456.736 311.302C457.378 311.663 458.582 311.583 459.384 311.142C460.186 310.701 460.306 310.019 459.625 309.657L456.055 307.732L454.049 306.649C453.407 306.287 452.204 306.368 451.402 306.809C450.599 307.25 450.479 307.932 451.161 308.293L451.963 308.735L450.519 309.537L447.631 311.182L444.222 313.108C443.419 313.549 443.299 314.231 443.981 314.592C444.623 314.953 445.826 314.873 446.628 314.432L450.038 312.506L452.445 313.79C455.092 315.234 459.825 314.913 463.034 313.108C466.243 311.222 466.724 308.614 464.117 307.17Z" fill="#073837"/>
<path d="M463.957 306.488C463.917 306.448 463.917 306.448 463.876 306.448C463.876 306.448 463.876 306.448 463.836 306.448C463.836 306.448 463.836 306.448 463.796 306.448H463.756C463.716 306.408 463.676 306.408 463.676 306.408L456.696 302.637C456.055 302.275 454.851 302.356 454.049 302.797C453.247 303.238 453.126 303.92 453.808 304.281L460.788 308.053C460.828 308.053 460.868 308.093 460.908 308.093C460.948 308.133 460.988 308.133 460.988 308.133C462.312 308.855 462.071 310.179 460.467 311.062C458.862 311.984 456.496 312.105 455.172 311.423L452.765 310.139L454.209 309.336L456.576 310.62C457.218 310.981 458.421 310.901 459.223 310.46C460.026 310.018 460.146 309.336 459.464 308.975L455.894 307.05L453.889 305.966C453.247 305.605 452.043 305.686 451.241 306.127C450.439 306.568 450.319 307.25 451.001 307.611L451.803 308.053L450.359 308.855L447.471 310.5L444.061 312.426C443.259 312.867 443.139 313.549 443.821 313.91C444.462 314.271 445.666 314.191 446.468 313.749L449.877 311.824L452.284 313.108C454.931 314.552 459.665 314.231 462.874 312.426C466.123 310.54 466.564 307.932 463.957 306.488Z" fill="url(#paint27_linear)"/>
<path opacity="0.4" d="M470.21 334.57C470.394 327.571 460.92 321.644 449.05 321.332C437.18 321.021 427.408 326.442 427.224 333.441C427.041 340.441 436.515 346.367 448.385 346.679C460.255 346.991 470.026 341.569 470.21 334.57Z" fill="black"/>
<path d="M469.809 331.962C469.993 324.963 460.519 319.036 448.649 318.725C436.779 318.413 427.007 323.835 426.823 330.834C426.64 337.833 436.114 343.76 447.984 344.071C459.854 344.383 469.625 338.961 469.809 331.962Z" fill="#0F5454"/>
<path d="M469.791 327.295C469.975 320.296 460.501 314.37 448.631 314.058C436.761 313.746 426.99 319.168 426.806 326.167C426.622 333.166 436.096 339.093 447.966 339.405C459.836 339.716 469.608 334.295 469.791 327.295Z" fill="#00757A"/>
<path d="M469.791 327.295C469.975 320.296 460.501 314.37 448.631 314.058C436.761 313.746 426.99 319.168 426.806 326.167C426.622 333.166 436.096 339.093 447.966 339.405C459.836 339.716 469.608 334.295 469.791 327.295Z" stroke="url(#paint28_linear)" stroke-width="2" stroke-miterlimit="10"/>
<path d="M466.463 327.208C466.618 321.295 458.612 316.287 448.58 316.024C438.548 315.76 430.289 320.341 430.134 326.255C429.979 332.169 437.986 337.176 448.018 337.44C458.05 337.703 466.308 333.122 466.463 327.208Z" fill="#073837"/>
<path d="M465.435 327.74C465.582 322.136 458.017 317.392 448.539 317.143C439.061 316.894 431.258 321.235 431.111 326.839C430.963 332.443 438.528 337.187 448.006 337.436C457.485 337.685 465.288 333.344 465.435 327.74Z" fill="#0A5959"/>
<path d="M456.977 323.819C456.977 323.819 456.937 323.819 456.977 323.819C456.937 323.779 456.937 323.779 456.897 323.779C456.897 323.779 456.897 323.779 456.857 323.779C456.857 323.779 456.857 323.779 456.817 323.779H456.777C456.737 323.739 456.697 323.739 456.697 323.739L449.717 319.968C449.075 319.607 447.872 319.687 447.07 320.128C446.268 320.569 446.147 321.251 446.829 321.612L453.809 325.384C453.849 325.384 453.889 325.424 453.929 325.424C453.969 325.464 454.009 325.464 454.009 325.464C455.333 326.186 455.092 327.51 453.488 328.393C451.883 329.315 449.517 329.436 448.193 328.754L445.786 327.47L447.23 326.667L449.597 327.951C450.239 328.312 451.442 328.232 452.244 327.791C453.047 327.349 453.167 326.667 452.485 326.306L448.915 324.381L446.909 323.297C446.268 322.936 445.064 323.017 444.262 323.458C443.46 323.899 443.339 324.581 444.021 324.942L444.824 325.384L443.38 326.186L440.492 327.831L437.082 329.757C436.28 330.198 436.159 330.88 436.841 331.241C437.483 331.602 438.687 331.522 439.489 331.081L442.898 329.155L445.305 330.439C447.952 331.883 452.686 331.562 455.894 329.757C459.103 327.871 459.585 325.263 456.977 323.819Z" fill="#073837"/>
<path d="M456.817 323.137C456.777 323.097 456.777 323.097 456.737 323.097C456.737 323.097 456.737 323.097 456.697 323.097C456.697 323.097 456.697 323.097 456.657 323.097H456.616C456.576 323.056 456.536 323.056 456.536 323.056L449.557 319.285C448.915 318.924 447.712 319.004 446.909 319.446C446.107 319.887 445.987 320.569 446.669 320.93L453.648 324.701C453.688 324.701 453.728 324.741 453.769 324.741C453.809 324.781 453.849 324.782 453.849 324.782C455.172 325.504 454.932 326.828 453.327 327.71C451.723 328.633 449.356 328.753 448.033 328.071L445.626 326.787L447.07 325.985L449.436 327.269C450.078 327.63 451.282 327.55 452.084 327.108C452.886 326.667 453.006 325.985 452.325 325.624L448.755 323.698L446.749 322.615C446.107 322.254 444.904 322.334 444.102 322.776C443.299 323.217 443.179 323.899 443.861 324.26L444.663 324.701L443.219 325.504L440.331 327.148L436.922 329.074C436.119 329.516 435.999 330.198 436.681 330.559C437.323 330.92 438.526 330.839 439.328 330.398L442.738 328.472L445.144 329.756C447.792 331.2 452.525 330.88 455.734 329.074C458.943 327.189 459.424 324.581 456.817 323.137Z" fill="url(#paint29_linear)"/>
<path opacity="0.4" d="M429.36 335.261C439.702 329.427 445.298 319.753 441.858 313.655C438.419 307.557 427.247 307.343 416.905 313.178C406.564 319.012 400.968 328.685 404.407 334.784C407.846 340.882 419.018 341.096 429.36 335.261Z" fill="black"/>
<path d="M427.668 333.218C438.01 327.383 443.606 317.71 440.166 311.611C436.727 305.513 425.555 305.3 415.213 311.134C404.871 316.969 399.276 326.642 402.715 332.74C406.154 338.838 417.326 339.052 427.668 333.218Z" fill="#0F5454"/>
<path d="M425.267 329.232C435.609 323.397 441.204 313.724 437.765 307.626C434.326 301.527 423.154 301.314 412.812 307.148C402.47 312.983 396.874 322.656 400.314 328.754C403.753 334.853 414.925 335.066 425.267 329.232Z" fill="#00757A"/>
<path d="M425.267 329.232C435.609 323.397 441.204 313.724 437.765 307.626C434.326 301.527 423.154 301.314 412.812 307.148C402.47 312.983 396.874 322.656 400.314 328.754C403.753 334.853 414.925 335.066 425.267 329.232Z" stroke="url(#paint30_linear)" stroke-width="2" stroke-miterlimit="10"/>
<path d="M424.301 327.52C433.042 322.589 437.771 314.414 434.866 309.262C431.96 304.109 422.518 303.93 413.778 308.861C405.037 313.792 400.307 321.966 403.213 327.119C406.119 332.271 415.561 332.451 424.301 327.52Z" fill="#073837"/>
<path d="M424.297 327.515C432.555 322.856 437.018 315.121 434.264 310.238C431.511 305.356 422.584 305.175 414.326 309.834C406.068 314.493 401.605 322.228 404.359 327.11C407.112 331.992 416.039 332.173 424.297 327.515Z" fill="#0A5959"/>
<path d="M424.969 311.222C424.929 311.222 424.929 311.222 424.889 311.222C424.889 311.222 424.889 311.222 424.849 311.222C424.849 311.222 424.849 311.222 424.809 311.222H424.769C424.728 311.222 424.688 311.222 424.648 311.222L416.746 311.543C415.984 311.583 415.021 312.265 414.58 313.068C414.139 313.87 414.38 314.472 415.102 314.472L423.004 314.151C423.044 314.151 423.084 314.151 423.124 314.151C423.164 314.151 423.204 314.151 423.244 314.151C424.728 314.071 425.21 315.314 424.327 316.919C423.405 318.524 421.479 319.888 419.955 319.928L417.227 320.048L418.07 318.604L420.797 318.484C421.56 318.444 422.522 317.762 422.963 316.959C423.405 316.157 423.164 315.555 422.442 315.555L418.391 315.716L416.144 315.796C415.382 315.836 414.42 316.518 413.978 317.32C413.537 318.123 413.778 318.725 414.5 318.725L415.422 318.684L414.58 320.129L412.936 323.017L411.01 326.387C410.569 327.19 410.81 327.791 411.532 327.791C412.294 327.751 413.256 327.069 413.698 326.267L415.623 322.897L418.351 322.777C421.359 322.656 425.25 319.968 427.095 316.759C428.9 313.629 427.977 311.142 424.969 311.222Z" fill="#073837"/>
<path d="M424.488 310.701C424.448 310.701 424.448 310.701 424.407 310.701C424.407 310.701 424.407 310.701 424.367 310.701C424.367 310.701 424.367 310.701 424.327 310.701H424.287C424.247 310.701 424.207 310.701 424.167 310.701L416.265 311.022C415.503 311.062 414.54 311.744 414.099 312.546C413.658 313.349 413.898 313.95 414.62 313.95L422.522 313.63C422.562 313.63 422.602 313.63 422.643 313.63C422.683 313.63 422.723 313.63 422.763 313.63C424.247 313.549 424.728 314.793 423.846 316.398C422.923 318.002 420.998 319.367 419.474 319.407L416.746 319.527L417.588 318.083L420.316 317.962C421.078 317.922 422.041 317.24 422.482 316.438C422.923 315.635 422.683 315.034 421.961 315.034L417.909 315.194L415.663 315.274C414.901 315.315 413.938 315.997 413.497 316.799C413.056 317.601 413.297 318.203 414.019 318.203L414.941 318.163L414.099 319.607L412.454 322.496L410.529 325.866C410.088 326.668 410.328 327.27 411.05 327.27C411.812 327.23 412.775 326.548 413.216 325.745L415.142 322.375L417.869 322.255C420.878 322.135 424.768 319.447 426.614 316.237C428.419 313.108 427.456 310.621 424.488 310.701Z" fill="url(#paint31_linear)"/>
<path d="M360.748 66.5029C363.888 60.6071 361.118 53.9743 352.472 49.2945L270.455 5.11277C257.783 -1.70426 237.205 -1.70426 224.533 5.11277L142.515 49.2945C133.279 54.2691 130.767 61.4914 134.979 67.682L165.714 160.395C165.825 161.279 166.455 162.471 166.973 163.319L167.822 164.226L168.65 164.99C169.759 166.39 171 166.953 173.143 168.095L231.22 199.38C240.197 204.207 254.79 204.207 263.768 199.38L321.845 168.095C327.572 165 328.791 161.831 330.195 157.298L360.748 66.5029Z" fill="url(#paint32_linear)"/>
<defs>
<linearGradient id="paint0_linear" x1="60.9833" y1="227.012" x2="447.986" y2="227.012" gradientUnits="userSpaceOnUse">
<stop stop-color="#00FFED" stop-opacity="0.1"/>
<stop offset="0.3567" stop-color="#00FFEB" stop-opacity="0.2786"/>
<stop offset="0.5103" stop-color="#00FEE4" stop-opacity="0.3555"/>
<stop offset="0.6249" stop-color="#00FCD7" stop-opacity="0.4128"/>
<stop offset="0.7201" stop-color="#00F9C5" stop-opacity="0.4605"/>
<stop offset="0.8033" stop-color="#00F6AE" stop-opacity="0.5022"/>
<stop offset="0.8781" stop-color="#00F292" stop-opacity="0.5396"/>
<stop offset="0.9451" stop-color="#00EE71" stop-opacity="0.5731"/>
<stop offset="0.9988" stop-color="#00E950" stop-opacity="0.6"/>
</linearGradient>
<linearGradient id="paint1_linear" x1="60.5834" y1="227.012" x2="448.386" y2="227.012" gradientUnits="userSpaceOnUse">
<stop offset="0.00121702" stop-color="#00FFED"/>
<stop offset="0.3575" stop-color="#00FFEB" stop-opacity="0.8571"/>
<stop offset="0.5109" stop-color="#00FEE4" stop-opacity="0.7956"/>
<stop offset="0.6253" stop-color="#00FCD7" stop-opacity="0.7497"/>
<stop offset="0.7205" stop-color="#00F9C5" stop-opacity="0.7116"/>
<stop offset="0.8036" stop-color="#00F6AE" stop-opacity="0.6783"/>
<stop offset="0.8783" stop-color="#00F292" stop-opacity="0.6483"/>
<stop offset="0.9452" stop-color="#00EE71" stop-opacity="0.6215"/>
<stop offset="0.9988" stop-color="#00E950" stop-opacity="0.6"/>
</linearGradient>
<linearGradient id="paint2_linear" x1="114.234" y1="220.375" x2="383.294" y2="220.375" gradientUnits="userSpaceOnUse">
<stop offset="0.00121702" stop-color="#00FFED"/>
<stop offset="0.3575" stop-color="#00FFEB" stop-opacity="0.8571"/>
<stop offset="0.5109" stop-color="#00FEE4" stop-opacity="0.7956"/>
<stop offset="0.6253" stop-color="#00FCD7" stop-opacity="0.7497"/>
<stop offset="0.7205" stop-color="#00F9C5" stop-opacity="0.7116"/>
<stop offset="0.8036" stop-color="#00F6AE" stop-opacity="0.6783"/>
<stop offset="0.8783" stop-color="#00F292" stop-opacity="0.6483"/>
<stop offset="0.9452" stop-color="#00EE71" stop-opacity="0.6215"/>
<stop offset="0.9988" stop-color="#00E950" stop-opacity="0.6"/>
</linearGradient>
<linearGradient id="paint3_linear" x1="349.396" y1="334.527" x2="576.243" y2="334.527" gradientUnits="userSpaceOnUse">
<stop stop-color="#00FFED" stop-opacity="0.1"/>
<stop offset="0.3567" stop-color="#00FFEB" stop-opacity="0.2786"/>
<stop offset="0.5103" stop-color="#00FEE4" stop-opacity="0.3555"/>
<stop offset="0.6249" stop-color="#00FCD7" stop-opacity="0.4128"/>
<stop offset="0.7201" stop-color="#00F9C5" stop-opacity="0.4605"/>
<stop offset="0.8033" stop-color="#00F6AE" stop-opacity="0.5022"/>
<stop offset="0.8781" stop-color="#00F292" stop-opacity="0.5396"/>
<stop offset="0.9451" stop-color="#00EE71" stop-opacity="0.5731"/>
<stop offset="0.9988" stop-color="#00E950" stop-opacity="0.6"/>
</linearGradient>
<linearGradient id="paint4_linear" x1="348.193" y1="334.26" x2="575.842" y2="334.26" gradientUnits="userSpaceOnUse">
<stop offset="0.00121702" stop-color="#00FFED"/>
<stop offset="0.3575" stop-color="#00FFEB" stop-opacity="0.8571"/>
<stop offset="0.5109" stop-color="#00FEE4" stop-opacity="0.7956"/>
<stop offset="0.6253" stop-color="#00FCD7" stop-opacity="0.7497"/>
<stop offset="0.7205" stop-color="#00F9C5" stop-opacity="0.7116"/>
<stop offset="0.8036" stop-color="#00F6AE" stop-opacity="0.6783"/>
<stop offset="0.8783" stop-color="#00F292" stop-opacity="0.6483"/>
<stop offset="0.9452" stop-color="#00EE71" stop-opacity="0.6215"/>
<stop offset="0.9988" stop-color="#00E950" stop-opacity="0.6"/>
</linearGradient>
<linearGradient id="paint5_linear" x1="206.157" y1="254.983" x2="444.84" y2="254.983" gradientUnits="userSpaceOnUse">
<stop offset="0.00121702" stop-color="#00FFED"/>
<stop offset="0.3575" stop-color="#00FFEB" stop-opacity="0.8571"/>
<stop offset="0.5109" stop-color="#00FEE4" stop-opacity="0.7956"/>
<stop offset="0.6253" stop-color="#00FCD7" stop-opacity="0.7497"/>
<stop offset="0.7205" stop-color="#00F9C5" stop-opacity="0.7116"/>
<stop offset="0.8036" stop-color="#00F6AE" stop-opacity="0.6783"/>
<stop offset="0.8783" stop-color="#00F292" stop-opacity="0.6483"/>
<stop offset="0.9452" stop-color="#00EE71" stop-opacity="0.6215"/>
<stop offset="0.9988" stop-color="#00E950" stop-opacity="0.6"/>
</linearGradient>
<linearGradient id="paint6_linear" x1="337.474" y1="278.219" x2="338.624" y2="234.418" gradientUnits="userSpaceOnUse">
<stop offset="0.00121702" stop-color="#00FFED"/>
<stop offset="0.3575" stop-color="#00FFEB" stop-opacity="0.8571"/>
<stop offset="0.5109" stop-color="#00FEE4" stop-opacity="0.7956"/>
<stop offset="0.6253" stop-color="#00FCD7" stop-opacity="0.7497"/>
<stop offset="0.7205" stop-color="#00F9C5" stop-opacity="0.7116"/>
<stop offset="0.8036" stop-color="#00F6AE" stop-opacity="0.6783"/>
<stop offset="0.8783" stop-color="#00F292" stop-opacity="0.6483"/>
<stop offset="0.9452" stop-color="#00EE71" stop-opacity="0.6215"/>
<stop offset="0.9988" stop-color="#00E950" stop-opacity="0.6"/>
</linearGradient>
<linearGradient id="paint7_linear" x1="342.755" y1="252.954" x2="340.828" y2="261.937" gradientUnits="userSpaceOnUse">
<stop stop-color="#00A8A1"/>
<stop offset="1" stop-color="#41FF7A"/>
</linearGradient>
<linearGradient id="paint8_linear" x1="289.875" y1="250.941" x2="291.025" y2="207.14" gradientUnits="userSpaceOnUse">
<stop offset="0.00121702" stop-color="#00FFED"/>
<stop offset="0.3575" stop-color="#00FFEB" stop-opacity="0.8571"/>
<stop offset="0.5109" stop-color="#00FEE4" stop-opacity="0.7956"/>
<stop offset="0.6253" stop-color="#00FCD7" stop-opacity="0.7497"/>
<stop offset="0.7205" stop-color="#00F9C5" stop-opacity="0.7116"/>
<stop offset="0.8036" stop-color="#00F6AE" stop-opacity="0.6783"/>
<stop offset="0.8783" stop-color="#00F292" stop-opacity="0.6483"/>
<stop offset="0.9452" stop-color="#00EE71" stop-opacity="0.6215"/>
<stop offset="0.9988" stop-color="#00E950" stop-opacity="0.6"/>
</linearGradient>
<linearGradient id="paint9_linear" x1="295.154" y1="225.674" x2="293.228" y2="234.657" gradientUnits="userSpaceOnUse">
<stop stop-color="#00A8A1"/>
<stop offset="1" stop-color="#41FF7A"/>
</linearGradient>
<linearGradient id="paint10_linear" x1="379.589" y1="330.111" x2="537.358" y2="330.111" gradientUnits="userSpaceOnUse">
<stop offset="0.00121702" stop-color="#00FFED"/>
<stop offset="0.3575" stop-color="#00FFEB" stop-opacity="0.8571"/>
<stop offset="0.5109" stop-color="#00FEE4" stop-opacity="0.7956"/>
<stop offset="0.6253" stop-color="#00FCD7" stop-opacity="0.7497"/>
<stop offset="0.7205" stop-color="#00F9C5" stop-opacity="0.7116"/>
<stop offset="0.8036" stop-color="#00F6AE" stop-opacity="0.6783"/>
<stop offset="0.8783" stop-color="#00F292" stop-opacity="0.6483"/>
<stop offset="0.9452" stop-color="#00EE71" stop-opacity="0.6215"/>
<stop offset="0.9988" stop-color="#00E950" stop-opacity="0.6"/>
</linearGradient>
<linearGradient id="paint11_linear" x1="114.997" y1="205.525" x2="383.037" y2="205.525" gradientUnits="userSpaceOnUse">
<stop stop-color="#00FFED" stop-opacity="0.1"/>
<stop offset="0.3567" stop-color="#00FFEB" stop-opacity="0.2786"/>
<stop offset="0.5103" stop-color="#00FEE4" stop-opacity="0.3555"/>
<stop offset="0.6249" stop-color="#00FCD7" stop-opacity="0.4128"/>
<stop offset="0.7201" stop-color="#00F9C5" stop-opacity="0.4605"/>
<stop offset="0.8033" stop-color="#00F6AE" stop-opacity="0.5022"/>
<stop offset="0.8781" stop-color="#00F292" stop-opacity="0.5396"/>
<stop offset="0.9451" stop-color="#00EE71" stop-opacity="0.5731"/>
<stop offset="0.9988" stop-color="#00E950" stop-opacity="0.6"/>
</linearGradient>
<linearGradient id="paint12_linear" x1="114.997" y1="193.025" x2="383.037" y2="193.025" gradientUnits="userSpaceOnUse">
<stop stop-color="#00FFED" stop-opacity="0.1"/>
<stop offset="0.3567" stop-color="#00FFEB" stop-opacity="0.2786"/>
<stop offset="0.5103" stop-color="#00FEE4" stop-opacity="0.3555"/>
<stop offset="0.6249" stop-color="#00FCD7" stop-opacity="0.4128"/>
<stop offset="0.7201" stop-color="#00F9C5" stop-opacity="0.4605"/>
<stop offset="0.8033" stop-color="#00F6AE" stop-opacity="0.5022"/>
<stop offset="0.8781" stop-color="#00F292" stop-opacity="0.5396"/>
<stop offset="0.9451" stop-color="#00EE71" stop-opacity="0.5731"/>
<stop offset="0.9988" stop-color="#00E950" stop-opacity="0.6"/>
</linearGradient>
<linearGradient id="paint13_linear" x1="117.732" y1="162.073" x2="383.461" y2="162.073" gradientUnits="userSpaceOnUse">
<stop offset="0.00121702" stop-color="#00FFED"/>
<stop offset="0.3575" stop-color="#00FFEB" stop-opacity="0.8571"/>
<stop offset="0.5109" stop-color="#00FEE4" stop-opacity="0.7956"/>
<stop offset="0.6253" stop-color="#00FCD7" stop-opacity="0.7497"/>
<stop offset="0.7205" stop-color="#00F9C5" stop-opacity="0.7116"/>
<stop offset="0.8036" stop-color="#00F6AE" stop-opacity="0.6783"/>
<stop offset="0.8783" stop-color="#00F292" stop-opacity="0.6483"/>
<stop offset="0.9452" stop-color="#00EE71" stop-opacity="0.6215"/>
<stop offset="0.9988" stop-color="#00E950" stop-opacity="0.6"/>
</linearGradient>
<linearGradient id="paint14_linear" x1="166.027" y1="160.483" x2="329.013" y2="160.483" gradientUnits="userSpaceOnUse">
<stop stop-color="#00FFED" stop-opacity="0.1"/>
<stop offset="0.3567" stop-color="#00FFEB" stop-opacity="0.2786"/>
<stop offset="0.5103" stop-color="#00FEE4" stop-opacity="0.3555"/>
<stop offset="0.6249" stop-color="#00FCD7" stop-opacity="0.4128"/>
<stop offset="0.7201" stop-color="#00F9C5" stop-opacity="0.4605"/>
<stop offset="0.8033" stop-color="#00F6AE" stop-opacity="0.5022"/>
<stop offset="0.8781" stop-color="#00F292" stop-opacity="0.5396"/>
<stop offset="0.9451" stop-color="#00EE71" stop-opacity="0.5731"/>
<stop offset="0.9988" stop-color="#00E950" stop-opacity="0.6"/>
</linearGradient>
<linearGradient id="paint15_linear" x1="265.86" y1="144.326" x2="259.335" y2="175.97" gradientUnits="userSpaceOnUse">
<stop stop-color="#00A8A1"/>
<stop offset="1" stop-color="#41FF7A"/>
</linearGradient>
<linearGradient id="paint16_linear" x1="388.014" y1="304.426" x2="389.164" y2="260.626" gradientUnits="userSpaceOnUse">
<stop offset="0.00121702" stop-color="#00FFED"/>
<stop offset="0.3575" stop-color="#00FFEB" stop-opacity="0.8571"/>
<stop offset="0.5109" stop-color="#00FEE4" stop-opacity="0.7956"/>
<stop offset="0.6253" stop-color="#00FCD7" stop-opacity="0.7497"/>
<stop offset="0.7205" stop-color="#00F9C5" stop-opacity="0.7116"/>
<stop offset="0.8036" stop-color="#00F6AE" stop-opacity="0.6783"/>
<stop offset="0.8783" stop-color="#00F292" stop-opacity="0.6483"/>
<stop offset="0.9452" stop-color="#00EE71" stop-opacity="0.6215"/>
<stop offset="0.9988" stop-color="#00E950" stop-opacity="0.6"/>
</linearGradient>
<linearGradient id="paint17_linear" x1="393.297" y1="279.164" x2="391.37" y2="288.147" gradientUnits="userSpaceOnUse">
<stop stop-color="#00A8A1"/>
<stop offset="1" stop-color="#41FF7A"/>
</linearGradient>
<linearGradient id="paint18_linear" x1="468.509" y1="333.412" x2="469.659" y2="289.611" gradientUnits="userSpaceOnUse">
<stop offset="0.00121702" stop-color="#00FFED"/>
<stop offset="0.3575" stop-color="#00FFEB" stop-opacity="0.8571"/>
<stop offset="0.5109" stop-color="#00FEE4" stop-opacity="0.7956"/>
<stop offset="0.6253" stop-color="#00FCD7" stop-opacity="0.7497"/>
<stop offset="0.7205" stop-color="#00F9C5" stop-opacity="0.7116"/>
<stop offset="0.8036" stop-color="#00F6AE" stop-opacity="0.6783"/>
<stop offset="0.8783" stop-color="#00F292" stop-opacity="0.6483"/>
<stop offset="0.9452" stop-color="#00EE71" stop-opacity="0.6215"/>
<stop offset="0.9988" stop-color="#00E950" stop-opacity="0.6"/>
</linearGradient>
<linearGradient id="paint19_linear" x1="473.794" y1="308.153" x2="471.868" y2="317.136" gradientUnits="userSpaceOnUse">
<stop stop-color="#00A8A1"/>
<stop offset="1" stop-color="#41FF7A"/>
</linearGradient>
<linearGradient id="paint20_linear" x1="486.158" y1="344.813" x2="487.308" y2="301.012" gradientUnits="userSpaceOnUse">
<stop offset="0.00121702" stop-color="#00FFED"/>
<stop offset="0.3575" stop-color="#00FFEB" stop-opacity="0.8571"/>
<stop offset="0.5109" stop-color="#00FEE4" stop-opacity="0.7956"/>
<stop offset="0.6253" stop-color="#00FCD7" stop-opacity="0.7497"/>
<stop offset="0.7205" stop-color="#00F9C5" stop-opacity="0.7116"/>
<stop offset="0.8036" stop-color="#00F6AE" stop-opacity="0.6783"/>
<stop offset="0.8783" stop-color="#00F292" stop-opacity="0.6483"/>
<stop offset="0.9452" stop-color="#00EE71" stop-opacity="0.6215"/>
<stop offset="0.9988" stop-color="#00E950" stop-opacity="0.6"/>
</linearGradient>
<linearGradient id="paint21_linear" x1="491.444" y1="319.556" x2="489.517" y2="328.539" gradientUnits="userSpaceOnUse">
<stop stop-color="#00A8A1"/>
<stop offset="1" stop-color="#41FF7A"/>
</linearGradient>
<linearGradient id="paint22_linear" x1="459.686" y1="361.195" x2="460.836" y2="317.394" gradientUnits="userSpaceOnUse">
<stop offset="0.00121702" stop-color="#00FFED"/>
<stop offset="0.3575" stop-color="#00FFEB" stop-opacity="0.8571"/>
<stop offset="0.5109" stop-color="#00FEE4" stop-opacity="0.7956"/>
<stop offset="0.6253" stop-color="#00FCD7" stop-opacity="0.7497"/>
<stop offset="0.7205" stop-color="#00F9C5" stop-opacity="0.7116"/>
<stop offset="0.8036" stop-color="#00F6AE" stop-opacity="0.6783"/>
<stop offset="0.8783" stop-color="#00F292" stop-opacity="0.6483"/>
<stop offset="0.9452" stop-color="#00EE71" stop-opacity="0.6215"/>
<stop offset="0.9988" stop-color="#00E950" stop-opacity="0.6"/>
</linearGradient>
<linearGradient id="paint23_linear" x1="464.971" y1="335.937" x2="463.045" y2="344.919" gradientUnits="userSpaceOnUse">
<stop stop-color="#00A8A1"/>
<stop offset="1" stop-color="#41FF7A"/>
</linearGradient>
<linearGradient id="paint24_linear" x1="430.606" y1="346.019" x2="431.755" y2="302.218" gradientUnits="userSpaceOnUse">
<stop offset="0.00121702" stop-color="#00FFED"/>
<stop offset="0.3575" stop-color="#00FFEB" stop-opacity="0.8571"/>
<stop offset="0.5109" stop-color="#00FEE4" stop-opacity="0.7956"/>
<stop offset="0.6253" stop-color="#00FCD7" stop-opacity="0.7497"/>
<stop offset="0.7205" stop-color="#00F9C5" stop-opacity="0.7116"/>
<stop offset="0.8036" stop-color="#00F6AE" stop-opacity="0.6783"/>
<stop offset="0.8783" stop-color="#00F292" stop-opacity="0.6483"/>
<stop offset="0.9452" stop-color="#00EE71" stop-opacity="0.6215"/>
<stop offset="0.9988" stop-color="#00E950" stop-opacity="0.6"/>
</linearGradient>
<linearGradient id="paint25_linear" x1="435.89" y1="320.758" x2="433.964" y2="329.741" gradientUnits="userSpaceOnUse">
<stop stop-color="#00A8A1"/>
<stop offset="1" stop-color="#41FF7A"/>
</linearGradient>
<linearGradient id="paint26_linear" x1="454.872" y1="331.976" x2="456.022" y2="288.175" gradientUnits="userSpaceOnUse">
<stop offset="0.00121702" stop-color="#00FFED"/>
<stop offset="0.3575" stop-color="#00FFEB" stop-opacity="0.8571"/>
<stop offset="0.5109" stop-color="#00FEE4" stop-opacity="0.7956"/>
<stop offset="0.6253" stop-color="#00FCD7" stop-opacity="0.7497"/>
<stop offset="0.7205" stop-color="#00F9C5" stop-opacity="0.7116"/>
<stop offset="0.8036" stop-color="#00F6AE" stop-opacity="0.6783"/>
<stop offset="0.8783" stop-color="#00F292" stop-opacity="0.6483"/>
<stop offset="0.9452" stop-color="#00EE71" stop-opacity="0.6215"/>
<stop offset="0.9988" stop-color="#00E950" stop-opacity="0.6"/>
</linearGradient>
<linearGradient id="paint27_linear" x1="460.156" y1="306.717" x2="458.23" y2="315.7" gradientUnits="userSpaceOnUse">
<stop stop-color="#00A8A1"/>
<stop offset="1" stop-color="#41FF7A"/>
</linearGradient>
<linearGradient id="paint28_linear" x1="447.72" y1="348.625" x2="448.869" y2="304.824" gradientUnits="userSpaceOnUse">
<stop offset="0.00121702" stop-color="#00FFED"/>
<stop offset="0.3575" stop-color="#00FFEB" stop-opacity="0.8571"/>
<stop offset="0.5109" stop-color="#00FEE4" stop-opacity="0.7956"/>
<stop offset="0.6253" stop-color="#00FCD7" stop-opacity="0.7497"/>
<stop offset="0.7205" stop-color="#00F9C5" stop-opacity="0.7116"/>
<stop offset="0.8036" stop-color="#00F6AE" stop-opacity="0.6783"/>
<stop offset="0.8783" stop-color="#00F292" stop-opacity="0.6483"/>
<stop offset="0.9452" stop-color="#00EE71" stop-opacity="0.6215"/>
<stop offset="0.9988" stop-color="#00E950" stop-opacity="0.6"/>
</linearGradient>
<linearGradient id="paint29_linear" x1="453.004" y1="323.366" x2="451.078" y2="332.349" gradientUnits="userSpaceOnUse">
<stop stop-color="#00A8A1"/>
<stop offset="1" stop-color="#41FF7A"/>
</linearGradient>
<linearGradient id="paint30_linear" x1="408.197" y1="337.208" x2="429.87" y2="299.132" gradientUnits="userSpaceOnUse">
<stop offset="0.00121702" stop-color="#00FFED"/>
<stop offset="0.3575" stop-color="#00FFEB" stop-opacity="0.8571"/>
<stop offset="0.5109" stop-color="#00FEE4" stop-opacity="0.7956"/>
<stop offset="0.6253" stop-color="#00FCD7" stop-opacity="0.7497"/>
<stop offset="0.7205" stop-color="#00F9C5" stop-opacity="0.7116"/>
<stop offset="0.8036" stop-color="#00F6AE" stop-opacity="0.6783"/>
<stop offset="0.8783" stop-color="#00F292" stop-opacity="0.6483"/>
<stop offset="0.9452" stop-color="#00EE71" stop-opacity="0.6215"/>
<stop offset="0.9988" stop-color="#00E950" stop-opacity="0.6"/>
</linearGradient>
<linearGradient id="paint31_linear" x1="421.302" y1="312.883" x2="424.267" y2="321.577" gradientUnits="userSpaceOnUse">
<stop stop-color="#00A8A1"/>
<stop offset="1" stop-color="#41FF7A"/>
</linearGradient>
<linearGradient id="paint32_linear" x1="248" y1="81" x2="248.764" y2="204.264" gradientUnits="userSpaceOnUse">
<stop stop-color="#00FFED" stop-opacity="0.15"/>
<stop offset="0.993" stop-color="#00E950" stop-opacity="0.24"/>
<stop offset="0.9931" stop-color="#00E953" stop-opacity="0.5933"/>
</linearGradient>
</defs>
</svg>
