<svg width="28" height="24" viewBox="0 0 28 24" fill="none" xmlns="http://www.w3.org/2000/svg">
<path d="M7.93 16.07C7.27667 16.07 6.67667 15.9167 6.13 15.61C5.58333 15.3033 5.15 14.88 4.83 14.34C4.51 13.7933 4.35 13.1767 4.35 12.49C4.35 11.81 4.51 11.2 4.83 10.66C5.15 10.1133 5.58333 9.68667 6.13 9.38C6.67667 9.07333 7.27667 8.92 7.93 8.92C8.59 8.92 9.19 9.07333 9.73 9.38C10.2767 9.68667 10.7067 10.1133 11.02 10.66C11.34 11.2 11.5 11.81 11.5 12.49C11.5 13.1767 11.34 13.7933 11.02 14.34C10.7067 14.88 10.2767 15.3033 9.73 15.61C9.18333 15.9167 8.58333 16.07 7.93 16.07ZM7.93 14.82C8.35 14.82 8.72 14.7267 9.04 14.54C9.36 14.3467 9.61 14.0733 9.79 13.72C9.97 13.3667 10.06 12.9567 10.06 12.49C10.06 12.0233 9.97 11.6167 9.79 11.27C9.61 10.9167 9.36 10.6467 9.04 10.46C8.72 10.2733 8.35 10.18 7.93 10.18C7.51 10.18 7.13667 10.2733 6.81 10.46C6.49 10.6467 6.24 10.9167 6.06 11.27C5.88 11.6167 5.79 12.0233 5.79 12.49C5.79 12.9567 5.88 13.3667 6.06 13.72C6.24 14.0733 6.49 14.3467 6.81 14.54C7.13667 14.7267 7.51 14.82 7.93 14.82ZM13.9416 14.89H16.2416V16H12.5416V9.02H13.9416V14.89ZM19.5714 9.02C20.3047 9.02 20.9481 9.16333 21.5014 9.45C22.0614 9.73667 22.4914 10.1467 22.7914 10.68C23.0981 11.2067 23.2514 11.82 23.2514 12.52C23.2514 13.22 23.0981 13.8333 22.7914 14.36C22.4914 14.88 22.0614 15.2833 21.5014 15.57C20.9481 15.8567 20.3047 16 19.5714 16H17.1314V9.02H19.5714ZM19.5214 14.81C20.2547 14.81 20.8214 14.61 21.2214 14.21C21.6214 13.81 21.8214 13.2467 21.8214 12.52C21.8214 11.7933 21.6214 11.2267 21.2214 10.82C20.8214 10.4067 20.2547 10.2 19.5214 10.2H18.5314V14.81H19.5214Z" fill="#A0AEC0"/>
<rect x="0.75" y="0.75" width="26.5" height="22.5" rx="7.25" stroke="#A0AEC0" stroke-width="1.5"/>
</svg>
