<svg width="77" height="49" viewBox="0 0 77 49" fill="none" xmlns="http://www.w3.org/2000/svg">
<path d="M76.1514 34.3224C76.0116 33.7621 75.837 33.2367 75.5924 32.7114C75.5575 32.6063 75.4876 32.4662 75.4527 32.3611C75.3479 32.151 75.2431 31.9409 75.1383 31.7307C74.4746 30.54 73.6363 29.4893 72.6232 28.6137C71.9246 28.1234 71.2609 27.6331 70.5623 27.1778C53.795 15.6202 35.1414 6.5843 15.1953 0.630412C14.8111 0.525344 14.4268 0.420275 14.0426 0.280183C13.4488 0.140092 12.82 0.0350229 12.1912 0C12.1213 0 12.0515 0 11.9467 0C11.807 0 11.6672 0 11.4926 0H11.3878C10.759 0 10.1302 0.0700456 9.50146 0.140091C9.04734 0.210137 8.59323 0.315206 8.17405 0.455298C8.03433 0.490321 7.92952 0.525343 7.78979 0.560366C7.40554 0.700458 7.05622 0.84055 6.67197 0.980641C5.9384 1.33087 5.23976 1.71612 4.57606 2.20644C3.59797 2.94192 2.75962 3.81749 2.06099 4.83316C1.95619 4.97325 1.88631 5.07832 1.78151 5.21841C0.663696 7.00458 0 9.10595 0 11.3824C0 12.258 0.104791 13.0986 0.27945 13.9041C0.349314 14.2543 0.454105 14.5695 0.5589 14.8847C0.803423 15.6552 1.11783 16.3907 1.53701 17.0561C1.57194 17.0912 1.57192 17.1262 1.60685 17.1612C2.0959 17.9667 2.68974 18.7372 3.35345 19.4027C4.43633 20.4884 5.72881 21.364 7.19594 21.9243C7.85965 22.0994 8.52337 22.3096 9.15214 22.5197C27.0372 27.9132 43.6997 36.1086 58.6505 46.5454C58.6855 46.5804 58.7553 46.6155 58.7902 46.6505C60.6067 47.8763 62.7725 48.5767 65.1129 48.5767C65.5321 48.5767 65.9513 48.5417 66.3355 48.5067C66.4752 48.5067 66.615 48.4717 66.7198 48.4717C67.2437 48.4016 67.7328 48.2966 68.1869 48.1565C68.8157 47.9813 69.4095 47.7362 70.0034 47.456C70.8068 47.0708 71.5753 46.5804 72.2739 46.0201C72.6232 45.7399 72.9376 45.4247 73.252 45.1095C73.5315 44.7943 73.8109 44.4791 74.0554 44.1639C74.7541 43.2883 75.313 42.2726 75.6972 41.2219C76.1863 39.9611 76.4308 38.6302 76.4308 37.1943C76.5356 36.2137 76.3959 35.233 76.1514 34.3224Z" fill="#FFA53C"/>
</svg>
