<svg width="76" height="32" viewBox="0 0 76 32" fill="none" xmlns="http://www.w3.org/2000/svg">
<path d="M10.3324 5.65904C10.3324 6.36714 10.169 7.0172 9.84223 7.60923C9.51546 8.18964 9.01362 8.65978 8.33673 9.01963C7.65984 9.37949 6.81956 9.55942 5.8159 9.55942H3.96029V13.9473H0.966797V1.72383H5.8159C6.79622 1.72383 7.62483 1.89215 8.30172 2.22879C8.97861 2.56543 9.48628 3.02976 9.82472 3.62178C10.1632 4.21381 10.3324 4.89289 10.3324 5.65904ZM5.58832 7.19133C6.16018 7.19133 6.58615 7.05784 6.86625 6.79084C7.14634 6.52385 7.28639 6.14658 7.28639 5.65904C7.28639 5.17149 7.14634 4.79422 6.86625 4.52723C6.58615 4.26024 6.16018 4.12674 5.58832 4.12674H3.96029V7.19133H5.58832Z" fill="#27DC8A"/>
<path d="M17.0375 14.0866C16.0805 14.0866 15.2169 13.8835 14.4467 13.4772C13.6881 13.0709 13.087 12.4905 12.6436 11.736C12.2118 10.9814 11.9959 10.0992 11.9959 9.08928C11.9959 8.09097 12.2176 7.21455 12.6611 6.46001C13.1046 5.69386 13.7114 5.10764 14.4817 4.70135C15.2519 4.29506 16.1155 4.09192 17.0725 4.09192C18.0295 4.09192 18.8931 4.29506 19.6634 4.70135C20.4336 5.10764 21.0405 5.69386 21.484 6.46001C21.9275 7.21455 22.1492 8.09097 22.1492 9.08928C22.1492 10.0876 21.9216 10.9698 21.4665 11.736C21.023 12.4905 20.4103 13.0709 19.6284 13.4772C18.8581 13.8835 17.9945 14.0866 17.0375 14.0866ZM17.0375 11.5096C17.6094 11.5096 18.0937 11.3007 18.4905 10.8828C18.899 10.4649 19.1032 9.86704 19.1032 9.08928C19.1032 8.31153 18.9048 7.7137 18.508 7.2958C18.1229 6.87791 17.6444 6.66896 17.0725 6.66896C16.489 6.66896 16.0047 6.87791 15.6196 7.2958C15.2344 7.70209 15.0419 8.29992 15.0419 9.08928C15.0419 9.86704 15.2286 10.4649 15.602 10.8828C15.9872 11.3007 16.4657 11.5096 17.0375 11.5096Z" fill="#27DC8A"/>
<path d="M28.4114 14.0866C27.5594 14.0866 26.8008 13.9415 26.1356 13.6513C25.4704 13.3611 24.9452 12.9664 24.5601 12.4673C24.175 11.9565 23.9591 11.3877 23.9124 10.7609H26.8708C26.9059 11.0975 27.0634 11.3703 27.3435 11.5793C27.6236 11.7882 27.9679 11.8927 28.3763 11.8927C28.7498 11.8927 29.0357 11.823 29.2341 11.6837C29.4442 11.5328 29.5492 11.3413 29.5492 11.1091C29.5492 10.8305 29.4034 10.6274 29.1116 10.4997C28.8198 10.3604 28.3472 10.2095 27.6936 10.047C26.9934 9.88445 26.4099 9.71613 25.943 9.54201C25.4762 9.35627 25.0736 9.07187 24.7351 8.6888C24.3967 8.29412 24.2275 7.76594 24.2275 7.10427C24.2275 6.54707 24.3792 6.04211 24.6826 5.58939C24.9977 5.12506 25.4529 4.75939 26.0481 4.4924C26.6549 4.22541 27.3727 4.09192 28.2013 4.09192C29.4267 4.09192 30.3895 4.39373 31.0897 4.99737C31.8016 5.601 32.2101 6.40197 32.3151 7.40028H29.5492C29.5026 7.06364 29.3508 6.79665 29.0941 6.59931C28.849 6.40197 28.5222 6.3033 28.1138 6.3033C27.7636 6.3033 27.4952 6.37295 27.3085 6.51225C27.1218 6.63994 27.0284 6.81986 27.0284 7.05203C27.0284 7.33063 27.1743 7.53958 27.466 7.67888C27.7695 7.81818 28.2363 7.95748 28.8665 8.09678C29.5901 8.28251 30.1794 8.46824 30.6346 8.65397C31.0897 8.8281 31.4865 9.11831 31.825 9.52459C32.1751 9.91928 32.356 10.4533 32.3677 11.1265C32.3677 11.6953 32.2043 12.2061 31.8775 12.6588C31.5624 13.0999 31.1014 13.4482 30.4945 13.7036C29.8993 13.959 29.205 14.0866 28.4114 14.0866Z" fill="#27DC8A"/>
<path d="M36.4048 3.2213C35.8796 3.2213 35.4478 3.07039 35.1094 2.76857C34.7826 2.45515 34.6192 2.07208 34.6192 1.61936C34.6192 1.15502 34.7826 0.771951 35.1094 0.470136C35.4478 0.156712 35.8796 0 36.4048 0C36.9183 0 37.3384 0.156712 37.6652 0.470136C38.0037 0.771951 38.1729 1.15502 38.1729 1.61936C38.1729 2.07208 38.0037 2.45515 37.6652 2.76857C37.3384 3.07039 36.9183 3.2213 36.4048 3.2213ZM37.8928 4.23122V13.9473H34.8993V4.23122H37.8928Z" fill="#27DC8A"/>
<path d="M46.2067 11.4225V13.9473H44.6837C43.5983 13.9473 42.7522 13.6862 42.1453 13.1638C41.5385 12.6298 41.235 11.765 41.235 10.5693V6.70378H40.0446V4.23122H41.235V1.86313H44.2285V4.23122H46.1892V6.70378H44.2285V10.6042C44.2285 10.8944 44.2985 11.1033 44.4386 11.231C44.5786 11.3587 44.812 11.4225 45.1388 11.4225H46.2067Z" fill="#27DC8A"/>
<path d="M50.0798 3.2213C49.5547 3.2213 49.1228 3.07039 48.7844 2.76857C48.4576 2.45515 48.2942 2.07208 48.2942 1.61936C48.2942 1.15502 48.4576 0.771951 48.7844 0.470136C49.1228 0.156712 49.5547 0 50.0798 0C50.5933 0 51.0135 0.156712 51.3402 0.470136C51.6787 0.771951 51.8479 1.15502 51.8479 1.61936C51.8479 2.07208 51.6787 2.45515 51.3402 2.76857C51.0135 3.07039 50.5933 3.2213 50.0798 3.2213ZM51.5678 4.23122V13.9473H48.5743V4.23122H51.5678Z" fill="#27DC8A"/>
<path d="M58.8839 14.0866C57.9269 14.0866 57.0633 13.8835 56.293 13.4772C55.5344 13.0709 54.9334 12.4905 54.4899 11.736C54.0581 10.9814 53.8422 10.0992 53.8422 9.08928C53.8422 8.09097 54.0639 7.21455 54.5074 6.46001C54.9509 5.69386 55.5578 5.10764 56.328 4.70135C57.0983 4.29506 57.9619 4.09192 58.9189 4.09192C59.8759 4.09192 60.7395 4.29506 61.5097 4.70135C62.28 5.10764 62.8869 5.69386 63.3303 6.46001C63.7738 7.21455 63.9956 8.09097 63.9956 9.08928C63.9956 10.0876 63.768 10.9698 63.3128 11.736C62.8694 12.4905 62.2566 13.0709 61.4747 13.4772C60.7045 13.8835 59.8409 14.0866 58.8839 14.0866ZM58.8839 11.5096C59.4557 11.5096 59.9401 11.3007 60.3368 10.8828C60.7453 10.4649 60.9496 9.86704 60.9496 9.08928C60.9496 8.31153 60.7512 7.7137 60.3544 7.2958C59.9692 6.87791 59.4907 6.66896 58.9189 6.66896C58.3354 6.66896 57.851 6.87791 57.4659 7.2958C57.0808 7.70209 56.8882 8.29992 56.8882 9.08928C56.8882 9.86704 57.0749 10.4649 57.4484 10.8828C57.8335 11.3007 58.312 11.5096 58.8839 11.5096Z" fill="#27DC8A"/>
<path d="M72.2359 4.12674C73.3796 4.12674 74.2899 4.49821 74.9668 5.24114C75.6553 5.97246 75.9996 6.98238 75.9996 8.2709V13.9473H73.0236V8.67139C73.0236 8.02132 72.8544 7.51636 72.516 7.15651C72.1775 6.79665 71.7224 6.61672 71.1505 6.61672C70.5787 6.61672 70.1235 6.79665 69.7851 7.15651C69.4466 7.51636 69.2774 8.02132 69.2774 8.67139V13.9473H66.2839V4.23122H69.2774V5.51974C69.5808 5.09023 69.9893 4.75359 70.5028 4.50982C71.0163 4.25443 71.594 4.12674 72.2359 4.12674Z" fill="#27DC8A"/>
<path d="M2.11081 20.9135V23.8063H5.30399V24.7374H2.11081V27.717H5.68114V28.6482H0.966797V19.9824H5.68114V20.9135H2.11081Z" fill="white"/>
<path d="M13.1448 28.6482L11.5105 26.1155L9.93907 28.6482H8.74477L10.9699 25.2712L8.74477 21.8447H10.0396L11.674 24.3649L13.2328 21.8447H14.4271L12.2145 25.2092L14.4397 28.6482H13.1448Z" fill="white"/>
<path d="M17.2748 25.234C17.2748 24.5305 17.4173 23.918 17.7022 23.3966C17.9872 22.8668 18.3811 22.4571 18.8839 22.1674C19.3952 21.8778 19.9777 21.7329 20.6314 21.7329C21.4779 21.7329 22.1735 21.9357 22.7183 22.3413C23.2714 22.7468 23.636 23.3096 23.812 24.0297H22.58C22.4627 23.6159 22.2322 23.289 21.8886 23.0489C21.5533 22.8089 21.1343 22.6889 20.6314 22.6889C19.9777 22.6889 19.4497 22.9124 19.0474 23.3593C18.6451 23.798 18.4439 24.4229 18.4439 25.234C18.4439 26.0534 18.6451 26.6866 19.0474 27.1335C19.4497 27.5805 19.9777 27.8039 20.6314 27.8039C21.1343 27.8039 21.5533 27.6881 21.8886 27.4563C22.2238 27.2246 22.4543 26.8935 22.58 26.4631H23.812C23.6276 27.1584 23.2589 27.717 22.7057 28.1392C22.1526 28.553 21.4611 28.7599 20.6314 28.7599C19.9777 28.7599 19.3952 28.6151 18.8839 28.3254C18.3811 28.0357 17.9872 27.626 17.7022 27.0963C17.4173 26.5666 17.2748 25.9458 17.2748 25.234Z" fill="white"/>
<path d="M30.8951 21.7205C31.4147 21.7205 31.8841 21.8322 32.3031 22.0557C32.7222 22.2709 33.049 22.5978 33.2837 23.0365C33.5268 23.4752 33.6483 24.009 33.6483 24.6381V28.6482H32.5168V24.7995C32.5168 24.1208 32.345 23.6035 32.0014 23.2476C31.6578 22.8834 31.1884 22.7013 30.5934 22.7013C29.99 22.7013 29.508 22.8875 29.1477 23.26C28.7957 23.6324 28.6197 24.1746 28.6197 24.8864V28.6482H27.4756V19.4609H28.6197V22.813C28.8459 22.4654 29.156 22.1964 29.55 22.0061C29.9522 21.8157 30.4006 21.7205 30.8951 21.7205Z" fill="white"/>
<path d="M37.2268 25.2216C37.2268 24.5263 37.3692 23.918 37.6542 23.3966C37.9392 22.8668 38.3289 22.4571 38.8234 22.1674C39.3262 21.8778 39.8836 21.7329 40.4954 21.7329C41.0988 21.7329 41.6226 21.8612 42.0668 22.1178C42.511 22.3744 42.8421 22.6972 43.06 23.0862V21.8447H44.2166V28.6482H43.06V27.3818C42.8337 27.7791 42.4943 28.1102 42.0417 28.375C41.5975 28.6316 41.0779 28.7599 40.4828 28.7599C39.871 28.7599 39.3178 28.6109 38.8234 28.313C38.3289 28.015 37.9392 27.597 37.6542 27.059C37.3692 26.521 37.2268 25.9086 37.2268 25.2216ZM43.06 25.234C43.06 24.7208 42.9552 24.2739 42.7457 23.8932C42.5362 23.5124 42.2512 23.2227 41.8908 23.0241C41.5388 22.8172 41.1491 22.7137 40.7217 22.7137C40.2942 22.7137 39.9045 22.813 39.5525 23.0117C39.2005 23.2103 38.9197 23.5 38.7102 23.8807C38.5007 24.2615 38.3959 24.7084 38.3959 25.2216C38.3959 25.743 38.5007 26.1982 38.7102 26.5873C38.9197 26.968 39.2005 27.2618 39.5525 27.4687C39.9045 27.6674 40.2942 27.7667 40.7217 27.7667C41.1491 27.7667 41.5388 27.6674 41.8908 27.4687C42.2512 27.2618 42.5362 26.968 42.7457 26.5873C42.9552 26.1982 43.06 25.7472 43.06 25.234Z" fill="white"/>
<path d="M51.6436 21.7205C52.4817 21.7205 53.1606 21.9729 53.6802 22.4778C54.1998 22.9744 54.4596 23.6945 54.4596 24.6381V28.6482H53.3282V24.7995C53.3282 24.1208 53.1564 23.6035 52.8128 23.2476C52.4691 22.8834 51.9998 22.7013 51.4047 22.7013C50.8013 22.7013 50.3194 22.8875 49.959 23.26C49.607 23.6324 49.431 24.1746 49.431 24.8864V28.6482H48.287V21.8447H49.431V22.813C49.6573 22.4654 49.9632 22.1964 50.3487 22.0061C50.7426 21.8157 51.1743 21.7205 51.6436 21.7205Z" fill="white"/>
<path d="M61.3067 21.7329C61.9018 21.7329 62.4214 21.8612 62.8656 22.1178C63.3182 22.3744 63.6534 22.6972 63.8713 23.0862V21.8447H65.0279V28.7972C65.0279 29.4179 64.8938 29.9683 64.6256 30.4484C64.3574 30.9367 63.9719 31.3174 63.469 31.5906C62.9746 31.8637 62.3963 32.0003 61.7342 32.0003C60.829 32.0003 60.0747 31.7892 59.4713 31.3671C58.8679 30.945 58.5117 30.3698 58.4027 29.6414H59.5341C59.6599 30.0552 59.9197 30.3863 60.3136 30.6346C60.7075 30.8912 61.181 31.0195 61.7342 31.0195C62.3627 31.0195 62.874 30.825 63.2679 30.436C63.6702 30.047 63.8713 29.5007 63.8713 28.7972V27.3694C63.645 27.7667 63.3098 28.0978 62.8656 28.3626C62.4214 28.6275 61.9018 28.7599 61.3067 28.7599C60.6949 28.7599 60.1376 28.6109 59.6347 28.313C59.1402 28.015 58.7505 27.597 58.4656 27.059C58.1806 26.521 58.0381 25.9086 58.0381 25.2216C58.0381 24.5263 58.1806 23.918 58.4656 23.3966C58.7505 22.8668 59.1402 22.4571 59.6347 22.1674C60.1376 21.8778 60.6949 21.7329 61.3067 21.7329ZM63.8713 25.234C63.8713 24.7208 63.7666 24.2739 63.557 23.8932C63.3475 23.5124 63.0626 23.2227 62.7022 23.0241C62.3502 22.8172 61.9605 22.7137 61.533 22.7137C61.1056 22.7137 60.7159 22.813 60.3639 23.0117C60.0119 23.2103 59.7311 23.5 59.5216 23.8807C59.312 24.2615 59.2073 24.7084 59.2073 25.2216C59.2073 25.743 59.312 26.1982 59.5216 26.5873C59.7311 26.968 60.0119 27.2618 60.3639 27.4687C60.7159 27.6674 61.1056 27.7667 61.533 27.7667C61.9605 27.7667 62.3502 27.6674 62.7022 27.4687C63.0626 27.2618 63.3475 26.968 63.557 26.5873C63.7666 26.1982 63.8713 25.7472 63.8713 25.234Z" fill="white"/>
<path d="M75.3842 24.9857C75.3842 25.2009 75.3716 25.4285 75.3464 25.6685H69.8401C69.882 26.339 70.1125 26.8645 70.5315 27.2453C70.959 27.6177 71.4744 27.8039 72.0778 27.8039C72.5723 27.8039 72.983 27.6922 73.3098 27.4687C73.6451 27.237 73.8798 26.9307 74.0138 26.55H75.2459C75.0615 27.2039 74.6927 27.7377 74.1396 28.1516C73.5864 28.5571 72.8992 28.7599 72.0778 28.7599C71.4241 28.7599 70.8374 28.6151 70.3178 28.3254C69.8066 28.0357 69.4043 27.626 69.1109 27.0963C68.8176 26.5583 68.6709 25.9375 68.6709 25.234C68.6709 24.5305 68.8134 23.9139 69.0984 23.3841C69.3833 22.8544 69.7814 22.4489 70.2927 22.1674C70.8123 21.8778 71.4073 21.7329 72.0778 21.7329C72.7316 21.7329 73.3098 21.8736 73.8127 22.155C74.3156 22.4364 74.7011 22.8255 74.9693 23.3221C75.2459 23.8104 75.3842 24.3649 75.3842 24.9857ZM74.2024 24.7498C74.2024 24.3194 74.106 23.9511 73.9133 23.6449C73.7205 23.3303 73.4565 23.0945 73.1213 22.9372C72.7944 22.7717 72.4298 22.6889 72.0275 22.6889C71.4492 22.6889 70.9548 22.871 70.5441 23.2352C70.1418 23.5993 69.9113 24.1042 69.8527 24.7498H74.2024Z" fill="white"/>
</svg>
