<svg width="387" height="327" viewBox="0 0 387 327" fill="none" xmlns="http://www.w3.org/2000/svg">
<g opacity="0.3">
<path d="M334.048 241.848L327.623 264.88C327.623 265.025 327.47 265.025 327.47 265.025C327.317 265.025 327.317 265.025 327.317 264.88L298.405 209.196C298.405 209.05 298.405 209.05 298.405 208.905C298.405 208.905 298.558 208.905 298.711 208.905L334.048 241.848C334.048 241.702 334.048 241.848 334.048 241.848ZM327.317 264.297L333.589 241.848L299.17 209.925L327.317 264.297Z" fill="#C9C9C9"/>
<path d="M383.306 212.257C383.306 212.257 383.306 212.403 383.153 212.403L333.895 241.994L333.742 241.994L298.405 209.342L298.405 209.196L298.558 209.051L383.153 212.257C383.153 212.112 383.306 212.257 383.306 212.257ZM333.895 241.702L382.541 212.549L299.017 209.488L333.895 241.702Z" fill="#C9C9C9"/>
<path d="M327.623 264.879L327.317 299.134C327.317 299.134 327.317 299.28 327.164 299.28L288.921 310.65C288.768 310.65 288.768 310.65 288.768 310.65L288.768 310.504L327.164 265.025C327.317 264.734 327.47 264.734 327.623 264.879C327.623 264.734 327.623 264.734 327.623 264.879ZM327.011 298.843L327.317 265.317L289.533 309.921L327.011 298.843Z" fill="#C9C9C9"/>
<path d="M300.088 326.539L280.508 318.376L288.921 310.65L314.468 326.539L315.233 326.539L289.074 310.213C289.074 310.213 288.921 310.213 288.768 310.213L280.049 318.23L280.049 318.376C280.049 318.376 280.049 318.522 280.202 318.522L299.17 326.539L300.088 326.539Z" fill="#C9C9C9"/>
<path d="M288.921 310.213L288.768 310.359C288.768 310.359 288.768 310.505 288.921 310.505L314.468 326.539L315.233 326.539L289.38 310.505L327.012 299.281L337.72 326.539L338.179 326.539L327.47 298.989C327.47 298.843 327.317 298.843 327.165 298.843L288.921 310.213Z" fill="#C9C9C9"/>
<path d="M280.049 318.376L277.907 326.539L278.366 326.539L280.355 318.959L285.097 326.539L285.556 326.539L280.355 318.376L280.202 318.23C280.049 318.23 280.049 318.376 280.049 318.376Z" fill="#C9C9C9"/>
<path d="M285.556 326.539L280.661 318.813L299.17 326.539L300.088 326.539L280.202 318.23L280.049 318.23L280.049 318.376L285.097 326.539L285.556 326.539Z" fill="#C9C9C9"/>
<path d="M289.227 310.359L289.227 310.504L289.074 310.504L253.125 303.945C253.125 303.945 252.972 303.945 252.972 303.799L252.972 303.653L271.023 226.689C271.023 226.543 271.176 226.543 271.176 226.543C271.329 226.543 271.329 226.543 271.329 226.689L289.227 310.359ZM253.278 303.799L288.768 310.213L271.176 227.855L253.278 303.799Z" fill="#C9C9C9"/>
<path d="M327.623 264.88L289.074 310.505C289.074 310.505 288.921 310.651 288.921 310.505L288.768 310.359L270.87 226.835C270.87 226.835 270.87 226.689 271.023 226.689L271.176 226.689L327.623 264.88C327.623 264.734 327.623 264.734 327.623 264.88ZM289.074 309.922L327.164 264.88L271.329 227.272L289.074 309.922Z" fill="#C9C9C9"/>
<path d="M252.973 303.799L252.82 303.945L256.491 326.539L256.95 326.539L253.279 304.237L280.049 318.522L276.377 326.539L276.836 326.539L280.355 318.522C280.355 318.522 280.355 318.522 280.355 318.376C280.355 318.376 280.355 318.23 280.202 318.23L252.973 303.653C252.973 303.653 252.973 303.653 252.973 303.799Z" fill="#C9C9C9"/>
<path d="M289.227 310.359L289.227 310.505L280.508 318.522C280.508 318.522 280.355 318.668 280.355 318.522L253.125 303.945C252.972 303.945 252.972 303.799 252.972 303.654C252.972 303.508 253.125 303.508 253.125 303.508L289.074 310.067C289.074 310.213 289.227 310.213 289.227 310.359ZM280.202 318.231L288.615 310.505L254.196 304.237L280.202 318.231Z" fill="#C9C9C9"/>
<path d="M280.049 318.375L276.377 326.539L276.836 326.539L279.437 320.708L277.907 326.539L278.366 326.539L280.508 318.521C280.508 318.521 280.508 318.375 280.355 318.375C280.202 318.23 280.049 318.23 280.049 318.375Z" fill="#C9C9C9"/>
<path d="M271.329 226.834C271.329 226.834 271.329 226.98 271.329 226.834C271.329 226.98 271.176 226.98 271.176 226.98L229.262 230.479C229.109 230.479 229.109 230.479 229.109 230.333L221.46 191.559C221.46 191.559 221.46 191.414 221.613 191.414L221.766 191.414L271.329 226.834C271.176 226.689 271.176 226.834 271.329 226.834ZM229.262 230.187L270.564 226.689L221.766 191.997L229.262 230.187Z" fill="#C9C9C9"/>
<path d="M253.125 303.799L253.125 303.945L252.972 303.945L201.114 273.334C201.114 273.334 201.114 273.334 200.961 273.188L200.961 273.042L228.955 230.333L229.108 230.187C229.108 230.187 229.261 230.187 229.261 230.333L253.125 303.799ZM201.42 273.334L252.666 303.508L229.108 230.916L201.42 273.334Z" fill="#C9C9C9"/>
<path d="M271.329 226.835L253.278 303.946L253.278 304.091L253.125 304.091L252.972 303.946L229.109 230.479L229.109 230.333L229.262 230.187L271.176 226.689C271.176 226.689 271.176 226.689 271.329 226.835ZM252.972 303.217L270.87 227.126L229.415 230.625L252.972 303.217Z" fill="#C9C9C9"/>
<path d="M200.962 273.188C200.809 273.188 200.809 273.334 200.809 273.479L218.859 318.23L227.426 326.539L228.038 326.539L219.165 318.085L201.879 274.646L238.593 326.539L239.052 326.539L201.267 273.188C201.267 273.188 201.114 273.188 200.962 273.188Z" fill="#C9C9C9"/>
<path d="M200.961 273.188C200.961 273.188 200.961 273.334 200.961 273.48L238.593 326.539L239.052 326.539L201.726 273.917L252.819 303.945L256.491 326.539L256.95 326.539L253.278 303.799C253.278 303.799 253.278 303.654 253.125 303.654L201.267 273.042C201.114 273.188 200.961 273.188 200.961 273.188Z" fill="#C9C9C9"/>
<path d="M218.859 318.084L209.528 326.539L210.14 326.539L219.012 318.521L221.307 326.539L221.766 326.539L219.318 318.23C219.318 318.23 219.318 318.084 219.165 318.084C219.012 318.084 218.859 318.084 218.859 318.084Z" fill="#C9C9C9"/>
<path d="M218.859 318.23L221.307 326.539L221.766 326.539L219.471 318.813L227.426 326.539L228.038 326.539L219.165 318.084C219.165 318.084 219.012 318.084 218.859 318.084C218.859 318.084 218.859 318.23 218.859 318.23Z" fill="#C9C9C9"/>
<path d="M229.262 230.333C229.262 230.479 229.262 230.479 229.109 230.479L228.956 230.479L178.168 183.688C178.168 183.688 178.015 183.542 178.168 183.396L208.61 144.039C208.61 144.039 208.763 143.894 208.763 144.039C208.763 144.039 208.916 144.039 208.916 144.185L229.262 230.333ZM178.474 183.542L228.803 229.895L208.763 144.622L178.474 183.542Z" fill="#C9C9C9"/>
<path d="M229.262 230.333C229.262 230.479 229.262 230.479 229.109 230.479L228.956 230.479C228.956 230.479 228.803 230.479 228.803 230.333L228.803 230.187L208.457 144.039C208.457 143.893 208.457 143.893 208.61 143.893C208.763 143.893 208.763 143.893 208.763 144.039L221.46 191.559L229.262 230.333ZM211.976 156.429L226.967 220.421L221.307 191.705L211.976 156.429Z" fill="#C9C9C9"/>
<path d="M201.267 273.334C201.267 273.48 201.114 273.48 201.114 273.48L152.775 275.375L152.622 275.375L152.622 275.229L178.168 183.542C178.168 183.396 178.321 183.396 178.321 183.396C178.474 183.396 178.474 183.396 178.474 183.542L201.267 273.334ZM153.081 275.083L200.962 273.188L178.321 184.271L153.081 275.083Z" fill="#C9C9C9"/>
<path d="M229.261 230.333C229.261 230.479 229.261 230.479 229.261 230.333L201.267 273.479L201.114 273.625C201.114 273.625 200.961 273.625 200.961 273.479L178.168 183.688C178.168 183.542 178.168 183.542 178.321 183.542L178.474 183.542L229.261 230.333ZM201.114 272.896L228.803 230.479L178.474 184.125L201.114 272.896Z" fill="#C9C9C9"/>
<path d="M219.165 318.231C219.165 318.231 219.165 318.376 219.012 318.376L218.859 318.376L163.942 286.599L152.622 275.375C152.622 275.375 152.622 275.23 152.622 275.084C152.622 275.084 152.775 274.938 152.928 275.084L219.165 318.231C219.165 318.085 219.165 318.085 219.165 318.231ZM164.248 286.308L212.893 314.587L154.152 276.396L164.248 286.308Z" fill="#C9C9C9"/>
<path d="M219.165 318.231C219.165 318.376 219.165 318.376 219.012 318.376L218.859 318.376L152.622 275.375C152.622 275.375 152.469 275.229 152.622 275.229C152.622 275.083 152.775 275.083 152.775 275.083L201.114 273.188C201.267 273.188 201.267 273.188 201.267 273.334L219.165 318.231ZM153.387 275.375L218.553 317.793L200.961 273.626L153.387 275.375Z" fill="#C9C9C9"/>
<path d="M163.942 286.453L155.682 326.539L156.14 326.539L164.248 287.328L172.509 326.539L172.967 326.539L164.248 286.453C164.248 286.308 164.095 286.308 164.095 286.308C163.942 286.308 163.942 286.308 163.942 286.453Z" fill="#C9C9C9"/>
<path d="M163.942 286.308L163.789 286.453L172.508 326.539L172.967 326.539L164.401 286.891L218.706 318.23L209.528 326.539L210.14 326.539L219.165 318.376L219.165 318.23C219.165 318.23 219.165 318.085 219.012 318.085L164.095 286.308C164.095 286.308 164.095 286.308 163.942 286.308Z" fill="#C9C9C9"/>
<path d="M178.474 183.542C178.474 183.542 178.474 183.687 178.322 183.687L150.174 192.142L150.021 192.142L130.441 182.959C130.288 182.959 130.288 182.813 130.288 182.813C130.288 182.667 130.441 182.667 130.441 182.667L178.169 183.396C178.322 183.396 178.474 183.396 178.474 183.542ZM150.174 191.851L177.098 183.687L131.359 182.959L150.174 191.851Z" fill="#C9C9C9"/>
<path d="M209.069 144.185C209.069 144.185 208.916 144.185 209.069 144.185L178.474 183.687L178.321 183.687L130.594 182.959C130.441 182.959 130.441 182.959 130.441 182.813C130.441 182.667 130.441 182.667 130.594 182.667L208.916 144.039C208.763 143.893 208.916 143.893 209.069 144.185C208.916 144.039 208.916 144.039 209.069 144.185ZM178.168 183.396L208.151 144.768L131.359 182.667L178.168 183.396Z" fill="#C9C9C9"/>
<path d="M150.327 191.996L152.928 275.229L152.928 275.375L152.775 275.375C152.775 275.375 152.775 275.375 152.622 275.375L122.333 242.869L122.333 242.723L150.021 191.996C150.021 191.85 150.174 191.85 150.174 191.85C150.327 191.85 150.327 191.996 150.327 191.996ZM152.622 274.792L150.021 192.871L122.639 242.723L152.622 274.792Z" fill="#C9C9C9"/>
<path d="M178.474 183.542L152.928 275.375C152.928 275.375 152.928 275.375 152.928 275.521L152.775 275.521L152.622 275.375L150.021 192.142C150.021 191.996 150.021 191.996 150.174 191.996L178.321 183.542C178.321 183.396 178.321 183.396 178.474 183.542C178.474 183.396 178.474 183.396 178.474 183.542ZM152.928 273.917L178.015 183.688L150.327 191.996L152.928 273.917Z" fill="#C9C9C9"/>
<path d="M122.18 242.723L125.546 326.393C125.546 326.393 125.546 326.393 125.546 326.539L125.852 326.539L164.095 286.599C164.095 286.599 164.095 286.599 164.095 286.453C164.095 286.453 164.095 286.453 164.095 286.307L122.486 242.577C122.486 242.577 122.333 242.432 122.333 242.577C122.333 242.577 122.18 242.577 122.18 242.723ZM163.789 286.453L125.852 325.956L122.639 243.16L163.789 286.453Z" fill="#C9C9C9"/>
<path d="M164.248 286.453C164.248 286.599 164.248 286.599 164.095 286.599L163.942 286.599L152.622 275.375L122.18 242.869C122.18 242.723 122.18 242.723 122.18 242.578C122.333 242.578 122.333 242.578 122.486 242.578L164.248 286.453C164.248 286.307 164.248 286.453 164.248 286.453ZM148.645 270.564L152.928 275.083L154.458 276.687L148.645 270.564Z" fill="#C9C9C9"/>
<path d="M163.942 286.308L125.546 326.393L125.546 326.539L126.158 326.539L126.005 326.393L163.789 287.036L155.681 326.539L156.14 326.539L164.401 286.453C164.401 286.453 164.401 286.308 164.248 286.308C164.095 286.308 163.942 286.308 163.942 286.308Z" fill="#C9C9C9"/>
<path d="M150.327 191.996C150.327 192.142 150.327 192.142 150.174 192.142L150.021 192.142L98.7753 174.942L98.6224 174.796C98.6224 174.796 98.6224 174.65 98.7753 174.65L117.897 164.446L118.05 164.446L150.327 191.996C150.327 191.851 150.327 191.996 150.327 191.996ZM99.2343 174.796L149.257 191.559L117.897 164.884L99.2343 174.796Z" fill="#C9C9C9"/>
<path d="M150.327 191.996C150.327 192.142 150.327 192.142 150.174 192.142L150.021 192.142L130.441 182.959L117.897 164.884C117.897 164.738 117.897 164.738 117.897 164.592C117.897 164.592 118.05 164.592 118.203 164.592L150.327 191.996C150.327 191.851 150.327 191.996 150.327 191.996ZM130.747 182.667L149.104 191.267L119.121 165.758L130.747 182.667Z" fill="#C9C9C9"/>
<path d="M122.639 242.723C122.639 242.869 122.639 242.869 122.486 242.869L83.478 262.693L83.325 262.693L83.1721 262.547L98.6224 174.795C98.6224 174.65 98.7753 174.65 98.7753 174.65C98.9283 174.65 98.9283 174.65 98.9283 174.795L122.639 242.723C122.639 242.577 122.639 242.577 122.639 242.723C122.639 242.577 122.639 242.723 122.639 242.723ZM83.631 262.256L122.18 242.577L98.9283 175.524L83.631 262.256Z" fill="#C9C9C9"/>
<path d="M150.327 191.997C150.327 191.997 150.327 192.143 150.327 191.997L122.639 242.723L122.486 242.869C122.333 242.869 122.333 242.869 122.333 242.723L98.6224 174.942L98.6224 174.796L98.7753 174.796L150.327 191.997C150.327 191.851 150.327 191.851 150.327 191.997ZM122.486 242.286L149.868 192.143L99.0813 175.088L122.486 242.286Z" fill="#C9C9C9"/>
<path d="M83.325 262.401L64.5093 274.792L64.3563 274.937L64.3563 275.083L125.546 326.539L125.852 326.539C125.852 326.539 125.852 326.539 125.852 326.393C125.852 326.393 125.852 326.393 125.852 326.248L83.6309 262.401C83.478 262.401 83.478 262.401 83.325 262.401ZM124.781 325.519L64.8152 274.937L83.325 262.839L124.781 325.519Z" fill="#C9C9C9"/>
<path d="M83.3251 262.402C83.3251 262.402 83.1721 262.402 83.3251 262.402C83.1721 262.548 83.1721 262.548 83.3251 262.694L125.546 326.539L125.852 326.539C125.852 326.539 125.852 326.539 125.852 326.393L122.486 242.578C122.486 242.578 122.486 242.432 122.333 242.432L122.18 242.432L83.3251 262.402ZM125.546 325.81L83.784 262.694L122.18 243.015L125.546 325.81Z" fill="#C9C9C9"/>
<path d="M64.3564 274.938L64.0504 326.539L64.3564 326.539L64.8153 275.521L100.764 326.539L101.223 326.539L64.6623 274.792L64.5093 274.646C64.5093 274.792 64.3564 274.792 64.3564 274.938Z" fill="#C9C9C9"/>
<path d="M64.5093 274.792C64.5093 274.792 64.3564 274.937 64.5093 275.083L100.764 326.539L101.223 326.539L65.5801 275.958L125.546 326.539L126.005 326.539L126.005 326.393L126.005 326.248L64.8153 274.792C64.6623 274.792 64.5093 274.792 64.5093 274.792Z" fill="#C9C9C9"/>
<path d="M118.203 164.592C118.203 164.592 118.203 164.738 118.05 164.738L117.897 164.738L60.0731 125.528C60.0731 125.528 59.9201 125.382 60.0731 125.382C60.0731 125.236 60.2261 125.236 60.2261 125.236L99.0813 126.985C99.0813 126.985 99.2343 126.985 99.2343 127.131L118.203 164.592C118.05 164.592 118.203 164.592 118.203 164.592ZM60.685 125.673L117.438 164.009L98.7753 127.422L60.685 125.673Z" fill="#C9C9C9"/>
<path d="M99.0812 174.796C99.0812 174.796 99.0812 174.942 99.0812 174.796C99.0812 174.942 98.9283 174.942 98.9283 174.942L55.7898 172.61L55.6368 172.61L55.6368 172.464L60.0731 125.527C60.0731 125.382 60.0731 125.382 60.226 125.382C60.379 125.382 60.379 125.382 60.379 125.382L99.0812 174.796ZM55.9428 172.318L98.4694 174.65L60.226 125.965L55.9428 172.318Z" fill="#C9C9C9"/>
<path d="M118.203 164.593C118.203 164.593 118.203 164.738 118.203 164.593C118.203 164.738 118.203 164.738 118.05 164.738L98.9283 174.942C98.7753 174.942 98.7753 174.942 98.6223 174.942L59.9201 125.528C59.9201 125.528 59.9201 125.382 59.9201 125.236C59.9201 125.236 60.0731 125.236 60.2261 125.236L118.203 164.593C118.05 164.593 118.203 164.593 118.203 164.593ZM98.9283 174.65L117.591 164.738L60.9909 126.402L98.9283 174.65Z" fill="#C9C9C9"/>
<path d="M78.4299 224.065L83.6309 262.401C83.6309 262.547 83.6309 262.547 83.6309 262.547L83.478 262.547L83.325 262.401L55.6368 172.318C55.6368 172.172 55.6368 172.172 55.7898 172.027C55.9428 172.027 55.9428 172.027 56.0958 172.172L78.4299 224.065ZM82.8661 260.215L77.9709 224.065L56.8606 175.525L82.8661 260.215Z" fill="#C9C9C9"/>
<path d="M99.0813 174.796L83.631 262.547C83.631 262.547 83.631 262.693 83.4781 262.693L83.3251 262.693L83.1721 262.547L55.4839 172.463L55.4839 172.318L55.6369 172.318L98.7754 174.65C98.9283 174.65 98.9284 174.65 99.0813 174.796ZM83.3251 261.818L98.6224 175.087L55.9429 172.755L83.3251 261.818Z" fill="#C9C9C9"/>
<path d="M78.43 224.065C78.43 224.211 78.43 224.211 78.43 224.065L64.8153 274.938L62.5207 280.768C62.5207 280.914 62.3678 280.914 62.2148 280.914C62.0618 280.914 62.0618 280.768 62.0618 280.623L78.124 223.92C78.124 223.774 78.277 223.774 78.43 223.774C78.43 223.92 78.43 224.065 78.43 224.065ZM64.3564 274.792L70.3224 252.49L63.2856 277.416L64.3564 274.792Z" fill="#C9C9C9"/>
<path d="M78.4299 224.066L83.6309 262.547C83.6309 262.547 83.6309 262.693 83.478 262.693L64.6623 275.083C64.5093 275.083 64.5093 275.083 64.3563 275.083L64.3563 274.937L77.9709 224.211C77.9709 224.066 78.1239 224.066 78.1239 224.066C78.2769 223.92 78.4299 224.066 78.4299 224.066ZM83.172 262.547L78.1239 225.232L64.8152 274.646L83.172 262.547Z" fill="#C9C9C9"/>
<path d="M62.0618 280.768L41.5634 301.904L41.5634 302.05L51.0477 326.539L51.5066 326.539L42.0223 302.05L62.0618 281.351L62.9796 326.539L63.2856 326.539L62.2147 280.768C62.2147 280.768 62.2147 280.622 62.0618 280.622C62.2147 280.622 62.0618 280.622 62.0618 280.768Z" fill="#C9C9C9"/>
<path d="M64.3563 274.792L61.9088 280.768L62.9796 326.539L63.2855 326.539L62.3677 280.914L64.3563 275.958L64.0504 326.539L64.3563 326.539L64.8152 274.937C64.8152 274.792 64.8152 274.792 64.6623 274.792C64.5093 274.792 64.5093 274.792 64.3563 274.792Z" fill="#C9C9C9"/>
<path d="M41.5634 301.904L26.2661 326.539L26.725 326.539L41.7164 302.487L46.3056 326.539L46.7645 326.539L42.0223 301.904C42.0223 301.758 42.0223 301.758 41.8693 301.758C41.7164 301.758 41.7164 301.758 41.5634 301.904Z" fill="#C9C9C9"/>
<path d="M41.5634 302.05L46.3055 326.539L46.7644 326.539L42.4812 303.945L51.0477 326.539L51.5066 326.539L42.0223 301.904C42.0223 301.758 41.8693 301.758 41.8693 301.758C41.5634 301.904 41.5634 301.904 41.5634 302.05Z" fill="#C9C9C9"/>
<path d="M99.0813 127.276C99.2343 127.276 99.0813 127.276 99.0813 127.276C99.0813 127.421 99.0813 127.421 98.9284 127.421L98.7754 127.421C98.7754 127.421 98.6224 127.421 98.6224 127.276L71.6991 67.8029L58.5434 23.4899C58.5434 23.3442 58.5434 23.3441 58.6964 23.1984C58.8493 23.1984 58.8493 23.1984 59.0023 23.3442L99.0813 127.276ZM60.3791 27.8629L72.158 67.6571L96.4808 121.153L60.3791 27.8629Z" fill="#C9C9C9"/>
<path d="M72.1579 67.6578C72.1579 67.8036 72.1579 67.8036 72.1579 67.6578L60.379 125.527C60.379 125.527 60.379 125.672 60.226 125.672L60.073 125.672L36.0562 110.513L35.9033 110.367L35.9033 110.221L71.852 67.6578C71.852 67.5121 72.0049 67.5121 72.1579 67.6578C72.0049 67.6578 72.1579 67.6578 72.1579 67.6578ZM59.9201 125.235L71.546 68.3867L36.2092 110.221L59.9201 125.235Z" fill="#C9C9C9"/>
<path d="M99.0813 127.276C99.2343 127.276 99.0813 127.421 99.0813 127.276C99.0813 127.421 98.9283 127.421 98.9283 127.421L60.0731 125.672L59.9202 125.672L59.9202 125.526L71.6991 67.8033C71.6991 67.6576 71.8521 67.6576 71.8521 67.6576C72.005 67.6576 72.0051 67.6576 72.0051 67.8033L99.0813 127.276ZM60.3791 125.381L98.7754 127.13L72.158 68.3864L60.3791 125.381Z" fill="#C9C9C9"/>
<path d="M55.9428 172.464L55.9428 172.61L29.6314 186.458L29.4784 186.458L29.3254 186.312L35.9033 110.368C35.9033 110.222 36.0563 110.222 36.0563 110.222C36.2092 110.222 36.2092 110.222 36.2092 110.368L55.9428 172.464ZM29.6314 186.02L55.4839 172.318L36.0563 111.242L29.6314 186.02Z" fill="#C9C9C9"/>
<path d="M60.379 125.527L55.9428 172.464L55.9428 172.61L55.7898 172.61L55.6368 172.464L35.9033 110.368L35.9033 110.222L36.0562 110.222L60.379 125.527C60.226 125.382 60.226 125.382 60.379 125.527ZM55.6368 171.444L59.9201 125.527L36.3622 110.805L55.6368 171.444Z" fill="#C9C9C9"/>
<path d="M78.43 224.065C78.43 224.065 78.43 224.211 78.43 224.065C78.43 224.211 78.43 224.211 78.277 224.211L28.7137 244.618L28.5607 244.618L28.4077 244.472L29.3255 186.457C29.3255 186.457 29.3256 186.311 29.4785 186.311L29.6315 186.311L78.43 224.065C78.277 223.919 78.277 223.919 78.43 224.065ZM28.7137 244.181L77.8181 224.065L29.6315 186.749L28.7137 244.181Z" fill="#C9C9C9"/>
<path d="M78.43 224.065C78.43 224.065 78.43 224.21 78.43 224.065C78.43 224.21 78.43 224.21 78.277 224.21L78.124 224.21L29.3256 186.457C29.3256 186.457 29.1726 186.311 29.3256 186.311C29.3256 186.311 29.3256 186.165 29.4785 186.165L55.7899 172.317L55.9429 172.317C55.9429 172.317 56.0959 172.317 56.0959 172.463L78.43 224.065ZM29.7845 186.311L77.8181 223.482L55.637 172.609L29.7845 186.311Z" fill="#C9C9C9"/>
<path d="M62.3677 280.769C62.3677 280.769 62.3677 280.914 62.3677 280.769C62.3677 280.914 62.3677 280.914 62.2147 280.914L8.98 291.993L8.82703 291.993L8.82703 291.847L28.4076 244.473L28.5606 244.327L28.7136 244.327L62.3677 280.769ZM9.28595 291.555L61.9088 280.623L28.7136 244.618L9.28595 291.555Z" fill="#C9C9C9"/>
<path d="M78.43 224.066C78.43 224.211 78.43 224.211 78.43 224.066L62.3678 280.914C62.3678 280.914 62.3678 281.06 62.2148 281.06L62.0618 281.06L28.4077 244.618L28.4077 244.473C28.4077 244.473 28.4077 244.327 28.5607 244.327L78.277 224.066C78.277 223.92 78.277 223.92 78.43 224.066ZM62.0618 280.477L77.9711 224.503L28.8666 244.473L62.0618 280.477Z" fill="#C9C9C9"/>
<path d="M-7.84772 312.837L-7.84772 313.42L8.97934 291.992L41.2567 301.905L-7.84772 326.248L-7.84772 326.539L-7.54177 326.539L41.8686 302.196L41.8686 302.05C41.8686 302.05 41.8686 301.905 41.7156 301.905L8.97934 291.701C8.82637 291.701 8.82637 291.701 8.82637 291.701L-7.84772 312.837Z" fill="#C9C9C9"/>
<path d="M62.3677 280.768L62.3677 280.914L41.8693 302.05L41.7163 302.05L8.82704 291.992C8.67407 291.992 8.67407 291.846 8.67407 291.846C8.67407 291.701 8.67407 291.701 8.82704 291.701L62.0617 280.622C62.2147 280.622 62.3677 280.622 62.3677 280.768ZM41.7163 301.759L61.6028 281.06L9.59191 291.846L41.7163 301.759Z" fill="#C9C9C9"/>
<path d="M-7.84772 326.539L-7.54177 326.539L41.2567 302.487L26.2653 326.539L26.7242 326.539L41.8686 302.05L41.8686 301.904C41.8686 301.904 41.8686 301.904 41.8686 301.758C41.8686 301.758 41.7156 301.612 41.7156 301.758L-7.84772 326.248L-7.84772 326.539Z" fill="#C9C9C9"/>
<path d="M65.7331 15.4729L58.8493 23.6359C58.8493 23.6359 58.6963 23.7817 58.6963 23.6359C58.6963 23.6359 58.6963 23.6359 58.5433 23.6359L35.5973 3.81156C35.5973 3.81156 35.4444 3.66578 35.5973 3.52001C35.5973 3.37424 35.7503 3.37424 35.9033 3.52001L65.7331 15.4729C65.7331 15.3272 65.7331 15.3272 65.7331 15.4729ZM58.8493 23.1986L65.2742 15.4729L36.8211 4.10309L58.8493 23.1986Z" fill="#C9C9C9"/>
<path d="M-7.84717 78.7355L-7.84717 80.0474L6.37934 31.9443L71.393 67.8029L-7.84717 86.7526L-7.84717 87.1899L72.0049 68.0945C72.0049 68.0945 72.0049 68.0945 72.1579 68.0945L72.3108 67.9487C72.3108 67.9487 72.3108 67.8029 72.1579 67.8029L6.53232 31.6528L6.37934 31.6528C6.37934 31.6528 6.22637 31.6528 6.22637 31.7985L-7.84717 78.7355Z" fill="#C9C9C9"/>
<path d="M72.158 67.6574C72.158 67.6574 72.158 67.8032 72.005 67.8032L71.8521 67.8032L6.22652 31.653L6.07355 31.5073C6.07355 31.3615 6.22652 31.3615 6.22652 31.3615L58.8493 23.1986C59.0023 23.1986 59.0023 23.1986 59.0023 23.3443L72.158 67.6574ZM6.83841 31.653L71.6991 67.3659L58.6964 23.6359L6.83841 31.653Z" fill="#C9C9C9"/>
<path d="M-7.84717 88.7937L35.5972 110.367L-0.810398 137.188L-7.84717 99.2889L-7.84717 101.33L-1.11634 137.48C-1.11634 137.48 -1.11634 137.625 -0.963371 137.625L-0.810398 137.625L36.0562 110.367C36.0562 110.367 36.2091 110.221 36.0562 110.221C36.0562 110.221 36.0562 110.221 35.9032 110.076L-7.84717 88.5021L-7.84717 88.7937Z" fill="#C9C9C9"/>
<path d="M-7.84717 87.0445L71.393 67.9489L35.9032 109.93L-7.84717 88.5022L-7.84717 88.9395L35.9032 110.513L36.0562 110.513C36.0562 110.513 36.0562 110.513 36.2091 110.513L72.1579 67.9489L72.1579 67.8031C72.1579 67.8031 72.1579 67.8031 72.1579 67.6573L72.0049 67.5116L-7.84717 86.753L-7.84717 87.0445Z" fill="#C9C9C9"/>
<path d="M-7.84717 148.267L-7.84717 148.995L-0.963372 137.917L29.1724 186.166L-7.84717 188.79L-7.84717 189.081L29.4783 186.312C29.6313 186.312 29.6313 186.311 29.6313 186.166C29.6313 186.166 29.6313 186.166 29.6313 186.02C29.6313 186.02 29.6313 186.02 29.6313 185.874L-0.810399 137.188L-0.963372 137.043C-0.963372 137.043 -1.11635 137.043 -1.11635 137.188L-7.84717 148.267Z" fill="#C9C9C9"/>
<path d="M36.2091 110.367L29.6313 186.457C29.6313 186.457 29.6313 186.603 29.4783 186.603L29.3253 186.603L-1.11633 137.771C-1.11633 137.625 -1.11633 137.625 -1.11633 137.479L35.7502 110.221C35.9032 110.075 36.0562 110.075 36.2091 110.367C36.2091 110.221 36.2091 110.221 36.2091 110.367ZM29.3253 185.728L35.7502 110.658L-0.657416 137.625L29.3253 185.728Z" fill="#C9C9C9"/>
<path d="M-7.84717 213.715L27.7956 243.889L-7.84717 232.227L-7.84717 232.665L28.5605 244.472L28.7134 244.472L28.8664 244.326C28.8664 244.326 28.8664 244.18 28.7134 244.18L-7.84717 213.278L-7.84717 213.715Z" fill="#C9C9C9"/>
<path d="M-7.84717 189.227L29.3253 186.603L28.4075 244.035L-7.84717 213.278L-7.84717 213.716L28.4075 244.618L28.5605 244.618L28.7134 244.472L29.6313 186.457L29.6313 186.311L29.4783 186.311L-7.84717 188.789L-7.84717 189.227Z" fill="#C9C9C9"/>
<path d="M-7.84717 266.629L8.21502 291.118L-7.84717 280.331L-7.84717 280.769L8.82692 291.993L8.97989 291.993L9.13286 291.847L-7.84717 265.9L-7.84717 266.629Z" fill="#C9C9C9"/>
<path d="M-7.84717 232.665L28.4075 244.472L8.82692 291.41L-7.84717 265.9L-7.84717 266.629L8.82692 291.847C8.82692 291.847 8.82692 291.847 8.82692 291.993L8.97989 291.993C8.97989 291.993 8.97989 291.993 9.13286 291.847L28.7134 244.472C28.7134 244.472 28.7134 244.472 28.7134 244.327C28.7134 244.327 28.7134 244.181 28.5605 244.181L-7.84717 232.374L-7.84717 232.665Z" fill="#C9C9C9"/>
<path d="M-7.84717 280.768L8.67395 291.846L-7.84717 312.836L-7.84717 313.419L9.13287 291.992L9.13287 291.846C9.13287 291.846 9.13287 291.701 8.97989 291.701L-7.84717 280.331L-7.84717 280.768Z" fill="#C9C9C9"/>
<path d="M-7.84717 29.1747L6.0734 31.7985L-7.84717 78.7355L-7.84717 80.0474L6.37934 31.6527C6.37934 31.6527 6.37934 31.6527 6.37934 31.507C6.37934 31.507 6.37934 31.3612 6.22637 31.3612L-7.84717 28.7374L-7.84717 29.1747H-7.84717Z" fill="#C9C9C9"/>
<path d="M382.866 213.132C382.427 212.987 382.134 212.549 382.281 212.112C382.427 211.674 382.866 211.383 383.305 211.529C383.744 211.674 384.037 212.112 383.891 212.549C383.891 212.987 383.452 213.278 382.866 213.132Z" fill="#10BE98"/>
<path d="M301.926 210.217C301.341 210.072 300.901 209.489 301.048 208.905C301.194 208.322 301.78 207.885 302.365 208.031C302.95 208.176 303.39 208.76 303.243 209.343C303.097 210.072 302.511 210.363 301.926 210.217Z" fill="#10BE98"/>
<path d="M382.427 215.756C380.524 215.319 379.353 213.424 379.793 211.529C380.232 209.634 382.134 208.468 384.037 208.905C385.94 209.342 387.111 211.237 386.672 213.132C386.233 215.027 384.184 216.193 382.427 215.756Z" fill="#10BE98"/>
<path d="M382.867 213.57C382.135 213.425 381.696 212.696 381.842 211.967C381.988 211.238 382.72 210.801 383.452 210.947C384.184 211.092 384.623 211.821 384.477 212.55C384.33 213.279 383.598 213.862 382.867 213.57Z" fill="#10BE98"/>
<path d="M382.574 214.735C381.257 214.444 380.525 213.132 380.817 211.82C381.11 210.509 382.428 209.78 383.745 210.071C385.062 210.363 385.794 211.675 385.501 212.986C385.208 214.152 383.891 215.027 382.574 214.735Z" fill="#10BE98"/>
<path d="M335.151 245.638C333.102 245.201 331.785 243.16 332.224 241.12C332.663 239.079 334.712 237.767 336.761 238.205C338.81 238.642 340.128 240.682 339.689 242.723C339.25 244.764 337.2 246.075 335.151 245.638Z" fill="#10BE98"/>
<path d="M329.443 266.92C328.272 266.629 327.54 265.463 327.833 264.442C328.126 263.276 329.296 262.547 330.321 262.839C331.492 263.13 332.224 264.296 331.931 265.317C331.638 266.337 330.467 267.212 329.443 266.92Z" fill="#10BE98"/>
<path d="M301.634 211.383C300.463 211.092 299.585 209.926 299.877 208.614C300.17 207.447 301.341 206.573 302.658 206.864C303.829 207.156 304.708 208.322 304.415 209.634C304.122 210.946 302.805 211.675 301.634 211.383Z" fill="#1CCD91"/>
<path d="M335.737 242.724C335.298 242.578 335.005 242.141 335.005 241.703C335.151 241.266 335.59 240.975 336.029 240.975C336.468 241.12 336.761 241.558 336.761 241.995C336.761 242.578 336.322 242.869 335.737 242.724Z" fill="#10BE98"/>
<path d="M335.736 242.869C335.151 242.723 334.858 242.286 335.005 241.703C335.151 241.12 335.59 240.828 336.176 240.974C336.761 241.12 337.054 241.557 336.907 242.14C336.761 242.578 336.322 242.869 335.736 242.869Z" fill="#10BE98"/>
<path d="M382.574 214.445C381.403 214.153 380.671 212.987 380.964 211.821C381.256 210.655 382.427 209.926 383.598 210.217C384.769 210.509 385.501 211.675 385.208 212.841C385.062 214.007 383.891 214.736 382.574 214.445Z" fill="#10BE98"/>
<path d="M301.34 212.549C299.438 212.112 298.267 210.363 298.706 208.468C299.145 206.573 300.901 205.407 302.804 205.844C304.707 206.281 305.878 208.031 305.439 209.926C304.999 211.82 303.243 212.987 301.34 212.549Z" fill="#1CCD91"/>
<path d="M335.444 244.18C334.127 243.889 333.395 242.577 333.688 241.265C333.981 239.953 335.298 239.225 336.615 239.516C337.932 239.808 338.664 241.119 338.372 242.431C338.079 243.743 336.761 244.472 335.444 244.18Z" fill="#1CCD91"/>
<path d="M329.443 299.572C329.151 299.426 328.858 299.135 329.004 298.843C329.151 298.552 329.443 298.26 329.736 298.406C330.029 298.552 330.322 298.843 330.175 299.135C330.175 299.572 329.736 299.718 329.443 299.572Z" fill="#10BE98"/>
<path d="M292.413 313.42C290.803 312.982 289.778 311.379 290.071 309.775C290.51 308.172 292.12 307.151 293.73 307.443C295.34 307.88 296.365 309.484 296.072 311.087C295.633 312.691 294.023 313.711 292.413 313.42Z" fill="#1CCD91"/>
<path d="M329.735 265.609C329.296 265.463 329.004 265.025 329.15 264.588C329.296 264.15 329.735 263.858 330.175 264.004C330.614 264.15 330.906 264.588 330.76 265.025C330.614 265.463 330.175 265.754 329.735 265.609Z" fill="#10BE98"/>
<path d="M329.004 301.904C327.394 301.613 326.516 300.009 326.809 298.552C327.101 296.949 328.711 296.074 330.175 296.366C331.785 296.657 332.663 298.26 332.37 299.718C332.078 301.175 330.468 302.196 329.004 301.904Z" fill="#1CCD91"/>
<path d="M284.216 320.125C283.191 319.979 282.606 318.959 282.898 318.084C283.045 317.21 284.069 316.481 284.947 316.772C285.826 316.918 286.557 317.939 286.265 318.813C286.118 319.834 285.24 320.417 284.216 320.125Z" fill="#10BE98"/>
<path d="M292.559 312.691C291.242 312.4 290.51 311.088 290.803 309.922C291.095 308.61 292.413 307.881 293.584 308.172C294.901 308.464 295.633 309.776 295.34 310.942C295.047 312.108 293.876 312.983 292.559 312.691Z" fill="#1CCD91"/>
<path d="M329.296 300.446C328.565 300.301 327.979 299.426 328.126 298.697C328.272 297.968 329.15 297.385 329.882 297.531C330.614 297.677 331.199 298.552 331.053 299.28C330.906 300.155 330.028 300.592 329.296 300.446Z" fill="#10BE98"/>
<path d="M292.998 310.942C292.705 310.942 292.558 310.651 292.558 310.359C292.558 310.068 292.851 309.922 293.144 309.922C293.437 309.922 293.583 310.213 293.583 310.505C293.437 310.797 293.29 310.942 292.998 310.942Z" fill="#1CCD91"/>
<path d="M283.923 321.437C282.167 321 281.143 319.396 281.582 317.647C282.021 315.898 283.631 314.877 285.387 315.315C287.144 315.752 288.168 317.356 287.729 319.105C287.29 320.854 285.68 321.874 283.923 321.437Z" fill="#1CCD91"/>
<path d="M284.216 320.417C283.045 320.125 282.46 319.105 282.606 317.939C282.899 316.772 283.923 316.189 285.094 316.335C286.265 316.627 286.851 317.647 286.704 318.813C286.412 319.979 285.387 320.708 284.216 320.417Z" fill="#10BE98"/>
<path d="M301.78 210.655C300.902 210.509 300.463 209.634 300.609 208.76C300.756 207.885 301.634 207.448 302.512 207.594C303.39 207.74 303.829 208.614 303.683 209.489C303.537 210.363 302.658 210.8 301.78 210.655Z" fill="#1CCD91"/>
<path d="M301.78 210.654C301.048 210.508 300.463 209.634 300.609 208.905C300.755 208.176 301.634 207.593 302.365 207.739C303.097 207.885 303.683 208.759 303.536 209.488C303.39 210.217 302.658 210.8 301.78 210.654Z" fill="#1CCD91"/>
<path d="M301.78 210.655C300.902 210.509 300.463 209.634 300.609 208.76C300.756 207.885 301.634 207.448 302.512 207.593C303.39 207.739 303.829 208.614 303.683 209.488C303.39 210.363 302.658 210.946 301.78 210.655Z" fill="#10BE98"/>
<path d="M301.926 210.217C301.341 210.072 300.901 209.489 301.048 208.905C301.194 208.322 301.78 207.885 302.365 208.031C302.95 208.176 303.39 208.76 303.243 209.343C303.097 210.072 302.511 210.363 301.926 210.217Z" fill="#1CCD91"/>
<path d="M329.589 266.191C328.857 266.046 328.418 265.317 328.565 264.588C328.711 263.86 329.443 263.422 330.175 263.568C330.907 263.714 331.346 264.443 331.199 265.171C331.053 265.9 330.321 266.337 329.589 266.191Z" fill="#10BE98"/>
<path d="M275.141 230.625C273.092 230.187 271.775 228.147 272.214 225.96C272.653 223.919 274.702 222.607 276.898 223.045C278.947 223.482 280.264 225.523 279.825 227.709C279.239 229.896 277.19 231.208 275.141 230.625Z" fill="#1CCD91"/>
<path d="M329.589 266.191C328.857 266.046 328.418 265.317 328.565 264.588C328.711 263.86 329.443 263.422 330.175 263.568C330.907 263.714 331.346 264.443 331.199 265.171C331.053 265.9 330.321 266.337 329.589 266.191Z" fill="#1CCD91"/>
<path d="M329.15 267.795C327.54 267.358 326.516 265.754 326.808 264.151C327.247 262.547 328.858 261.527 330.468 261.818C332.078 262.256 333.102 263.859 332.809 265.463C332.517 267.212 330.76 268.232 329.15 267.795Z" fill="#1CCD91"/>
<path d="M304.854 209.197C304.854 207.667 303.609 206.427 302.073 206.427C300.537 206.427 299.292 207.667 299.292 209.197C299.292 210.726 300.537 211.966 302.073 211.966C303.609 211.966 304.854 210.726 304.854 209.197Z" fill="#10BE98"/>
<path d="M331.242 260.394C328.77 259.635 326.148 261.016 325.386 263.477C324.624 265.939 326.01 268.55 328.482 269.309C330.954 270.068 333.576 268.688 334.338 266.226C335.1 263.764 333.714 261.153 331.242 260.394Z" fill="#10BE98"/>
<path d="M292.851 311.233C292.412 311.088 292.12 310.65 292.266 310.213C292.412 309.776 292.851 309.484 293.291 309.63C293.73 309.776 294.022 310.213 293.876 310.65C293.73 310.942 293.291 311.233 292.851 311.233Z" fill="#1CCD91"/>
<path d="M257.431 309.339C254.357 308.61 252.455 305.695 253.186 302.634C253.918 299.573 256.846 297.678 259.919 298.406C262.993 299.135 264.896 302.051 264.164 305.112C263.432 308.173 260.505 310.067 257.431 309.339Z" fill="#10BE98"/>
<path d="M275.726 227.709C275.287 227.563 274.995 227.126 275.141 226.688C275.287 226.251 275.726 225.96 276.165 226.105C276.605 226.251 276.897 226.688 276.751 227.126C276.751 227.563 276.165 227.854 275.726 227.709Z" fill="#10BE98"/>
<path d="M291.973 315.315C289.192 314.732 287.582 311.962 288.168 309.338C288.753 306.568 291.534 304.965 294.169 305.548C296.95 306.131 298.56 308.901 297.974 311.525C297.389 314.149 294.608 315.898 291.973 315.315Z" fill="#10BE98"/>
<path d="M292.559 312.836C291.241 312.545 290.363 311.233 290.656 309.921C290.949 308.609 292.266 307.735 293.583 308.026C294.901 308.318 295.779 309.63 295.486 310.941C295.193 312.253 293.876 313.128 292.559 312.836Z" fill="#1CCD91"/>
<path d="M328.711 269.982C325.784 269.399 324.027 266.483 324.759 263.568C325.345 260.652 328.272 258.903 331.199 259.632C334.127 260.215 335.883 263.131 335.151 266.046C334.419 268.961 331.492 270.711 328.711 269.982Z" fill="#10BE98"/>
<path d="M275.581 228.729C274.556 228.437 273.971 227.563 274.117 226.543C274.41 225.523 275.288 224.94 276.312 225.085C277.337 225.377 277.923 226.251 277.776 227.271C277.483 228.292 276.605 228.875 275.581 228.729Z" fill="#1CCD91"/>
<path d="M292.413 313.42C290.656 312.982 289.632 311.379 290.071 309.63C290.51 307.881 292.12 306.861 293.876 307.298C295.633 307.735 296.657 309.338 296.218 311.087C295.779 312.836 294.023 313.857 292.413 313.42Z" fill="#10BE98"/>
<path d="M283.924 321.437C282.313 321 281.289 319.396 281.582 317.793C282.021 316.189 283.631 315.168 285.241 315.46C286.851 315.897 287.875 317.501 287.583 319.105C287.29 320.708 285.68 321.729 283.924 321.437Z" fill="#1CCD91"/>
<path d="M258.309 305.403C257.431 305.257 256.846 304.382 257.138 303.508C257.285 302.633 258.163 302.05 259.041 302.342C259.919 302.487 260.505 303.362 260.212 304.237C259.919 305.111 259.187 305.694 258.309 305.403Z" fill="#1CCD91"/>
<path d="M284.362 319.979C283.484 319.833 282.899 318.959 283.191 318.084C283.338 317.21 284.216 316.626 285.094 316.918C285.972 317.064 286.558 317.938 286.265 318.813C285.972 319.688 285.094 320.125 284.362 319.979Z" fill="#1CCD91"/>
<path d="M283.923 321.291C282.313 320.999 281.289 319.396 281.728 317.793C282.021 316.189 283.631 315.169 285.241 315.606C286.851 315.898 287.875 317.501 287.436 319.105C287.143 320.708 285.533 321.728 283.923 321.291Z" fill="#1CCD91"/>
<path d="M292.558 312.545C291.388 312.254 290.509 311.087 290.802 309.776C291.095 308.609 292.266 307.735 293.583 308.026C294.9 308.318 295.632 309.484 295.339 310.796C295.047 312.108 293.729 312.837 292.558 312.545Z" fill="#1CCD91"/>
<path d="M258.163 305.695C257.138 305.403 256.407 304.383 256.699 303.362C256.992 302.342 258.017 301.613 259.041 301.904C260.066 302.196 260.798 303.216 260.505 304.237C260.212 305.403 259.188 305.986 258.163 305.695Z" fill="#1CCD91"/>
<path d="M284.362 319.542C283.777 319.396 283.338 318.813 283.484 318.23C283.63 317.647 284.216 317.21 284.801 317.356C285.387 317.502 285.826 318.085 285.679 318.668C285.679 319.251 284.948 319.688 284.362 319.542Z" fill="#10BE98"/>
<path d="M284.216 320.562C283.045 320.27 282.313 319.25 282.606 318.084C282.899 316.918 283.923 316.189 285.094 316.481C286.265 316.772 286.997 317.793 286.704 318.959C286.412 319.979 285.387 320.708 284.216 320.562Z" fill="#1CCD91"/>
<path d="M227.426 196.807C224.645 196.224 222.888 193.455 223.474 190.539C224.059 187.769 226.84 186.02 229.768 186.603C232.549 187.186 234.305 189.956 233.72 192.871C232.988 195.641 230.207 197.39 227.426 196.807Z" fill="#1CCD91"/>
<path d="M275.58 228.146C274.848 228 274.409 227.271 274.556 226.542C274.702 225.813 275.434 225.376 276.166 225.522C276.898 225.668 277.337 226.397 277.19 227.125C277.044 227.854 276.312 228.438 275.58 228.146Z" fill="#10BE98"/>
<path d="M235.476 232.082C234.598 231.936 234.013 231.061 234.159 230.041C234.305 229.166 235.184 228.583 236.208 228.729C237.086 228.875 237.672 229.749 237.525 230.77C237.233 231.644 236.354 232.227 235.476 232.082Z" fill="#10BE98"/>
<path d="M227.865 194.183C226.401 193.892 225.523 192.434 225.816 190.976C226.109 189.519 227.572 188.644 229.036 188.936C230.5 189.227 231.378 190.685 231.085 192.143C230.792 193.746 229.329 194.621 227.865 194.183Z" fill="#1CCD91"/>
<path d="M275.873 227.417C275.581 227.417 275.434 227.125 275.434 226.688C275.434 226.397 275.727 226.251 276.166 226.251C276.459 226.251 276.605 226.543 276.605 226.98C276.459 227.271 276.166 227.562 275.873 227.417Z" fill="#10BE98"/>
<path d="M275.434 229.021C274.263 228.73 273.531 227.563 273.824 226.397C274.117 225.231 275.287 224.502 276.458 224.794C277.629 225.085 278.361 226.252 278.068 227.418C277.776 228.584 276.605 229.313 275.434 229.021Z" fill="#10BE98"/>
<path d="M228.158 193.017C227.426 192.871 226.987 192.142 227.133 191.413C227.279 190.684 228.011 190.247 228.743 190.393C229.475 190.539 229.914 191.267 229.768 191.996C229.621 192.725 228.889 193.162 228.158 193.017Z" fill="#1CCD91"/>
<path d="M275.727 227.855C275.142 227.71 274.849 227.126 274.995 226.543C275.142 225.96 275.727 225.668 276.313 225.814C276.898 225.96 277.191 226.543 277.044 227.126C276.898 227.71 276.313 228.001 275.727 227.855Z" fill="#10BE98"/>
<path d="M258.456 304.674C258.017 304.528 257.724 304.091 257.724 303.654C257.87 303.216 258.309 302.925 258.748 302.925C259.188 303.071 259.48 303.508 259.48 303.945C259.334 304.528 258.895 304.82 258.456 304.674Z" fill="#10BE98"/>
<path d="M207.959 277.853C205.471 277.27 203.861 274.792 204.446 272.314C205.032 269.835 207.52 268.232 210.008 268.815C212.496 269.398 214.106 271.876 213.521 274.354C212.936 276.832 210.447 278.436 207.959 277.853Z" fill="#1CCD91"/>
<path d="M235.183 233.102C233.573 232.811 232.695 231.207 232.988 229.75C233.281 228.146 234.891 227.272 236.354 227.563C237.964 227.855 238.842 229.458 238.55 230.916C238.257 232.519 236.647 233.539 235.183 233.102Z" fill="#10BE98"/>
<path d="M258.309 305.111C257.577 304.966 257.284 304.237 257.431 303.654C257.577 302.925 258.309 302.633 258.894 302.779C259.48 302.925 259.919 303.654 259.773 304.237C259.773 304.82 259.041 305.257 258.309 305.111Z" fill="#10BE98"/>
<path d="M258.309 305.548C257.431 305.402 256.846 304.382 256.992 303.508C257.139 302.633 258.163 302.05 259.041 302.196C259.919 302.342 260.505 303.362 260.359 304.236C260.066 305.257 259.188 305.84 258.309 305.548Z" fill="#10BE98"/>
<path d="M275.141 230.479C273.092 230.041 271.921 228.147 272.36 226.106C272.799 224.066 274.702 222.9 276.751 223.337C278.8 223.774 279.971 225.669 279.532 227.709C279.093 229.604 277.044 230.916 275.141 230.479Z" fill="#1CCD91"/>
<path d="M235.476 231.644C234.745 231.499 234.305 230.77 234.452 230.041C234.598 229.313 235.33 228.876 236.062 229.021C236.794 229.167 237.233 229.896 237.086 230.624C236.94 231.353 236.208 231.79 235.476 231.644Z" fill="#1CCD91"/>
<path d="M258.163 305.985C256.992 305.694 256.26 304.528 256.553 303.508C256.846 302.342 258.017 301.613 259.041 301.904C260.212 302.196 260.944 303.362 260.651 304.382C260.505 305.548 259.334 306.131 258.163 305.985Z" fill="#10BE98"/>
<path d="M225.963 318.521C225.816 318.521 225.67 318.23 225.67 318.084C225.67 317.939 225.963 317.793 226.109 317.793C226.255 317.793 226.402 318.084 226.402 318.23C226.402 318.521 226.255 318.667 225.963 318.521Z" fill="#10BE98"/>
<path d="M207.667 278.873C204.593 278.144 202.691 275.083 203.276 272.022C204.008 268.961 207.082 267.066 210.155 267.649C213.229 268.378 215.132 271.439 214.546 274.5C213.961 277.707 210.741 279.602 207.667 278.873Z" fill="#10BE98"/>
<path d="M258.163 306.277C256.845 305.985 255.967 304.674 256.406 303.362C256.845 302.05 258.016 301.176 259.334 301.613C260.651 301.904 261.529 303.216 261.09 304.528C260.651 305.694 259.48 306.569 258.163 306.277Z" fill="#10BE98"/>
<path d="M208.252 276.541C206.496 276.103 205.325 274.354 205.764 272.605C206.203 270.856 207.959 269.69 209.716 270.127C211.472 270.564 212.643 272.314 212.204 274.063C211.765 275.812 210.008 276.978 208.252 276.541Z" fill="#10BE98"/>
<path d="M225.23 322.311C223.035 321.874 221.571 319.542 222.157 317.356C222.596 315.169 224.938 313.712 227.133 314.295C229.329 314.732 230.792 317.064 230.207 319.251C229.621 321.291 227.426 322.749 225.23 322.311Z" fill="#10BE98"/>
<path d="M225.816 319.542C225.084 319.396 224.645 318.668 224.791 317.939C224.938 317.21 225.669 316.773 226.401 316.919C227.133 317.064 227.572 317.793 227.426 318.522C227.28 319.25 226.548 319.688 225.816 319.542Z" fill="#10BE98"/>
<path d="M228.158 193.454C227.133 193.163 226.548 192.288 226.841 191.268C227.133 190.247 228.012 189.664 229.036 189.956C230.061 190.247 230.646 191.122 230.353 192.142C230.061 193.017 229.036 193.6 228.158 193.454Z" fill="#10BE98"/>
<path d="M216.01 145.789C215.131 145.643 214.546 144.768 214.692 143.748C214.839 142.873 215.717 142.29 216.741 142.436C217.62 142.582 218.205 143.456 218.059 144.477C217.766 145.351 216.888 145.934 216.01 145.789Z" fill="#10BE98"/>
<path d="M228.305 192.871C227.719 192.725 227.28 192.142 227.426 191.413C227.573 190.83 228.158 190.393 228.89 190.539C229.475 190.684 229.915 191.267 229.768 191.996C229.475 192.579 228.89 193.016 228.305 192.871Z" fill="#1CCD91"/>
<path d="M228.012 193.6C226.987 193.308 226.255 192.288 226.548 191.122C226.841 190.102 227.865 189.373 229.036 189.664C230.061 189.956 230.793 190.976 230.5 192.142C230.207 193.163 229.183 193.891 228.012 193.6Z" fill="#10BE98"/>
<path d="M228.158 193.017C227.426 192.871 226.841 192.142 227.134 191.268C227.28 190.539 228.012 189.956 228.89 190.248C229.622 190.393 230.207 191.122 229.915 191.996C229.768 192.725 229.036 193.308 228.158 193.017Z" fill="#10BE98"/>
<path d="M235.476 231.645C234.891 231.499 234.451 230.916 234.598 230.187C234.744 229.604 235.33 229.167 236.061 229.312C236.647 229.458 237.086 230.041 236.94 230.77C236.793 231.353 236.208 231.79 235.476 231.645Z" fill="#1CCD91"/>
<path d="M186.736 185.291C185.712 184.999 185.126 184.125 185.419 183.104C185.712 182.084 186.59 181.501 187.614 181.792C188.639 182.084 189.224 182.959 188.932 183.979C188.639 184.853 187.761 185.582 186.736 185.291Z" fill="#10BE98"/>
<path d="M215.57 147.684C213.667 147.246 212.35 145.351 212.789 143.311C213.228 141.416 215.131 140.104 217.18 140.541C219.083 140.979 220.4 142.873 219.961 144.914C219.522 146.955 217.473 148.121 215.57 147.684Z" fill="#10BE98"/>
<path d="M235.476 231.936C234.598 231.79 234.012 230.916 234.305 230.041C234.452 229.166 235.33 228.583 236.208 228.875C237.086 229.166 237.672 229.895 237.379 230.77C237.233 231.644 236.354 232.227 235.476 231.936Z" fill="#10BE98"/>
<path d="M235.183 233.102C233.72 232.811 232.695 231.207 232.988 229.75C233.281 228.292 234.891 227.272 236.354 227.563C237.818 227.855 238.843 229.458 238.55 230.916C238.257 232.519 236.647 233.539 235.183 233.102Z" fill="#10BE98"/>
<path d="M228.451 192.142C228.158 192.142 228.158 191.851 228.158 191.705C228.158 191.414 228.451 191.414 228.597 191.414C228.89 191.414 228.89 191.705 228.89 191.851C228.89 191.996 228.597 192.142 228.451 192.142Z" fill="#10BE98"/>
<path d="M217.764 139.588C215.21 138.823 212.516 140.264 211.747 142.808C210.979 145.352 212.427 148.035 214.981 148.8C217.535 149.566 220.229 148.124 220.998 145.58C221.766 143.036 220.319 140.353 217.764 139.588Z" fill="#1CCD91"/>
<path d="M235.476 232.082C234.598 231.936 233.866 230.916 234.159 230.041C234.305 229.021 235.33 228.438 236.208 228.729C237.233 228.875 237.818 229.895 237.525 230.77C237.233 231.79 236.354 232.373 235.476 232.082Z" fill="#10BE98"/>
<path d="M208.398 275.958C206.935 275.667 206.056 274.209 206.349 272.751C206.642 271.293 208.105 270.419 209.569 270.71C211.033 271.002 211.911 272.46 211.618 273.917C211.179 275.375 209.862 276.25 208.398 275.958Z" fill="#10BE98"/>
<path d="M162 278.436C160.244 277.998 159.073 276.249 159.512 274.354C159.951 272.605 161.708 271.439 163.61 271.876C165.367 272.313 166.538 274.063 166.099 275.958C165.66 277.707 163.757 278.873 162 278.436Z" fill="#1CCD91"/>
<path d="M186.883 184.416C186.443 184.271 186.004 183.833 186.151 183.25C186.297 182.813 186.736 182.376 187.322 182.522C187.761 182.667 188.2 183.105 188.053 183.688C187.907 184.271 187.468 184.562 186.883 184.416Z" fill="#10BE98"/>
<path d="M208.398 276.25C206.788 275.958 205.764 274.354 206.203 272.751C206.495 271.147 208.105 270.127 209.715 270.564C211.325 270.856 212.35 272.459 211.911 274.063C211.472 275.667 209.862 276.541 208.398 276.25Z" fill="#1CCD91"/>
<path d="M208.252 276.686C206.496 276.249 205.325 274.5 205.764 272.605C206.203 270.856 207.959 269.69 209.862 270.127C211.618 270.564 212.789 272.314 212.35 274.208C211.911 275.958 210.008 276.978 208.252 276.686Z" fill="#10BE98"/>
<path d="M235.33 232.374C234.305 232.082 233.574 231.062 233.72 229.896C234.013 228.876 235.037 228.147 236.208 228.438C237.233 228.73 237.964 229.75 237.672 230.916C237.525 231.936 236.501 232.665 235.33 232.374Z" fill="#1CCD91"/>
<path d="M186.59 186.02C185.126 185.728 184.248 184.271 184.541 182.959C184.833 181.502 186.297 180.627 187.614 180.919C189.078 181.21 189.956 182.668 189.663 183.979C189.371 185.582 187.907 186.457 186.59 186.02Z" fill="#10BE98"/>
<path d="M208.838 273.917C208.545 273.771 208.252 273.48 208.399 273.188C208.545 272.897 208.838 272.605 209.131 272.751C209.423 272.897 209.716 273.188 209.57 273.48C209.423 273.771 209.131 274.063 208.838 273.917Z" fill="#1CCD91"/>
<path d="M225.377 321.146C223.767 320.709 222.742 319.105 223.035 317.501C223.474 315.898 225.084 314.877 226.694 315.169C228.304 315.606 229.329 317.21 229.036 318.813C228.743 320.563 226.987 321.583 225.377 321.146Z" fill="#10BE98"/>
<path d="M173.417 287.328C172.978 287.182 172.685 286.744 172.832 286.307C172.978 285.87 173.417 285.578 173.856 285.724C174.295 285.87 174.588 286.307 174.442 286.744C174.295 287.036 173.856 287.328 173.417 287.328Z" fill="#10BE98"/>
<path d="M162.294 277.124C161.269 276.832 160.537 275.812 160.83 274.646C161.123 273.626 162.147 272.897 163.318 273.188C164.343 273.48 165.075 274.5 164.782 275.666C164.489 276.686 163.318 277.415 162.294 277.124Z" fill="#10BE98"/>
<path d="M225.669 320.125C224.645 319.833 223.913 318.813 224.206 317.793C224.498 316.773 225.523 316.044 226.548 316.335C227.572 316.627 228.304 317.647 228.011 318.667C227.718 319.687 226.694 320.416 225.669 320.125Z" fill="#1CCD91"/>
<path d="M225.085 322.311C222.743 321.728 221.425 319.542 221.864 317.21C222.45 314.878 224.645 313.566 226.987 314.003C229.329 314.586 230.646 316.772 230.207 319.105C229.768 321.437 227.426 322.894 225.085 322.311Z" fill="#10BE98"/>
<path d="M208.837 274.208C208.398 274.062 207.959 273.625 208.106 273.042C208.252 272.605 208.691 272.168 209.277 272.314C209.716 272.459 210.155 272.897 210.008 273.479C209.716 274.062 209.277 274.354 208.837 274.208Z" fill="#10BE98"/>
<path d="M161.855 279.019C159.805 278.582 158.488 276.541 158.927 274.354C159.366 272.313 161.415 271.002 163.611 271.439C165.66 271.876 166.977 273.917 166.538 276.104C166.099 278.144 163.904 279.456 161.855 279.019Z" fill="#1CCD91"/>
<path d="M225.816 319.542C225.084 319.396 224.645 318.668 224.791 317.939C224.938 317.21 225.669 316.773 226.401 316.919C227.133 317.064 227.572 317.793 227.426 318.522C227.28 319.25 226.548 319.688 225.816 319.542Z" fill="#1CCD91"/>
<path d="M173.124 288.057C172.246 287.911 171.661 287.036 171.953 286.162C172.1 285.287 172.978 284.704 173.856 284.995C174.734 285.141 175.32 286.016 175.027 286.89C174.881 287.619 174.002 288.202 173.124 288.057Z" fill="#10BE98"/>
<path d="M225.67 320.271C224.499 319.98 223.767 318.813 224.059 317.793C224.352 316.627 225.523 315.898 226.548 316.189C227.719 316.481 228.45 317.647 228.158 318.668C227.865 319.834 226.694 320.563 225.67 320.271Z" fill="#10BE98"/>
<path d="M173.271 287.474C172.685 287.328 172.392 286.745 172.539 286.307C172.685 285.87 173.271 285.432 173.71 285.578C174.149 285.724 174.588 286.307 174.442 286.745C174.442 287.182 173.856 287.62 173.271 287.474Z" fill="#10BE98"/>
<path d="M215.717 146.955C214.107 146.664 213.228 145.06 213.521 143.456C213.814 141.853 215.424 140.978 217.034 141.27C218.644 141.561 219.522 143.165 219.229 144.768C218.79 146.372 217.327 147.392 215.717 146.955Z" fill="#10BE98"/>
<path d="M140.778 186.166C138.875 185.729 137.704 183.834 138.143 182.085C138.582 180.19 140.485 179.023 142.241 179.461C144.144 179.898 145.315 181.793 144.876 183.542C144.437 185.292 142.534 186.604 140.778 186.166Z" fill="#1CCD91"/>
<path d="M215.717 147.101C214.107 146.663 213.083 145.06 213.375 143.456C213.814 141.853 215.424 140.833 217.034 141.124C218.644 141.561 219.669 143.165 219.376 144.768C218.937 146.372 217.327 147.392 215.717 147.101Z" fill="#10BE98"/>
<path d="M215.717 146.663C214.253 146.372 213.375 144.914 213.814 143.602C214.107 142.144 215.571 141.27 216.888 141.707C218.352 141.998 219.23 143.456 218.791 144.768C218.498 146.08 217.181 146.955 215.717 146.663Z" fill="#1CCD91"/>
<path d="M216.156 145.205C215.57 145.059 215.131 144.476 215.278 143.747C215.424 143.164 216.009 142.727 216.741 142.873C217.327 143.019 217.766 143.602 217.62 144.33C217.327 145.059 216.741 145.351 216.156 145.205Z" fill="#1CCD91"/>
<path d="M186.883 184.416C186.297 184.271 186.005 183.833 186.151 183.251C186.297 182.668 186.736 182.376 187.322 182.522C187.907 182.668 188.2 183.105 188.054 183.688C187.907 184.271 187.468 184.562 186.883 184.416Z" fill="#10BE98"/>
<path d="M159.659 194.329C158.342 194.038 157.464 192.726 157.756 191.414C158.049 190.102 159.366 189.227 160.684 189.519C162.001 189.81 162.879 191.122 162.586 192.434C162.294 193.746 160.976 194.621 159.659 194.329Z" fill="#1CCD91"/>
<path d="M140.924 185C139.753 184.708 139.021 183.542 139.167 182.376C139.46 181.21 140.631 180.481 141.802 180.626C142.973 180.918 143.705 182.084 143.558 183.25C143.412 184.562 142.241 185.291 140.924 185Z" fill="#10BE98"/>
<path d="M187.029 183.979C186.736 183.979 186.59 183.688 186.59 183.397C186.59 183.105 186.883 182.959 187.175 182.959C187.468 182.959 187.614 183.251 187.614 183.542C187.614 183.834 187.322 184.125 187.029 183.979Z" fill="#10BE98"/>
<path d="M186.444 186.312C184.834 186.02 183.955 184.417 184.248 182.813C184.541 181.21 186.151 180.335 187.761 180.627C189.371 180.918 190.249 182.522 189.956 184.125C189.664 185.728 188.054 186.749 186.444 186.312Z" fill="#1CCD91"/>
<path d="M215.424 147.975C213.228 147.538 211.911 145.351 212.496 143.31C212.936 141.124 215.131 139.812 217.18 140.395C219.376 140.832 220.693 143.019 220.107 145.06C219.668 147.1 217.619 148.412 215.424 147.975Z" fill="#1CCD91"/>
<path d="M140.924 185.291C139.607 184.999 138.729 183.688 139.021 182.376C139.314 181.064 140.631 180.189 141.949 180.481C143.266 180.772 144.144 182.084 143.851 183.396C143.559 184.708 142.241 185.583 140.924 185.291Z" fill="#10BE98"/>
<path d="M186.736 185.583C185.565 185.291 184.833 184.271 185.126 183.104C185.419 181.938 186.443 181.209 187.614 181.501C188.785 181.792 189.517 182.813 189.224 183.979C188.932 185.145 187.761 185.874 186.736 185.583Z" fill="#10BE98"/>
<path d="M162.147 277.853C160.683 277.561 159.805 276.104 160.098 274.646C160.39 273.188 161.854 272.313 163.318 272.605C164.781 272.896 165.66 274.354 165.367 275.812C164.928 277.27 163.61 278.144 162.147 277.853Z" fill="#10BE98"/>
<path d="M133.605 243.16C133.312 243.16 133.312 242.869 133.312 242.723C133.312 242.432 133.605 242.432 133.752 242.432C134.044 242.432 134.044 242.723 134.044 242.869C134.044 243.014 133.752 243.16 133.605 243.16Z" fill="#10BE98"/>
<path d="M159.951 193.308C159.219 193.162 158.78 192.433 158.927 191.85C159.073 191.121 159.805 190.684 160.39 190.83C161.122 190.976 161.561 191.704 161.415 192.287C161.268 193.016 160.683 193.453 159.951 193.308Z" fill="#10BE98"/>
<path d="M162.586 275.52C162.44 275.52 162.293 275.229 162.293 275.083C162.293 274.937 162.586 274.792 162.732 274.792C162.879 274.792 163.025 275.083 163.025 275.229C163.025 275.52 162.879 275.666 162.586 275.52Z" fill="#10BE98"/>
<path d="M162 278.144C160.39 277.707 159.366 276.249 159.805 274.5C160.244 272.896 161.707 271.876 163.464 272.313C165.074 272.751 166.098 274.208 165.659 275.958C165.367 277.561 163.757 278.436 162 278.144Z" fill="#1CCD91"/>
<path d="M186.151 187.623C183.809 187.04 182.492 184.854 182.931 182.521C183.516 180.189 185.712 178.877 188.054 179.314C190.396 179.898 191.713 182.084 191.274 184.416C190.688 186.749 188.493 188.206 186.151 187.623Z" fill="#10BE98"/>
<path d="M159.219 196.515C156.731 195.932 155.268 193.6 155.853 191.122C156.439 188.643 158.78 187.186 161.269 187.623C163.757 188.206 165.22 190.538 164.781 193.017C164.05 195.495 161.708 196.953 159.219 196.515Z" fill="#10BE98"/>
<path d="M162.44 276.25C161.854 276.104 161.415 275.521 161.562 274.937C161.708 274.354 162.293 273.916 162.879 274.062C163.464 274.208 163.903 274.791 163.757 275.375C163.757 276.104 163.025 276.396 162.44 276.25Z" fill="#10BE98"/>
<path d="M174.296 286.453C174.296 286.05 173.968 285.724 173.564 285.724C173.16 285.724 172.832 286.05 172.832 286.453C172.832 286.856 173.16 287.182 173.564 287.182C173.968 287.182 174.296 286.856 174.296 286.453Z" fill="#1CCD91"/>
<path d="M133.313 244.18C132.581 244.034 131.996 243.16 132.142 242.431C132.289 241.702 133.167 241.119 133.899 241.265C134.63 241.41 135.216 242.285 135.07 243.014C134.923 243.743 134.191 244.326 133.313 244.18Z" fill="#1CCD91"/>
<path d="M172.831 289.806C171.075 289.368 169.904 287.619 170.343 285.724C170.782 283.975 172.539 282.808 174.441 283.246C176.198 283.683 177.369 285.432 176.93 287.327C176.491 289.077 174.588 290.097 172.831 289.806Z" fill="#10BE98"/>
<path d="M173.271 287.473C172.685 287.327 172.392 286.744 172.392 286.161C172.539 285.578 173.124 285.286 173.71 285.286C174.295 285.286 174.588 286.015 174.588 286.598C174.588 287.182 173.856 287.619 173.271 287.473Z" fill="#10BE98"/>
<path d="M161.854 278.874C159.805 278.437 158.488 276.396 159.073 274.355C159.512 272.314 161.561 271.002 163.611 271.585C165.66 272.022 166.977 274.063 166.392 276.104C165.952 278.145 163.903 279.311 161.854 278.874Z" fill="#1CCD91"/>
<path d="M133.313 244.18C132.581 244.034 131.996 243.16 132.142 242.431C132.289 241.702 133.167 241.119 133.899 241.265C134.63 241.41 135.216 242.285 135.07 243.014C134.923 243.743 134.191 244.326 133.313 244.18Z" fill="#1CCD91"/>
<path d="M172.978 288.785C171.66 288.494 170.929 287.182 171.221 286.016C171.514 284.704 172.831 283.975 174.002 284.267C175.319 284.558 176.051 285.87 175.759 287.036C175.612 288.202 174.295 289.077 172.978 288.785Z" fill="#1CCD91"/>
<path d="M173.124 288.202C172.1 287.911 171.514 287.036 171.661 286.016C171.953 284.995 172.831 284.412 173.856 284.558C174.881 284.85 175.466 285.724 175.32 286.744C175.173 287.911 174.149 288.494 173.124 288.202Z" fill="#1CCD91"/>
<path d="M141.217 183.978C140.485 183.833 140.046 183.104 140.192 182.521C140.339 181.938 141.071 181.355 141.656 181.501C142.388 181.647 142.827 182.375 142.681 182.958C142.534 183.833 141.949 184.124 141.217 183.978Z" fill="#10BE98"/>
<path d="M128.776 167.654C127.166 167.217 125.995 165.613 126.434 164.01C126.873 162.406 128.483 161.24 130.093 161.677C131.703 162.114 132.874 163.718 132.435 165.321C132.142 167.071 130.386 168.091 128.776 167.654Z" fill="#10BE98"/>
<path d="M140.631 186.457C138.582 186.02 137.411 183.979 137.85 182.084C138.289 180.044 140.339 178.878 142.241 179.315C144.29 179.752 145.461 181.793 145.022 183.688C144.583 185.583 142.68 186.894 140.631 186.457Z" fill="#10BE98"/>
<path d="M141.07 184.708C140.046 184.417 139.314 183.396 139.607 182.376C139.9 181.355 140.924 180.626 141.949 180.918C142.973 181.209 143.705 182.23 143.412 183.25C143.12 184.271 142.095 185 141.07 184.708Z" fill="#10BE98"/>
<path d="M140.631 186.748C138.435 186.311 137.118 184.125 137.557 181.938C137.996 179.752 140.192 178.44 142.387 178.878C144.583 179.315 145.9 181.501 145.461 183.687C144.876 185.874 142.68 187.186 140.631 186.748Z" fill="#10BE98"/>
<path d="M160.098 192.726C159.658 192.58 159.512 192.288 159.512 191.851C159.658 191.413 159.951 191.268 160.39 191.268C160.829 191.268 160.976 191.705 160.976 192.142C160.829 192.58 160.39 192.872 160.098 192.726Z" fill="#10BE98"/>
<path d="M111.065 175.379C110.772 175.379 110.626 174.942 110.626 174.65C110.626 174.359 111.065 174.213 111.358 174.213C111.65 174.213 111.797 174.65 111.797 174.942C111.65 175.233 111.358 175.524 111.065 175.379Z" fill="#10BE98"/>
<path d="M128.776 167.799C127.019 167.362 125.995 165.758 126.434 164.009C126.873 162.26 128.483 161.24 130.239 161.677C131.996 162.114 133.02 163.718 132.581 165.467C132.142 167.07 130.386 168.091 128.776 167.799Z" fill="#10BE98"/>
<path d="M159.951 192.87C159.512 192.724 159.073 192.287 159.219 191.704C159.366 191.267 159.805 190.83 160.39 190.976C160.829 191.122 161.269 191.559 161.122 192.142C160.976 192.724 160.537 193.016 159.951 192.87Z" fill="#1CCD91"/>
<path d="M159.952 193.016C159.366 192.871 159.073 192.433 159.22 191.85C159.366 191.267 159.805 190.976 160.391 191.121C160.976 191.267 161.269 191.705 161.122 192.288C160.976 192.725 160.537 193.162 159.952 193.016Z" fill="#10BE98"/>
<path d="M141.07 184.416C140.192 184.27 139.606 183.396 139.899 182.521C140.192 181.646 140.924 181.063 141.802 181.355C142.68 181.5 143.266 182.375 142.973 183.25C142.827 183.979 141.948 184.562 141.07 184.416Z" fill="#1CCD91"/>
<path d="M129.215 165.176C128.922 165.176 128.776 164.738 128.776 164.447C128.776 164.155 129.215 164.009 129.508 164.009C129.8 164.009 129.947 164.447 129.947 164.738C129.947 165.03 129.654 165.321 129.215 165.176Z" fill="#1CCD91"/>
<path d="M159.659 194.62C158.195 194.328 157.317 192.871 157.609 191.413C157.902 189.956 159.366 189.081 160.829 189.372C162.293 189.664 163.171 191.122 162.879 192.579C162.586 194.037 161.122 195.057 159.659 194.62Z" fill="#10BE98"/>
<path d="M133.312 244.181C132.434 244.035 131.995 243.16 132.142 242.286C132.288 241.411 133.166 240.974 134.044 241.12C134.923 241.265 135.362 242.14 135.215 243.015C135.069 243.889 134.191 244.327 133.312 244.181Z" fill="#10BE98"/>
<path d="M95.6968 265.463C94.0867 265.171 93.0622 263.568 93.5013 261.964C93.794 260.361 95.404 259.34 97.014 259.778C98.6241 260.069 99.6486 261.673 99.2095 263.276C98.9168 264.88 97.3068 265.9 95.6968 265.463Z" fill="#10BE98"/>
<path d="M110.48 177.857C108.87 177.419 107.845 175.816 108.138 174.213C108.577 172.609 110.187 171.589 111.797 171.881C113.407 172.318 114.431 173.921 114.139 175.525C113.7 177.128 112.09 178.148 110.48 177.857Z" fill="#1CCD91"/>
<path d="M133.459 243.598C132.873 243.452 132.581 243.015 132.727 242.432C132.873 241.849 133.313 241.557 133.898 241.703C134.484 241.849 134.776 242.286 134.63 242.869C134.484 243.452 134.044 243.743 133.459 243.598Z" fill="#1CCD91"/>
<path d="M132.874 245.93C130.971 245.493 129.947 243.744 130.239 241.849C130.679 239.954 132.435 238.933 134.338 239.225C136.24 239.516 137.265 241.411 136.972 243.306C136.533 245.201 134.777 246.367 132.874 245.93Z" fill="#1CCD91"/>
<path d="M159.952 192.87C159.513 192.724 159.22 192.287 159.22 191.85C159.22 191.413 159.805 191.121 160.244 191.121C160.684 191.267 160.976 191.704 160.976 192.141C160.976 192.724 160.537 193.016 159.952 192.87Z" fill="#10BE98"/>
<path d="M110.772 176.4C109.894 176.254 109.455 175.379 109.601 174.505C109.748 173.63 110.626 173.193 111.504 173.338C112.382 173.484 112.821 174.359 112.675 175.233C112.529 176.108 111.651 176.545 110.772 176.4Z" fill="#10BE98"/>
<path d="M133.02 245.784C131.41 245.347 130.239 243.744 130.678 242.14C131.118 240.537 132.728 239.371 134.338 239.808C135.948 240.246 137.119 241.849 136.679 243.452C136.387 245.056 134.63 246.076 133.02 245.784Z" fill="#10BE98"/>
<path d="M78.1331 275.958C77.5477 275.812 77.1086 275.229 77.2549 274.646C77.4013 274.063 77.9868 273.626 78.5722 273.771C79.1577 273.917 79.5968 274.5 79.4504 275.083C79.3041 275.812 78.7186 276.104 78.1331 275.958Z" fill="#10BE98"/>
<path d="M95.6969 265.462C94.0869 265.025 93.0623 263.422 93.3551 261.818C93.7942 260.215 95.4042 259.195 97.0142 259.486C98.6243 259.924 99.6488 261.527 99.3561 263.13C98.917 264.879 97.307 265.9 95.6969 265.462Z" fill="#1CCD91"/>
<path d="M131.995 325.373C131.995 325.81 131.849 326.102 131.849 326.539L141.802 326.539C141.802 324.207 140.338 322.166 137.996 321.583C135.216 321 132.581 322.749 131.995 325.373Z" fill="#1CCD91"/>
<path d="M132.435 247.97C129.508 247.241 127.605 244.326 128.337 241.411C129.069 238.495 131.996 236.6 134.923 237.329C137.851 238.058 139.753 240.973 139.021 243.889C138.29 246.804 135.362 248.699 132.435 247.97Z" fill="#10BE98"/>
<path d="M95.8433 264.88C94.526 264.588 93.7942 263.276 94.0869 262.11C94.3796 260.799 95.6969 260.07 96.8678 260.361C98.0388 260.653 98.917 261.965 98.6242 263.131C98.3315 264.297 97.1606 265.171 95.8433 264.88Z" fill="#10BE98"/>
<path d="M77.9869 276.832C76.9623 276.541 76.2305 275.52 76.5232 274.5C76.816 273.479 77.8405 272.75 78.8651 273.042C79.8896 273.333 80.6215 274.354 80.3287 275.374C80.036 276.395 79.0114 277.124 77.9869 276.832Z" fill="#1CCD91"/>
<path d="M132.435 325.519C132.289 325.956 132.289 326.248 132.289 326.539L141.363 326.539C141.363 324.498 139.9 322.457 137.851 322.02C135.362 321.437 133.02 323.04 132.435 325.519Z" fill="#10BE98"/>
<path d="M78.2793 275.229C78.1329 275.229 77.9866 274.937 77.9866 274.792C77.9866 274.646 78.2793 274.5 78.4257 274.5C78.572 274.5 78.7184 274.792 78.7184 274.937C78.7184 275.229 78.4257 275.375 78.2793 275.229Z" fill="#1CCD91"/>
<path d="M110.626 129.754C109.309 129.463 108.431 128.151 108.724 126.839C109.016 125.527 110.334 124.653 111.651 124.944C112.968 125.236 113.846 126.547 113.554 127.859C113.407 129.171 112.09 130.046 110.626 129.754Z" fill="#10BE98"/>
<path d="M128.629 168.09C126.726 167.653 125.555 165.758 125.994 163.863C126.433 161.968 128.336 160.802 130.239 161.24C132.142 161.677 133.313 163.572 132.873 165.467C132.434 167.362 130.532 168.528 128.629 168.09Z" fill="#10BE98"/>
<path d="M73.4489 128.005C71.9852 127.714 71.107 126.256 71.3998 124.944C71.6925 123.632 73.1562 122.612 74.4735 122.903C75.9371 123.195 76.8153 124.652 76.5226 125.964C76.2299 127.276 74.9126 128.442 73.4489 128.005Z" fill="#1CCD91"/>
<path d="M110.773 129.317C109.602 129.025 109.017 128.005 109.163 126.838C109.456 125.672 110.48 125.089 111.651 125.235C112.822 125.381 113.408 126.547 113.261 127.713C112.968 128.879 111.944 129.608 110.773 129.317Z" fill="#10BE98"/>
<path d="M128.776 167.508C127.166 167.216 126.141 165.613 126.58 164.009C126.873 162.406 128.483 161.385 130.093 161.823C131.703 162.114 132.727 163.718 132.288 165.321C131.849 166.925 130.386 167.945 128.776 167.508Z" fill="#1CCD91"/>
<path d="M129.068 166.341C128.19 166.196 127.605 165.175 127.751 164.301C127.897 163.426 128.922 162.843 129.8 162.989C130.678 163.134 131.264 164.155 131.117 165.029C130.825 165.904 129.946 166.487 129.068 166.341Z" fill="#1CCD91"/>
<path d="M111.066 128.005C110.627 127.86 110.48 127.568 110.48 127.13C110.627 126.693 110.919 126.547 111.358 126.547C111.798 126.693 111.944 126.984 111.944 127.422C111.798 127.859 111.505 128.005 111.066 128.005Z" fill="#10BE98"/>
<path d="M128.483 168.529C126.433 168.091 124.97 165.905 125.555 163.864C125.994 161.823 128.19 160.366 130.239 160.949C132.288 161.386 133.752 163.573 133.166 165.613C132.727 167.654 130.678 168.966 128.483 168.529Z" fill="#1CCD91"/>
<path d="M110.919 175.816C110.333 175.671 110.041 175.087 110.187 174.65C110.333 174.067 110.919 173.775 111.358 173.921C111.943 174.067 112.236 174.65 112.09 175.087C111.943 175.671 111.504 175.962 110.919 175.816Z" fill="#10BE98"/>
<path d="M69.4973 174.213C68.4727 174.067 67.8872 173.046 68.18 172.172C68.3263 171.151 69.3509 170.568 70.2291 170.86C71.2536 171.006 71.8391 172.026 71.5464 172.901C71.4 173.775 70.3755 174.358 69.4973 174.213Z" fill="#10BE98"/>
<path d="M73.7419 126.984C72.8637 126.838 72.4246 125.964 72.5709 125.235C72.7173 124.361 73.5955 123.924 74.3273 124.069C75.0592 124.215 75.6446 125.09 75.4983 125.818C75.3519 126.693 74.6201 127.13 73.7419 126.984Z" fill="#10BE98"/>
<path d="M110.041 179.898C107.26 179.315 105.504 176.545 106.236 173.775C106.821 171.006 109.602 169.257 112.383 169.985C115.164 170.568 116.92 173.338 116.188 176.108C115.457 178.732 112.822 180.481 110.041 179.898Z" fill="#10BE98"/>
<path d="M110.333 178.149C108.577 177.712 107.406 175.963 107.845 174.068C108.284 172.318 110.04 171.152 111.943 171.589C113.846 172.027 114.87 173.776 114.431 175.671C113.992 177.566 112.236 178.586 110.333 178.149Z" fill="#1CCD91"/>
<path d="M128.775 167.362C127.312 167.07 126.287 165.467 126.58 164.009C126.873 162.552 128.483 161.531 129.946 161.823C131.41 162.114 132.434 163.718 132.142 165.175C131.849 166.779 130.239 167.799 128.775 167.362Z" fill="#10BE98"/>
<path d="M73.7421 126.838C73.0103 126.693 72.4248 125.964 72.7175 125.089C72.8639 124.361 73.5957 123.778 74.4739 124.069C75.2058 124.215 75.7912 124.944 75.4985 125.818C75.3521 126.547 74.4739 127.13 73.7421 126.838Z" fill="#10BE98"/>
<path d="M110.773 176.254C110.041 176.108 109.602 175.379 109.748 174.65C109.895 173.922 110.626 173.484 111.358 173.63C112.09 173.776 112.529 174.505 112.383 175.233C112.383 175.962 111.505 176.4 110.773 176.254Z" fill="#10BE98"/>
<path d="M95.8431 264.734C94.6722 264.443 93.9403 263.276 94.2331 262.11C94.5258 260.944 95.6967 260.215 96.8676 260.507C98.0386 260.798 98.7704 261.964 98.4777 263.131C98.3313 264.297 97.014 265.026 95.8431 264.734Z" fill="#10BE98"/>
<path d="M90.7207 227.272C88.9643 226.835 87.7934 225.085 88.2325 223.336C88.6716 221.587 90.428 220.421 92.1844 220.858C93.9407 221.295 95.1117 223.045 94.6726 224.794C94.2335 226.543 92.4771 227.709 90.7207 227.272Z" fill="#10BE98"/>
<path d="M69.79 172.755C69.6436 172.755 69.4973 172.463 69.4973 172.318C69.4973 172.172 69.79 172.026 69.9363 172.026C70.0827 172.026 70.2291 172.318 70.2291 172.463C70.2291 172.755 69.9363 172.901 69.79 172.755Z" fill="#10BE98"/>
<path d="M96.1358 263.276C95.6967 263.13 95.5504 262.839 95.5504 262.402C95.6967 261.965 95.9895 261.819 96.4285 261.819C96.8676 261.965 97.014 262.256 97.014 262.693C97.014 263.13 96.5749 263.422 96.1358 263.276Z" fill="#10BE98"/>
<path d="M96.2824 262.984C95.9897 262.984 95.8433 262.693 95.8433 262.401C95.8433 262.11 96.1361 261.964 96.4288 261.964C96.7215 261.964 96.8679 262.256 96.8679 262.547C96.8679 262.838 96.5751 263.13 96.2824 262.984Z" fill="#10BE98"/>
<path d="M110.919 175.67C110.48 175.524 110.187 175.087 110.334 174.65C110.48 174.213 110.919 173.921 111.358 174.067C111.797 174.213 112.09 174.65 111.944 175.087C111.797 175.524 111.358 175.816 110.919 175.67Z" fill="#10BE98"/>
<path d="M69.2049 175.087C67.7412 174.795 66.7167 173.338 67.1558 171.735C67.4485 170.277 69.0585 169.257 70.5222 169.694C71.9858 169.986 73.0104 171.589 72.5713 173.046C72.2786 174.504 70.8149 175.524 69.2049 175.087Z" fill="#10BE98"/>
<path d="M95.9894 263.86C95.2576 263.714 94.8185 262.985 94.9649 262.256C95.1112 261.527 95.8431 261.089 96.5749 261.235C97.3067 261.381 97.7458 262.11 97.5995 262.839C97.5995 263.568 96.8676 264.006 95.9894 263.86Z" fill="#1CCD91"/>
<path d="M77.9863 276.396C77.2545 276.25 76.6691 275.375 76.8154 274.647C76.9618 273.918 77.84 273.335 78.5718 273.48C79.3036 273.626 79.8891 274.501 79.7427 275.23C79.5964 276.104 78.8645 276.541 77.9863 276.396Z" fill="#1CCD91"/>
<path d="M75.7914 281.934C75.2059 281.788 74.9132 281.205 75.0596 280.622C75.2059 280.039 75.7914 279.747 76.3769 279.893C76.9623 280.039 77.2551 280.622 77.1087 281.205C76.9623 281.643 76.3769 281.934 75.7914 281.934Z" fill="#10BE98"/>
<path d="M91.013 226.106C89.9885 225.814 89.2566 224.794 89.5494 223.773C89.8421 222.753 90.8666 222.024 91.8912 222.315C92.9158 222.607 93.6476 223.627 93.3549 224.648C93.0621 225.668 92.0376 226.252 91.013 226.106Z" fill="#10BE98"/>
<path d="M77.9863 276.395C77.2545 276.249 76.6691 275.375 76.8154 274.646C76.9618 273.917 77.84 273.334 78.5718 273.48C79.3036 273.626 79.8891 274.5 79.7427 275.229C79.5964 275.958 78.8645 276.541 77.9863 276.395Z" fill="#10BE98"/>
<path d="M78.1331 275.958C77.5477 275.812 77.1086 275.229 77.2549 274.646C77.4013 274.063 77.9868 273.626 78.5722 273.771C79.1577 273.917 79.5968 274.5 79.4504 275.083C79.3041 275.812 78.7186 276.104 78.1331 275.958Z" fill="#10BE98"/>
<path d="M96.2823 263.276C95.8432 263.131 95.6968 262.839 95.6968 262.402C95.8432 261.965 96.1359 261.819 96.575 261.819C97.0141 261.965 97.1605 262.256 97.1605 262.693C97.0141 263.131 96.575 263.276 96.2823 263.276Z" fill="#1CCD91"/>
<path d="M90.4278 228.73C87.9396 228.147 86.3296 225.668 86.915 223.045C87.5005 220.566 89.9887 218.963 92.6233 219.546C95.1115 220.129 96.7215 222.607 96.1361 225.231C95.4043 227.709 92.916 229.313 90.4278 228.73Z" fill="#10BE98"/>
<path d="M78.1331 275.958C77.5477 275.812 77.1086 275.229 77.2549 274.646C77.4013 274.063 77.9868 273.626 78.5722 273.771C79.1577 273.917 79.5968 274.5 79.4504 275.083C79.3041 275.812 78.7186 276.104 78.1331 275.958Z" fill="#1CCD91"/>
<path d="M56.4708 302.487C56.178 302.487 56.0317 302.196 56.0317 301.904C56.0317 301.613 56.3244 301.467 56.6171 301.467C56.9099 301.467 57.0562 301.758 57.0562 302.05C56.9099 302.342 56.7635 302.487 56.4708 302.487Z" fill="#10BE98"/>
<path d="M75.791 282.08C75.0592 281.934 74.6201 281.205 74.7664 280.622C74.9128 279.893 75.6446 279.456 76.2301 279.602C76.9619 279.748 77.401 280.476 77.2547 281.06C77.1083 281.788 76.5228 282.226 75.791 282.08Z" fill="#10BE98"/>
<path d="M78.1334 275.667C77.6943 275.521 77.5479 275.229 77.5479 274.792C77.6943 274.354 77.987 274.208 78.4261 274.208C78.8652 274.354 79.0116 274.646 79.0116 275.083C79.0116 275.521 78.5725 275.667 78.1334 275.667Z" fill="#10BE98"/>
<path d="M75.7912 282.225C75.0594 282.08 74.4739 281.205 74.6203 280.477C74.7667 279.748 75.6449 279.165 76.3767 279.311C77.1085 279.456 77.694 280.331 77.5476 281.06C77.4012 281.934 76.523 282.517 75.7912 282.225Z" fill="#10BE98"/>
<path d="M56.1784 303.362C55.4466 303.216 54.8611 302.488 55.1538 301.613C55.3002 300.884 56.032 300.301 56.9102 300.593C57.642 300.738 58.2275 301.467 57.9348 302.342C57.7884 303.071 57.0566 303.508 56.1784 303.362Z" fill="#10BE98"/>
<path d="M56.3247 303.216C55.7392 303.071 55.3002 302.487 55.4465 301.758C55.5929 301.175 56.1783 300.738 56.9102 300.884C57.4956 301.03 57.9347 301.613 57.7884 302.342C57.4956 302.925 56.9102 303.362 56.3247 303.216Z" fill="#10BE98"/>
<path d="M79.1578 16.2018C78.7187 16.0561 78.426 15.6188 78.5724 15.1815C78.7187 14.7443 79.1578 14.4528 79.5969 14.5985C80.036 14.7443 80.3288 15.1815 80.1824 15.6188C80.036 16.0561 79.5969 16.3476 79.1578 16.2018Z" fill="#10BE98"/>
<path d="M72.4245 25.0939C71.5463 24.9481 70.9608 24.0737 71.1072 23.0534C71.2536 22.1789 72.1318 21.5959 73.1563 21.7417C74.1809 21.8874 74.62 22.7619 74.4736 23.7822C74.1809 24.6567 73.3027 25.2396 72.4245 25.0939Z" fill="#10BE98"/>
<path d="M79.0112 16.4932C78.4258 16.3475 78.1331 15.7644 78.1331 15.1814C78.2794 14.5984 78.8649 14.3069 79.4503 14.3069C80.0358 14.4526 80.3285 15.0357 80.1822 15.6187C80.1822 16.2017 79.5967 16.639 79.0112 16.4932Z" fill="#10BE98"/>
<path d="M79.0112 16.9304C78.133 16.7847 77.6939 15.9102 77.8403 15.1815C77.9867 14.3071 78.8649 13.8699 79.5967 14.0157C80.4749 14.1614 80.914 15.0358 80.7676 15.7645C80.6212 16.6389 79.743 17.0761 79.0112 16.9304Z" fill="#10BE98"/>
<path d="M111.212 127.713C110.919 127.713 110.773 127.422 110.919 127.13C110.919 126.839 111.212 126.693 111.504 126.839C111.797 126.839 111.943 127.13 111.797 127.422C111.651 127.567 111.358 127.713 111.212 127.713Z" fill="#10BE98"/>
<path d="M84.8658 69.9894C83.5485 69.6979 82.8167 68.5318 83.1094 67.2199C83.4022 65.9081 84.5731 65.1792 85.8904 65.4707C87.2077 65.7623 87.9395 66.9284 87.6468 68.2403C87.354 69.5521 86.1831 70.2809 84.8658 69.9894Z" fill="#1CCD91"/>
<path d="M72.1322 26.6972C70.3758 26.2599 69.2049 24.5109 69.644 22.7618C70.0831 21.0128 71.8395 19.8467 73.5959 20.284C75.3522 20.7212 76.5232 22.4703 76.0841 24.2194C75.645 25.9684 73.8886 26.9887 72.1322 26.6972Z" fill="#1CCD91"/>
<path d="M110.773 129.171C109.748 128.879 109.016 127.859 109.309 126.838C109.602 125.818 110.626 125.089 111.651 125.381C112.676 125.672 113.407 126.693 113.115 127.713C112.968 128.734 111.797 129.463 110.773 129.171Z" fill="#10BE98"/>
<path d="M111.065 128.442C110.48 128.296 110.041 127.713 110.187 127.13C110.334 126.547 110.919 126.11 111.505 126.256C112.09 126.401 112.529 126.984 112.383 127.567C112.236 128.15 111.651 128.442 111.065 128.442Z" fill="#1CCD91"/>
<path d="M72.5712 24.3647C72.1321 24.219 71.693 23.7817 71.8394 23.1987C71.9857 22.7614 72.4248 22.3241 73.0103 22.4699C73.4494 22.6156 73.8885 23.0529 73.7421 23.6359C73.5958 24.219 73.1567 24.5105 72.5712 24.3647Z" fill="#10BE98"/>
<path d="M110.773 129.317C109.602 129.025 108.87 128.005 109.163 126.839C109.456 125.673 110.48 124.944 111.651 125.235C112.822 125.527 113.554 126.547 113.261 127.713C112.968 128.879 111.944 129.608 110.773 129.317Z" fill="#10BE98"/>
<path d="M73.3029 128.879C71.4001 128.442 70.2292 126.547 70.6683 124.798C71.1074 122.903 73.0101 121.737 74.7665 122.174C76.6693 122.611 77.8402 124.506 77.4011 126.256C76.962 128.151 75.2056 129.317 73.3029 128.879Z" fill="#1CCD91"/>
<path d="M50.7622 111.242C50.1768 111.096 49.884 110.659 50.0304 110.076C50.1768 109.493 50.6159 109.201 51.2013 109.347C51.7868 109.493 52.0795 109.93 51.9332 110.513C51.7868 111.096 51.3477 111.387 50.7622 111.242Z" fill="#1CCD91"/>
<path d="M85.1582 68.6772C84.7191 68.5315 84.4263 68.0942 84.4263 67.6569C84.5727 67.2197 85.0118 66.9282 85.4509 66.9282C85.89 67.0739 86.1827 67.5112 86.1827 67.9485C86.1827 68.3857 85.7436 68.6772 85.1582 68.6772Z" fill="#10BE98"/>
<path d="M73.8885 126.692C73.303 126.547 72.8639 125.964 73.0103 125.381C73.1567 124.798 73.7421 124.361 74.3276 124.506C74.9131 124.652 75.3522 125.235 75.2058 125.818C75.0594 126.401 74.474 126.838 73.8885 126.692Z" fill="#10BE98"/>
<path d="M73.5955 127.714C72.4245 127.422 71.5464 126.256 71.8391 125.09C72.1318 123.923 73.3027 123.049 74.4737 123.34C75.6446 123.632 76.5228 124.798 76.2301 125.964C75.9373 127.276 74.7664 128.005 73.5955 127.714Z" fill="#10BE98"/>
<path d="M110.919 128.588C110.188 128.442 109.748 127.713 109.895 126.984C110.041 126.256 110.773 125.818 111.505 125.964C112.237 126.11 112.676 126.839 112.529 127.567C112.383 128.296 111.651 128.734 110.919 128.588Z" fill="#10BE98"/>
<path d="M84.7196 71.0102C82.9632 70.5729 81.7923 68.8238 82.2314 67.0748C82.6705 65.3257 84.4269 64.1597 86.1833 64.597C87.9397 65.0342 89.1106 66.7833 88.6715 68.5323C88.2324 70.2814 86.476 71.3017 84.7196 71.0102Z" fill="#10BE98"/>
<path d="M73.8885 126.256C73.4494 126.11 73.1567 125.673 73.303 125.235C73.4494 124.798 73.8885 124.506 74.3276 124.652C74.7667 124.798 75.0594 125.235 74.913 125.673C74.7667 126.11 74.3276 126.401 73.8885 126.256Z" fill="#10BE98"/>
<path d="M69.2046 175.233C67.5946 174.942 66.7164 173.338 67.0091 171.881C67.3019 170.278 68.9119 169.403 70.3756 169.695C71.9856 169.986 72.8638 171.589 72.5711 173.047C72.2783 174.65 70.8147 175.525 69.2046 175.233Z" fill="#10BE98"/>
<path d="M44.6149 187.041C44.3221 186.895 44.0294 186.603 44.1758 186.166C44.3221 185.874 44.6149 185.583 45.054 185.729C45.3467 185.874 45.6394 186.166 45.4931 186.603C45.3467 186.895 44.9076 187.041 44.6149 187.041Z" fill="#10BE98"/>
<path d="M50.6161 112.262C49.5915 111.971 48.8597 110.95 49.1524 109.93C49.4452 108.91 50.4697 108.181 51.4943 108.472C52.5189 108.764 53.2507 109.784 52.958 110.805C52.6652 111.825 51.6407 112.554 50.6161 112.262Z" fill="#1CCD91"/>
<path d="M68.912 176.545C66.5701 175.962 65.2528 173.775 65.6919 171.589C66.131 169.402 68.4729 167.945 70.6684 168.382C73.0102 168.965 74.3275 171.152 73.8884 173.338C73.4493 175.67 71.2538 177.128 68.912 176.545Z" fill="#1CCD91"/>
<path d="M69.3507 174.65C68.0334 174.359 67.3016 173.192 67.5943 171.881C67.887 170.569 69.0579 169.84 70.3752 170.131C71.6925 170.423 72.4243 171.589 72.1316 172.901C71.8389 174.213 70.668 174.942 69.3507 174.65Z" fill="#10BE98"/>
<path d="M73.888 125.964C73.5953 125.964 73.4489 125.672 73.4489 125.381C73.4489 125.089 73.7416 124.944 74.0344 124.944C74.3271 124.944 74.4735 125.235 74.4735 125.527C74.4735 125.964 74.1807 126.11 73.888 125.964Z" fill="#10BE98"/>
<path d="M50.6158 112.116C49.5912 111.825 49.0058 110.804 49.1521 109.784C49.4449 108.764 50.4694 108.181 51.494 108.326C52.5185 108.472 53.104 109.638 52.9576 110.659C52.8113 111.679 51.6404 112.408 50.6158 112.116Z" fill="#10BE98"/>
<path d="M69.2051 175.087C67.7414 174.795 66.8632 173.338 67.1559 171.88C67.4487 170.423 68.9123 169.548 70.376 169.84C71.8396 170.131 72.7178 171.589 72.4251 173.046C72.2787 174.504 70.8151 175.524 69.2051 175.087Z" fill="#10BE98"/>
<path d="M90.7206 227.126C89.1106 226.688 88.086 225.085 88.3788 223.482C88.8179 221.878 90.4279 220.858 92.0379 221.15C93.6479 221.587 94.6725 223.19 94.3798 224.794C94.087 226.397 92.3306 227.417 90.7206 227.126Z" fill="#10BE98"/>
<path d="M45.9326 244.472C45.9326 243.345 45.0152 242.431 43.8835 242.431C42.7518 242.431 41.8344 243.345 41.8344 244.472C41.8344 245.599 42.7518 246.513 43.8835 246.513C45.0152 246.513 45.9326 245.599 45.9326 244.472Z" fill="#1CCD91"/>
<path d="M44.4686 187.623C43.7367 187.478 43.2976 186.749 43.444 186.02C43.5904 185.291 44.3222 184.854 45.054 185C45.7859 185.145 46.225 185.874 46.0786 186.603C45.9322 187.332 45.2004 187.769 44.4686 187.623Z" fill="#1CCD91"/>
<path d="M91.0133 225.523C90.2814 225.377 89.696 224.502 89.8423 223.774C89.9887 223.045 90.8669 222.462 91.5987 222.608C92.3306 222.753 92.916 223.628 92.7697 224.357C92.6233 225.231 91.8915 225.814 91.0133 225.523Z" fill="#1CCD91"/>
<path d="M90.7207 227.417C88.9643 226.98 87.7934 225.231 88.2325 223.482C88.6716 221.732 90.428 220.566 92.1844 221.004C93.9407 221.441 95.1117 223.19 94.6726 224.939C94.2335 226.688 92.4771 227.708 90.7207 227.417Z" fill="#1CCD91"/>
<path d="M69.6439 173.484C69.0584 173.338 68.6193 172.755 68.7657 172.172C68.912 171.589 69.4975 171.151 70.083 171.297C70.6684 171.443 71.1075 172.026 70.9612 172.609C70.8148 173.338 70.2293 173.63 69.6439 173.484Z" fill="#10BE98"/>
<path d="M44.6154 187.333C44.03 187.187 43.7372 186.749 43.8836 186.166C44.03 185.583 44.4691 185.291 45.0545 185.437C45.64 185.583 45.9327 186.02 45.7864 186.604C45.64 187.041 45.0545 187.333 44.6154 187.333Z" fill="#1CCD91"/>
<path d="M91.0134 225.668C90.1352 225.522 89.6961 224.648 89.8425 223.773C89.9889 222.898 90.8671 222.461 91.7452 222.607C92.6234 222.753 93.0625 223.627 92.9162 224.502C92.7698 225.377 91.8916 225.814 91.0134 225.668Z" fill="#10BE98"/>
<path d="M24.8559 292.721C24.4168 292.575 24.1241 292.138 24.1241 291.701C24.2705 291.263 24.7095 290.972 25.1486 290.972C25.5877 291.118 25.8805 291.555 25.8805 291.992C25.8805 292.575 25.4414 292.866 24.8559 292.721Z" fill="#10BE98"/>
<path d="M43.4444 246.658C42.2734 246.367 41.3952 245.201 41.688 243.889C41.9807 242.723 43.1516 241.849 44.4689 242.14C45.6398 242.432 46.518 243.598 46.2253 244.909C45.7862 246.075 44.6153 246.95 43.4444 246.658Z" fill="#10BE98"/>
<path d="M75.9372 281.643C75.4981 281.497 75.2054 281.06 75.2054 280.622C75.3517 280.185 75.7908 279.894 76.2299 279.894C76.669 280.039 76.9618 280.477 76.9618 280.914C76.8154 281.497 76.3763 281.788 75.9372 281.643Z" fill="#10BE98"/>
<path d="M75.7915 282.371C74.9133 282.226 74.3278 281.351 74.6206 280.476C74.7669 279.602 75.6451 279.019 76.5233 279.31C77.4015 279.456 77.987 280.331 77.6943 281.205C77.4015 282.08 76.6697 282.663 75.7915 282.371Z" fill="#10BE98"/>
<path d="M91.3061 224.648C91.0134 224.648 90.867 224.357 90.867 224.065C90.867 223.774 91.1597 223.628 91.4525 223.628C91.7452 223.628 91.8916 223.919 91.8916 224.211C91.8916 224.503 91.5988 224.648 91.3061 224.648Z" fill="#10BE98"/>
<path d="M43.005 248.699C40.6631 248.116 39.1995 245.784 39.6386 243.451C40.224 241.119 42.5659 239.661 44.9077 240.099C47.2496 240.682 48.7132 243.014 48.2741 245.346C47.6887 247.679 45.3468 249.282 43.005 248.699Z" fill="#10BE98"/>
<path d="M75.9371 281.643C75.498 281.497 75.2053 281.059 75.3517 280.622C75.498 280.185 75.9371 279.893 76.3762 280.039C76.8153 280.185 77.1081 280.622 76.9617 281.059C76.8153 281.497 76.3762 281.643 75.9371 281.643Z" fill="#10BE98"/>
<path d="M56.032 303.945C55.0074 303.654 54.2756 302.633 54.5683 301.613C54.8611 300.592 55.8856 299.864 56.9102 300.155C57.9348 300.447 58.6666 301.467 58.3739 302.487C58.2275 303.508 57.2029 304.091 56.032 303.945Z" fill="#10BE98"/>
<path d="M24.7092 293.596C23.6847 293.304 23.0992 292.43 23.3919 291.409C23.6847 290.389 24.5629 289.806 25.5874 290.097C26.612 290.389 27.1975 291.263 26.9047 292.284C26.612 293.304 25.7338 293.887 24.7092 293.596Z" fill="#10BE98"/>
<path d="M60.7158 302.05C60.7158 299.715 58.8154 297.823 56.4712 297.823C54.1269 297.823 52.2266 299.715 52.2266 302.05C52.2266 304.384 54.1269 306.277 56.4712 306.277C58.8154 306.277 60.7158 304.384 60.7158 302.05Z" fill="#1CCD91"/>
<path d="M56.1782 303.508C55.3 303.362 54.7146 302.488 55.0073 301.613C55.1537 300.738 56.0319 300.155 56.9101 300.447C57.7883 300.593 58.3737 301.467 58.081 302.342C57.9346 303.216 57.0564 303.654 56.1782 303.508Z" fill="#10BE98"/>
<path d="M75.2054 284.849C73.0099 284.412 71.5462 282.08 72.1317 279.894C72.5708 277.707 74.9126 276.25 77.1081 276.833C79.3036 277.27 80.7672 279.602 80.1818 281.789C79.5963 283.975 77.4008 285.432 75.2054 284.849Z" fill="#1CCD91"/>
<path d="M24.8557 293.305C23.9775 293.013 23.5384 292.284 23.6848 291.555C23.8311 290.826 24.563 290.243 25.4412 290.534C26.173 290.68 26.7585 291.409 26.4657 292.284C26.3194 293.013 25.5875 293.45 24.8557 293.305Z" fill="#10BE98"/>
<path d="M56.0316 304.236C54.7143 303.945 53.9825 302.633 54.2752 301.467C54.5679 300.155 55.8852 299.426 57.0561 299.718C58.3734 300.009 59.1053 301.321 58.8125 302.487C58.5198 303.799 57.2025 304.528 56.0316 304.236Z" fill="#1CCD91"/>
<path d="M55.5927 305.84C53.3972 305.402 52.0799 303.216 52.6653 301.175C53.1044 298.989 55.2999 297.677 57.349 298.26C59.5445 298.698 60.8618 300.884 60.2764 302.925C59.8373 304.965 57.7881 306.277 55.5927 305.84Z" fill="#10BE98"/>
<path d="M79.0114 16.6392C78.4259 16.4935 77.9868 15.9104 78.1332 15.1817C78.2795 14.5986 78.865 14.1614 79.5968 14.3071C80.1823 14.4529 80.6214 15.0359 80.475 15.7647C80.3286 16.3477 79.7432 16.785 79.0114 16.6392Z" fill="#1CCD91"/>
<path d="M50.6162 4.83242C49.8844 4.68664 49.4453 3.95775 49.5916 3.37464C49.738 2.64575 50.4698 2.20842 51.0553 2.3542C51.7871 2.49998 52.2262 3.22887 52.0799 3.81198C51.9335 4.54087 51.2017 4.9782 50.6162 4.83242Z" fill="#10BE98"/>
<path d="M79.1577 16.3481C78.5723 16.2023 78.2795 15.765 78.4259 15.1818C78.5723 14.5987 79.0114 14.3071 79.5968 14.4529C80.1823 14.5987 80.475 15.036 80.3287 15.6192C80.1823 16.2023 79.5968 16.4939 79.1577 16.3481Z" fill="#10BE98"/>
<path d="M79.1578 16.2015C78.7187 16.0557 78.426 15.6184 78.5724 15.3268C78.7187 14.8895 79.1578 14.5979 79.4506 14.7437C79.8897 14.8895 80.1824 15.3268 80.036 15.6184C79.8897 15.9099 79.5969 16.3473 79.1578 16.2015Z" fill="#10BE98"/>
<path d="M78.7182 17.8053C77.4009 17.5138 76.6691 16.202 76.9618 14.8902C77.2546 13.5784 78.5719 12.8496 79.8892 13.1411C81.2065 13.4326 81.9383 14.7444 81.6455 16.0563C81.3528 17.2223 80.0355 18.0968 78.7182 17.8053Z" fill="#10BE98"/>
<path d="M72.1319 26.4052C70.5219 26.1136 69.4973 24.51 69.9364 22.9064C70.2291 21.3028 71.8392 20.2824 73.4492 20.7197C75.0592 21.0113 76.0838 22.6149 75.6447 24.2185C75.3519 25.6763 73.7419 26.6968 72.1319 26.4052Z" fill="#10BE98"/>
<path d="M25.1396 31.3357C25.0491 29.8893 23.7985 28.7899 22.3462 28.88C20.8939 28.9701 19.79 30.2156 19.8804 31.662C19.9709 33.1083 21.2216 34.2077 22.6738 34.1176C24.1261 34.0275 25.2301 32.782 25.1396 31.3357Z" fill="#1CCD91"/>
<path d="M50.1768 6.72671C48.4204 6.28945 47.3958 4.54042 47.6885 2.93716C48.1276 1.18814 49.884 0.167886 51.494 0.459389C53.2504 0.896643 54.275 2.64565 53.9823 4.24891C53.6895 6.14368 51.9331 7.16396 50.1768 6.72671Z" fill="#10BE98"/>
<path d="M72.5712 24.3647C72.1321 24.219 71.693 23.7817 71.8394 23.1987C71.9857 22.7614 72.4248 22.3241 73.0103 22.4699C73.4494 22.6156 73.8885 23.0529 73.7421 23.6359C73.5958 24.219 73.1567 24.5105 72.5712 24.3647Z" fill="#1CCD91"/>
<path d="M72.4245 25.0939C71.5463 24.9481 70.9608 24.0737 71.1072 23.0534C71.2536 22.1789 72.1317 21.5959 73.1563 21.7417C74.0345 21.8874 74.62 22.7619 74.4736 23.7822C74.1809 24.6567 73.3027 25.2396 72.4245 25.0939Z" fill="#1CCD91"/>
<path d="M78.7182 17.8053C77.4009 17.5138 76.6691 16.202 76.9618 14.8902C77.2546 13.5784 78.5719 12.8496 79.8892 13.1411C81.2065 13.4326 81.9383 14.7444 81.6455 16.0563C81.3528 17.2223 80.0355 18.0968 78.7182 17.8053Z" fill="#1CCD91"/>
<path d="M50.6158 4.6861C50.0303 4.54033 49.5912 3.95724 49.7376 3.37414C49.884 2.79104 50.4694 2.3537 51.0549 2.49948C51.6404 2.64525 52.0795 3.22837 51.9331 3.81147C51.7867 4.39457 51.2013 4.83188 50.6158 4.6861Z" fill="#10BE98"/>
<path d="M72.425 25.2399C71.4004 25.0941 70.815 24.0737 71.1077 23.1991C71.2541 22.1788 72.2786 21.5957 73.1568 21.8872C74.1814 22.033 74.7668 23.0534 74.4741 23.928C74.1814 24.8026 73.4495 25.3857 72.425 25.2399Z" fill="#10BE98"/>
<path d="M85.0122 69.1156C84.2803 68.9698 83.6949 68.0952 83.8412 67.3664C83.9876 66.6376 84.8658 66.0545 85.5976 66.2003C86.3295 66.3461 86.9149 67.2207 86.7686 67.9495C86.6222 68.8241 85.8904 69.4071 85.0122 69.1156Z" fill="#10BE98"/>
<path d="M22.3675 32.5283C21.7821 32.3824 21.4893 31.7991 21.6357 31.3616C21.7821 30.7783 22.3675 30.4867 22.8066 30.6325C23.3921 30.7783 23.6848 31.3616 23.5384 31.7991C23.3921 32.3824 22.8066 32.6741 22.3675 32.5283Z" fill="#10BE98"/>
<path d="M84.5728 71.3023C82.5237 70.865 81.3528 68.8242 81.7919 66.7835C82.231 64.7428 84.2801 63.5766 86.3292 64.0139C88.3783 64.4512 89.5493 66.492 89.1102 68.5327C88.5247 70.5734 86.622 71.8853 84.5728 71.3023Z" fill="#1CCD91"/>
<path d="M85.3048 68.387C85.0121 68.2411 84.7193 67.9494 84.8657 67.6577C85.0121 67.366 85.3048 67.0743 85.5975 67.2202C85.8903 67.366 86.183 67.6577 86.0366 67.9495C85.8903 68.2412 85.5975 68.5328 85.3048 68.387Z" fill="#10BE98"/>
<path d="M72.5712 24.3647C72.1321 24.2189 71.693 23.7816 71.8394 23.1984C71.9857 22.6153 72.4248 22.3237 73.0103 22.4695C73.4494 22.6153 73.8885 23.0526 73.7421 23.6358C73.5958 24.2189 73.1567 24.5105 72.5712 24.3647Z" fill="#10BE98"/>
<path d="M22.2211 32.8199C21.6356 32.6741 21.1965 32.0909 21.3429 31.362C21.4892 30.7788 22.0747 30.3414 22.8065 30.4872C23.392 30.633 23.8311 31.2162 23.6847 31.9451C23.5384 32.5283 22.9529 32.9657 22.2211 32.8199Z" fill="#10BE98"/>
<path d="M85.1581 68.5322C84.719 68.3864 84.4263 67.9489 84.5726 67.6573C84.719 67.2198 85.1581 66.9282 85.4508 67.074C85.8899 67.2198 86.1826 67.6573 86.0363 67.9489C86.0363 68.3864 85.5972 68.5322 85.1581 68.5322Z" fill="#10BE98"/>
<path d="M50.6163 112.408C49.4454 112.117 48.7136 111.096 49.0063 109.93C49.2991 108.764 50.3236 108.035 51.4945 108.327C52.6655 108.618 53.3973 109.639 53.1046 110.805C52.8118 111.971 51.6409 112.554 50.6163 112.408Z" fill="#1CCD91"/>
<path d="M15.3418 139.083C14.4636 138.937 13.8781 138.062 14.1709 137.188C14.3172 136.313 15.1954 135.876 16.0736 136.022C16.9518 136.168 17.5373 137.042 17.2446 137.917C17.0982 138.791 16.22 139.228 15.3418 139.083Z" fill="#10BE98"/>
<path d="M50.3235 113.283C48.7135 112.991 47.6889 111.388 48.128 109.784C48.4208 108.181 50.0308 107.16 51.6408 107.598C53.2508 107.889 54.2754 109.493 53.8363 111.096C53.5436 112.554 51.9336 113.574 50.3235 113.283Z" fill="#10BE98"/>
<path d="M50.6166 112.116C49.592 111.971 49.0066 110.95 49.2993 109.93C49.4457 108.91 50.4702 108.327 51.4948 108.618C52.5193 108.764 53.1048 109.784 52.8121 110.805C52.5193 111.679 51.6411 112.262 50.6166 112.116Z" fill="#10BE98"/>
<path d="M84.8656 69.6984C83.6947 69.4069 83.1092 68.3867 83.2556 67.2206C83.5483 66.0546 84.5729 65.4716 85.7438 65.6174C86.9147 65.9089 87.5002 66.9291 87.3538 68.0951C87.2074 69.2612 86.0365 69.9899 84.8656 69.6984Z" fill="#1CCD91"/>
<path d="M50.7627 111.533C50.0309 111.387 49.5918 110.659 49.7381 110.076C49.8845 109.347 50.6163 108.91 51.2018 109.056C51.9336 109.201 52.3727 109.93 52.2263 110.513C52.08 111.096 51.4945 111.679 50.7627 111.533Z" fill="#10BE98"/>
<path d="M44.3224 188.643C43.0051 188.352 42.2733 187.04 42.566 185.874C42.8588 184.562 44.176 183.833 45.347 184.125C46.5179 184.416 47.3961 185.728 47.1034 186.894C46.8106 188.06 45.4933 188.935 44.3224 188.643Z" fill="#1CCD91"/>
<path d="M15.3417 138.792C14.6098 138.646 14.3171 137.917 14.4635 137.334C14.6098 136.605 15.3417 136.313 15.9271 136.459C16.659 136.605 16.9517 137.334 16.8053 137.917C16.659 138.5 16.0735 138.937 15.3417 138.792Z" fill="#10BE98"/>
<path d="M44.6149 186.895C44.3221 186.749 44.0294 186.457 44.1758 186.166C44.3221 185.874 44.6149 185.582 44.9076 185.728C45.2003 185.874 45.4931 186.166 45.3467 186.457C45.3467 186.749 44.9076 187.041 44.6149 186.895Z" fill="#10BE98"/>
<path d="M44.6148 187.186C44.1757 187.041 43.883 186.603 43.883 186.166C44.0294 185.729 44.4685 185.437 44.9076 185.437C45.3467 185.583 45.6394 186.02 45.6394 186.458C45.493 187.041 45.0539 187.332 44.6148 187.186Z" fill="#1CCD91"/>
<path d="M50.7622 111.387C50.1768 111.242 49.884 110.659 49.884 110.075C50.0304 109.492 50.6159 109.201 51.2013 109.201C51.7868 109.347 52.0795 109.93 52.0795 110.513C51.9332 111.096 51.3477 111.533 50.7622 111.387Z" fill="#1CCD91"/>
<path d="M15.4882 138.5C14.9027 138.355 14.61 137.917 14.7564 137.334C14.9027 136.751 15.3418 136.459 15.9273 136.605C16.5127 136.751 16.8055 137.188 16.6591 137.772C16.5127 138.355 15.9273 138.646 15.4882 138.5Z" fill="#10BE98"/>
<path d="M44.4691 187.915C43.5909 187.769 43.0054 186.895 43.2981 186.02C43.4445 185.146 44.3227 184.563 45.2009 184.854C46.0791 185.146 46.6645 185.874 46.3718 186.749C46.2254 187.623 45.3473 188.061 44.4691 187.915Z" fill="#1CCD91"/>
<path d="M43.7374 245.201C43.2983 245.056 43.0055 244.618 43.1519 244.181C43.2983 243.744 43.7374 243.452 44.1765 243.598C44.6156 243.744 44.9083 244.181 44.7619 244.618C44.6156 245.056 44.1765 245.347 43.7374 245.201Z" fill="#1CCD91"/>
<path d="M43.2977 247.096C41.8341 246.804 40.9559 245.347 41.2486 243.889C41.5413 242.432 43.005 241.557 44.4686 241.849C45.9323 242.14 46.8105 243.598 46.5178 245.055C46.225 246.513 44.7614 247.388 43.2977 247.096Z" fill="#1CCD91"/>
<path d="M43.4446 246.222C42.42 245.93 41.6882 244.91 41.9809 243.889C42.2737 242.869 43.2982 242.14 44.3228 242.432C45.3474 242.723 46.0792 243.744 45.7864 244.764C45.4937 245.93 44.4692 246.513 43.4446 246.222Z" fill="#1CCD91"/>
<path d="M44.3225 188.061C43.2979 187.77 42.7124 186.895 43.0052 185.875C43.2979 184.854 44.1761 184.271 45.2006 184.563C46.2252 184.854 46.8107 185.729 46.5179 186.749C46.3716 187.77 45.347 188.353 44.3225 188.061Z" fill="#10BE98"/>
<path d="M43.2982 246.805C41.9809 246.514 41.1027 245.202 41.3954 243.889C41.6881 242.577 43.0054 241.703 44.3227 241.994C45.64 242.286 46.5182 243.598 46.2255 244.91C45.9327 246.222 44.6154 247.097 43.2982 246.805Z" fill="#1CCD91"/>
<path d="M24.5633 294.033C23.3924 293.741 22.6606 292.575 22.9533 291.409C23.246 290.243 24.4169 289.515 25.5879 289.806C26.7588 290.098 27.4906 291.264 27.1979 292.43C27.0515 293.596 25.8806 294.324 24.5633 294.033Z" fill="#1CCD91"/>
<path d="M24.8557 293.013C24.1239 292.867 23.8311 292.138 23.9775 291.555C24.1239 290.826 24.8557 290.534 25.4412 290.68C26.173 290.826 26.4657 291.555 26.3194 292.138C26.173 292.867 25.4412 293.159 24.8557 293.013Z" fill="#1CCD91"/>
<path d="M24.1243 296.074C21.7824 295.491 20.3188 293.304 20.9042 290.972C21.4897 288.64 23.6852 287.182 26.027 287.619C28.3689 288.202 29.8326 290.389 29.2471 292.721C28.6616 295.054 26.4661 296.511 24.1243 296.074Z" fill="#10BE98"/>
<path d="M43.5904 245.784C42.8586 245.638 42.4195 244.91 42.5658 244.181C42.7122 243.452 43.444 243.015 44.1758 243.16C44.9077 243.306 45.3468 244.035 45.2004 244.764C45.054 245.493 44.3222 245.93 43.5904 245.784Z" fill="#10BE98"/>
<path d="M24.8557 293.013C24.1239 292.867 23.8311 292.138 23.9775 291.555C24.1239 290.826 24.8557 290.535 25.4412 290.68C26.173 290.826 26.4657 291.555 26.3194 292.138C26.173 292.721 25.4412 293.159 24.8557 293.013Z" fill="#10BE98"/>
<path d="M24.8558 293.013C24.2703 292.867 23.8312 292.284 23.9776 291.555C24.124 290.972 24.7094 290.534 25.4412 290.68C26.0267 290.826 26.4658 291.409 26.3194 292.138C26.1731 292.721 25.4412 293.159 24.8558 293.013Z" fill="#1CCD91"/>
<path d="M50.1772 6.5807C48.5671 6.14342 47.5426 4.54008 47.8353 2.93673C48.2744 1.33339 49.8844 0.313069 51.4945 0.604586C53.1045 0.896103 54.129 2.64521 53.8363 4.24855C53.5436 5.85189 51.7872 7.01797 50.1772 6.5807Z" fill="#10BE98"/>
<path d="M50.4702 5.2695C49.592 5.12373 49.0065 4.24907 49.2992 3.37441C49.4456 2.49976 50.3238 1.91665 51.202 2.2082C52.0802 2.35398 52.6656 3.22864 52.3729 4.10329C52.2266 4.83217 51.3484 5.41528 50.4702 5.2695Z" fill="#10BE98"/>
<path d="M50.6162 4.97793C49.8844 4.83213 49.4453 4.10318 49.5916 3.37422C49.738 2.64526 50.4698 2.20788 51.2017 2.35368C51.9335 2.49947 52.3726 3.22842 52.2262 3.95738C51.9335 4.68634 51.348 5.12372 50.6162 4.97793Z" fill="#10BE98"/>
<path d="M53.9021 2.98331C53.5222 1.33561 51.873 0.306607 50.2186 0.684972C48.5642 1.06334 47.531 2.70579 47.9109 4.35349C48.2908 6.00118 49.9399 7.03019 51.5944 6.65182C53.2488 6.27346 54.282 4.631 53.9021 2.98331Z" fill="#10BE98"/>
<path d="M22.3677 32.3823C21.9286 32.2365 21.6359 31.7991 21.6359 31.3618C21.7822 30.9244 22.2213 30.6329 22.6604 30.6329C23.0995 30.7787 23.3923 31.216 23.3923 31.6534C23.2459 32.2365 22.8068 32.5281 22.3677 32.3823Z" fill="#1CCD91"/>
<path d="M21.4894 36.4633C18.8548 35.8803 17.0984 33.1108 17.6839 30.487C18.2693 27.8633 21.0503 26.1141 23.6849 26.6972C26.3194 27.2802 28.0758 30.0497 27.4904 32.6735C26.9049 35.2972 24.124 37.0464 21.4894 36.4633Z" fill="#10BE98"/>
<path d="M22.0746 33.403C21.05 33.1115 20.4646 32.0911 20.6109 31.0707C20.9037 30.0503 21.9282 29.4672 22.9528 29.613C23.9774 29.7588 24.5628 30.9249 24.4165 31.9453C24.1237 32.9657 23.0992 33.6945 22.0746 33.403Z" fill="#10BE98"/>
<path d="M50.1768 6.72671C48.4204 6.28945 47.3958 4.68618 47.6885 2.93716C48.1276 1.18814 49.7377 0.167886 51.494 0.459389C53.2504 0.896643 54.275 2.4999 53.9823 4.24891C53.5432 6.14368 51.9331 7.16396 50.1768 6.72671Z" fill="#10BE98"/>
<path d="M22.0746 33.4022C21.05 33.1107 20.4646 32.2362 20.6109 31.2161C20.9037 30.1959 21.7819 29.6129 22.8064 29.7587C23.831 30.0501 24.4165 30.9246 24.2701 31.9448C24.1237 32.9649 23.0992 33.5479 22.0746 33.4022Z" fill="#10BE98"/>
<path d="M22.3679 32.0901C22.0752 32.0901 21.9288 31.6529 21.9288 31.3615C21.9288 31.07 22.3679 30.9243 22.6607 30.9243C22.9534 30.9243 23.0998 31.3615 23.0998 31.6529C23.0998 31.9444 22.6607 32.2359 22.3679 32.0901Z" fill="#10BE98"/>
<path d="M15.6345 138.062C15.3417 138.062 15.1954 137.771 15.3417 137.48C15.3417 137.188 15.6345 137.042 15.9272 137.188C16.2199 137.334 16.3663 137.48 16.2199 137.771C16.0736 137.917 15.7808 138.062 15.6345 138.062Z" fill="#10BE98"/>
<path d="M15.3417 139.375C14.3172 139.083 13.7317 138.209 14.0245 137.188C14.3172 136.168 15.1954 135.585 16.2199 135.877C17.2445 136.168 17.83 137.043 17.5372 138.063C17.2445 138.937 16.2199 139.52 15.3417 139.375Z" fill="#1CCD91"/>
<path d="M15.0495 140.249C13.5859 139.957 12.7077 138.5 13.0004 137.042C13.2932 135.584 14.7568 134.71 16.2205 135.001C17.6841 135.293 18.5623 136.751 18.2696 138.208C17.9769 139.666 16.5132 140.54 15.0495 140.249Z" fill="#10BE98"/>
<path d="M15.3421 138.938C14.6103 138.792 14.1712 138.063 14.3175 137.334C14.4639 136.605 15.1957 136.168 15.9276 136.314C16.6594 136.459 17.0985 137.188 16.9521 137.917C16.8058 138.646 16.0739 139.084 15.3421 138.938Z" fill="#1CCD91"/>
<path d="M15.3421 138.938C14.6103 138.792 14.1712 138.063 14.3175 137.334C14.4639 136.605 15.1957 136.168 15.9276 136.314C16.6594 136.459 17.0985 137.188 16.9521 137.917C16.8058 138.646 16.0739 139.084 15.3421 138.938Z" fill="#10BE98"/>
</g>
</svg>
