<svg width="556" height="405" viewBox="0 0 556 405" fill="none" xmlns="http://www.w3.org/2000/svg">
<path opacity="0.4" d="M238.88 344.549L95.6199 259.664C73.46 246.531 73.46 225.268 95.6199 212.135L238.88 127.249C261.04 114.116 296.96 114.116 319.12 127.249L462.38 212.135C484.54 225.268 484.54 246.531 462.38 259.664L319.12 344.549C296.96 357.682 261.04 357.682 238.88 344.549Z" fill="black"/>
<path d="M239.674 335.491L95.712 250.264C73.4293 237.094 73.4293 215.715 95.712 202.503L239.674 117.276C261.957 104.107 298.043 104.107 320.325 117.276L464.288 202.503C486.571 215.673 486.571 237.053 464.288 250.264L320.325 335.491C298.043 348.702 261.957 348.702 239.674 335.491Z" fill="#49516B"/>
<path opacity="0.4" d="M76.7223 139.099L37.514 115.997C31.4491 112.423 31.4491 106.636 37.514 103.062L76.7223 79.9602C82.7872 76.386 92.6179 76.386 98.6828 79.9602L137.891 103.062C143.956 106.636 143.956 112.423 137.891 115.997L98.6828 139.099C92.6179 142.673 82.7872 142.673 76.7223 139.099Z" fill="#56558A"/>
<path d="M77.0628 135.317L37.552 111.885C31.4365 108.264 31.4365 102.386 37.552 98.7536L77.0628 75.3216C83.1783 71.7008 93.0821 71.7008 99.1976 75.3216L138.708 98.7536C144.824 102.374 144.824 108.253 138.708 111.885L99.1976 135.317C93.0821 138.949 83.1783 138.949 77.0628 135.317Z" fill="#49516B"/>
<path d="M79.9798 126.747L50.8827 110.01C46.379 107.424 46.379 103.225 50.8827 100.631L79.9798 83.8933C84.4835 81.307 91.777 81.307 96.2806 83.8933L125.378 100.631C129.881 103.217 129.881 107.415 125.378 110.01L96.2806 126.747C91.777 129.342 84.4835 129.342 79.9798 126.747Z" fill="#10A73B"/>
<path opacity="0.6" d="M87.7026 48.302V88.0543L59.6466 104.389L59.4787 64.9654L87.7026 48.302Z" fill="url(#paint0_linear)"/>
<path opacity="0.6" d="M87.7026 48.302L87.747 88.0145L114.953 104.389L115.071 64.8751L87.7026 48.302Z" fill="url(#paint1_linear)"/>
<path opacity="0.6" d="M59.4787 65.1277L59.6467 104.742L87.7026 121.215V81.8482L59.4787 65.1277Z" fill="url(#paint2_linear)"/>
<path opacity="0.6" d="M115.071 65.1277L114.806 104.675L87.7026 121.215V81.9489L115.071 65.1277Z" fill="url(#paint3_linear)"/>
<path opacity="0.6" d="M222.429 383.822L24.0119 266.693C-6.67064 248.591 -6.67064 219.208 24.0119 201.106L222.429 83.9759C253.111 65.8736 302.889 65.8736 333.571 83.9759L531.988 201.106C562.671 219.208 562.671 248.591 531.988 266.693L333.571 383.822C302.889 401.925 253.111 401.925 222.429 383.822Z" stroke="url(#paint4_linear)" stroke-opacity="0.7" stroke-width="2" stroke-miterlimit="10"/>
<path opacity="0.4" d="M458.732 135.316L424.387 115.079C419.074 111.948 419.074 106.879 424.387 103.749L458.732 83.512C464.045 80.3811 472.656 80.3811 477.969 83.512L512.314 103.749C517.626 106.879 517.626 111.948 512.314 115.079L477.969 135.316C472.656 138.447 464.045 138.447 458.732 135.316Z" fill="#56558A"/>
<path d="M459.03 132.003L424.42 111.477C419.063 108.305 419.063 103.156 424.42 99.9743L459.03 79.4486C464.387 76.2769 473.063 76.2769 478.42 79.4486L513.03 99.9743C518.387 103.146 518.387 108.295 513.03 111.477L478.42 132.003C473.063 135.184 464.387 135.184 459.03 132.003Z" fill="#49516B"/>
<path d="M461.586 124.496L436.097 109.835C432.152 107.569 432.152 103.892 436.097 101.619L461.586 86.9577C465.531 84.6922 471.919 84.6922 475.865 86.9577L501.353 101.619C505.298 103.884 505.298 107.562 501.353 109.835L475.865 124.496C471.919 126.769 465.531 126.769 461.586 124.496Z" fill="#10A73B"/>
<path opacity="0.6" d="M468.35 55.7803V90.6019L443.774 104.911L443.627 70.3768L468.35 55.7803Z" fill="url(#paint5_linear)"/>
<path opacity="0.6" d="M468.35 55.7803L468.389 90.567L492.221 104.911L492.324 70.2977L468.35 55.7803Z" fill="url(#paint6_linear)"/>
<path opacity="0.6" d="M443.627 70.5188L443.774 105.22L468.35 119.649V85.1654L443.627 70.5188Z" fill="url(#paint7_linear)"/>
<path opacity="0.6" d="M492.324 70.5188L492.092 105.161L468.35 119.649V85.2536L492.324 70.5188Z" fill="url(#paint8_linear)"/>
<path opacity="0.4" d="M75.757 401.798L36.5486 378.696C30.4838 375.122 30.4838 369.335 36.5486 365.761L75.757 342.659C81.8219 339.085 91.6526 339.085 97.7175 342.659L136.926 365.761C142.991 369.335 142.991 375.122 136.926 378.696L97.7175 401.798C91.6526 405.372 81.8219 405.372 75.757 401.798Z" fill="#56558A"/>
<path d="M76.0974 398.015L36.5866 374.583C30.4711 370.962 30.4711 365.084 36.5866 361.452L76.0974 338.02C82.213 334.399 92.1167 334.399 98.2323 338.02L137.743 361.452C143.859 365.072 143.859 370.95 137.743 374.583L98.2323 398.015C92.1167 401.647 82.213 401.647 76.0974 398.015Z" fill="#49516B"/>
<path d="M79.0144 389.445L49.9172 372.708C45.4136 370.122 45.4136 365.923 49.9172 363.329L79.0144 346.592C83.518 344.005 90.8115 344.005 95.3152 346.592L124.412 363.329C128.916 365.915 128.916 370.114 124.412 372.708L95.3152 389.445C90.8115 392.04 83.518 392.04 79.0144 389.445Z" fill="#10A73B"/>
<path opacity="0.6" d="M86.7372 311V350.752L58.6812 367.087L58.5133 327.663L86.7372 311Z" fill="url(#paint9_linear)"/>
<path opacity="0.6" d="M86.7373 311L86.7817 350.712L113.988 367.087L114.106 327.573L86.7373 311Z" fill="url(#paint10_linear)"/>
<path opacity="0.6" d="M58.5133 327.826L58.6813 367.44L86.7372 383.913V344.546L58.5133 327.826Z" fill="url(#paint11_linear)"/>
<path opacity="0.6" d="M114.106 327.826L113.841 367.373L86.7373 383.913V344.647L114.106 327.826Z" fill="url(#paint12_linear)"/>
<path opacity="0.4" d="M460.757 397.798L421.549 374.696C415.484 371.122 415.484 365.335 421.549 361.761L460.757 338.659C466.822 335.085 476.653 335.085 482.717 338.659L521.926 361.761C527.991 365.335 527.991 371.122 521.926 374.696L482.717 397.798C476.653 401.372 466.822 401.372 460.757 397.798Z" fill="#56558A"/>
<path d="M461.097 394.014L421.587 370.582C415.471 366.962 415.471 361.084 421.587 357.451L461.097 334.019C467.213 330.399 477.117 330.399 483.232 334.019L522.743 357.451C528.859 361.072 528.859 366.95 522.743 370.582L483.232 394.014C477.117 397.647 467.213 397.647 461.097 394.014Z" fill="#49516B"/>
<path d="M464.015 385.445L434.917 368.708C430.414 366.122 430.414 361.923 434.917 359.329L464.015 342.592C468.518 340.005 475.812 340.005 480.315 342.592L509.413 359.329C513.916 361.915 513.916 366.114 509.413 368.708L480.315 385.445C475.812 388.04 468.518 388.04 464.015 385.445Z" fill="#10A73B"/>
<path opacity="0.6" d="M471.737 307V346.752L443.681 363.087L443.513 323.663L471.737 307Z" fill="url(#paint13_linear)"/>
<path opacity="0.6" d="M471.737 307L471.782 346.712L498.988 363.087L499.106 323.573L471.737 307Z" fill="url(#paint14_linear)"/>
<path opacity="0.6" d="M443.513 323.826L443.681 363.44L471.737 379.913V340.546L443.513 323.826Z" fill="url(#paint15_linear)"/>
<path opacity="0.6" d="M499.106 323.826L498.841 363.373L471.737 379.913V340.647L499.106 323.826Z" fill="url(#paint16_linear)"/>
<path d="M263.442 289.881L132.097 217.041C127.427 214.447 127.427 210.151 132.138 207.516L264.864 132.973C269.575 130.339 277.251 130.298 281.922 132.892L413.266 205.732C417.937 208.327 417.937 212.623 413.226 215.258L280.459 289.8C275.789 292.435 268.113 292.476 263.442 289.881Z" fill="#82F6FF"/>
<path opacity="0.4" d="M267.341 321.012L112.197 234.755C106.673 231.674 106.673 226.648 112.237 223.527L268.6 135.973C274.124 132.892 283.181 132.852 288.704 135.932L443.808 222.189C449.331 225.27 449.331 230.296 443.767 233.417L287.404 320.971C281.881 324.052 272.865 324.092 267.341 321.012Z" fill="black"/>
<path d="M276.764 286.963L426.872 204.921L276.764 122.84L126.858 204.921L276.764 286.963Z" fill="#9E9E9E"/>
<path d="M276.764 216.839L405.387 146.512L276.764 76.2253L148.343 146.512L276.764 216.839Z" fill="#8163E4"/>
<path d="M440.274 225.554V226.283L440.112 226.243C439.665 227.742 438.406 229.161 436.335 230.337L286.998 313.959C281.718 316.918 273.068 316.958 267.788 313.999L119.588 231.593C116.786 230.053 115.486 227.945 115.649 225.878V159.929C115.811 158.105 117.152 156.321 119.588 154.943L141.56 142.62L210.401 170.022L268.966 137.229C274.246 134.27 282.896 134.23 288.176 137.189L346.497 169.616L415.581 142.134L436.335 153.686C438.69 154.983 439.99 156.686 440.234 158.429V224.338C440.356 224.743 440.356 225.148 440.274 225.554Z" fill="#262E42"/>
<path d="M440.274 159.604C440.031 161.347 438.731 163.05 436.335 164.387L286.998 248.009C281.718 250.968 273.068 251.009 267.788 248.05L119.588 165.644C117.152 164.266 115.811 162.523 115.649 160.699C115.608 160.415 115.608 160.172 115.649 159.888C115.811 158.064 117.152 156.28 119.588 154.902L141.56 142.58L268.966 71.2396C274.245 68.2806 282.896 68.2401 288.176 71.1991L415.622 142.093L436.375 153.646C438.731 154.943 440.031 156.645 440.274 158.388C440.356 158.794 440.356 159.199 440.274 159.604Z" fill="#49516B"/>
<path d="M440.274 159.604C440.031 161.347 438.731 163.05 436.335 164.387L286.998 248.009C281.718 250.968 273.068 251.009 267.788 248.05L119.588 165.644C117.152 164.266 115.811 162.523 115.649 160.699C115.608 160.415 115.608 160.172 115.649 159.888C115.811 158.064 117.152 156.28 119.588 154.902L141.56 142.58L268.966 71.2396C274.245 68.2806 282.896 68.2401 288.176 71.1991L415.622 142.093L436.375 153.646C438.731 154.943 440.031 156.645 440.274 158.388C440.356 158.794 440.356 159.199 440.274 159.604Z" fill="#49516B"/>
<path d="M440.274 159.604C440.031 161.347 438.731 163.05 436.335 164.387L286.998 248.009C281.718 250.968 273.068 251.009 267.788 248.05L119.588 165.644C117.152 164.266 115.811 162.523 115.649 160.699C115.608 160.415 115.608 160.172 115.649 159.888C115.811 158.064 117.152 156.28 119.588 154.902L141.56 142.58L268.966 71.2396C274.245 68.2806 282.896 68.2401 288.176 71.1991L415.622 142.093L436.375 153.646C438.731 154.943 440.031 156.645 440.274 158.388C440.356 158.794 440.356 159.199 440.274 159.604Z" fill="#323A51"/>
<path d="M440.274 159.604C440.031 161.347 438.731 163.05 436.335 164.387L286.998 248.009C281.718 250.968 273.068 251.009 267.788 248.05L119.588 165.644C117.152 164.266 115.811 162.523 115.649 160.699C115.608 160.415 115.608 160.172 115.649 159.888C115.811 158.064 117.152 156.28 119.588 154.902L141.56 142.58L268.966 71.2396C274.245 68.2806 282.896 68.2401 288.176 71.1991L415.622 142.093L436.375 153.646C438.731 154.943 440.031 156.645 440.274 158.388C440.356 158.794 440.356 159.199 440.274 159.604Z" stroke="url(#paint17_linear)" stroke-width="2" stroke-miterlimit="10"/>
<path d="M401.569 161.712L284.602 227.377C280.459 229.688 273.717 229.728 269.575 227.458L154.191 163.455L153.866 163.252C149.764 160.982 149.764 157.212 153.907 154.861L270.874 89.196C275.017 86.8855 281.759 86.845 285.902 89.1149L286.633 89.5203L401.61 153.321C405.712 155.591 405.712 159.361 401.569 161.712Z" fill="#23560D"/>
<path opacity="0.6" d="M394.259 165.684L284.196 227.458C280.297 229.647 273.921 229.688 270.062 227.54L161.502 167.346L161.177 167.184C157.319 165.036 157.319 161.469 161.218 159.28L271.24 97.5057C275.139 95.3168 281.515 95.2763 285.374 97.4246L286.064 97.8299L401.407 161.712C401.407 161.752 398.158 163.495 394.259 165.684Z" fill="url(#paint18_linear)"/>
<path d="M277.291 303.582C272.58 303.582 267.869 302.528 264.092 300.461L115.649 218.095V208.205L268.681 291.462C272.337 293.894 280.581 294.827 286.145 291.341L440.152 204.597L440.355 216.596L290.653 300.38C286.836 302.488 282.084 303.582 277.291 303.582Z" fill="#1F684D"/>
<path opacity="0.6" d="M277.291 280.478C272.58 280.478 267.869 279.424 264.092 277.356L115.649 194.991V185.1L268.681 268.358C272.337 270.79 280.581 271.722 286.145 268.236L440.152 181.493L440.355 193.491L290.653 277.275C286.836 279.383 282.084 280.478 277.291 280.478Z" fill="#1A8F55"/>
<path d="M268.844 222.027L142.616 152.024C138.108 149.552 138.149 145.417 142.657 142.864L270.265 71.2397C274.773 68.686 282.165 68.6455 286.633 71.1586L412.901 141.161C417.409 143.634 417.368 147.768 412.86 150.322L285.252 221.946C280.703 224.5 273.352 224.54 268.844 222.027Z" fill="#00B898"/>
<path d="M268.844 214.447L142.616 144.444C138.108 141.972 138.149 137.837 142.657 135.284L270.225 63.6596C274.733 61.1059 282.125 61.0654 286.592 63.5785L412.86 133.581C417.368 136.054 417.328 140.188 412.82 142.742L285.252 214.366C280.703 216.879 273.352 216.92 268.844 214.447Z" fill="url(#paint19_linear)"/>
<path d="M269.737 207.111L155.735 143.918C151.673 141.688 151.714 137.959 155.775 135.649L270.956 70.956C275.017 68.6455 281.678 68.6455 285.739 70.8749L399.701 134.068C403.763 136.297 403.722 140.026 399.661 142.337L284.521 207.03C280.419 209.34 273.758 209.38 269.737 207.111Z" stroke="white" stroke-width="2" stroke-miterlimit="10"/>
<path d="M385.69 141.972L384.187 142.823L283.749 199.206C280.134 201.233 274.245 201.273 270.671 199.287L171.29 144.201L170.071 143.512L169.787 143.35C166.213 141.364 166.213 138.08 169.828 136.054L271.768 78.8194C275.383 76.7927 281.272 76.7521 284.846 78.7383L285.495 79.1031L385.73 134.716C389.304 136.662 389.304 139.945 385.69 141.972Z" fill="#23560D"/>
<path opacity="0.6" d="M384.187 142.823L283.749 199.206C280.134 201.233 274.245 201.273 270.671 199.287L171.29 144.201L271.768 87.7774C275.383 85.7507 281.272 85.7102 284.846 87.6963L285.495 88.0611L384.187 142.823Z" fill="url(#paint20_linear)"/>
<path opacity="0.6" d="M276.723 23.8547L276.804 99.4917L202.075 139.864L201.628 67.0237L215.477 59.079L222.382 55.1067L228.758 51.418L276.723 23.8547Z" fill="url(#paint21_linear)"/>
<path opacity="0.6" d="M276.682 23.936L276.885 99.5324L351.533 139.418L351.858 65.1999L276.682 23.936Z" fill="url(#paint22_linear)"/>
<path d="M276.804 136.824L351.615 95.9249L276.804 55.0664L202.115 95.9249L276.804 136.824Z" stroke="white" stroke-width="0.7106" stroke-miterlimit="10"/>
<path d="M276.804 159.037L351.615 118.178L276.804 77.2791L202.115 118.178L276.804 159.037Z" stroke="white" stroke-width="0.7106" stroke-miterlimit="10"/>
<path d="M303.842 96.9281C318.407 88.4367 319.529 63.2968 306.349 40.7765C293.168 18.2563 270.676 6.88362 256.111 15.375C241.545 23.8664 240.423 49.0063 253.604 71.5266C266.784 94.0468 289.277 105.419 303.842 96.9281Z" fill="#0F5454"/>
<path d="M303.842 96.928C318.407 88.4366 319.53 63.2967 306.349 40.7765C293.168 18.2562 270.676 6.88353 256.111 15.3749C241.545 23.8663 240.423 49.0062 253.604 71.5265C266.784 94.0467 289.277 105.419 303.842 96.928Z" fill="#0F5454"/>
<path d="M295.438 102.435C310.004 93.9436 311.126 68.8036 297.945 46.2834C284.765 23.7631 262.272 12.3905 247.707 20.8818C233.142 29.3732 232.02 54.5131 245.2 77.0334C258.381 99.5537 280.873 110.926 295.438 102.435Z" fill="#00757A"/>
<path d="M295.438 102.435C310.004 93.9436 311.126 68.8036 297.945 46.2834C284.765 23.7631 262.272 12.3905 247.707 20.8818C233.142 29.3732 232.02 54.5131 245.2 77.0334C258.381 99.5537 280.873 110.926 295.438 102.435Z" fill="#00757A"/>
<path d="M289.088 91.5844C299.779 85.3514 300.605 66.9001 290.931 50.3724C281.258 33.8446 264.749 25.4991 254.057 31.7322C243.366 37.9652 242.541 56.4165 252.214 72.9442C261.887 89.472 278.396 97.8175 289.088 91.5844Z" fill="#073837"/>
<path d="M289.088 91.5844C299.779 85.3514 300.605 66.9001 290.931 50.3724C281.258 33.8446 264.749 25.4991 254.057 31.7322C243.366 37.9652 242.541 56.4165 252.214 72.9442C261.887 89.472 278.396 97.8175 289.088 91.5844Z" fill="#073837"/>
<path d="M288.255 88.6882C298.443 82.7488 299.227 65.1623 290.006 49.4078C280.785 33.6533 265.051 25.6966 254.864 31.6361C244.676 37.5755 243.892 55.1619 253.112 70.9165C262.333 86.671 278.067 94.6277 288.255 88.6882Z" fill="#0A5959"/>
<path d="M288.255 88.6882C298.443 82.7488 299.227 65.1623 290.006 49.4078C280.785 33.6533 265.051 25.6966 254.864 31.6361C244.676 37.5755 243.892 55.1619 253.112 70.9165C262.333 86.671 278.067 94.6277 288.255 88.6882Z" fill="#0A5959"/>
<path d="M295.438 102.435C310.004 93.9436 311.126 68.8036 297.945 46.2834C284.765 23.7631 262.272 12.3905 247.707 20.8818C233.142 29.3732 232.02 54.5131 245.2 77.0334C258.381 99.5537 280.873 110.926 295.438 102.435Z" stroke="url(#paint23_linear)" stroke-width="2" stroke-miterlimit="10"/>
<path d="M295.438 102.435C310.004 93.9436 311.126 68.8036 297.945 46.2834C284.765 23.7631 262.272 12.3905 247.707 20.8818C233.142 29.3732 232.02 54.5131 245.2 77.0334C258.381 99.5537 280.873 110.926 295.438 102.435Z" stroke="url(#paint24_linear)" stroke-width="2" stroke-miterlimit="10"/>
<path d="M274.895 45.906C274.855 45.906 274.855 45.8655 274.814 45.8655C274.773 45.8655 274.773 45.8249 274.733 45.8249H274.692H274.652C274.611 45.8249 274.611 45.8249 274.57 45.7844C274.489 45.7439 274.408 45.7033 274.327 45.6628L258.162 38.7314C256.619 38.0829 255.482 39.1368 255.604 41.0419C255.726 42.9875 257.066 45.0953 258.569 45.7439L274.733 52.7158C274.814 52.7563 274.895 52.7968 274.977 52.7968C275.058 52.8374 275.139 52.8779 275.22 52.9184C278.266 54.2155 280.947 58.4716 281.19 62.3224C281.434 66.2137 279.119 68.2809 276.073 66.9838L270.509 64.5923L270.306 61.0658L275.829 63.4573C277.373 64.1059 278.51 63.052 278.388 61.1469C278.266 59.2012 276.926 57.0935 275.423 56.4449L267.097 52.8779L262.468 50.8917C260.924 50.2432 259.787 51.2971 259.909 53.2022C260.031 55.1478 261.371 57.2556 262.874 57.9041L264.742 58.7148L264.945 62.2413L265.351 69.2943L265.838 77.5227C265.96 79.4684 267.301 81.5761 268.803 82.2247C270.347 82.8732 271.484 81.8194 271.362 79.9142L270.875 71.6858L276.439 74.0773C282.571 76.712 287.161 72.537 286.714 64.7544C286.267 56.9719 280.987 48.5813 274.895 45.906Z" fill="#073837"/>
<path d="M273.717 44.7302C273.677 44.7302 273.677 44.6897 273.636 44.6897C273.596 44.6897 273.596 44.6492 273.555 44.6492H273.514H273.474C273.433 44.6492 273.433 44.6492 273.393 44.6086C273.311 44.5681 273.23 44.5276 273.149 44.487L256.985 37.5557C255.441 36.9071 254.304 37.961 254.426 39.8661C254.548 41.7712 255.888 43.9195 257.391 44.5681L273.555 51.4994C273.636 51.54 273.717 51.5805 273.799 51.5805C273.88 51.621 273.961 51.6616 274.042 51.7021C277.088 52.9992 279.769 57.2553 280.013 61.1061C280.256 64.9973 277.941 67.0646 274.895 65.7675L269.331 63.376L269.128 59.8495L274.652 62.241C276.195 62.8896 277.332 61.8357 277.21 59.9306C277.088 57.9849 275.748 55.8771 274.245 55.2286L265.96 51.7021L261.33 49.7159C259.787 49.0674 258.65 50.1213 258.772 52.0264C258.893 53.972 260.234 56.0798 261.736 56.7284L263.605 57.539L263.808 61.0655L264.214 68.1185L264.701 76.3469C264.823 78.2926 266.163 80.4004 267.666 81.0489C269.209 81.6975 270.347 80.6436 270.225 78.7385L269.737 70.51L275.301 72.9015C281.434 75.5363 286.023 71.3612 285.577 63.5786C285.13 55.7961 279.81 47.4055 273.717 44.7302Z" fill="url(#paint25_linear)"/>
<path opacity="0.6" d="M201.75 66.4971L202.197 139.986L276.804 180.439L276.682 106.748L201.75 66.4971Z" fill="url(#paint26_linear)"/>
<path opacity="0.6" d="M352.143 61.6331L351.412 139.864L276.723 180.398V106.748L352.143 61.6331Z" fill="url(#paint27_linear)"/>
<defs>
<linearGradient id="paint0_linear" x1="75.1821" y1="42.4787" x2="72.4178" y2="93.5107" gradientUnits="userSpaceOnUse">
<stop stop-color="#00FFED" stop-opacity="0"/>
<stop offset="1" stop-color="#00E950"/>
</linearGradient>
<linearGradient id="paint1_linear" x1="104.869" y1="51.2856" x2="97.4372" y2="93.3045" gradientUnits="userSpaceOnUse">
<stop stop-color="#00FFED" stop-opacity="0"/>
<stop offset="1" stop-color="#00E950"/>
</linearGradient>
<linearGradient id="paint2_linear" x1="74.2302" y1="74.3613" x2="72.6383" y2="114.377" gradientUnits="userSpaceOnUse">
<stop stop-color="#00FFED" stop-opacity="0"/>
<stop offset="1" stop-color="#00E950"/>
</linearGradient>
<linearGradient id="paint3_linear" x1="100.765" y1="74.37" x2="102.418" y2="114.372" gradientUnits="userSpaceOnUse">
<stop stop-color="#00FFED" stop-opacity="0"/>
<stop offset="1" stop-color="#00E950"/>
</linearGradient>
<linearGradient id="paint4_linear" x1="-0.428045" y1="233.891" x2="556.435" y2="233.891" gradientUnits="userSpaceOnUse">
<stop stop-color="#1599FF" stop-opacity="0.4"/>
<stop offset="1" stop-color="#00E950"/>
</linearGradient>
<linearGradient id="paint5_linear" x1="457.383" y1="50.6793" x2="454.961" y2="95.3814" gradientUnits="userSpaceOnUse">
<stop stop-color="#00FFED" stop-opacity="0"/>
<stop offset="1" stop-color="#00E950"/>
</linearGradient>
<linearGradient id="paint6_linear" x1="483.387" y1="58.3938" x2="476.877" y2="95.2008" gradientUnits="userSpaceOnUse">
<stop stop-color="#00FFED" stop-opacity="0"/>
<stop offset="1" stop-color="#00E950"/>
</linearGradient>
<linearGradient id="paint7_linear" x1="456.549" y1="78.6072" x2="455.155" y2="113.66" gradientUnits="userSpaceOnUse">
<stop stop-color="#00FFED" stop-opacity="0"/>
<stop offset="1" stop-color="#00E950"/>
</linearGradient>
<linearGradient id="paint8_linear" x1="479.793" y1="78.6148" x2="481.24" y2="113.656" gradientUnits="userSpaceOnUse">
<stop stop-color="#00FFED" stop-opacity="0"/>
<stop offset="1" stop-color="#00E950"/>
</linearGradient>
<linearGradient id="paint9_linear" x1="74.2167" y1="305.177" x2="71.4524" y2="356.208" gradientUnits="userSpaceOnUse">
<stop stop-color="#00FFED" stop-opacity="0"/>
<stop offset="1" stop-color="#00E950"/>
</linearGradient>
<linearGradient id="paint10_linear" x1="103.903" y1="313.984" x2="96.4719" y2="356.002" gradientUnits="userSpaceOnUse">
<stop stop-color="#00FFED" stop-opacity="0"/>
<stop offset="1" stop-color="#00E950"/>
</linearGradient>
<linearGradient id="paint11_linear" x1="73.2649" y1="337.06" x2="71.6729" y2="377.076" gradientUnits="userSpaceOnUse">
<stop stop-color="#00FFED" stop-opacity="0"/>
<stop offset="1" stop-color="#00E950"/>
</linearGradient>
<linearGradient id="paint12_linear" x1="99.8" y1="337.068" x2="101.453" y2="377.071" gradientUnits="userSpaceOnUse">
<stop stop-color="#00FFED" stop-opacity="0"/>
<stop offset="1" stop-color="#00E950"/>
</linearGradient>
<linearGradient id="paint13_linear" x1="459.217" y1="301.177" x2="456.452" y2="352.208" gradientUnits="userSpaceOnUse">
<stop stop-color="#00FFED" stop-opacity="0"/>
<stop offset="1" stop-color="#00E950"/>
</linearGradient>
<linearGradient id="paint14_linear" x1="488.903" y1="309.984" x2="481.472" y2="352.002" gradientUnits="userSpaceOnUse">
<stop stop-color="#00FFED" stop-opacity="0"/>
<stop offset="1" stop-color="#00E950"/>
</linearGradient>
<linearGradient id="paint15_linear" x1="458.265" y1="333.06" x2="456.673" y2="373.076" gradientUnits="userSpaceOnUse">
<stop stop-color="#00FFED" stop-opacity="0"/>
<stop offset="1" stop-color="#00E950"/>
</linearGradient>
<linearGradient id="paint16_linear" x1="484.8" y1="333.068" x2="486.453" y2="373.071" gradientUnits="userSpaceOnUse">
<stop stop-color="#00FFED" stop-opacity="0"/>
<stop offset="1" stop-color="#00E950"/>
</linearGradient>
<linearGradient id="paint17_linear" x1="115.237" y1="159.665" x2="440.738" y2="159.665" gradientUnits="userSpaceOnUse">
<stop offset="0.00121702" stop-color="#00FFED"/>
<stop offset="0.3575" stop-color="#00FFEB" stop-opacity="0.8571"/>
<stop offset="0.5109" stop-color="#00FEE4" stop-opacity="0.7956"/>
<stop offset="0.6253" stop-color="#00FCD7" stop-opacity="0.7497"/>
<stop offset="0.7205" stop-color="#00F9C5" stop-opacity="0.7116"/>
<stop offset="0.8036" stop-color="#00F6AE" stop-opacity="0.6783"/>
<stop offset="0.8783" stop-color="#00F292" stop-opacity="0.6483"/>
<stop offset="0.9452" stop-color="#00EE71" stop-opacity="0.6215"/>
<stop offset="0.9988" stop-color="#00E950" stop-opacity="0.6"/>
</linearGradient>
<linearGradient id="paint18_linear" x1="279.655" y1="154.777" x2="281.678" y2="231.793" gradientUnits="userSpaceOnUse">
<stop stop-color="#1599FF" stop-opacity="0.4"/>
<stop offset="1" stop-color="#00E950"/>
</linearGradient>
<linearGradient id="paint19_linear" x1="289.523" y1="197.129" x2="265.044" y2="75.9134" gradientUnits="userSpaceOnUse">
<stop stop-color="#3FFFDC"/>
<stop offset="1" stop-color="#009469"/>
</linearGradient>
<linearGradient id="paint20_linear" x1="171.273" y1="143.494" x2="384.195" y2="143.494" gradientUnits="userSpaceOnUse">
<stop stop-color="#1599FF" stop-opacity="0.4"/>
<stop offset="1" stop-color="#00E950"/>
</linearGradient>
<linearGradient id="paint21_linear" x1="242.853" y1="11.4387" x2="237.523" y2="117.591" gradientUnits="userSpaceOnUse">
<stop stop-color="#00FFED" stop-opacity="0"/>
<stop offset="1" stop-color="#00E950"/>
</linearGradient>
<linearGradient id="paint22_linear" x1="322.133" y1="31.0046" x2="308.642" y2="116.504" gradientUnits="userSpaceOnUse">
<stop stop-color="#00FFED" stop-opacity="0"/>
<stop offset="1" stop-color="#00E950"/>
</linearGradient>
<linearGradient id="paint23_linear" x1="313.559" y1="63.5494" x2="241.729" y2="91.3256" gradientUnits="userSpaceOnUse">
<stop offset="0.00121702" stop-color="#00FFED"/>
<stop offset="0.3575" stop-color="#00FFEB" stop-opacity="0.8571"/>
<stop offset="0.5109" stop-color="#00FEE4" stop-opacity="0.7956"/>
<stop offset="0.6253" stop-color="#00FCD7" stop-opacity="0.7497"/>
<stop offset="0.7205" stop-color="#00F9C5" stop-opacity="0.7116"/>
<stop offset="0.8036" stop-color="#00F6AE" stop-opacity="0.6783"/>
<stop offset="0.8783" stop-color="#00F292" stop-opacity="0.6483"/>
<stop offset="0.9452" stop-color="#00EE71" stop-opacity="0.6215"/>
<stop offset="0.9988" stop-color="#00E950" stop-opacity="0.6"/>
</linearGradient>
<linearGradient id="paint24_linear" x1="313.559" y1="63.5494" x2="241.729" y2="91.3256" gradientUnits="userSpaceOnUse">
<stop offset="0.00121702" stop-color="#00FFED"/>
<stop offset="0.3575" stop-color="#00FFEB" stop-opacity="0.8571"/>
<stop offset="0.5109" stop-color="#00FEE4" stop-opacity="0.7956"/>
<stop offset="0.6253" stop-color="#00FCD7" stop-opacity="0.7497"/>
<stop offset="0.7205" stop-color="#00F9C5" stop-opacity="0.7116"/>
<stop offset="0.8036" stop-color="#00F6AE" stop-opacity="0.6783"/>
<stop offset="0.8783" stop-color="#00F292" stop-opacity="0.6483"/>
<stop offset="0.9452" stop-color="#00EE71" stop-opacity="0.6215"/>
<stop offset="0.9988" stop-color="#00E950" stop-opacity="0.6"/>
</linearGradient>
<linearGradient id="paint25_linear" x1="254.43" y1="59.3011" x2="285.6" y2="59.3011" gradientUnits="userSpaceOnUse">
<stop stop-color="#00A8A1"/>
<stop offset="1" stop-color="#41FF7A"/>
</linearGradient>
<linearGradient id="paint26_linear" x1="240.678" y1="85.432" x2="237.703" y2="166.39" gradientUnits="userSpaceOnUse">
<stop stop-color="#00FFED" stop-opacity="0"/>
<stop offset="1" stop-color="#00E950"/>
</linearGradient>
<linearGradient id="paint27_linear" x1="312.956" y1="81.3345" x2="316.059" y2="165.8" gradientUnits="userSpaceOnUse">
<stop stop-color="#00FFED" stop-opacity="0"/>
<stop offset="1" stop-color="#00E950"/>
</linearGradient>
</defs>
</svg>
