<svg xmlns="http://www.w3.org/2000/svg" width="25.801" height="25.8" viewBox="0 0 25.801 25.8">
  <g id="vault" transform="translate(-3.1 -3.1)">
    <rect id="Rectangle_14" data-name="Rectangle 14" width="24" height="24" rx="4" transform="translate(4 4)" fill="none" stroke="#445b74" stroke-width="1.8"/>
    <path id="Path_2224" data-name="Path 2224" d="M8.56,18.1v2.8" fill="none" stroke="#445b74" stroke-linecap="round" stroke-width="1.8"/>
    <path id="Path_2225" data-name="Path 2225" d="M8.56,11.1v2.8" fill="none" stroke="#445b74" stroke-linecap="round" stroke-width="1.8"/>
    <path id="Path_2226" data-name="Path 2226" d="M13.446,10.574a1.283,1.283,0,0,0,0,1.815l1.8,1.8a4.092,4.092,0,0,0,0,3.617l-1.8,1.8a1.283,1.283,0,0,0,1.815,1.815l1.791-1.791a4.092,4.092,0,0,0,3.665.024l1.8,1.8a1.283,1.283,0,1,0,1.815-1.815l-1.791-1.791a4.091,4.091,0,0,0,0-3.714l1.791-1.791a1.283,1.283,0,0,0-1.815-1.815l-1.8,1.8a4.091,4.091,0,0,0-3.666.024l-1.791-1.791A1.283,1.283,0,0,0,13.446,10.574Zm3.993,6.9a2.079,2.079,0,1,1,2.94,0A2.079,2.079,0,0,1,17.439,17.47Z" fill="#d05bc4" fill-rule="evenodd"/>
  </g>
</svg>
