<svg xmlns="http://www.w3.org/2000/svg" width="26" height="23.333" viewBox="0 0 26 23.333">
  <g id="whitepaper" transform="translate(-3 -4.334)">
    <path id="Path_2227" data-name="Path 2227" d="M25.333,26.667H6.667A2.667,2.667,0,0,1,4,24V8A2.667,2.667,0,0,1,6.667,5.334H20A2.667,2.667,0,0,1,22.667,8V9.334m2.667,17.333A2.667,2.667,0,0,1,22.667,24V9.334m2.667,17.333A2.667,2.667,0,0,0,28,24V12a2.667,2.667,0,0,0-2.667-2.667H22.667m-5.333-4H12" fill="none" stroke="#445b74" stroke-linecap="round" stroke-linejoin="round" stroke-width="2"/>
    <path id="Path_2228" data-name="Path 2228" d="M9.333,21.335h8m-8-10.667h8V16h-8Z" fill="none" stroke="#cd58c1" stroke-linecap="round" stroke-linejoin="round" stroke-width="2"/>
  </g>
</svg>
