<svg width="32" height="32" viewBox="0 0 32 32" fill="none" xmlns="http://www.w3.org/2000/svg">
<path d="M25.3333 26.6673H6.66667C5.95942 26.6673 5.28115 26.3864 4.78105 25.8863C4.28095 25.3862 4 24.7079 4 24.0006V8.00065C4 7.29341 4.28095 6.61513 4.78105 6.11503C5.28115 5.61494 5.95942 5.33398 6.66667 5.33398H20C20.7072 5.33398 21.3855 5.61494 21.8856 6.11503C22.3857 6.61513 22.6667 7.29341 22.6667 8.00065V9.33398M25.3333 26.6673C24.6261 26.6673 23.9478 26.3864 23.4477 25.8863C22.9476 25.3862 22.6667 24.7079 22.6667 24.0006V9.33398M25.3333 26.6673C26.0406 26.6673 26.7189 26.3864 27.219 25.8863C27.719 25.3862 28 24.7079 28 24.0006V12.0007C28 11.2934 27.719 10.6151 27.219 10.115C26.7189 9.61494 26.0406 9.33398 25.3333 9.33398H22.6667M17.3333 5.33398H12" stroke="#445B74" stroke-width="2" stroke-linecap="round" stroke-linejoin="round"/>
<path d="M9.3335 21.3346H17.3335M9.3335 10.668H17.3335V16.0013H9.3335V10.668Z" stroke="#1AC486" stroke-width="2" stroke-linecap="round" stroke-linejoin="round"/>
</svg>
