<svg width="1059" height="789" viewBox="0 0 1059 789" fill="none" xmlns="http://www.w3.org/2000/svg">
<path d="M537.766 329.963H195.634L94.0257 226.387H6.9762V223.295H95.5422L197.151 326.871H537.766V329.963Z" fill="#2D3748"/>
<path d="M7.88602 233.498C12.2413 233.498 15.772 229.899 15.772 225.459C15.772 221.019 12.2413 217.42 7.88602 217.42C3.53069 217.42 0 221.019 0 225.459C0 229.899 3.53069 233.498 7.88602 233.498Z" fill="#2D3748"/>
<path d="M489.629 707.292C493.657 707.292 496.923 703.965 496.923 699.86C496.923 695.755 493.657 692.428 489.629 692.428C485.601 692.428 482.336 695.755 482.336 699.86C482.336 703.965 485.601 707.292 489.629 707.292Z" fill="#2D3748"/>
<path d="M435.29 788.335C439.318 788.335 442.584 785.008 442.584 780.903C442.584 776.798 439.318 773.471 435.29 773.471C431.262 773.471 427.997 776.798 427.997 780.903C427.997 785.008 431.262 788.335 435.29 788.335Z" fill="#2D3748"/>
<path d="M91.9024 734.994C96.2577 734.994 99.7884 731.395 99.7884 726.955C99.7884 722.516 96.2577 718.917 91.9024 718.917C87.547 718.917 84.0164 722.516 84.0164 726.955C84.0164 731.395 87.547 734.994 91.9024 734.994Z" fill="#2D3748"/>
<path d="M168.336 696.346C172.691 696.346 176.222 692.747 176.222 688.307C176.222 683.868 172.691 680.268 168.336 680.268C163.981 680.268 160.45 683.868 160.45 688.307C160.45 692.747 163.981 696.346 168.336 696.346Z" fill="#2D3748"/>
<path d="M91.0725 37.8997C95.4419 37.8997 98.984 34.591 98.984 30.5096C98.984 26.4282 95.4419 23.1196 91.0725 23.1196C86.7032 23.1196 83.1611 26.4282 83.1611 30.5096C83.1611 34.591 86.7032 37.8997 91.0725 37.8997Z" fill="#2D3748"/>
<path d="M168.209 78.2089C172.215 78.2089 175.462 74.9003 175.462 70.8189C175.462 66.7375 172.215 63.4288 168.209 63.4288C164.204 63.4288 160.957 66.7375 160.957 70.8189C160.957 74.9003 164.204 78.2089 168.209 78.2089Z" fill="#2D3748"/>
<path d="M13.7207 538.971C18.0761 538.971 21.6068 535.372 21.6068 530.932C21.6068 526.493 18.0761 522.893 13.7207 522.893C9.36541 522.893 5.83472 526.493 5.83472 530.932C5.83472 535.372 9.36541 538.971 13.7207 538.971Z" fill="#2D3748"/>
<path d="M272.371 666.494C276.726 666.494 280.257 662.895 280.257 658.455C280.257 654.015 276.726 650.416 272.371 650.416C268.015 650.416 264.485 654.015 264.485 658.455C264.485 662.895 268.015 666.494 272.371 666.494Z" fill="#2D3748"/>
<path d="M414.016 305.846L340.918 263.797H275.101L166.819 153.419V111.679L88.2626 31.9096L90.6891 29.7454L169.853 110.442V152.182L276.314 260.706H341.525L415.532 303.064L414.016 305.846Z" fill="#2D3748"/>
<path d="M169.853 72.4128H166.82V152.801H169.853V72.4128Z" fill="#2D3748"/>
<path d="M90.6891 730.974L88.2626 728.81L166.819 649.041V607.301L275.101 496.922H340.918L414.016 454.873L415.532 457.656L341.525 500.014H276.314L169.853 608.538V650.277L90.6891 730.974Z" fill="#2D3748"/>
<path d="M169.853 607.919H166.82V688.307H169.853V607.919Z" fill="#2D3748"/>
<path d="M93.1158 532.478H6.9762V529.387H91.9025L201.7 417.153H420.992V420.245H203.217L93.1158 532.478Z" fill="#2D3748"/>
<path d="M484.687 267.817L400.064 181.246V97.4572L315.137 10.8857L317.26 8.72144L403.097 96.2204V180.009L486.81 265.653L484.687 267.817Z" fill="#2D3748"/>
<path d="M319.048 21.6861C323.293 21.6861 326.733 17.9103 326.733 13.2526C326.733 8.59489 323.293 4.81909 319.048 4.81909C314.804 4.81909 311.363 8.59489 311.363 13.2526C311.363 17.9103 314.804 21.6861 319.048 21.6861Z" fill="#2D3748"/>
<path d="M435.506 20.4813C440.73 20.4813 444.965 15.8964 444.965 10.2407C444.965 4.5849 440.73 0 435.506 0C430.282 0 426.048 4.5849 426.048 10.2407C426.048 15.8964 430.282 20.4813 435.506 20.4813Z" fill="#2D3748"/>
<path d="M489.892 60.901C494.463 60.901 498.169 57.1252 498.169 52.4675C498.169 47.8099 494.463 44.0341 489.892 44.0341C485.322 44.0341 481.616 47.8099 481.616 52.4675C481.616 57.1252 485.322 60.901 489.892 60.901Z" fill="#2D3748"/>
<path d="M491.359 224.84H488.326V133.322L433.731 77.6688V12.7402H436.764V76.4321L491.359 132.085V224.84Z" fill="#2D3748"/>
<path d="M491.359 52.6039H488.326V106.402H491.359V52.6039Z" fill="#2D3748"/>
<path d="M491.359 645.854H488.326V699.653H491.359V645.854Z" fill="#2D3748"/>
<path d="M402.187 660.001H274.797V656.909H400.974L455.872 601.256V483.148H458.906V602.493L402.187 660.001Z" fill="#2D3748"/>
<path d="M436.942 780.931H433.908V707.965L488.504 645.718V543.357H491.537V647.101L436.942 709.348V780.931Z" fill="#2D3748"/>
<path d="M521.234 329.963H863.366L964.974 226.386H1052.02V223.294H963.458L861.849 326.871H521.234V329.963Z" fill="#2D3748"/>
<path d="M1051.22 232.441C1047.46 232.441 1044.41 229.336 1044.41 225.505C1044.41 221.674 1047.46 218.568 1051.22 218.568C1054.98 218.568 1058.03 221.674 1058.03 225.505C1058.03 229.336 1054.98 232.441 1051.22 232.441Z" fill="#2D3748"/>
<path d="M623.828 788.355C620.337 788.355 617.507 785.472 617.507 781.914C617.507 778.357 620.337 775.473 623.828 775.473C627.319 775.473 630.149 778.357 630.149 781.914C630.149 785.472 627.319 788.355 623.828 788.355Z" fill="#2D3748"/>
<path d="M569.371 721.963C565.343 721.963 562.077 718.635 562.077 714.531C562.077 710.426 565.343 707.099 569.371 707.099C573.399 707.099 576.664 710.426 576.664 714.531C576.664 718.635 573.399 721.963 569.371 721.963Z" fill="#2D3748"/>
<path d="M967.103 734.845C963.075 734.845 959.81 731.518 959.81 727.413C959.81 723.309 963.075 719.981 967.103 719.981C971.131 719.981 974.397 723.309 974.397 727.413C974.397 731.518 971.131 734.845 967.103 734.845Z" fill="#2D3748"/>
<path d="M890.766 695.208C887.006 695.208 883.959 692.102 883.959 688.271C883.959 684.44 887.006 681.335 890.766 681.335C894.525 681.335 897.573 684.44 897.573 688.271C897.573 692.102 894.525 695.208 890.766 695.208Z" fill="#2D3748"/>
<path d="M968.076 35.2454C965.659 35.2454 963.7 33.249 963.7 30.7862C963.7 28.3235 965.659 26.327 968.076 26.327C970.493 26.327 972.452 28.3235 972.452 30.7862C972.452 33.249 970.493 35.2454 968.076 35.2454Z" fill="#2D3748"/>
<path d="M890.766 77.8556C887.006 77.8556 883.959 74.75 883.959 70.9191C883.959 67.0881 887.006 63.9825 890.766 63.9825C894.525 63.9825 897.573 67.0881 897.573 70.9191C897.573 74.75 894.525 77.8556 890.766 77.8556Z" fill="#2D3748"/>
<path d="M1051.22 537.649C1047.46 537.649 1044.41 534.544 1044.41 530.713C1044.41 526.882 1047.46 523.776 1051.22 523.776C1054.98 523.776 1058.03 526.882 1058.03 530.713C1058.03 534.544 1054.98 537.649 1051.22 537.649Z" fill="#2D3748"/>
<path d="M786.714 720.972C782.954 720.972 779.906 717.866 779.906 714.035C779.906 710.204 782.954 707.099 786.714 707.099C790.473 707.099 793.521 710.204 793.521 714.035C793.521 717.866 790.473 720.972 786.714 720.972Z" fill="#2D3748"/>
<path d="M644.984 305.846L718.081 263.797H783.899L892.18 153.419V111.679L970.737 31.9094L968.311 29.7451L889.147 110.442V152.182L782.686 260.705H717.475L643.468 303.064L644.984 305.846Z" fill="#2D3748"/>
<path d="M889.147 72.4125H892.18V152.8H889.147V72.4125Z" fill="#2D3748"/>
<path d="M968.311 730.974L970.737 728.81L892.18 649.04V607.301L783.899 496.922H718.081L644.984 454.873L643.468 457.656L717.475 500.014H782.686L889.147 608.537V650.277L968.311 730.974Z" fill="#2D3748"/>
<path d="M889.147 607.919H892.18V688.307H889.147V607.919Z" fill="#2D3748"/>
<path d="M965.884 532.478H1052.02V529.386H967.097L857.3 417.153H638.008V420.244H855.783L965.884 532.478Z" fill="#2D3748"/>
<path d="M574.313 267.817L658.936 181.246V97.4567L743.863 10.8852L741.739 8.72095L655.903 96.22V180.009L572.19 265.653L574.313 267.817Z" fill="#2D3748"/>
<path d="M740.036 21.3723C735.202 21.3723 731.284 17.3794 731.284 12.4539C731.284 7.52843 735.202 3.53552 740.036 3.53552C744.87 3.53552 748.788 7.52843 748.788 12.4539C748.788 17.3794 744.87 21.3723 740.036 21.3723Z" fill="#2D3748"/>
<path d="M623.828 18.3996C619.263 18.3996 615.562 14.6285 615.562 9.97665C615.562 5.32479 619.263 1.55371 623.828 1.55371C628.393 1.55371 632.094 5.32479 632.094 9.97665C632.094 14.6285 628.393 18.3996 623.828 18.3996Z" fill="#2D3748"/>
<path d="M569.371 61.26C564.269 61.26 560.132 57.0453 560.132 51.8461C560.132 46.647 564.269 42.4323 569.371 42.4323C574.473 42.4323 578.609 46.647 578.609 51.8461C578.609 57.0453 574.473 61.26 569.371 61.26Z" fill="#2D3748"/>
<path d="M567.64 224.84H570.674V133.322L625.269 77.6686V12.74H622.236V76.4319L567.64 132.085V224.84Z" fill="#2D3748"/>
<path d="M567.641 52.0206H570.674V105.819H567.641V52.0206Z" fill="#2D3748"/>
<path d="M622.236 786.318H625.269V721.08L570.674 665.427V573.909H567.64V666.664L622.236 722.317V786.318Z" fill="#2D3748"/>
<path d="M567.641 660.48H570.674V714.278H567.641V660.48Z" fill="#2D3748"/>
<path d="M656.813 715.824H784.203V712.732H658.026L603.128 657.079V538.971H600.094V658.316L656.813 715.824Z" fill="#2D3748"/>
<circle cx="528" cy="387" r="303" fill="#1A202C"/>
<path d="M528.571 109H525.022V160.385H528.571V109Z" fill="#4A5568"/>
<path d="M505.256 161.556L500.785 110.348L504.298 110.064L508.805 161.236L505.256 161.556Z" fill="#4A5568"/>
<path d="M485.667 164.431L476.725 113.827L480.238 113.224L489.145 163.828L485.667 164.431Z" fill="#4A5568"/>
<path d="M466.363 169.044L453.055 119.398L456.497 118.475L469.805 168.121L466.363 169.044Z" fill="#4A5568"/>
<path d="M447.555 175.289L429.989 126.992L433.324 125.785L450.89 174.047L447.555 175.289Z" fill="#4A5568"/>
<path d="M429.385 183.132L407.668 136.573L410.861 135.047L432.579 181.641L429.385 183.132Z" fill="#4A5568"/>
<path d="M411.961 192.536L386.234 148.035L389.321 146.261L415.013 190.761L411.961 192.536Z" fill="#4A5568"/>
<path d="M395.389 203.466L365.935 161.343L368.81 159.32L398.299 201.407L395.389 203.466Z" fill="#4A5568"/>
<path d="M379.846 215.744L346.843 176.389L349.54 174.118L382.578 213.473L379.846 215.744Z" fill="#4A5568"/>
<path d="M365.474 229.371L329.135 193.033L331.619 190.513L367.958 226.852L365.474 229.371Z" fill="#4A5568"/>
<path d="M352.308 244.169L312.918 211.131L315.224 208.434L354.579 241.472L352.308 244.169Z" fill="#4A5568"/>
<path d="M340.491 260.067L298.368 230.613L300.427 227.703L342.514 257.157L340.491 260.067Z" fill="#4A5568"/>
<path d="M330.094 276.959L285.593 251.267L287.368 248.179L331.868 273.872L330.094 276.959Z" fill="#4A5568"/>
<path d="M321.186 294.667L274.628 272.949L276.118 269.719L322.712 291.437L321.186 294.667Z" fill="#4A5568"/>
<path d="M313.911 313.084L265.614 295.518L266.821 292.183L315.118 309.749L313.911 313.084Z" fill="#4A5568"/>
<path d="M308.234 332.07L258.588 318.762L259.51 315.355L309.156 328.663L308.234 332.07Z" fill="#4A5568"/>
<path d="M304.224 351.481L253.62 342.574L254.258 339.061L304.862 348.003L304.224 351.481Z" fill="#4A5568"/>
<path d="M301.953 371.177L250.745 366.705L251.065 363.156L302.272 367.628L301.953 371.177Z" fill="#4A5568"/>
<path d="M301.385 387.429H250V390.978H301.385V387.429Z" fill="#4A5568"/>
<path d="M251.348 415.251L251.065 411.702L302.236 407.23L302.556 410.744L251.348 415.251Z" fill="#4A5568"/>
<path d="M254.826 439.275L254.223 435.798L304.827 426.855L305.43 430.368L254.826 439.275Z" fill="#4A5568"/>
<path d="M260.398 462.945L259.475 459.502L309.121 446.195L310.043 449.637L260.398 462.945Z" fill="#4A5568"/>
<path d="M267.992 486.011L266.785 482.675L315.047 465.109L316.289 468.445L267.992 486.011Z" fill="#4A5568"/>
<path d="M277.573 508.368L276.047 505.138L322.641 483.421L324.132 486.614L277.573 508.368Z" fill="#4A5568"/>
<path d="M289.035 529.766L287.261 526.679L331.761 500.986L333.536 504.074L289.035 529.766Z" fill="#4A5568"/>
<path d="M302.343 550.1L300.32 547.19L342.407 517.701L344.466 520.611L302.343 550.1Z" fill="#4A5568"/>
<path d="M317.389 569.192L315.118 566.46L354.473 533.422L356.744 536.154L317.389 569.192Z" fill="#4A5568"/>
<path d="M334.032 586.9L331.513 584.38L367.851 548.042L370.371 550.562L334.032 586.9Z" fill="#4A5568"/>
<path d="M352.131 603.082L349.434 600.811L382.472 561.421L385.169 563.727L352.131 603.082Z" fill="#4A5568"/>
<path d="M371.613 617.632L368.703 615.609L398.157 573.486L401.067 575.544L371.613 617.632Z" fill="#4A5568"/>
<path d="M392.266 630.442L389.179 628.668L414.871 584.167L417.959 585.942L392.266 630.442Z" fill="#4A5568"/>
<path d="M413.949 641.372L410.719 639.882L432.437 593.323L435.667 594.814L413.949 641.372Z" fill="#4A5568"/>
<path d="M436.518 650.386L433.183 649.179L450.748 600.882L454.084 602.124L436.518 650.386Z" fill="#4A5568"/>
<path d="M459.762 657.412L456.355 656.49L469.663 606.879L473.07 607.766L459.762 657.412Z" fill="#4A5568"/>
<path d="M483.574 662.38L480.061 661.777L489.003 611.173L492.481 611.776L483.574 662.38Z" fill="#4A5568"/>
<path d="M507.705 665.255L504.156 664.935L508.627 613.764L512.176 614.047L507.705 665.255Z" fill="#4A5568"/>
<path d="M531.978 614.615H528.429V666H531.978V614.615Z" fill="#4A5568"/>
<path d="M552.702 664.971L548.231 613.763L551.744 613.444L556.251 664.651L552.702 664.971Z" fill="#4A5568"/>
<path d="M576.797 661.777L567.855 611.173L571.368 610.57L580.275 661.174L576.797 661.777Z" fill="#4A5568"/>
<path d="M600.502 656.525L587.195 606.915L590.637 605.992L603.945 655.638L600.502 656.525Z" fill="#4A5568"/>
<path d="M623.675 649.25L606.109 600.953L609.445 599.746L627.011 648.043L623.675 649.25Z" fill="#4A5568"/>
<path d="M646.139 639.953L624.421 593.359L627.614 591.868L649.368 638.462L646.139 639.953Z" fill="#4A5568"/>
<path d="M667.679 628.739L641.986 584.238L645.074 582.464L670.766 626.965L667.679 628.739Z" fill="#4A5568"/>
<path d="M688.19 615.68L658.701 573.592L661.611 571.57L691.1 613.657L688.19 615.68Z" fill="#4A5568"/>
<path d="M707.459 600.917L674.421 561.527L677.154 559.256L710.192 598.611L707.459 600.917Z" fill="#4A5568"/>
<path d="M725.38 584.487L689.042 548.148L691.561 545.664L727.9 582.003L725.38 584.487Z" fill="#4A5568"/>
<path d="M741.811 566.602L702.421 533.563L704.727 530.831L744.082 563.869L741.811 566.602Z" fill="#4A5568"/>
<path d="M756.609 547.332L714.486 517.843L716.544 514.933L758.632 544.423L756.609 547.332Z" fill="#4A5568"/>
<path d="M769.668 526.821L725.167 501.129L726.942 498.077L771.442 523.769L769.668 526.821Z" fill="#4A5568"/>
<path d="M780.882 505.28L734.323 483.562L735.814 480.333L782.372 502.051L780.882 505.28Z" fill="#4A5568"/>
<path d="M790.179 482.853L741.882 465.251L743.124 461.916L791.386 479.517L790.179 482.853Z" fill="#4A5568"/>
<path d="M797.489 459.68L747.879 446.372L748.766 442.93L798.412 456.238L797.489 459.68Z" fill="#4A5568"/>
<path d="M802.777 435.939L752.173 427.032L752.776 423.519L803.38 432.462L802.777 435.939Z" fill="#4A5568"/>
<path d="M805.935 411.845L754.763 407.373L755.047 403.859L806.255 408.331L805.935 411.845Z" fill="#4A5568"/>
<path d="M807 384.022H755.615V387.571H807V384.022Z" fill="#4A5568"/>
<path d="M754.763 367.806L754.444 364.257L805.651 359.785L805.971 363.298L754.763 367.806Z" fill="#4A5568"/>
<path d="M752.173 348.145L751.57 344.668L802.174 335.725L802.777 339.238L752.173 348.145Z" fill="#4A5568"/>
<path d="M747.914 328.805L746.992 325.363L796.638 312.055L797.525 315.498L747.914 328.805Z" fill="#4A5568"/>
<path d="M741.953 309.89L740.746 306.555L789.044 288.989L790.25 292.324L741.953 309.89Z" fill="#4A5568"/>
<path d="M734.359 291.579L732.868 288.386L779.462 266.668L780.953 269.862L734.359 291.579Z" fill="#4A5568"/>
<path d="M725.238 274.013L723.464 270.961L767.964 245.233L769.739 248.321L725.238 274.013Z" fill="#4A5568"/>
<path d="M714.592 257.299L712.57 254.389L754.657 224.935L756.68 227.81L714.592 257.299Z" fill="#4A5568"/>
<path d="M702.527 241.578L700.256 238.846L739.61 205.843L741.917 208.54L702.527 241.578Z" fill="#4A5568"/>
<path d="M689.148 226.958L686.664 224.474L723.003 188.135L725.487 190.619L689.148 226.958Z" fill="#4A5568"/>
<path d="M674.563 213.579L671.831 211.308L704.869 171.918L707.601 174.224L674.563 213.579Z" fill="#4A5568"/>
<path d="M658.843 201.514L655.933 199.491L685.422 157.368L688.332 159.427L658.843 201.514Z" fill="#4A5568"/>
<path d="M642.128 190.868L639.077 189.093L664.769 144.593L667.821 146.367L642.128 190.868Z" fill="#4A5568"/>
<path d="M624.563 181.712L621.333 180.187L643.051 133.628L646.28 135.118L624.563 181.712Z" fill="#4A5568"/>
<path d="M606.251 174.118L602.916 172.911L620.517 124.614L623.853 125.821L606.251 174.118Z" fill="#4A5568"/>
<path d="M587.373 168.157L583.93 167.235L597.238 117.589L600.68 118.511L587.373 168.157Z" fill="#4A5568"/>
<path d="M568.032 163.863L564.519 163.224L573.462 112.62L576.939 113.259L568.032 163.863Z" fill="#4A5568"/>
<path d="M548.372 161.272L544.859 160.953L549.331 109.745L552.844 110.065L548.372 161.272Z" fill="#4A5568"/>
</svg>
